<?xml version="1.0" encoding="iso-8859-1"?>
<!-- Generator: Adobe Illustrator 16.0.0, SVG Export Plug-In . SVG Version: 6.00 Build 0)  -->
<!DOCTYPE svg PUBLIC "-//W3C//DTD SVG 1.1//EN" "http://www.w3.org/Graphics/SVG/1.1/DTD/svg11.dtd">
<svg version="1.1" id="Capa_1" xmlns="http://www.w3.org/2000/svg" xmlns:xlink="http://www.w3.org/1999/xlink" x="0px" y="0px"
	 width="612px" height="612px" viewBox="0 0 612 612" style="enable-background:new 0 0 612 612;" xml:space="preserve">
<g>
	<g id="_x34__5_">
		<g>
			<path d="M568.286,284.143v240.428c0,23.759-19.978,43.715-43.715,43.715l-438.585,0.721c-23.737,0-42.993-19.256-42.993-42.993
				l0.721-438.585c0-23.759,19.978-43.714,43.714-43.714h240.429V0H87.429C39.933,0,0,48.545,0,96.019v429.974
				C0,573.51,38.49,612,85.986,612H515.96c47.495,0,96.04-39.933,96.04-87.429V284.143H568.286z M240.429,240.429
				c0.021-12.131-9.727-21.879-21.857-21.857c-12.13,0.022-21.835,9.727-21.857,21.857v153
				c-0.022,12.131,9.727,21.879,21.857,21.857h153c12.131-0.022,21.835-9.727,21.857-21.857
				c0.021-12.131-9.727-21.879-21.857-21.857h-98.16L596.547,48.436c8.546-8.546,8.546-22.382,0-30.906
				c-8.546-8.546-22.382-8.546-30.906,0L240.429,342.742V240.429z"/>
		</g>
	</g>
</g>
<g>
</g>
<g>
</g>
<g>
</g>
<g>
</g>
<g>
</g>
<g>
</g>
<g>
</g>
<g>
</g>
<g>
</g>
<g>
</g>
<g>
</g>
<g>
</g>
<g>
</g>
<g>
</g>
<g>
</g>
</svg>
