<?xml version="1.0" encoding="iso-8859-1"?>
<!-- Generator: Adobe Illustrator 16.0.0, SVG Export Plug-In . SVG Version: 6.00 Build 0)  -->
<!DOCTYPE svg PUBLIC "-//W3C//DTD SVG 1.1//EN" "http://www.w3.org/Graphics/SVG/1.1/DTD/svg11.dtd">
<svg version="1.1" id="Capa_1" xmlns="http://www.w3.org/2000/svg" xmlns:xlink="http://www.w3.org/1999/xlink" x="0px" y="0px"
	 width="792px" height="792px" viewBox="0 0 792 792" style="enable-background:new 0 0 792 792;" xml:space="preserve">
<g>
	<g id="_x37__3_">
		<g>
			<path d="M580.799,0H211.2c-58.318,0-105.6,47.282-105.6,105.6v580.8c0,58.317,47.282,105.6,105.6,105.6L396,607.2L580.799,792
				c58.318,0,105.602-47.282,105.602-105.6V105.6C686.4,47.282,639.117,0,580.799,0z M633.6,686.4c0,29.146-23.629,52.8-52.801,52.8
				L396,554.4L211.2,739.2c-29.172,0-52.8-23.628-52.8-52.8V105.6c0-29.172,23.628-52.8,52.8-52.8h369.599
				c29.172,0,52.801,23.628,52.801,52.8V686.4z"/>
		</g>
	</g>
</g>
<g>
</g>
<g>
</g>
<g>
</g>
<g>
</g>
<g>
</g>
<g>
</g>
<g>
</g>
<g>
</g>
<g>
</g>
<g>
</g>
<g>
</g>
<g>
</g>
<g>
</g>
<g>
</g>
<g>
</g>
</svg>
