<?xml version="1.0" encoding="iso-8859-1"?>
<!-- Generator: Adobe Illustrator 16.0.0, SVG Export Plug-In . SVG Version: 6.00 Build 0)  -->
<!DOCTYPE svg PUBLIC "-//W3C//DTD SVG 1.1//EN" "http://www.w3.org/Graphics/SVG/1.1/DTD/svg11.dtd">
<svg version="1.1" id="Capa_1" xmlns="http://www.w3.org/2000/svg" xmlns:xlink="http://www.w3.org/1999/xlink" x="0px" y="0px"
	 width="792px" height="792px" viewBox="0 0 792 792" style="enable-background:new 0 0 792 792;" xml:space="preserve">
<g>
	<g id="_x31_0_18_">
		<g>
			<path d="M470.571,297h-0.321V24.75C470.25,11.088,459.162,0,445.5,0h-99c-13.662,0-24.75,11.088-24.75,24.75V297h-0.322
				c-49.945,0-73.928,44.327-73.928,99v396h297V396C544.5,341.327,519.255,297,470.571,297z M371.25,49.5h49.5V99h-49.5V49.5z
				 M371.25,148.5h49.5V297h-49.5V148.5z M495,742.5H297V396c0-27.349,22.151-49.5,49.5-49.5h99c27.349,0,49.5,22.151,49.5,49.5
				V742.5z"/>
		</g>
	</g>
</g>
<g>
</g>
<g>
</g>
<g>
</g>
<g>
</g>
<g>
</g>
<g>
</g>
<g>
</g>
<g>
</g>
<g>
</g>
<g>
</g>
<g>
</g>
<g>
</g>
<g>
</g>
<g>
</g>
<g>
</g>
</svg>
