<?xml version="1.0" encoding="iso-8859-1"?>
<!-- Generator: Adobe Illustrator 16.0.0, SVG Export Plug-In . SVG Version: 6.00 Build 0)  -->
<!DOCTYPE svg PUBLIC "-//W3C//DTD SVG 1.1//EN" "http://www.w3.org/Graphics/SVG/1.1/DTD/svg11.dtd">
<svg version="1.1" id="Capa_1" xmlns="http://www.w3.org/2000/svg" xmlns:xlink="http://www.w3.org/1999/xlink" x="0px" y="0px"
	 width="612px" height="612px" viewBox="0 0 612 612" style="enable-background:new 0 0 612 612;" xml:space="preserve">
<g>
	<g id="_x36__28_">
		<g>
			<path d="M372.938,267.75c-15.835,0-28.688,12.833-28.688,28.688c0,15.836,12.852,28.688,28.688,28.688
				c15.837,0,28.688-12.852,28.688-28.688C401.625,280.583,388.773,267.75,372.938,267.75z M248.625,286.875H191.25V229.5
				c0-10.557-8.568-19.125-19.125-19.125S153,218.943,153,229.5v57.375H95.625c-10.557,0-19.125,8.568-19.125,19.125
				c0,10.557,8.568,19.125,19.125,19.125H153V382.5c0,10.557,8.568,19.125,19.125,19.125s19.125-8.568,19.125-19.125v-57.375h57.375
				c10.557,0,19.125-8.568,19.125-19.125C267.75,295.443,259.182,286.875,248.625,286.875z M430.312,344.25
				c-15.836,0-28.688,12.833-28.688,28.688c0,15.837,12.852,28.688,28.688,28.688c15.836,0,28.688-12.853,28.688-28.688
				C459,357.103,446.148,344.25,430.312,344.25z M449.438,210.375c-15.835,0-28.688,12.852-28.688,28.688
				s12.852,28.688,28.688,28.688c15.837,0,28.688-12.852,28.688-28.688S465.273,210.375,449.438,210.375z M506.812,286.875
				c-15.836,0-28.688,12.852-28.688,28.688c0,15.837,12.852,28.688,28.688,28.688c15.836,0,28.688-12.852,28.688-28.688
				C535.5,299.727,522.648,286.875,506.812,286.875z M497.25,133.875h-382.5C51.37,133.875,0,185.245,0,248.625v114.75
				c0,63.38,51.37,114.75,114.75,114.75h382.5c63.38,0,114.75-51.37,114.75-114.75v-114.75
				C612,185.245,560.63,133.875,497.25,133.875z M573.75,363.375c0,42.247-34.253,76.5-76.5,76.5h-382.5
				c-42.247,0-76.5-34.253-76.5-76.5v-114.75c0-42.247,34.253-76.5,76.5-76.5h382.5c42.247,0,76.5,34.253,76.5,76.5V363.375z"/>
		</g>
	</g>
</g>
<g>
</g>
<g>
</g>
<g>
</g>
<g>
</g>
<g>
</g>
<g>
</g>
<g>
</g>
<g>
</g>
<g>
</g>
<g>
</g>
<g>
</g>
<g>
</g>
<g>
</g>
<g>
</g>
<g>
</g>
</svg>
