<?xml version="1.0" encoding="iso-8859-1"?>
<!-- Generator: Adobe Illustrator 16.0.0, SVG Export Plug-In . SVG Version: 6.00 Build 0)  -->
<!DOCTYPE svg PUBLIC "-//W3C//DTD SVG 1.1//EN" "http://www.w3.org/Graphics/SVG/1.1/DTD/svg11.dtd">
<svg version="1.1" id="Capa_1" xmlns="http://www.w3.org/2000/svg" xmlns:xlink="http://www.w3.org/1999/xlink" x="0px" y="0px"
	 width="792px" height="792px" viewBox="0 0 792 792" style="enable-background:new 0 0 792 792;" xml:space="preserve">
<g>
	<g id="_x38__29_">
		<g>
			<path d="M396,693c27.349,0,49.5-22.151,49.5-49.5S423.349,594,396,594s-49.5,22.151-49.5,49.5S368.651,693,396,693z M519.75,0
				h-247.5c-54.673,0-99,44.327-99,99v594c0,54.673,44.327,99,99,99h247.5c54.673,0,99-44.327,99-99V99
				C618.75,44.327,574.423,0,519.75,0z M569.25,693c0,27.349-22.176,49.5-49.5,49.5h-247.5c-27.349,0-49.5-22.151-49.5-49.5V544.5
				h346.5V693z M569.25,495h-346.5V173.25h346.5V495z M569.25,123.75h-346.5V99c0-27.349,22.151-49.5,49.5-49.5h247.5
				c27.324,0,49.5,22.176,49.5,49.5V123.75z"/>
		</g>
	</g>
</g>
<g>
</g>
<g>
</g>
<g>
</g>
<g>
</g>
<g>
</g>
<g>
</g>
<g>
</g>
<g>
</g>
<g>
</g>
<g>
</g>
<g>
</g>
<g>
</g>
<g>
</g>
<g>
</g>
<g>
</g>
</svg>
