<?xml version="1.0" encoding="iso-8859-1"?>
<!-- Generator: Adobe Illustrator 16.0.0, SVG Export Plug-In . SVG Version: 6.00 Build 0)  -->
<!DOCTYPE svg PUBLIC "-//W3C//DTD SVG 1.1//EN" "http://www.w3.org/Graphics/SVG/1.1/DTD/svg11.dtd">
<svg version="1.1" id="Capa_1" xmlns="http://www.w3.org/2000/svg" xmlns:xlink="http://www.w3.org/1999/xlink" x="0px" y="0px"
	 width="612px" height="612px" viewBox="0 0 612 612" style="enable-background:new 0 0 612 612;" xml:space="preserve">
<g>
	<g id="_x32__31_">
		<g>
			<path d="M454.027,38.25h138.848c10.557,0,19.125-8.568,19.125-19.125S603.432,0,592.875,0h-191.25
				C399.311,0,382.5,0,382.5,19.125v191.25c0,10.557,8.568,19.125,19.125,19.125s19.125-8.568,19.125-19.125V64.241
				c90.423,42.955,153,134.984,153,241.759c0,147.875-119.875,267.75-267.75,267.75C158.125,573.75,38.25,453.875,38.25,306
				c0-134.851,99.794-246.101,229.5-264.709V2.639C116.854,21.497,0,149.979,0,306c0,169.008,136.992,306,306,306
				s306-136.992,306-306C612,190.714,548.199,90.423,454.027,38.25z"/>
		</g>
	</g>
</g>
<g>
</g>
<g>
</g>
<g>
</g>
<g>
</g>
<g>
</g>
<g>
</g>
<g>
</g>
<g>
</g>
<g>
</g>
<g>
</g>
<g>
</g>
<g>
</g>
<g>
</g>
<g>
</g>
<g>
</g>
</svg>
