<?xml version="1.0" encoding="iso-8859-1"?>
<!-- Generator: Adobe Illustrator 16.0.0, SVG Export Plug-In . SVG Version: 6.00 Build 0)  -->
<!DOCTYPE svg PUBLIC "-//W3C//DTD SVG 1.1//EN" "http://www.w3.org/Graphics/SVG/1.1/DTD/svg11.dtd">
<svg version="1.1" id="Capa_1" xmlns="http://www.w3.org/2000/svg" xmlns:xlink="http://www.w3.org/1999/xlink" x="0px" y="0px"
	 width="612px" height="612px" viewBox="0 0 612 612" style="enable-background:new 0 0 612 612;" xml:space="preserve">
<g>
	<g id="_x39__32_">
		<g>
			<path d="M286.875,0h-38.25v57.375C109.414,72.484,0,191.767,0,334.688C0,487.841,124.16,612,277.312,612
				c112.952,0,209.954-67.646,253.196-164.532L573.75,459C594.653,424.671,612,375.94,612,316.939C612,141.888,459.096,0,286.875,0z
				 M277.312,573.75c-132.039,0-239.062-107.023-239.062-239.062c0-120.296,94.038-222.271,210.375-239.062v256.83l243.06,84.666
				C459.325,518.823,366.492,573.75,277.312,573.75z M546.038,413.368l-259.163-88.243V38.25
				c148.773-0.765,284.752,127.793,284.752,278.689C571.627,356.279,561.338,386.134,546.038,413.368z"/>
		</g>
	</g>
</g>
<g>
</g>
<g>
</g>
<g>
</g>
<g>
</g>
<g>
</g>
<g>
</g>
<g>
</g>
<g>
</g>
<g>
</g>
<g>
</g>
<g>
</g>
<g>
</g>
<g>
</g>
<g>
</g>
<g>
</g>
</svg>
