<?xml version="1.0" encoding="iso-8859-1"?>
<!-- Generator: Adobe Illustrator 16.0.0, SVG Export Plug-In . SVG Version: 6.00 Build 0)  -->
<!DOCTYPE svg PUBLIC "-//W3C//DTD SVG 1.1//EN" "http://www.w3.org/Graphics/SVG/1.1/DTD/svg11.dtd">
<svg version="1.1" id="Capa_1" xmlns="http://www.w3.org/2000/svg" xmlns:xlink="http://www.w3.org/1999/xlink" x="0px" y="0px"
	 width="612px" height="612px" viewBox="0 0 612 612" style="enable-background:new 0 0 612 612;" xml:space="preserve">
<g>
	<g id="_x39__8_">
		<g>
			<path d="M441.156,172.68c-28.075-56.935-86.521-96.18-154.281-96.18c-90.825,0-165.049,70.399-171.494,159.598
				C48.616,255.127,0,313.459,0,382.5c0,81.453,67.703,147.855,153,152.541c0,0,264.518,0.459,267.75,0.459
				C521.099,535.5,612,454.161,612,353.812C612,257.136,536.418,178.321,441.156,172.68z M420.75,497.25c-2.429,0-267.75,0-267.75,0
				S37.523,485.393,38.25,382.5C38.652,324.437,89.658,271.231,153,267.75c0-79.216,50.7-153,133.875-153
				c65.656,0,109.452,40.067,125.039,95.874c94.765-4.131,158.853,70.839,161.836,133.626
				C577.767,428.648,489.619,497.25,420.75,497.25z"/>
		</g>
	</g>
</g>
<g>
</g>
<g>
</g>
<g>
</g>
<g>
</g>
<g>
</g>
<g>
</g>
<g>
</g>
<g>
</g>
<g>
</g>
<g>
</g>
<g>
</g>
<g>
</g>
<g>
</g>
<g>
</g>
<g>
</g>
</svg>
