<?xml version="1.0" encoding="iso-8859-1"?>
<!-- Generator: Adobe Illustrator 16.0.0, SVG Export Plug-In . SVG Version: 6.00 Build 0)  -->
<!DOCTYPE svg PUBLIC "-//W3C//DTD SVG 1.1//EN" "http://www.w3.org/Graphics/SVG/1.1/DTD/svg11.dtd">
<svg version="1.1" id="Capa_1" xmlns="http://www.w3.org/2000/svg" xmlns:xlink="http://www.w3.org/1999/xlink" x="0px" y="0px"
	 width="612px" height="612px" viewBox="0 0 612 612" style="enable-background:new 0 0 612 612;" xml:space="preserve">
<g>
	<g id="_x31_0_38_">
		<g>
			<path d="M248.625,573.75c-10.557,0-19.125,8.568-19.125,19.125S238.068,612,248.625,612s19.125-8.568,19.125-19.125
				S259.182,573.75,248.625,573.75z M210.375,497.25c-10.557,0-19.125,8.568-19.125,19.125s8.568,19.125,19.125,19.125
				s19.125-8.568,19.125-19.125S220.932,497.25,210.375,497.25z M325.125,497.25c-10.557,0-19.125,8.568-19.125,19.125
				s8.568,19.125,19.125,19.125s19.125-8.568,19.125-19.125S335.682,497.25,325.125,497.25z M363.375,573.75
				c-10.557,0-19.125,8.568-19.125,19.125S352.818,612,363.375,612s19.125-8.568,19.125-19.125S373.932,573.75,363.375,573.75z
				 M441.156,96.18C413.081,39.245,354.635,0,286.875,0C196.05,0,121.826,70.399,115.381,159.598C48.616,178.627,0,236.959,0,306
				c0,81.453,67.703,148.314,153,153c0,0,283.643,0,286.875,0C533.645,459,612,377.661,612,277.312
				C612,172.259,536.418,101.821,441.156,96.18z M420.75,420.75c-2.429,0-248.625,0-248.625,0
				C76.309,419.66,38.25,346.392,38.25,306c0-52.173,46.34-110.734,114.75-114.75c-0.612-77.724,47.506-153,133.875-153
				c65.561,0,109.013,40.144,124.656,95.835c88.435-4.055,162.219,58.235,162.219,133.665
				C573.75,348.056,515.916,420.75,420.75,420.75z M439.875,497.25c-10.557,0-19.125,8.568-19.125,19.125
				s8.568,19.125,19.125,19.125S459,526.932,459,516.375S450.432,497.25,439.875,497.25z"/>
		</g>
	</g>
</g>
<g>
</g>
<g>
</g>
<g>
</g>
<g>
</g>
<g>
</g>
<g>
</g>
<g>
</g>
<g>
</g>
<g>
</g>
<g>
</g>
<g>
</g>
<g>
</g>
<g>
</g>
<g>
</g>
<g>
</g>
</svg>
