<?xml version="1.0" encoding="iso-8859-1"?>
<!-- Generator: Adobe Illustrator 16.0.0, SVG Export Plug-In . SVG Version: 6.00 Build 0)  -->
<!DOCTYPE svg PUBLIC "-//W3C//DTD SVG 1.1//EN" "http://www.w3.org/Graphics/SVG/1.1/DTD/svg11.dtd">
<svg version="1.1" id="Capa_1" xmlns="http://www.w3.org/2000/svg" xmlns:xlink="http://www.w3.org/1999/xlink" x="0px" y="0px"
	 width="612px" height="612px" viewBox="0 0 612 612" style="enable-background:new 0 0 612 612;" xml:space="preserve">
<g>
	<g id="_x38__16_">
		<g>
			<path d="M326.286,316.082c0-16.898-13.715-30.613-30.613-30.613s-30.612,13.714-30.612,30.613
				c0,16.897,13.714,30.611,30.612,30.611S326.286,332.979,326.286,316.082z M234.959,421.245l18.898-93.959l-35.347-20.409
				l-26.837,189.348l150.551-117.919l-35.348-20.407L234.959,421.245z M284.469,274.265l71.918-63.347l-18.897,93.959l35.347,20.409
				l26.837-189.347L249.123,253.857L284.469,274.265z M306,0C137,0,0,137,0,306s137,306,306,306s306-137,306-306S475,0,306,0z
				 M305.877,571.184c-146.53,0-265.306-118.775-265.306-265.306S159.347,40.571,305.877,40.571
				c146.531,0,265.306,118.775,265.306,265.306S452.408,571.184,305.877,571.184z"/>
		</g>
	</g>
</g>
<g>
</g>
<g>
</g>
<g>
</g>
<g>
</g>
<g>
</g>
<g>
</g>
<g>
</g>
<g>
</g>
<g>
</g>
<g>
</g>
<g>
</g>
<g>
</g>
<g>
</g>
<g>
</g>
<g>
</g>
</svg>
