<?xml version="1.0" encoding="iso-8859-1"?>
<!-- Generator: Adobe Illustrator 16.0.0, SVG Export Plug-In . SVG Version: 6.00 Build 0)  -->
<!DOCTYPE svg PUBLIC "-//W3C//DTD SVG 1.1//EN" "http://www.w3.org/Graphics/SVG/1.1/DTD/svg11.dtd">
<svg version="1.1" id="Capa_1" xmlns="http://www.w3.org/2000/svg" xmlns:xlink="http://www.w3.org/1999/xlink" x="0px" y="0px"
	 width="792px" height="792px" viewBox="0 0 792 792" style="enable-background:new 0 0 792 792;" xml:space="preserve">
<g>
	<g id="_x31_0_6_">
		<g>
			<path d="M402.336,396c0-170.8,110.855-315.909,265.914-371.473C624.765,8.935,577.986,0,528.957,0
				C305.167,0,123.75,177.309,123.75,396c0,218.716,181.417,396,405.207,396c49.029,0,95.808-8.935,139.293-24.527
				C513.191,711.909,402.336,566.8,402.336,396z M475.942,742.5C353.603,733.59,174.413,587.367,174.413,396
				S349.767,60.217,475.967,49.5c37.942-3.218,17.895-3.094,53.015,0C446.391,101.549,351.846,246.56,351.846,396
				s68.755,287.57,177.135,346.5C495.594,745.594,512.275,745.148,475.942,742.5z"/>
		</g>
	</g>
</g>
<g>
</g>
<g>
</g>
<g>
</g>
<g>
</g>
<g>
</g>
<g>
</g>
<g>
</g>
<g>
</g>
<g>
</g>
<g>
</g>
<g>
</g>
<g>
</g>
<g>
</g>
<g>
</g>
<g>
</g>
</svg>
