<?xml version="1.0" encoding="iso-8859-1"?>
<!-- Generator: Adobe Illustrator 16.0.0, SVG Export Plug-In . SVG Version: 6.00 Build 0)  -->
<!DOCTYPE svg PUBLIC "-//W3C//DTD SVG 1.1//EN" "http://www.w3.org/Graphics/SVG/1.1/DTD/svg11.dtd">
<svg version="1.1" id="Capa_1" xmlns="http://www.w3.org/2000/svg" xmlns:xlink="http://www.w3.org/1999/xlink" x="0px" y="0px"
	 width="612px" height="612px" viewBox="0 0 612 612" style="enable-background:new 0 0 612 612;" xml:space="preserve">
<g>
	<g id="_x35__24_">
		<g>
			<path d="M592.875,497.25H535.5V172.125l-38.25,38.25V497.25H140.989L558.698,61.219l-27.042-27.043L114.75,469.366V114.75
				h268.133l35.209-38.25H114.75V19.125C114.75,8.568,106.182,0,95.625,0S76.5,8.568,76.5,19.125V76.5H19.125
				C8.568,76.5,0,85.068,0,95.625s8.568,19.125,19.125,19.125H76.5v382.5v38.25h420.75v57.375c0,10.557,8.568,19.125,19.125,19.125
				s19.125-8.568,19.125-19.125V535.5h57.375c10.557,0,19.125-8.568,19.125-19.125S603.432,497.25,592.875,497.25z"/>
		</g>
	</g>
</g>
<g>
</g>
<g>
</g>
<g>
</g>
<g>
</g>
<g>
</g>
<g>
</g>
<g>
</g>
<g>
</g>
<g>
</g>
<g>
</g>
<g>
</g>
<g>
</g>
<g>
</g>
<g>
</g>
<g>
</g>
</svg>
