<?xml version="1.0" encoding="iso-8859-1"?>
<!-- Generator: Adobe Illustrator 16.0.0, SVG Export Plug-In . SVG Version: 6.00 Build 0)  -->
<!DOCTYPE svg PUBLIC "-//W3C//DTD SVG 1.1//EN" "http://www.w3.org/Graphics/SVG/1.1/DTD/svg11.dtd">
<svg version="1.1" id="Capa_1" xmlns="http://www.w3.org/2000/svg" xmlns:xlink="http://www.w3.org/1999/xlink" x="0px" y="0px"
	 width="612px" height="612px" viewBox="0 0 612 612" style="enable-background:new 0 0 612 612;" xml:space="preserve">
<g>
	<g id="_x38__30_">
		<g>
			<path d="M444.644,306l138.644-138.644c38.284-38.284,38.284-100.36,0-138.644c-38.283-38.284-100.359-38.284-138.644,0
				L306,167.356L167.356,28.713c-38.284-38.284-100.36-38.284-138.644,0s-38.284,100.36,0,138.644L167.356,306L28.713,444.644
				c-38.284,38.283-38.284,100.36,0,138.644c38.284,38.284,100.36,38.284,138.644,0L306,444.644l138.644,138.644
				c38.283,38.284,100.36,38.284,138.644,0c38.284-38.283,38.284-100.36,0-138.644L444.644,306z M548.626,548.626
				c-19.142,19.143-50.18,19.143-69.321,0L306,375.322L132.695,548.626c-19.142,19.143-50.18,19.143-69.322,0
				c-19.142-19.142-19.142-50.18,0-69.321L236.678,306L63.374,132.695c-19.142-19.142-19.142-50.18,0-69.322
				c19.142-19.142,50.18-19.142,69.322,0L306,236.678L479.305,63.374c19.142-19.142,50.18-19.142,69.321,0
				c19.143,19.142,19.143,50.18,0,69.322L375.322,306l173.304,173.305C567.769,498.446,567.769,529.484,548.626,548.626z"/>
		</g>
	</g>
</g>
<g>
</g>
<g>
</g>
<g>
</g>
<g>
</g>
<g>
</g>
<g>
</g>
<g>
</g>
<g>
</g>
<g>
</g>
<g>
</g>
<g>
</g>
<g>
</g>
<g>
</g>
<g>
</g>
<g>
</g>
</svg>
