<?xml version="1.0" encoding="iso-8859-1"?>
<!-- Generator: Adobe Illustrator 16.0.0, SVG Export Plug-In . SVG Version: 6.00 Build 0)  -->
<!DOCTYPE svg PUBLIC "-//W3C//DTD SVG 1.1//EN" "http://www.w3.org/Graphics/SVG/1.1/DTD/svg11.dtd">
<svg version="1.1" id="Capa_1" xmlns="http://www.w3.org/2000/svg" xmlns:xlink="http://www.w3.org/1999/xlink" x="0px" y="0px"
	 width="612px" height="612px" viewBox="0 0 612 612" style="enable-background:new 0 0 612 612;" xml:space="preserve">
<g>
	<g id="_x33__3_">
		<g>
			<path d="M400.669,211.331c-7.479-7.478-19.584-7.478-27.043,0L306,278.957l-67.626-67.626c-7.478-7.478-19.584-7.478-27.043,0
				c-7.478,7.478-7.478,19.584,0,27.043L278.957,306l-67.626,67.626c-7.478,7.478-7.478,19.584,0,27.043
				c7.478,7.478,19.584,7.478,27.043,0L306,333.043l67.626,67.606c7.478,7.479,19.584,7.479,27.043,0
				c7.478-7.478,7.478-19.584,0-27.043L333.043,306l67.626-67.607C408.128,230.915,408.128,218.809,400.669,211.331z M535.5,0h-459
				C34.253,0,0,34.253,0,76.5v459C0,577.747,34.253,612,76.5,612h459c42.247,0,76.5-34.253,76.5-76.5v-459
				C612,34.253,577.747,0,535.5,0z M573.75,535.5c0,21.133-17.117,38.25-38.25,38.25h-459c-21.133,0-38.25-17.117-38.25-38.25v-459
				c0-21.133,17.117-38.25,38.25-38.25h459c21.133,0,38.25,17.136,38.25,38.25V535.5z"/>
		</g>
	</g>
</g>
<g>
</g>
<g>
</g>
<g>
</g>
<g>
</g>
<g>
</g>
<g>
</g>
<g>
</g>
<g>
</g>
<g>
</g>
<g>
</g>
<g>
</g>
<g>
</g>
<g>
</g>
<g>
</g>
<g>
</g>
</svg>
