<?xml version="1.0" encoding="iso-8859-1"?>
<!-- Generator: Adobe Illustrator 16.0.0, SVG Export Plug-In . SVG Version: 6.00 Build 0)  -->
<!DOCTYPE svg PUBLIC "-//W3C//DTD SVG 1.1//EN" "http://www.w3.org/Graphics/SVG/1.1/DTD/svg11.dtd">
<svg version="1.1" id="Capa_1" xmlns="http://www.w3.org/2000/svg" xmlns:xlink="http://www.w3.org/1999/xlink" x="0px" y="0px"
	 width="699.428px" height="699.428px" viewBox="0 0 699.428 699.428" style="enable-background:new 0 0 699.428 699.428;"
	 xml:space="preserve">
<g>
	<g id="_x39__7_">
		<g>
			<path d="M182.354,409.975l150.814,150.814c4.546,4.547,10.601,6.492,16.546,6.186c5.967,0.307,12-1.639,16.546-6.186
				l150.792-150.814c8.547-8.523,8.547-22.383,0-30.906c-8.523-8.547-22.381-8.547-30.905,0L371.571,493.666V21.857
				C371.571,9.792,361.779,0,349.714,0c-12.065,0-21.857,9.792-21.857,21.857v471.809L213.26,379.068
				c-8.524-8.547-22.382-8.547-30.906,0C173.83,387.615,173.83,401.451,182.354,409.975z M568.285,87.429h-65.571v43.714h65.571
				c24.131,0,43.715,19.562,43.715,43.714V612c0,24.152-19.584,43.715-43.715,43.715H131.143c-24.152,0-43.714-19.562-43.714-43.715
				V174.857c0-24.152,19.562-43.714,43.714-43.714h65.571V87.429h-65.571c-48.283,0-87.429,39.146-87.429,87.428V612
				c0,48.283,39.146,87.428,87.429,87.428h437.143c48.282,0,87.429-39.145,87.429-87.428V174.857
				C655.714,126.575,616.567,87.429,568.285,87.429z"/>
		</g>
	</g>
</g>
<g>
</g>
<g>
</g>
<g>
</g>
<g>
</g>
<g>
</g>
<g>
</g>
<g>
</g>
<g>
</g>
<g>
</g>
<g>
</g>
<g>
</g>
<g>
</g>
<g>
</g>
<g>
</g>
<g>
</g>
</svg>
