<?xml version="1.0" encoding="iso-8859-1"?>
<!-- Generator: Adobe Illustrator 16.0.0, SVG Export Plug-In . SVG Version: 6.00 Build 0)  -->
<!DOCTYPE svg PUBLIC "-//W3C//DTD SVG 1.1//EN" "http://www.w3.org/Graphics/SVG/1.1/DTD/svg11.dtd">
<svg version="1.1" id="Capa_1" xmlns="http://www.w3.org/2000/svg" xmlns:xlink="http://www.w3.org/1999/xlink" x="0px" y="0px"
	 width="612px" height="612px" viewBox="0 0 612 612" style="enable-background:new 0 0 612 612;" xml:space="preserve">
<g>
	<g id="_x32__40_">
		<g>
			<path d="M291.159,452.995c3.997,4.016,9.313,5.718,14.535,5.45c5.241,0.268,10.538-1.435,14.535-5.45l94.517-114.387
				c7.497-7.517,7.497-19.718,0-27.234c-7.497-7.516-19.661-7.516-27.158,0l-62.462,75.62V95.625
				c0-10.557-8.568-19.125-19.125-19.125c-10.557,0-19.125,8.568-19.125,19.125v292.096l-63.074-76.347
				c-7.497-7.516-19.661-7.516-27.158,0c-7.497,7.517-7.497,19.718,0,27.234L291.159,452.995z M535.5,0h-459
				C34.253,0,0,34.253,0,76.5v459C0,577.747,34.253,612,76.5,612h459c42.247,0,76.5-34.253,76.5-76.5v-459
				C612,34.253,577.747,0,535.5,0z M573.75,535.5c0,21.133-17.117,38.25-38.25,38.25h-459c-21.133,0-38.25-17.136-38.25-38.25v-459
				c0-21.133,17.117-38.25,38.25-38.25h459c21.133,0,38.25,17.117,38.25,38.25V535.5z M478.125,497.25h-344.25
				c-10.557,0-19.125,8.568-19.125,19.125s8.568,19.125,19.125,19.125h344.25c10.557,0,19.125-8.568,19.125-19.125
				S488.682,497.25,478.125,497.25z"/>
		</g>
	</g>
</g>
<g>
</g>
<g>
</g>
<g>
</g>
<g>
</g>
<g>
</g>
<g>
</g>
<g>
</g>
<g>
</g>
<g>
</g>
<g>
</g>
<g>
</g>
<g>
</g>
<g>
</g>
<g>
</g>
<g>
</g>
</svg>
