<?xml version="1.0" encoding="iso-8859-1"?>
<!-- Generator: Adobe Illustrator 16.0.0, SVG Export Plug-In . SVG Version: 6.00 Build 0)  -->
<!DOCTYPE svg PUBLIC "-//W3C//DTD SVG 1.1//EN" "http://www.w3.org/Graphics/SVG/1.1/DTD/svg11.dtd">
<svg version="1.1" id="Capa_1" xmlns="http://www.w3.org/2000/svg" xmlns:xlink="http://www.w3.org/1999/xlink" x="0px" y="0px"
	 width="612px" height="612px" viewBox="0 0 612 612" style="enable-background:new 0 0 612 612;" xml:space="preserve">
<g>
	<g id="_x35__36_">
		<g>
			<path d="M535.5,95.625h-459c-42.247,0-76.5,34.253-76.5,76.5v267.75c0,42.247,34.253,76.5,76.5,76.5h459
				c42.247,0,76.5-34.253,76.5-76.5v-267.75C612,129.878,577.747,95.625,535.5,95.625z M573.75,439.875
				c0,21.133-17.117,38.25-38.25,38.25h-459c-21.133,0-38.25-17.117-38.25-38.25v-267.75c0-21.133,17.117-38.25,38.25-38.25h459
				c21.133,0,38.25,17.117,38.25,38.25V439.875z M95.625,286.875c-10.557,0-19.125,8.568-19.125,19.125
				c0,10.557,8.568,19.125,19.125,19.125S114.75,316.557,114.75,306C114.75,295.443,106.182,286.875,95.625,286.875z
				 M95.625,363.375c-10.557,0-19.125,8.568-19.125,19.125s8.568,19.125,19.125,19.125s19.125-8.568,19.125-19.125
				S106.182,363.375,95.625,363.375z M516.375,363.375c-10.557,0-19.125,8.568-19.125,19.125s8.568,19.125,19.125,19.125
				S535.5,393.057,535.5,382.5S526.932,363.375,516.375,363.375z M516.375,286.875c-10.557,0-19.125,8.568-19.125,19.125
				c0,10.557,8.568,19.125,19.125,19.125S535.5,316.557,535.5,306C535.5,295.443,526.932,286.875,516.375,286.875z M439.875,172.125
				h-267.75c-10.557,0-19.125,8.568-19.125,19.125v229.5c0,10.557,8.568,19.125,19.125,19.125h267.75
				c10.557,0,19.125-8.568,19.125-19.125v-229.5C459,180.693,450.432,172.125,439.875,172.125z M420.75,382.5
				c0,10.557-8.568,19.125-19.125,19.125h-191.25c-10.557,0-19.125-8.568-19.125-19.125v-153c0-10.557,8.568-19.125,19.125-19.125
				h191.25c10.557,0,19.125,8.568,19.125,19.125V382.5z"/>
		</g>
	</g>
</g>
<g>
</g>
<g>
</g>
<g>
</g>
<g>
</g>
<g>
</g>
<g>
</g>
<g>
</g>
<g>
</g>
<g>
</g>
<g>
</g>
<g>
</g>
<g>
</g>
<g>
</g>
<g>
</g>
<g>
</g>
</svg>
