<?xml version="1.0" encoding="iso-8859-1"?>
<!-- Generator: Adobe Illustrator 16.0.0, SVG Export Plug-In . SVG Version: 6.00 Build 0)  -->
<!DOCTYPE svg PUBLIC "-//W3C//DTD SVG 1.1//EN" "http://www.w3.org/Graphics/SVG/1.1/DTD/svg11.dtd">
<svg version="1.1" id="Capa_1" xmlns="http://www.w3.org/2000/svg" xmlns:xlink="http://www.w3.org/1999/xlink" x="0px" y="0px"
	 width="612px" height="612px" viewBox="0 0 612 612" style="enable-background:new 0 0 612 612;" xml:space="preserve">
<g>
	<g id="_x31__9_">
		<g>
			<path d="M363.375,286.875h-76.5l29.721-79.732c4.035-9.754-0.612-20.942-10.385-24.978c-9.773-4.035-20.942,0.612-24.978,10.385
				l-43.777,106.067c-2.084,5.049-1.779,10.442,0.287,15.051c2.792,7.114,9.62,12.202,17.729,12.202l81.587-0.574l-48.634,86.254
				c-4.15,10.021-0.096,21.841,9.065,26.393c9.161,4.552,19.947,0.096,24.117-9.926c0,0,60.894-110.677,60.894-122.018
				C382.5,295.443,373.932,286.875,363.375,286.875z M441.156,172.68c-28.075-56.935-86.521-96.18-154.281-96.18
				c-90.825,0-165.049,70.399-171.494,159.598C48.616,255.127,0,313.459,0,382.5c0,81.453,67.703,147.855,153,152.541
				c0,0,264.518,0.459,267.75,0.459C521.099,535.5,612,454.161,612,353.812C612,257.136,536.418,178.321,441.156,172.68z
				 M420.75,497.25c-2.429,0-267.75,0-267.75,0S37.523,485.393,38.25,382.5C38.652,324.437,92.029,272.531,153,267.75
				c0-79.216,50.7-153,133.875-153c65.656,0,109.452,40.067,125.039,95.874c94.765-4.131,158.853,70.839,161.836,133.626
				C577.767,428.648,489.619,497.25,420.75,497.25z"/>
		</g>
	</g>
</g>
<g>
</g>
<g>
</g>
<g>
</g>
<g>
</g>
<g>
</g>
<g>
</g>
<g>
</g>
<g>
</g>
<g>
</g>
<g>
</g>
<g>
</g>
<g>
</g>
<g>
</g>
<g>
</g>
<g>
</g>
</svg>
