<?xml version="1.0" encoding="iso-8859-1"?>
<!-- Generator: Adobe Illustrator 16.0.0, SVG Export Plug-In . SVG Version: 6.00 Build 0)  -->
<!DOCTYPE svg PUBLIC "-//W3C//DTD SVG 1.1//EN" "http://www.w3.org/Graphics/SVG/1.1/DTD/svg11.dtd">
<svg version="1.1" id="Capa_1" xmlns="http://www.w3.org/2000/svg" xmlns:xlink="http://www.w3.org/1999/xlink" x="0px" y="0px"
	 width="652.801px" height="652.801px" viewBox="0 0 652.801 652.801" style="enable-background:new 0 0 652.801 652.801;"
	 xml:space="preserve">
<g>
	<g id="_x35__9_">
		<g>
			<path d="M550.801,0H102C56.937,0,20.4,36.536,20.4,81.6v489.599c0,45.064,36.537,81.602,81.6,81.602h448.8
				c45.063,0,81.6-36.537,81.6-81.602V81.6C632.4,36.536,595.864,0,550.801,0z M102,40.8h448.8c8.119,0,15.646,2.448,22.012,6.528
				L489.601,122.4H163.2L79.989,47.328C86.354,43.248,93.881,40.8,102,40.8z M591.601,571.199c0,22.543-18.258,40.801-40.8,40.801
				H102c-22.542,0-40.8-18.279-40.8-40.801V86.108l81.6,77.091H510l81.601-77.071V571.199z"/>
		</g>
	</g>
</g>
<g>
</g>
<g>
</g>
<g>
</g>
<g>
</g>
<g>
</g>
<g>
</g>
<g>
</g>
<g>
</g>
<g>
</g>
<g>
</g>
<g>
</g>
<g>
</g>
<g>
</g>
<g>
</g>
<g>
</g>
</svg>
