<?xml version="1.0" encoding="iso-8859-1"?>
<!-- Generator: Adobe Illustrator 16.0.0, SVG Export Plug-In . SVG Version: 6.00 Build 0)  -->
<!DOCTYPE svg PUBLIC "-//W3C//DTD SVG 1.1//EN" "http://www.w3.org/Graphics/SVG/1.1/DTD/svg11.dtd">
<svg version="1.1" id="Capa_1" xmlns="http://www.w3.org/2000/svg" xmlns:xlink="http://www.w3.org/1999/xlink" x="0px" y="0px"
	 width="783.359px" height="783.359px" viewBox="0 0 783.359 783.359" style="enable-background:new 0 0 783.359 783.359;"
	 xml:space="preserve">
<g>
	<g id="_x33__25_">
		<g>
			<path d="M648.72,171.36H501.84V122.4c0-27.05-21.91-48.96-48.96-48.96H232.56V48.96C232.56,21.934,210.65,0,183.6,0h-48.96
				c-27.026,0-48.96,21.91-48.96,48.96V734.4c0,27.051,21.934,48.959,48.96,48.959h48.96c27.05,0,48.96-21.908,48.96-48.959V514.08
				h220.32v24.48c0,27.025,23.011,48.959,48.96,48.959h146.88c27.051,0,48.96-21.908,48.96-48.959V220.32
				C697.68,193.27,675.771,171.36,648.72,171.36z M183.6,709.92c0,13.514-10.967,24.48-24.48,24.48
				c-13.513,0-24.48-10.967-24.48-24.48V73.44c0-13.513,10.967-24.479,24.48-24.479c13.513,0,24.48,10.967,24.48,24.479V709.92z
				 M452.88,440.641c0,13.512-10.967,24.48-24.48,24.48H232.56V122.4h195.84c13.514,0,24.48,10.967,24.48,24.48V440.641z
				 M648.72,514.08c0,13.514-10.967,24.48-24.48,24.48H501.84V220.32h122.399c13.514,0,24.48,10.967,24.48,24.48V514.08z"/>
		</g>
	</g>
</g>
<g>
</g>
<g>
</g>
<g>
</g>
<g>
</g>
<g>
</g>
<g>
</g>
<g>
</g>
<g>
</g>
<g>
</g>
<g>
</g>
<g>
</g>
<g>
</g>
<g>
</g>
<g>
</g>
<g>
</g>
</svg>
