<?xml version="1.0" encoding="iso-8859-1"?>
<!-- Generator: Adobe Illustrator 16.0.0, SVG Export Plug-In . SVG Version: 6.00 Build 0)  -->
<!DOCTYPE svg PUBLIC "-//W3C//DTD SVG 1.1//EN" "http://www.w3.org/Graphics/SVG/1.1/DTD/svg11.dtd">
<svg version="1.1" id="Capa_1" xmlns="http://www.w3.org/2000/svg" xmlns:xlink="http://www.w3.org/1999/xlink" x="0px" y="0px"
	 width="612px" height="612px" viewBox="0 0 612 612" style="enable-background:new 0 0 612 612;" xml:space="preserve">
<g>
	<g id="_x36__38_">
		<g>
			<path d="M535.5,76.5H267.75c0-42.247-34.253-76.5-76.5-76.5H76.5C34.253,0,0,34.253,0,76.5v459C0,577.747,34.253,612,76.5,612
				h459c42.247,0,76.5-34.253,76.5-76.5V153C612,110.753,577.747,76.5,535.5,76.5z M573.75,535.5c0,21.133-17.117,38.25-38.25,38.25
				h-459c-21.133,0-38.25-17.136-38.25-38.25v-306h535.5V535.5z M573.75,191.25H38.25V76.5c0-21.133,17.117-38.25,38.25-38.25
				h114.75c21.133,0,38.25,17.117,38.25,38.25v38.25h306c21.133,0,38.25,17.136,38.25,38.25V191.25z"/>
		</g>
	</g>
</g>
<g>
</g>
<g>
</g>
<g>
</g>
<g>
</g>
<g>
</g>
<g>
</g>
<g>
</g>
<g>
</g>
<g>
</g>
<g>
</g>
<g>
</g>
<g>
</g>
<g>
</g>
<g>
</g>
<g>
</g>
</svg>
