<?xml version="1.0" encoding="iso-8859-1"?>
<!-- Generator: Adobe Illustrator 16.0.0, SVG Export Plug-In . SVG Version: 6.00 Build 0)  -->
<!DOCTYPE svg PUBLIC "-//W3C//DTD SVG 1.1//EN" "http://www.w3.org/Graphics/SVG/1.1/DTD/svg11.dtd">
<svg version="1.1" id="Capa_1" xmlns="http://www.w3.org/2000/svg" xmlns:xlink="http://www.w3.org/1999/xlink" x="0px" y="0px"
	 width="753.23px" height="753.23px" viewBox="0 0 753.23 753.23" style="enable-background:new 0 0 753.23 753.23;"
	 xml:space="preserve">
<g>
	<g id="_x37__36_">
		<g>
			<path d="M423.692,612c-12.993,0-23.539,10.545-23.539,23.538s10.546,23.539,23.539,23.539s23.538-10.546,23.538-23.539
				S436.686,612,423.692,612z M447.23,517.846c-12.993,0-23.538,10.546-23.538,23.539s10.545,23.538,23.538,23.538
				s23.539-10.545,23.539-23.538S460.224,517.846,447.23,517.846z M282.461,564.923h-23.539v-23.538
				c0-12.993-10.545-23.539-23.539-23.539c-12.993,0-23.538,10.546-23.538,23.539v23.538h-23.539
				c-12.993,0-23.539,10.545-23.539,23.538c0,12.994,10.545,23.539,23.539,23.539h23.539v23.538
				c0,12.993,10.545,23.539,23.538,23.539c12.994,0,23.539-10.546,23.539-23.539V612h23.539C295.455,612,306,601.455,306,588.461
				C306,575.468,295.455,564.923,282.461,564.923z M588.461,0H164.769c-51.997,0-94.154,42.157-94.154,94.154v564.923
				c0,51.996,42.157,94.153,94.154,94.153h423.692c51.997,0,94.154-42.157,94.154-94.153V94.154C682.615,42.157,640.458,0,588.461,0
				z M635.538,659.077c0,25.986-21.066,47.076-47.077,47.076H164.769c-26.01,0-47.077-21.09-47.077-47.076V94.154
				c0-26.01,21.067-47.077,47.077-47.077h423.692c26.011,0,47.077,21.067,47.077,47.077V659.077z M541.385,612
				c-12.993,0-23.539,10.545-23.539,23.538s10.546,23.539,23.539,23.539s23.538-10.546,23.538-23.539S554.378,612,541.385,612z
				 M541.385,94.154H211.846c-26.01,0-47.077,21.067-47.077,47.077v282.462c0,25.986,21.067,47.077,47.077,47.077h329.539
				c26.01,0,47.076-21.091,47.076-47.077V141.23C588.461,115.221,567.395,94.154,541.385,94.154z M541.385,400.153
				c0,12.993-10.546,23.539-23.539,23.539H235.384c-12.993,0-23.538-10.546-23.538-23.539V164.769
				c0-12.993,10.545-23.539,23.538-23.539h282.461c12.993,0,23.539,10.545,23.539,23.539V400.153z M564.923,517.846
				c-12.993,0-23.538,10.546-23.538,23.539s10.545,23.538,23.538,23.538s23.538-10.545,23.538-23.538
				S577.916,517.846,564.923,517.846z"/>
		</g>
	</g>
</g>
<g>
</g>
<g>
</g>
<g>
</g>
<g>
</g>
<g>
</g>
<g>
</g>
<g>
</g>
<g>
</g>
<g>
</g>
<g>
</g>
<g>
</g>
<g>
</g>
<g>
</g>
<g>
</g>
<g>
</g>
</svg>
