<?xml version="1.0" encoding="iso-8859-1"?>
<!-- Generator: Adobe Illustrator 16.0.0, SVG Export Plug-In . SVG Version: 6.00 Build 0)  -->
<!DOCTYPE svg PUBLIC "-//W3C//DTD SVG 1.1//EN" "http://www.w3.org/Graphics/SVG/1.1/DTD/svg11.dtd">
<svg version="1.1" id="Capa_1" xmlns="http://www.w3.org/2000/svg" xmlns:xlink="http://www.w3.org/1999/xlink" x="0px" y="0px"
	 width="612px" height="612px" viewBox="0 0 612 612" style="enable-background:new 0 0 612 612;" xml:space="preserve">
<g>
	<g id="_x31__27_">
		<g>
			<path d="M573.75,114.75H429.261c6.579-11.284,10.614-24.25,10.614-38.25c0-42.247-34.253-76.5-76.5-76.5
				C340.387,0,320.019,10.347,306,26.393C291.981,10.347,271.613,0,248.625,0c-42.247,0-76.5,34.253-76.5,76.5
				c0,14,4.035,26.966,10.614,38.25H38.25C17.117,114.75,0,131.886,0,153v38.25c0,21.114,17.117,38.25,38.25,38.25v306
				c0,42.247,34.253,76.5,76.5,76.5h382.5c42.247,0,76.5-34.253,76.5-76.5v-306c21.114,0,38.25-17.117,38.25-38.25V153
				C612,131.886,594.883,114.75,573.75,114.75z M363.375,38.25c21.133,0,38.25,17.117,38.25,38.25
				c0,21.114-17.117,38.25-38.25,38.25s-38.25-17.117-38.25-38.25C325.125,55.386,342.242,38.25,363.375,38.25z M248.625,38.25
				c21.133,0,38.25,17.117,38.25,38.25c0,21.114-17.117,38.25-38.25,38.25s-38.25-17.117-38.25-38.25
				C210.375,55.386,227.492,38.25,248.625,38.25z M286.875,573.75H114.75c-21.133,0-38.25-17.136-38.25-38.25V420.75h210.375V573.75
				z M286.875,382.5H76.5v-153h210.375V382.5z M535.5,535.5c0,21.133-17.136,38.25-38.25,38.25H325.125v-153H535.5V535.5z
				 M535.5,382.5H325.125v-153H535.5V382.5z M554.625,191.25H57.375c-10.557,0-19.125-8.568-19.125-19.125S46.818,153,57.375,153
				h497.25c10.557,0,19.125,8.568,19.125,19.125S565.182,191.25,554.625,191.25z"/>
		</g>
	</g>
</g>
<g>
</g>
<g>
</g>
<g>
</g>
<g>
</g>
<g>
</g>
<g>
</g>
<g>
</g>
<g>
</g>
<g>
</g>
<g>
</g>
<g>
</g>
<g>
</g>
<g>
</g>
<g>
</g>
<g>
</g>
</svg>
