<?xml version="1.0" encoding="iso-8859-1"?>
<!-- Generator: Adobe Illustrator 16.0.0, SVG Export Plug-In . SVG Version: 6.00 Build 0)  -->
<!DOCTYPE svg PUBLIC "-//W3C//DTD SVG 1.1//EN" "http://www.w3.org/Graphics/SVG/1.1/DTD/svg11.dtd">
<svg version="1.1" id="Capa_1" xmlns="http://www.w3.org/2000/svg" xmlns:xlink="http://www.w3.org/1999/xlink" x="0px" y="0px"
	 width="612px" height="612px" viewBox="0 0 612 612" style="enable-background:new 0 0 612 612;" xml:space="preserve">
<g>
	<g id="_x38__20_">
		<g>
			<path d="M572.564,277.714c0.535-6.464,1.186-12.928,1.186-19.526C573.75,115.591,453.875,0,306,0
				C158.125,0,38.25,115.591,38.25,258.188c0,6.617,0.65,13.062,1.186,19.526C16.027,290.795,0,315.524,0,344.25V459
				c0,42.247,34.253,76.5,76.5,76.5c0,0,76.577,0.096,76.5,0c40.641-1.798,76.5-35.4,76.5-76.5V344.25
				c0-42.247-34.253-76.5-76.5-76.5c0,0-72.312,0-76.5,0c0-127.449,102.759-229.5,229.5-229.5s229.5,93.101,229.5,229.5
				c-4.188,0-76.5,0-76.5,0c-42.247,0-76.5,34.253-76.5,76.5V459c0,41.1,35.859,74.702,76.5,76.5c-0.076,0.115,38.25,0,38.25,0
				v57.375c0,10.557,8.568,19.125,19.125,19.125s19.125-8.568,19.125-19.125V535.5l0,0c42.247,0,76.5-34.253,76.5-76.5V344.25
				C612,315.524,595.974,290.795,572.564,277.714z M128.941,306H153c21.114,0,38.25,17.117,38.25,38.25V459
				c0,21.114-17.117,38.25-38.25,38.25h-16.696c-13.483-31.308-21.554-66.938-21.554-105.188
				C114.75,361.405,120.067,332.507,128.941,306z M76.5,306h12.011C80.994,332.756,76.5,361.597,76.5,392.062
				c0,37.887,6.713,73.401,18.054,105.188H76.5c-21.133,0-38.25-17.136-38.25-38.25V344.25C38.25,323.117,55.367,306,76.5,306z
				 M475.696,497.25H459c-21.133,0-38.25-17.136-38.25-38.25V344.25c0-21.133,17.117-38.25,38.25-38.25h24.06
				c8.874,26.507,14.19,55.405,14.19,86.062C497.25,430.312,489.18,465.942,475.696,497.25z M573.75,459
				c0,21.114-17.117,38.25-38.25,38.25h-18.054c11.341-31.786,18.054-67.301,18.054-105.188c0-30.466-4.494-59.307-12.011-86.062
				H535.5c21.133,0,38.25,17.117,38.25,38.25V459z"/>
		</g>
	</g>
</g>
<g>
</g>
<g>
</g>
<g>
</g>
<g>
</g>
<g>
</g>
<g>
</g>
<g>
</g>
<g>
</g>
<g>
</g>
<g>
</g>
<g>
</g>
<g>
</g>
<g>
</g>
<g>
</g>
<g>
</g>
</svg>
