<?xml version="1.0" encoding="iso-8859-1"?>
<!-- Generator: Adobe Illustrator 16.0.0, SVG Export Plug-In . SVG Version: 6.00 Build 0)  -->
<!DOCTYPE svg PUBLIC "-//W3C//DTD SVG 1.1//EN" "http://www.w3.org/Graphics/SVG/1.1/DTD/svg11.dtd">
<svg version="1.1" id="Capa_1" xmlns="http://www.w3.org/2000/svg" xmlns:xlink="http://www.w3.org/1999/xlink" x="0px" y="0px"
	 width="753.23px" height="753.23px" viewBox="0 0 753.23 753.23" style="enable-background:new 0 0 753.23 753.23;"
	 xml:space="preserve">
<g>
	<g id="_x37__15_">
		<g>
			<path d="M609.764,163.663C506.548,193.086,487.646,276.53,494.308,329.538C420.68,242.987,423.692,143.42,423.692,0
				C187.531,89.046,242.446,345.733,235.384,423.692c-59.387-48.631-70.615-164.77-70.615-164.77
				c-62.707,32.271-94.154,118.422-94.154,188.308c0,169.006,136.994,306,306,306c169.006,0,306-136.994,306-306
				C682.615,346.792,608.869,300.468,609.764,163.663z M388.385,706.153c-149.493,0-270.692-126.143-270.692-267.75
				c0-32.906,0.729-59.575,23.538-85.327c-2.495,14.9,32.883,142.526,148.41,135.84c-5.014-96.955-31.235-334.481,90.576-416.583
				c-10.781,129.085,20.831,302.493,161.851,327.82c-8.074-51.761-7.133-137.888,29.141-153.8
				c3.884,79.301,62.541,128.237,62.541,204.455C633.749,588.814,500.216,706.153,388.385,706.153z"/>
		</g>
	</g>
</g>
<g>
</g>
<g>
</g>
<g>
</g>
<g>
</g>
<g>
</g>
<g>
</g>
<g>
</g>
<g>
</g>
<g>
</g>
<g>
</g>
<g>
</g>
<g>
</g>
<g>
</g>
<g>
</g>
<g>
</g>
</svg>
