<?xml version="1.0" encoding="UTF-8" standalone="no"?>
<!-- Generator: Adobe Illustrator 17.1.0, SVG Export Plug-In . SVG Version: 6.00 Build 0)  -->

<svg
   xmlns:dc="http://purl.org/dc/elements/1.1/"
   xmlns:cc="http://creativecommons.org/ns#"
   xmlns:rdf="http://www.w3.org/1999/02/22-rdf-syntax-ns#"
   xmlns:svg="http://www.w3.org/2000/svg"
   xmlns="http://www.w3.org/2000/svg"
   xmlns:sodipodi="http://sodipodi.sourceforge.net/DTD/sodipodi-0.dtd"
   xmlns:inkscape="http://www.inkscape.org/namespaces/inkscape"
   version="1.1"
   id="Capa_1"
   x="0px"
   y="0px"
   viewBox="0 0 254.313 254.313"
   style="enable-background:new 0 0 254.313 254.313;"
   xml:space="preserve"
   width="20px"
   height="20px"
   inkscape:version="0.48.4 r9939"
   sodipodi:docname="layer.svg"><metadata
     id="metadata45"><rdf:RDF><cc:Work
         rdf:about=""><dc:format>image/svg+xml</dc:format><dc:type
           rdf:resource="http://purl.org/dc/dcmitype/StillImage" /></cc:Work></rdf:RDF></metadata><defs
     id="defs43" /><sodipodi:namedview
     pagecolor="#ffffff"
     bordercolor="#666666"
     borderopacity="1"
     objecttolerance="10"
     gridtolerance="10"
     guidetolerance="10"
     inkscape:pageopacity="0"
     inkscape:pageshadow="2"
     inkscape:window-width="753"
     inkscape:window-height="480"
     id="namedview41"
     showgrid="false"
     inkscape:zoom="11.8"
     inkscape:cx="10"
     inkscape:cy="10"
     inkscape:window-x="87"
     inkscape:window-y="34"
     inkscape:window-maximized="0"
     inkscape:current-layer="Capa_1" /><g
     id="g3"
     style="fill:#444444;fill-opacity:1"><path
       d="M11.749,73.933l111.871,59.819c1.104,0.591,2.32,0.886,3.536,0.886s2.432-0.295,3.536-0.886   l111.871-59.819c2.44-1.305,3.964-3.847,3.964-6.614s-1.523-5.309-3.964-6.614L130.692,0.886c-2.209-1.182-4.863-1.182-7.072,0   L11.749,60.705c-2.44,1.305-3.964,3.847-3.964,6.614S9.309,72.628,11.749,73.933z M127.156,16.005l95.966,51.314l-95.966,51.314   L31.19,67.319L127.156,16.005z"
       fill="#438ce6"
       id="path5"
       style="fill:#444444;fill-opacity:1" /><path
       d="M242.563,120.561l-32.612-17.438c-3.653-1.954-8.197-0.575-10.15,3.077   c-1.953,3.653-0.575,8.197,3.078,10.15l20.243,10.824l-95.966,51.314L31.19,127.175l20.478-10.95   c3.653-1.953,5.031-6.498,3.078-10.15c-1.953-3.652-6.498-5.03-10.15-3.077l-32.847,17.563c-2.44,1.305-3.964,3.847-3.964,6.614   s1.523,5.309,3.964,6.614l111.871,59.819c1.104,0.591,2.32,0.886,3.536,0.886s2.432-0.295,3.536-0.886l111.871-59.819   c2.44-1.305,3.964-3.847,3.964-6.614S245.004,121.866,242.563,120.561z"
       fill="#438ce6"
       id="path7"
       style="fill:#444444;fill-opacity:1" /><path
       d="M242.563,180.38l-31.578-16.885c-3.654-1.953-8.197-0.575-10.15,3.077   c-1.953,3.653-0.575,8.197,3.078,10.15l19.209,10.271l-95.966,51.314L31.19,186.994l19.001-10.16   c3.653-1.953,5.031-6.498,3.078-10.15s-6.498-5.031-10.15-3.077l-31.37,16.774c-2.44,1.305-3.964,3.847-3.964,6.614   s1.523,5.309,3.964,6.614l111.871,59.819c1.104,0.591,2.32,0.886,3.536,0.886s2.432-0.295,3.536-0.886l111.871-59.819   c2.44-1.305,3.964-3.847,3.964-6.614S245.004,181.685,242.563,180.38z"
       fill="#438ce6"
       id="path9"
       style="fill:#444444;fill-opacity:1" /></g><g
     id="g11" /><g
     id="g13" /><g
     id="g15" /><g
     id="g17" /><g
     id="g19" /><g
     id="g21" /><g
     id="g23" /><g
     id="g25" /><g
     id="g27" /><g
     id="g29" /><g
     id="g31" /><g
     id="g33" /><g
     id="g35" /><g
     id="g37" /><g
     id="g39" /></svg>