<?xml version="1.0" encoding="iso-8859-1"?>
<!-- Generator: Adobe Illustrator 16.0.0, SVG Export Plug-In . SVG Version: 6.00 Build 0)  -->
<!DOCTYPE svg PUBLIC "-//W3C//DTD SVG 1.1//EN" "http://www.w3.org/Graphics/SVG/1.1/DTD/svg11.dtd">
<svg version="1.1" id="Capa_1" xmlns="http://www.w3.org/2000/svg" xmlns:xlink="http://www.w3.org/1999/xlink" x="0px" y="0px"
	 width="612.008px" height="612.008px" viewBox="0 0 612.008 612.008" style="enable-background:new 0 0 612.008 612.008;"
	 xml:space="preserve">
<g>
	<g id="_x39__1_">
		<g>
			<path d="M434.32,234.936c-7.534-7.534-19.754-7.534-27.288,0l-43.981,43.925l-42.815-42.777c-7.478-7.477-19.601-7.477-27.078,0
				c-7.477,7.458-7.477,19.582,0,27.039l42.815,42.777l-43.37,43.332c-7.535,7.534-7.535,19.734,0,27.25
				c7.534,7.515,19.753,7.515,27.288,0l43.37-43.332l42.815,42.777c7.478,7.477,19.601,7.477,27.078,0
				c7.477-7.478,7.477-19.582,0-27.04l-42.815-42.777l43.981-43.925C441.854,254.67,441.854,242.47,434.32,234.936z M535.44,95.666
				H192.267c-5.354-0.325-10.804,1.338-14.916,5.412L5.515,291.156c-4.035,3.997-5.756,9.332-5.488,14.572
				c-0.268,5.239,1.454,10.556,5.488,14.571l171.836,190.079c3.748,3.709,8.624,5.545,13.52,5.603v0.401h344.57
				c42.28,0,76.567-34.248,76.567-76.49V172.175C612.008,129.914,577.721,95.666,535.44,95.666z M573.725,439.872
				c0,21.111-17.134,38.246-38.284,38.246H200.222L44.372,305.728L199.686,133.93H535.44c21.15,0,38.284,17.115,38.284,38.246
				V439.872z"/>
		</g>
	</g>
</g>
<g>
</g>
<g>
</g>
<g>
</g>
<g>
</g>
<g>
</g>
<g>
</g>
<g>
</g>
<g>
</g>
<g>
</g>
<g>
</g>
<g>
</g>
<g>
</g>
<g>
</g>
<g>
</g>
<g>
</g>
</svg>
