<?xml version="1.0" encoding="iso-8859-1"?>
<!-- Generator: Adobe Illustrator 16.0.0, SVG Export Plug-In . SVG Version: 6.00 Build 0)  -->
<!DOCTYPE svg PUBLIC "-//W3C//DTD SVG 1.1//EN" "http://www.w3.org/Graphics/SVG/1.1/DTD/svg11.dtd">
<svg version="1.1" id="Capa_1" xmlns="http://www.w3.org/2000/svg" xmlns:xlink="http://www.w3.org/1999/xlink" x="0px" y="0px"
	 width="612px" height="612px" viewBox="0 0 612 612" style="enable-background:new 0 0 612 612;" xml:space="preserve">
<g>
	<g id="_x39__10_">
		<g>
			<path d="M535.5,19.125h-459c-42.247,0-76.5,34.253-76.5,76.5v420.75c0,42.247,34.253,76.5,76.5,76.5h459
				c42.247,0,76.5-34.253,76.5-76.5V95.625C612,53.378,577.747,19.125,535.5,19.125z M114.75,554.625H76.5
				c-21.114,0-38.25-17.136-38.25-38.25V95.625c0-21.133,17.136-38.25,38.25-38.25h38.25V554.625z M573.75,516.375
				c0,21.114-17.136,38.25-38.25,38.25H153V57.375h382.5c21.114,0,38.25,17.117,38.25,38.25V516.375z M516.375,286.875H281.654
				l76.328-63.074c7.517-7.497,7.517-19.661,0-27.158c-7.516-7.497-19.718-7.497-27.233,0L216.38,291.159
				c-4.016,3.997-5.718,9.313-5.451,14.534c-0.268,5.241,1.435,10.538,5.451,14.535l114.368,94.517
				c7.516,7.497,19.718,7.497,27.233,0c7.517-7.497,7.517-19.661,0-27.158l-75.601-62.462h233.994
				c10.557,0,19.125-8.568,19.125-19.125C535.5,295.443,526.932,286.875,516.375,286.875z"/>
		</g>
	</g>
</g>
<g>
</g>
<g>
</g>
<g>
</g>
<g>
</g>
<g>
</g>
<g>
</g>
<g>
</g>
<g>
</g>
<g>
</g>
<g>
</g>
<g>
</g>
<g>
</g>
<g>
</g>
<g>
</g>
<g>
</g>
</svg>
