<?xml version="1.0" encoding="iso-8859-1"?>
<!-- Generator: Adobe Illustrator 16.0.0, SVG Export Plug-In . SVG Version: 6.00 Build 0)  -->
<!DOCTYPE svg PUBLIC "-//W3C//DTD SVG 1.1//EN" "http://www.w3.org/Graphics/SVG/1.1/DTD/svg11.dtd">
<svg version="1.1" id="Capa_1" xmlns="http://www.w3.org/2000/svg" xmlns:xlink="http://www.w3.org/1999/xlink" x="0px" y="0px"
	 width="612px" height="612px" viewBox="0 0 612 612" style="enable-background:new 0 0 612 612;" xml:space="preserve">
<g>
	<g id="_x35__32_">
		<g>
			<path d="M21.857,65.571h568.286c12.065,0,21.857-9.792,21.857-21.857s-9.792-21.857-21.857-21.857H21.857
				C9.792,21.857,0,31.649,0,43.714S9.792,65.571,21.857,65.571z M21.857,240.429h393.429c12.064,0,21.856-9.792,21.856-21.857
				c0-12.065-9.792-21.857-21.856-21.857H21.857C9.792,196.714,0,206.506,0,218.571C0,230.637,9.792,240.429,21.857,240.429z
				 M349.714,546.429H21.857C9.792,546.429,0,556.221,0,568.286c0,12.064,9.792,21.856,21.857,21.856h327.857
				c12.065,0,21.857-9.792,21.857-21.856C371.571,556.221,361.779,546.429,349.714,546.429z M590.143,371.571H21.857
				C9.792,371.571,0,381.363,0,393.429s9.792,21.857,21.857,21.857h568.286c12.065,0,21.857-9.792,21.857-21.857
				S602.208,371.571,590.143,371.571z"/>
		</g>
	</g>
</g>
<g>
</g>
<g>
</g>
<g>
</g>
<g>
</g>
<g>
</g>
<g>
</g>
<g>
</g>
<g>
</g>
<g>
</g>
<g>
</g>
<g>
</g>
<g>
</g>
<g>
</g>
<g>
</g>
<g>
</g>
</svg>
