<?xml version="1.0" encoding="iso-8859-1"?>
<!-- Generator: Adobe Illustrator 16.0.0, SVG Export Plug-In . SVG Version: 6.00 Build 0)  -->
<!DOCTYPE svg PUBLIC "-//W3C//DTD SVG 1.1//EN" "http://www.w3.org/Graphics/SVG/1.1/DTD/svg11.dtd">
<svg version="1.1" id="Capa_1" xmlns="http://www.w3.org/2000/svg" xmlns:xlink="http://www.w3.org/1999/xlink" x="0px" y="0px"
	 width="612.008px" height="612.008px" viewBox="0 0 612.008 612.008" style="enable-background:new 0 0 612.008 612.008;"
	 xml:space="preserve">
<g>
	<g id="_x31_0_1_">
		<g>
			<path d="M535.44,95.455H192.268c-5.36-0.325-10.815,1.34-14.912,5.417L5.521,291.141c-4.039,4-5.762,9.341-5.494,14.586
				c-0.268,5.245,1.455,10.566,5.494,14.587l171.835,190.269c3.733,3.714,8.633,5.551,13.533,5.608v0.402H535.44
				c42.284,0,76.567-34.283,76.567-76.567V172.041C612.008,129.737,577.725,95.455,535.44,95.455z M573.725,440.007
				c0,21.132-17.132,38.283-38.284,38.283H200.23L44.378,305.727l155.316-171.969H535.46c21.151,0,38.283,17.132,38.283,38.283
				v267.966H573.725z"/>
		</g>
	</g>
</g>
<g>
</g>
<g>
</g>
<g>
</g>
<g>
</g>
<g>
</g>
<g>
</g>
<g>
</g>
<g>
</g>
<g>
</g>
<g>
</g>
<g>
</g>
<g>
</g>
<g>
</g>
<g>
</g>
<g>
</g>
</svg>
