<?xml version="1.0" encoding="iso-8859-1"?>
<!-- Generator: Adobe Illustrator 16.0.0, SVG Export Plug-In . SVG Version: 6.00 Build 0)  -->
<!DOCTYPE svg PUBLIC "-//W3C//DTD SVG 1.1//EN" "http://www.w3.org/Graphics/SVG/1.1/DTD/svg11.dtd">
<svg version="1.1" id="Capa_1" xmlns="http://www.w3.org/2000/svg" xmlns:xlink="http://www.w3.org/1999/xlink" x="0px" y="0px"
	 width="612px" height="612px" viewBox="0 0 612 612" style="enable-background:new 0 0 612 612;" xml:space="preserve">
<g>
	<g id="_x31_0_32_">
		<g>
			<path d="M43.714,437.143C19.562,437.143,0,456.705,0,480.857s19.562,43.714,43.714,43.714c24.13,0,43.714-19.562,43.714-43.714
				C87.429,456.727,67.866,437.143,43.714,437.143z M196.714,153h393.428c12.065,0,21.857-9.792,21.857-21.857
				c0-12.065-9.792-21.857-21.857-21.857H196.714c-12.065,0-21.857,9.792-21.857,21.857C174.857,143.208,184.649,153,196.714,153z
				 M43.714,262.286C19.562,262.286,0,281.87,0,306c0,24.152,19.562,43.714,43.714,43.714c24.13,0,43.714-19.584,43.714-43.714
				C87.429,281.87,67.866,262.286,43.714,262.286z M590.143,284.143H196.714c-12.065,0-21.857,9.792-21.857,21.857
				c0,12.065,9.792,21.857,21.857,21.857h393.428c12.065,0,21.857-9.792,21.857-21.857C612,293.935,602.208,284.143,590.143,284.143
				z M590.143,459H196.714c-12.065,0-21.857,9.792-21.857,21.857c0,12.064,9.792,21.856,21.857,21.856h393.428
				c12.065,0,21.857-9.792,21.857-21.856C612,468.792,602.208,459,590.143,459z M43.714,87.429C19.562,87.429,0,107.013,0,131.143
				s19.562,43.714,43.714,43.714c24.13,0,43.714-19.584,43.714-43.714S67.866,87.429,43.714,87.429z"/>
		</g>
	</g>
</g>
<g>
</g>
<g>
</g>
<g>
</g>
<g>
</g>
<g>
</g>
<g>
</g>
<g>
</g>
<g>
</g>
<g>
</g>
<g>
</g>
<g>
</g>
<g>
</g>
<g>
</g>
<g>
</g>
<g>
</g>
</svg>
