<?xml version="1.0" encoding="iso-8859-1"?>
<!-- Generator: Adobe Illustrator 16.0.0, SVG Export Plug-In . SVG Version: 6.00 Build 0)  -->
<!DOCTYPE svg PUBLIC "-//W3C//DTD SVG 1.1//EN" "http://www.w3.org/Graphics/SVG/1.1/DTD/svg11.dtd">
<svg version="1.1" id="Capa_1" xmlns="http://www.w3.org/2000/svg" xmlns:xlink="http://www.w3.org/1999/xlink" x="0px" y="0px"
	 width="612px" height="612px" viewBox="0 0 612 612" style="enable-background:new 0 0 612 612;" xml:space="preserve">
<g>
	<g id="_x33__11_">
		<g>
			<path d="M21.857,284.144C9.792,284.144,0,293.936,0,306.001c0,12.064,9.792,21.857,21.857,21.857
				c12.065,0,21.857-9.793,21.857-21.857C43.714,293.936,33.922,284.144,21.857,284.144z M21.857,459.001
				C9.792,459.001,0,468.792,0,480.858c0,12.064,9.792,21.855,21.857,21.855c12.065,0,21.857-9.791,21.857-21.855
				C43.714,468.792,33.922,459.001,21.857,459.001z M153,153h437.143c12.065,0,21.857-9.792,21.857-21.857
				c0-12.065-9.792-21.857-21.857-21.857H153c-12.065,0-21.857,9.792-21.857,21.857C131.143,143.208,140.935,153,153,153z
				 M21.857,109.286C9.792,109.286,0,119.078,0,131.143C0,143.208,9.792,153,21.857,153c12.065,0,21.857-9.792,21.857-21.857
				C43.714,119.078,33.922,109.286,21.857,109.286z M590.143,459.001H153c-12.065,0-21.857,9.791-21.857,21.857
				c0,12.064,9.792,21.855,21.857,21.855h437.143c12.065,0,21.857-9.791,21.857-21.855C612,468.792,602.208,459.001,590.143,459.001
				z M590.143,284.144H153c-12.065,0-21.857,9.792-21.857,21.857c0,12.064,9.792,21.857,21.857,21.857h437.143
				c12.065,0,21.857-9.793,21.857-21.857C612,293.936,602.208,284.144,590.143,284.144z"/>
		</g>
	</g>
</g>
<g>
</g>
<g>
</g>
<g>
</g>
<g>
</g>
<g>
</g>
<g>
</g>
<g>
</g>
<g>
</g>
<g>
</g>
<g>
</g>
<g>
</g>
<g>
</g>
<g>
</g>
<g>
</g>
<g>
</g>
</svg>
