<?xml version="1.0" encoding="iso-8859-1"?>
<!-- Generator: Adobe Illustrator 16.0.0, SVG Export Plug-In . SVG Version: 6.00 Build 0)  -->
<!DOCTYPE svg PUBLIC "-//W3C//DTD SVG 1.1//EN" "http://www.w3.org/Graphics/SVG/1.1/DTD/svg11.dtd">
<svg version="1.1" id="Capa_1" xmlns="http://www.w3.org/2000/svg" xmlns:xlink="http://www.w3.org/1999/xlink" x="0px" y="0px"
	 width="612px" height="612px" viewBox="0 0 612 612" style="enable-background:new 0 0 612 612;" xml:space="preserve">
<g>
	<g id="_x33__33_">
		<g>
			<path d="M172.125,191.25c-10.557,0-19.125,8.568-19.125,19.125v191.25c0,10.557,8.568,19.125,19.125,19.125
				s19.125-8.568,19.125-19.125v-191.25C191.25,199.818,182.682,191.25,172.125,191.25z M325.125,248.625
				c-10.557,0-19.125,8.568-19.125,19.125V382.5c0,10.557,8.568,19.125,19.125,19.125s19.125-8.568,19.125-19.125V267.75
				C344.25,257.193,335.682,248.625,325.125,248.625z M459,325.125c0,10.557,8.568,19.125,19.125,19.125s19.125-8.568,19.125-19.125
				v-153c0-10.557-8.568-19.125-19.125-19.125S459,161.568,459,172.125V325.125z M459,0L306,114.75L153,57.375L0,153v459l153-95.625
				l153,57.375L459,459l153,114.75v-459L459,0z M573.75,506.812L459,420.75L306,535.5l-153-57.375L38.25,549.844v-382.5L153,95.625
				L306,153L459,38.25l114.75,86.062V506.812z"/>
		</g>
	</g>
</g>
<g>
</g>
<g>
</g>
<g>
</g>
<g>
</g>
<g>
</g>
<g>
</g>
<g>
</g>
<g>
</g>
<g>
</g>
<g>
</g>
<g>
</g>
<g>
</g>
<g>
</g>
<g>
</g>
<g>
</g>
</svg>
