<?xml version="1.0" encoding="iso-8859-1"?>
<!-- Generator: Adobe Illustrator 16.0.0, SVG Export Plug-In . SVG Version: 6.00 Build 0)  -->
<!DOCTYPE svg PUBLIC "-//W3C//DTD SVG 1.1//EN" "http://www.w3.org/Graphics/SVG/1.1/DTD/svg11.dtd">
<svg version="1.1" id="Capa_1" xmlns="http://www.w3.org/2000/svg" xmlns:xlink="http://www.w3.org/1999/xlink" x="0px" y="0px"
	 width="792px" height="792px" viewBox="0 0 792 792" style="enable-background:new 0 0 792 792;" xml:space="preserve">
<g>
	<g id="_x39__33_">
		<g>
			<path d="M638.303,177.309C614.988,76.082,515.369,0,396,0C276.606,0,177.012,76.082,153.697,177.309
				c-17.622,7.573-29.947,25.047-29.947,45.441v49.5c0,27.349,22.151,49.5,49.5,49.5h1.287
				c17.424,31.358,42.718,58.583,73.706,79.398L297,742.5c0,27.349,22.151,49.5,49.5,49.5h99c27.349,0,49.5-22.151,49.5-49.5
				l48.758-341.352c30.986-20.815,56.281-48.04,73.705-79.398h1.287c27.349,0,49.5-22.151,49.5-49.5v-49.5
				C668.25,202.356,655.899,184.882,638.303,177.309z M396,49.5c89.669,0,165.33,52.198,189.684,123.75H206.316
				C230.67,101.698,306.331,49.5,396,49.5z M445.5,693c-5.42,25.666-6.534,49.5-24.75,49.5h-49.5
				c-18.216,0-17.795-24.602-24.75-49.5l-47.198-265.172c29.7,11.386,62.37,17.672,96.698,17.672
				c34.304,0,66.998-6.312,96.698-17.672L445.5,693z M396,396c-67.246,0-126.571-29.403-162.36-74.25h324.72
				C522.571,366.597,463.246,396,396,396z M594,272.25H198c-13.662,0-24.75-11.088-24.75-24.75s11.088-24.75,24.75-24.75h396
				c13.662,0,24.75,11.088,24.75,24.75S607.662,272.25,594,272.25z"/>
		</g>
	</g>
</g>
<g>
</g>
<g>
</g>
<g>
</g>
<g>
</g>
<g>
</g>
<g>
</g>
<g>
</g>
<g>
</g>
<g>
</g>
<g>
</g>
<g>
</g>
<g>
</g>
<g>
</g>
<g>
</g>
<g>
</g>
</svg>
