<?xml version="1.0" encoding="iso-8859-1"?>
<!-- Generator: Adobe Illustrator 16.0.0, SVG Export Plug-In . SVG Version: 6.00 Build 0)  -->
<!DOCTYPE svg PUBLIC "-//W3C//DTD SVG 1.1//EN" "http://www.w3.org/Graphics/SVG/1.1/DTD/svg11.dtd">
<svg version="1.1" id="Capa_1" xmlns="http://www.w3.org/2000/svg" xmlns:xlink="http://www.w3.org/1999/xlink" x="0px" y="0px"
	 width="792px" height="792px" viewBox="0 0 792 792" style="enable-background:new 0 0 792 792;" xml:space="preserve">
<g>
	<g id="_x31__21_">
		<g>
			<path d="M668.25,470.25h-49.5C596.228,569.423,501.979,643.5,396,643.5s-200.228-74.077-222.75-173.25h-49.5
				c21.854,118.775,125.309,210.622,247.5,221.637V742.5H346.5c-13.662,0-24.75,11.088-24.75,24.75S332.838,792,346.5,792h99
				c13.662,0,24.75-11.088,24.75-24.75s-11.088-24.75-24.75-24.75h-24.75v-50.613C542.94,680.872,646.396,589.025,668.25,470.25z
				 M396,594c95.684,0,173.25-77.566,173.25-173.25v-247.5C569.25,77.566,491.684,0,396,0S222.75,77.566,222.75,173.25v247.5
				C222.75,516.434,300.316,594,396,594z M272.25,173.25c0-68.335,55.415-123.75,123.75-123.75s123.75,55.415,123.75,123.75v247.5
				c0,68.335-55.415,123.75-123.75,123.75s-123.75-55.415-123.75-123.75V173.25z"/>
		</g>
	</g>
</g>
<g>
</g>
<g>
</g>
<g>
</g>
<g>
</g>
<g>
</g>
<g>
</g>
<g>
</g>
<g>
</g>
<g>
</g>
<g>
</g>
<g>
</g>
<g>
</g>
<g>
</g>
<g>
</g>
<g>
</g>
</svg>
