<?xml version="1.0" encoding="iso-8859-1"?>
<!-- Generator: Adobe Illustrator 16.0.0, SVG Export Plug-In . SVG Version: 6.00 Build 0)  -->
<!DOCTYPE svg PUBLIC "-//W3C//DTD SVG 1.1//EN" "http://www.w3.org/Graphics/SVG/1.1/DTD/svg11.dtd">
<svg version="1.1" id="Capa_1" xmlns="http://www.w3.org/2000/svg" xmlns:xlink="http://www.w3.org/1999/xlink" x="0px" y="0px"
	 width="612.01px" height="612.01px" viewBox="0 0 612.01 612.01" style="enable-background:new 0 0 612.01 612.01;"
	 xml:space="preserve">
<g>
	<g id="_x36__21_">
		<g>
			<path d="M357.542,237.343H165.345c-10.35,0-18.748,8.264-18.748,18.441c0,10.177,8.398,18.441,18.748,18.441h192.196
				c10.35,0,18.748-8.264,18.748-18.441C376.27,245.588,367.891,237.343,357.542,237.343z M606.209,578.714L448.198,423.228
				C489.576,378.272,515,318.817,515,253.393C514.98,113.439,399.704,0,257.493,0C115.282,0,0.006,113.439,0.006,253.393
				s115.276,253.393,257.487,253.393c61.445,0,117.801-21.253,162.068-56.586l158.624,156.099c7.729,7.614,20.277,7.614,28.006,0
				C613.938,598.686,613.938,586.328,606.209,578.714z M257.493,467.8c-120.326,0-217.869-95.993-217.869-214.407
				S137.167,38.986,257.493,38.986c120.327,0,217.869,95.993,217.869,214.407S377.82,467.8,257.493,467.8z"/>
		</g>
	</g>
</g>
<g>
</g>
<g>
</g>
<g>
</g>
<g>
</g>
<g>
</g>
<g>
</g>
<g>
</g>
<g>
</g>
<g>
</g>
<g>
</g>
<g>
</g>
<g>
</g>
<g>
</g>
<g>
</g>
<g>
</g>
</svg>
