<?xml version="1.0" encoding="iso-8859-1"?>
<!-- Generator: Adobe Illustrator 16.0.0, SVG Export Plug-In . SVG Version: 6.00 Build 0)  -->
<!DOCTYPE svg PUBLIC "-//W3C//DTD SVG 1.1//EN" "http://www.w3.org/Graphics/SVG/1.1/DTD/svg11.dtd">
<svg version="1.1" id="Capa_1" xmlns="http://www.w3.org/2000/svg" xmlns:xlink="http://www.w3.org/1999/xlink" x="0px" y="0px"
	 width="792.007px" height="792.007px" viewBox="0 0 792.007 792.007" style="enable-background:new 0 0 792.007 792.007;"
	 xml:space="preserve">
<g>
	<g id="_x39__11_">
		<g>
			<path d="M580.395,0c-25.355,0-26.596,26.438-26.596,26.438l0,0V458.15c-58.997-43.51-156.385-43.562-242.638,5.937
				C203.933,525.643,157.97,640.339,201.083,720.312c43.878,81.372,170.975,94.881,278.204,33.324
				c83.271-47.81,127.889-125.487,127.704-199.55V26.385C606.516,12.19,594.774,0,580.395,0z M462.85,709.468
				c-78.681,48.284-174.59,46.227-212.611-9.763c-37.995-55.989-3.483-144.326,74.96-193.007
				c78.443-48.681,177.229-43.614,215.224,12.375C577.81,579.442,533.219,666.275,462.85,709.468z"/>
		</g>
	</g>
</g>
<g>
</g>
<g>
</g>
<g>
</g>
<g>
</g>
<g>
</g>
<g>
</g>
<g>
</g>
<g>
</g>
<g>
</g>
<g>
</g>
<g>
</g>
<g>
</g>
<g>
</g>
<g>
</g>
<g>
</g>
</svg>
