<?xml version="1.0" encoding="iso-8859-1"?>
<!-- Generator: Adobe Illustrator 16.0.0, SVG Export Plug-In . SVG Version: 6.00 Build 0)  -->
<!DOCTYPE svg PUBLIC "-//W3C//DTD SVG 1.1//EN" "http://www.w3.org/Graphics/SVG/1.1/DTD/svg11.dtd">
<svg version="1.1" id="Capa_1" xmlns="http://www.w3.org/2000/svg" xmlns:xlink="http://www.w3.org/1999/xlink" x="0px" y="0px"
	 width="612px" height="612px" viewBox="0 0 612 612" style="enable-background:new 0 0 612 612;" xml:space="preserve">
<g>
	<g id="_x31__31_">
		<g>
			<path d="M554.625,573.75H57.375c-10.557,0-19.125,8.568-19.125,19.125S46.818,612,57.375,612h497.25
				c10.557,0,19.125-8.568,19.125-19.125S565.182,573.75,554.625,573.75z M516.375,76.5L267.75,114.75
				c-10.557,0-19.125,8.568-19.125,19.125v161.816c-29.529-13.56-71.222-11.379-108.878,9.084
				c-53.321,28.994-77.839,83.002-54.736,120.66c23.084,37.677,91.169,43.433,144.489,14.439
				c41.578-22.605,59.747-62.194,57.375-95.625c0.172-1.052,0-194.195,0-194.195l210.375-32.359v139.746
				c-29.529-13.56-71.222-11.379-108.879,9.084c-53.32,28.994-77.839,83.002-54.735,120.66
				c23.084,37.657,91.169,43.433,144.489,14.439C519.703,379.02,537.871,339.431,535.5,306c0.172-1.052,0-210.375,0-210.375
				C535.5,85.068,526.932,76.5,516.375,76.5z M212.574,409.505c-33.373,18.838-74.645,15.95-90.805-3.863
				s-1.702-50.223,32.302-67.913c33.985-17.672,64.317-17.634,83.691-2.333C261.726,354.367,241.778,393.019,212.574,409.505z
				 M461.314,371.159c-33.335,18.896-74.588,16.198-90.806-3.577c-16.218-19.774-1.855-50.222,32.072-68.008
				c33.928-17.787,63.477-16.792,83.672-2.601C512.358,315.295,491.665,353.966,461.314,371.159z M535.5,0h-459
				C34.253,0,0,34.253,0,76.5V459c0,42.247,34.253,76.5,76.5,76.5h459c42.247,0,76.5-34.253,76.5-76.5V76.5
				C612,34.253,577.747,0,535.5,0z M573.75,459c0,21.133-17.136,38.25-38.25,38.25h-459c-21.133,0-38.25-17.117-38.25-38.25V76.5
				c0-21.133,17.136-38.25,38.25-38.25h459c21.133,0,38.25,17.117,38.25,38.25V459z"/>
		</g>
	</g>
</g>
<g>
</g>
<g>
</g>
<g>
</g>
<g>
</g>
<g>
</g>
<g>
</g>
<g>
</g>
<g>
</g>
<g>
</g>
<g>
</g>
<g>
</g>
<g>
</g>
<g>
</g>
<g>
</g>
<g>
</g>
</svg>
