<?xml version="1.0" encoding="iso-8859-1"?>
<!-- Generator: Adobe Illustrator 16.0.0, SVG Export Plug-In . SVG Version: 6.00 Build 0)  -->
<!DOCTYPE svg PUBLIC "-//W3C//DTD SVG 1.1//EN" "http://www.w3.org/Graphics/SVG/1.1/DTD/svg11.dtd">
<svg version="1.1" id="Capa_1" xmlns="http://www.w3.org/2000/svg" xmlns:xlink="http://www.w3.org/1999/xlink" x="0px" y="0px"
	 width="612px" height="612px" viewBox="0 0 612 612" style="enable-background:new 0 0 612 612;" xml:space="preserve">
<g>
	<g id="_x38__18_">
		<g>
			<path d="M325.125,344.25h-229.5c-10.557,0-19.125,8.568-19.125,19.125S85.068,382.5,95.625,382.5h229.5
				c10.557,0,19.125-8.568,19.125-19.125S335.682,344.25,325.125,344.25z M325.125,420.75h-229.5
				c-10.557,0-19.125,8.568-19.125,19.125S85.068,459,95.625,459h229.5c10.557,0,19.125-8.568,19.125-19.125
				S335.682,420.75,325.125,420.75z M535.5,76.5h-459C34.253,76.5,0,110.753,0,153v306c0,42.247,34.253,76.5,76.5,76.5h459
				c42.247,0,76.5-34.253,76.5-76.5V153C612,110.753,577.747,76.5,535.5,76.5z M573.75,459c0,21.114-17.117,38.25-38.25,38.25h-459
				c-21.133,0-38.25-17.136-38.25-38.25V153c0-21.133,17.136-38.25,38.25-38.25h459c21.133,0,38.25,17.117,38.25,38.25V459z
				 M497.25,153h-76.5c-21.133,0-38.25,17.136-38.25,38.25v76.5c0,21.133,17.117,38.25,38.25,38.25h76.5
				c21.133,0,38.25-17.117,38.25-38.25v-76.5C535.5,170.117,518.383,153,497.25,153z M497.25,248.625
				c0,10.557-8.568,19.125-19.125,19.125h-38.25c-10.557,0-19.125-8.568-19.125-19.125v-38.25c0-10.557,8.568-19.125,19.125-19.125
				h38.25c10.557,0,19.125,8.568,19.125,19.125V248.625z"/>
		</g>
	</g>
</g>
<g>
</g>
<g>
</g>
<g>
</g>
<g>
</g>
<g>
</g>
<g>
</g>
<g>
</g>
<g>
</g>
<g>
</g>
<g>
</g>
<g>
</g>
<g>
</g>
<g>
</g>
<g>
</g>
<g>
</g>
</svg>
