<?xml version="1.0" encoding="iso-8859-1"?>
<!-- Generator: Adobe Illustrator 16.0.0, SVG Export Plug-In . SVG Version: 6.00 Build 0)  -->
<!DOCTYPE svg PUBLIC "-//W3C//DTD SVG 1.1//EN" "http://www.w3.org/Graphics/SVG/1.1/DTD/svg11.dtd">
<svg version="1.1" id="Capa_1" xmlns="http://www.w3.org/2000/svg" xmlns:xlink="http://www.w3.org/1999/xlink" x="0px" y="0px"
	 width="612px" height="612px" viewBox="0 0 612 612" style="enable-background:new 0 0 612 612;" xml:space="preserve">
<g>
	<g id="_x39__36_">
		<g>
			<path d="M155.104,345.551L72.866,512.053c-6.904,18.742,8.09,35.534,26.833,26.832l166.387-82.295
				c7.172-1.396,14.134-4.169,19.68-9.734l295.558-295.768c14.841-14.841,14.841-38.919,0-53.779l-67.167-67.225
				c-14.841-14.841-38.9-14.841-53.741,0L164.838,325.852C159.292,331.417,156.5,338.379,155.104,345.551z M473.841,70.418
				c7.421-7.421,19.45-7.421,26.871,0l40.296,40.334c7.421,7.42,7.421,19.469,0,26.89l-40.296,40.334l-66.211-68.18L473.841,70.418z
				 M406.196,138.121l67.645,66.747L258.876,419.966c-25.188-25.207-60.033-60.071-67.167-67.225L406.196,138.121z M225.407,440.238
				l-102.739,62.232c-9.372,4.342-17.768-4.646-13.407-13.426l62.194-102.815L225.407,440.238z M573.75,229.5v306
				c0,20.999-20.77,38.479-41.75,38.479H76.003c-20.98,0-38.001-17.021-38.001-38.021V79.656c0-21,17.519-41.406,38.499-41.406h306
				V0h-306C34.521,0,0,37.657,0,79.656v456.303C0,577.957,34.023,612,76.003,612H532c41.979,0,80-34.502,80-76.5v-306H573.75z"/>
		</g>
	</g>
</g>
<g>
</g>
<g>
</g>
<g>
</g>
<g>
</g>
<g>
</g>
<g>
</g>
<g>
</g>
<g>
</g>
<g>
</g>
<g>
</g>
<g>
</g>
<g>
</g>
<g>
</g>
<g>
</g>
<g>
</g>
</svg>
