<?xml version="1.0" encoding="iso-8859-1"?>
<!-- Generator: Adobe Illustrator 16.0.0, SVG Export Plug-In . SVG Version: 6.00 Build 0)  -->
<!DOCTYPE svg PUBLIC "-//W3C//DTD SVG 1.1//EN" "http://www.w3.org/Graphics/SVG/1.1/DTD/svg11.dtd">
<svg version="1.1" id="Capa_1" xmlns="http://www.w3.org/2000/svg" xmlns:xlink="http://www.w3.org/1999/xlink" x="0px" y="0px"
	 width="612px" height="612px" viewBox="0 0 612 612" style="enable-background:new 0 0 612 612;" xml:space="preserve">
<g>
	<g id="_x33__4_">
		<g>
			<path d="M306,0C136.992,0,0,136.992,0,306c0,168.988,136.992,306,306,306s306-136.992,306-306S475.008,0,306,0z M527.773,156.271
				c25.628,37.752,41.826,82.391,45.25,130.604H419.928c-0.956-35.553-3.939-70.284-9.601-103.428
				C451.771,177.557,491.149,168.453,527.773,156.271z M501.438,123.28c-31.231,9.869-64.203,17.404-98.57,22.472
				c-8.032-35.037-18.437-68.295-31.174-99.048C422.146,59.459,466.918,86.502,501.438,123.28z M230.399,286.875
				c1.014-33.679,4.074-66.804,9.849-98.627c21.497,1.893,43.414,3.002,65.752,3.002s44.255-1.109,65.771-3.002
				c5.757,31.824,8.817,64.948,9.831,98.627H230.399z M381.602,325.125c-1.014,33.679-4.074,66.804-9.85,98.628
				c-21.497-1.894-43.414-3.003-65.752-3.003s-44.255,1.109-65.771,3.003c-5.756-31.824-8.816-64.968-9.83-98.628H381.602z
				 M287.43,39.187c6.158-0.42,12.297-0.937,18.57-0.937c6.273,0,12.412,0.517,18.57,0.937
				c16.295,33.909,29.452,71.604,39.226,111.633c-19.029,1.645-38.288,2.658-57.796,2.658c-19.507,0-38.767-0.995-57.796-2.658
				C257.977,110.791,271.154,73.077,287.43,39.187z M240.325,46.703c-12.737,30.753-23.16,64.012-31.174,99.048
				c-34.387-5.068-67.358-12.603-98.589-22.472C145.082,86.502,189.854,59.459,240.325,46.703z M84.227,156.271
				c36.625,12.183,76.003,21.305,117.447,27.176c-5.642,33.144-8.645,67.875-9.601,103.428H38.977
				C42.4,238.661,58.599,194.023,84.227,156.271z M84.227,455.729c-25.627-37.753-41.827-82.391-45.25-130.604h153.096
				c0.957,35.554,3.94,70.284,9.601,103.428C160.229,434.425,120.851,443.547,84.227,455.729z M110.562,488.701
				c31.231-9.868,64.203-17.404,98.57-22.453c8.033,35.037,18.437,68.296,31.174,99.049
				C189.854,552.54,145.082,525.479,110.562,488.701z M324.57,572.812c-6.158,0.421-12.297,0.938-18.57,0.938
				c-6.273,0-12.412-0.517-18.57-0.938c-16.275-33.889-29.453-71.604-39.226-111.632c19.029-1.664,38.289-2.659,57.796-2.659
				c19.508,0,38.767,0.995,57.796,2.659C354.022,501.189,340.846,538.904,324.57,572.812z M371.675,565.297
				c12.737-30.753,23.161-64.012,31.174-99.049c34.387,5.068,67.358,12.604,98.57,22.453
				C466.918,525.479,422.146,552.54,371.675,565.297z M527.773,455.729c-36.624-12.183-76.003-21.305-117.446-27.177
				c5.642-33.144,8.645-67.874,9.601-103.428h153.096C569.6,373.339,553.401,417.977,527.773,455.729z"/>
		</g>
	</g>
</g>
<g>
</g>
<g>
</g>
<g>
</g>
<g>
</g>
<g>
</g>
<g>
</g>
<g>
</g>
<g>
</g>
<g>
</g>
<g>
</g>
<g>
</g>
<g>
</g>
<g>
</g>
<g>
</g>
<g>
</g>
</svg>
