<?xml version="1.0" encoding="iso-8859-1"?>
<!-- Generator: Adobe Illustrator 16.0.0, SVG Export Plug-In . SVG Version: 6.00 Build 0)  -->
<!DOCTYPE svg PUBLIC "-//W3C//DTD SVG 1.1//EN" "http://www.w3.org/Graphics/SVG/1.1/DTD/svg11.dtd">
<svg version="1.1" id="Capa_1" xmlns="http://www.w3.org/2000/svg" xmlns:xlink="http://www.w3.org/1999/xlink" x="0px" y="0px"
	 width="612px" height="612px" viewBox="0 0 612 612" style="enable-background:new 0 0 612 612;" xml:space="preserve">
<g>
	<g id="_x33__19_">
		<g>
			<path d="M535.5,95.625H420.75v-38.25c0-21.133-17.117-38.25-38.25-38.25h-153c-21.133,0-38.25,17.136-38.25,38.25v38.25H76.5
				c-42.247,0-76.5,34.253-76.5,76.5v344.25c0,42.247,34.253,76.5,76.5,76.5h459c42.247,0,76.5-34.253,76.5-76.5v-344.25
				C612,129.878,577.747,95.625,535.5,95.625z M229.5,76.5c0-10.557,8.568-19.125,19.125-19.125h114.75
				c10.557,0,19.125,8.568,19.125,19.125v19.125h-153V76.5z M573.75,516.375c0,21.114-17.117,38.25-38.25,38.25h-459
				c-21.133,0-38.25-17.136-38.25-38.25V306h193.947c-1.587,6.158-2.697,12.488-2.697,19.125c0,42.247,34.253,76.5,76.5,76.5
				s76.5-34.253,76.5-76.5c0-6.637-1.109-12.986-2.696-19.125H573.75V516.375z M267.75,325.125c0-7,2.027-13.483,5.298-19.125
				h65.886c3.289,5.642,5.316,12.125,5.316,19.125c0,21.133-17.136,38.25-38.25,38.25
				C284.867,363.375,267.75,346.258,267.75,325.125z M573.75,267.75H38.25v-95.625c0-21.133,17.117-38.25,38.25-38.25h459
				c21.133,0,38.25,17.117,38.25,38.25V267.75z"/>
		</g>
	</g>
</g>
<g>
</g>
<g>
</g>
<g>
</g>
<g>
</g>
<g>
</g>
<g>
</g>
<g>
</g>
<g>
</g>
<g>
</g>
<g>
</g>
<g>
</g>
<g>
</g>
<g>
</g>
<g>
</g>
<g>
</g>
</svg>
