<?xml version="1.0" encoding="iso-8859-1"?>
<!-- Generator: Adobe Illustrator 16.0.0, SVG Export Plug-In . SVG Version: 6.00 Build 0)  -->
<!DOCTYPE svg PUBLIC "-//W3C//DTD SVG 1.1//EN" "http://www.w3.org/Graphics/SVG/1.1/DTD/svg11.dtd">
<svg version="1.1" id="Capa_1" xmlns="http://www.w3.org/2000/svg" xmlns:xlink="http://www.w3.org/1999/xlink" x="0px" y="0px"
	 width="612.02px" height="612.02px" viewBox="0 0 612.02 612.02" style="enable-background:new 0 0 612.02 612.02;"
	 xml:space="preserve">
<g>
	<g id="_x31__35_">
		<g>
			<path d="M565.787,45.962L382.295,177.61V76.159c-0.02-44.501-24.689-41.747-46.223-30.196L11.216,279.043
				c-14.955,15.203-14.955,39.873,0,55.077l324.856,233.081c19.736,12.774,46.203,6.521,46.223-31.401V435.533l183.492,131.668
				c19.736,12.774,45.61,7.113,46.223-31.994V77.345C612.603,34.048,587.321,34.412,565.787,45.962z M573.724,520.769
				L344.009,360.128c0,0,0,151.671,0,160.641L37.721,306.582L344.009,92.395c0,34.193,0,160.64,0,160.64l229.715-160.64V520.769z"/>
		</g>
	</g>
</g>
<g>
</g>
<g>
</g>
<g>
</g>
<g>
</g>
<g>
</g>
<g>
</g>
<g>
</g>
<g>
</g>
<g>
</g>
<g>
</g>
<g>
</g>
<g>
</g>
<g>
</g>
<g>
</g>
<g>
</g>
</svg>
