<?xml version="1.0" encoding="iso-8859-1"?>
<!-- Generator: Adobe Illustrator 16.0.0, SVG Export Plug-In . SVG Version: 6.00 Build 0)  -->
<!DOCTYPE svg PUBLIC "-//W3C//DTD SVG 1.1//EN" "http://www.w3.org/Graphics/SVG/1.1/DTD/svg11.dtd">
<svg version="1.1" id="Capa_1" xmlns="http://www.w3.org/2000/svg" xmlns:xlink="http://www.w3.org/1999/xlink" x="0px" y="0px"
	 width="612px" height="612px" viewBox="0 0 612 612" style="enable-background:new 0 0 612 612;" xml:space="preserve">
<g>
	<g id="_x34__37_">
		<g>
			<path d="M224.604,120.755c-7.554-7.516-19.775-7.516-27.33,0s-7.554,19.699,0,27.215l158.909,158.336L197.274,464.642
				c-7.554,7.517-7.554,19.699,0,27.215c7.554,7.517,19.775,7.517,27.33,0l171.589-170.978c4.035-4.016,5.737-9.313,5.47-14.572
				c0.268-5.241-1.453-10.558-5.47-14.574L224.604,120.755z M535.5,0h-459C34.253,0,0,34.253,0,76.5v459
				C0,577.747,34.253,612,76.5,612h459c42.247,0,76.5-34.253,76.5-76.5v-459C612,34.253,577.747,0,535.5,0z M573.75,535.5
				c0,21.114-17.117,38.25-38.25,38.25h-459c-21.133,0-38.25-17.136-38.25-38.25v-459c0-21.114,17.117-38.25,38.25-38.25h459
				c21.133,0,38.25,17.136,38.25,38.25V535.5z"/>
		</g>
	</g>
</g>
<g>
</g>
<g>
</g>
<g>
</g>
<g>
</g>
<g>
</g>
<g>
</g>
<g>
</g>
<g>
</g>
<g>
</g>
<g>
</g>
<g>
</g>
<g>
</g>
<g>
</g>
<g>
</g>
<g>
</g>
</svg>
