<?xml version="1.0" encoding="iso-8859-1"?>
<!-- Generator: Adobe Illustrator 16.0.0, SVG Export Plug-In . SVG Version: 6.00 Build 0)  -->
<!DOCTYPE svg PUBLIC "-//W3C//DTD SVG 1.1//EN" "http://www.w3.org/Graphics/SVG/1.1/DTD/svg11.dtd">
<svg version="1.1" id="Capa_1" xmlns="http://www.w3.org/2000/svg" xmlns:xlink="http://www.w3.org/1999/xlink" x="0px" y="0px"
	 width="753.115px" height="753.115px" viewBox="0 0 753.115 753.115" style="enable-background:new 0 0 753.115 753.115;"
	 xml:space="preserve">
<g>
	<g id="_x32__15_">
		<g>
			<path d="M675.81,287.69l-70.134-139.844c-5.013-5.013-11.673-7.061-18.239-6.637H447.122V94.14
				c0-51.989-42.151-94.14-94.14-94.14h-47.069c-51.989,0-94.14,42.151-94.14,94.14v47.069h-94.139
				c-25.982,0-47.07,21.064-47.07,47.07v235.348c0,26.006,21.087,47.07,47.07,47.07h94.139v188.278
				c0,51.988,42.151,94.14,94.14,94.14h47.069c51.988,0,94.14-42.151,94.14-94.14V470.697h141.209v-0.565
				c6.26,0.165,12.567-2.023,17.345-6.801l70.134-139.845c5.296-9.884,6.002-13.109,6.708-17.886
				C682.847,299.151,680.752,296.657,675.81,287.69z M258.843,94.14c0-26.006,21.087-47.07,47.07-47.07h47.069
				c26.006,0,47.07,21.063,47.07,47.07v47.069H258.843V94.14z M400.053,658.976c0,25.982-21.064,47.069-47.07,47.069h-47.069
				c-26.006,0-47.07-21.087-47.07-47.069V470.697h141.209V658.976z M577.435,419.438c-3.695,2.424-7.885,4.188-12.639,4.188H141.169
				c-12.991,0-23.535-10.543-23.535-23.534V211.813c0-12.991,10.543-23.535,23.535-23.535h423.627c5.013,0,9.391,1.906,13.203,4.566
				l56.531,112.732L577.435,419.438z"/>
		</g>
	</g>
</g>
<g>
</g>
<g>
</g>
<g>
</g>
<g>
</g>
<g>
</g>
<g>
</g>
<g>
</g>
<g>
</g>
<g>
</g>
<g>
</g>
<g>
</g>
<g>
</g>
<g>
</g>
<g>
</g>
<g>
</g>
</svg>
