<?xml version="1.0" encoding="iso-8859-1"?>
<!-- Generator: Adobe Illustrator 16.0.0, SVG Export Plug-In . SVG Version: 6.00 Build 0)  -->
<!DOCTYPE svg PUBLIC "-//W3C//DTD SVG 1.1//EN" "http://www.w3.org/Graphics/SVG/1.1/DTD/svg11.dtd">
<svg version="1.1" id="Capa_1" xmlns="http://www.w3.org/2000/svg" xmlns:xlink="http://www.w3.org/1999/xlink" x="0px" y="0px"
	 width="792px" height="792px" viewBox="0 0 792 792" style="enable-background:new 0 0 792 792;" xml:space="preserve">
<g>
	<g id="_x31__23_">
		<g>
			<path d="M544.5,99H420.75V0h-99C308.088,0,297,11.088,297,24.75s11.088,24.75,24.75,24.75h49.5V99H247.5
				c-54.673,0-99,44.327-99,99v495c0,54.673,44.327,99,99,99h297c54.673,0,99-44.327,99-99V198C643.5,143.327,599.173,99,544.5,99z
				 M594,693c0,27.324-22.151,49.5-49.5,49.5h-297c-27.349,0-49.5-22.176-49.5-49.5V198c0-27.324,22.151-49.5,49.5-49.5h297
				c27.349,0,49.5,22.151,49.5,49.5V693z M396,198c-13.662,0-24.75,11.088-24.75,24.75v99c0,13.662,11.088,24.75,24.75,24.75
				s24.75-11.088,24.75-24.75v-99C420.75,209.088,409.662,198,396,198z"/>
		</g>
	</g>
</g>
<g>
</g>
<g>
</g>
<g>
</g>
<g>
</g>
<g>
</g>
<g>
</g>
<g>
</g>
<g>
</g>
<g>
</g>
<g>
</g>
<g>
</g>
<g>
</g>
<g>
</g>
<g>
</g>
<g>
</g>
</svg>
