<?xml version="1.0" encoding="iso-8859-1"?>
<!-- Generator: Adobe Illustrator 16.0.0, SVG Export Plug-In . SVG Version: 6.00 Build 0)  -->
<!DOCTYPE svg PUBLIC "-//W3C//DTD SVG 1.1//EN" "http://www.w3.org/Graphics/SVG/1.1/DTD/svg11.dtd">
<svg version="1.1" id="Capa_1" xmlns="http://www.w3.org/2000/svg" xmlns:xlink="http://www.w3.org/1999/xlink" x="0px" y="0px"
	 width="792px" height="792px" viewBox="0 0 792 792" style="enable-background:new 0 0 792 792;" xml:space="preserve">
<g>
	<g id="_x33__29_">
		<g>
			<path d="M569.25,198C569.25,88.654,491.684,0,396,0S222.75,88.654,222.75,198c0,99.891,64.795,182.284,148.945,195.822
				c-0.074,0.767-0.445,1.411-0.445,2.178v371.25c0,13.662,11.088,24.75,24.75,24.75s24.75-11.088,24.75-24.75V396
				c0-0.767-0.371-1.411-0.445-2.178C504.454,380.284,569.25,297.891,569.25,198z M396,346.5c-68.335,0-123.75-66.479-123.75-148.5
				S327.665,49.5,396,49.5S519.75,115.979,519.75,198S464.335,346.5,396,346.5z"/>
		</g>
	</g>
</g>
<g>
</g>
<g>
</g>
<g>
</g>
<g>
</g>
<g>
</g>
<g>
</g>
<g>
</g>
<g>
</g>
<g>
</g>
<g>
</g>
<g>
</g>
<g>
</g>
<g>
</g>
<g>
</g>
<g>
</g>
</svg>
