<?xml version="1.0" encoding="iso-8859-1"?>
<!-- Generator: Adobe Illustrator 16.0.0, SVG Export Plug-In . SVG Version: 6.00 Build 0)  -->
<!DOCTYPE svg PUBLIC "-//W3C//DTD SVG 1.1//EN" "http://www.w3.org/Graphics/SVG/1.1/DTD/svg11.dtd">
<svg version="1.1" id="Capa_1" xmlns="http://www.w3.org/2000/svg" xmlns:xlink="http://www.w3.org/1999/xlink" x="0px" y="0px"
	 width="611.988px" height="611.988px" viewBox="0 0 611.988 611.988" style="enable-background:new 0 0 611.988 611.988;"
	 xml:space="preserve">
<g>
	<g id="_x36__36_">
		<g>
			<path d="M22.672,159.188h90.687l79.532,108.892l28.521-36.978c0,0-79.623-109.913-85.382-117.235H22.672
				C10.157,113.867,0,125.974,0,138.352C0,150.731,10.157,159.188,22.672,159.188z M510.748,389.668
				c-6.756-6.688-27.886-4.92-34.643,1.769v62.483h-90.687l-80.145-109.709l-28.521,36.978L362.747,497.2h113.358v65.112
				c6.757,6.688,27.887,3.719,34.643-2.97l96.174-72.708c6.756-6.688,6.756-17.548,0-24.236L510.748,389.668z M476.105,159.188
				v60.941c6.757,6.688,27.887,9.477,34.643,2.789l96.174-72.708c6.756-6.688,6.756-17.548,0-24.236l-96.174-72.708
				c-6.756-6.711-27.886-10.565-34.643-3.877v64.479H362.747L113.358,453.942H22.672C10.157,453.942,0,462.398,0,474.8
				c0,12.379,10.157,24.486,22.672,24.486H136.03L385.419,159.21h90.687V159.188z"/>
		</g>
	</g>
</g>
<g>
</g>
<g>
</g>
<g>
</g>
<g>
</g>
<g>
</g>
<g>
</g>
<g>
</g>
<g>
</g>
<g>
</g>
<g>
</g>
<g>
</g>
<g>
</g>
<g>
</g>
<g>
</g>
<g>
</g>
</svg>
