<?xml version="1.0" encoding="iso-8859-1"?>
<!-- Generator: Adobe Illustrator 16.0.0, SVG Export Plug-In . SVG Version: 6.00 Build 0)  -->
<!DOCTYPE svg PUBLIC "-//W3C//DTD SVG 1.1//EN" "http://www.w3.org/Graphics/SVG/1.1/DTD/svg11.dtd">
<svg version="1.1" id="Capa_1" xmlns="http://www.w3.org/2000/svg" xmlns:xlink="http://www.w3.org/1999/xlink" x="0px" y="0px"
	 width="612px" height="612px" viewBox="0 0 612 612" style="enable-background:new 0 0 612 612;" xml:space="preserve">
<g>
	<g id="_x33__18_">
		<g>
			<path d="M153,229.5c-21.133,0-38.25,17.117-38.25,38.25S131.867,306,153,306c21.114,0,38.25-17.117,38.25-38.25
				S174.133,229.5,153,229.5z M306,229.5c-21.133,0-38.25,17.117-38.25,38.25S284.867,306,306,306
				c21.114,0,38.25-17.117,38.25-38.25S327.133,229.5,306,229.5z M459,229.5c-21.133,0-38.25,17.117-38.25,38.25
				S437.867,306,459,306s38.25-17.117,38.25-38.25S480.133,229.5,459,229.5z M306,0C137.012,0,0,119.875,0,267.75
				c0,84.514,44.848,159.751,114.75,208.826V612l134.047-81.339c18.552,3.061,37.638,4.839,57.203,4.839
				c169.008,0,306-119.875,306-267.75C612,119.875,475.008,0,306,0z M306,497.25c-22.338,0-43.911-2.601-64.643-7.019
				l-90.041,54.123l1.205-88.701C83.5,414.133,38.25,345.513,38.25,267.75c0-126.741,119.875-229.5,267.75-229.5
				c147.875,0,267.75,102.759,267.75,229.5S453.875,497.25,306,497.25z"/>
		</g>
	</g>
</g>
<g>
</g>
<g>
</g>
<g>
</g>
<g>
</g>
<g>
</g>
<g>
</g>
<g>
</g>
<g>
</g>
<g>
</g>
<g>
</g>
<g>
</g>
<g>
</g>
<g>
</g>
<g>
</g>
<g>
</g>
</svg>
