<?xml version="1.0" encoding="iso-8859-1"?>
<!-- Generator: Adobe Illustrator 16.0.0, SVG Export Plug-In . SVG Version: 6.00 Build 0)  -->
<!DOCTYPE svg PUBLIC "-//W3C//DTD SVG 1.1//EN" "http://www.w3.org/Graphics/SVG/1.1/DTD/svg11.dtd">
<svg version="1.1" id="Capa_1" xmlns="http://www.w3.org/2000/svg" xmlns:xlink="http://www.w3.org/1999/xlink" x="0px" y="0px"
	 width="612px" height="612px" viewBox="0 0 612 612" style="enable-background:new 0 0 612 612;" xml:space="preserve">
<g>
	<g id="_x39__23_">
		<g>
			<path d="M568.286,0H43.714C19.584,0,0,19.584,0,43.714v524.572C0,592.416,19.584,612,43.714,612h524.572
				C592.438,612,612,592.438,612,568.286V43.714C612,19.584,592.438,0,568.286,0z M568.286,546.429
				c0,12.065-9.792,21.857-21.857,21.857H65.571c-12.065,0-21.857-9.792-21.857-21.857V65.571c0-12.065,9.792-21.857,21.857-21.857
				h480.857c12.065,0,21.857,9.792,21.857,21.857V546.429z"/>
		</g>
	</g>
</g>
<g>
</g>
<g>
</g>
<g>
</g>
<g>
</g>
<g>
</g>
<g>
</g>
<g>
</g>
<g>
</g>
<g>
</g>
<g>
</g>
<g>
</g>
<g>
</g>
<g>
</g>
<g>
</g>
<g>
</g>
</svg>
