<?xml version="1.0" encoding="iso-8859-1"?>
<!-- Generator: Adobe Illustrator 16.0.0, SVG Export Plug-In . SVG Version: 6.00 Build 0)  -->
<!DOCTYPE svg PUBLIC "-//W3C//DTD SVG 1.1//EN" "http://www.w3.org/Graphics/SVG/1.1/DTD/svg11.dtd">
<svg version="1.1" id="Capa_1" xmlns="http://www.w3.org/2000/svg" xmlns:xlink="http://www.w3.org/1999/xlink" x="0px" y="0px"
	 width="612px" height="612px" viewBox="0 0 612 612" style="enable-background:new 0 0 612 612;" xml:space="preserve">
<g>
	<g id="_x39__6_">
		<g>
			<path d="M38.25,535.5v-153H0v153C0,577.747,34.253,612,76.5,612h153v-38.25h-153C55.367,573.75,38.25,556.633,38.25,535.5z
				 M0,76.5v153h38.25v-153c0-21.114,17.117-38.25,38.25-38.25h153V0h-153C34.253,0,0,34.253,0,76.5z M573.75,535.5
				c0,21.133-17.117,38.25-38.25,38.25h-153V612h153c42.247,0,76.5-34.253,76.5-76.5v-153h-38.25V535.5z M535.5,0h-153v38.25h153
				c21.133,0,38.25,17.136,38.25,38.25v153H612v-153C612,34.253,577.747,0,535.5,0z"/>
		</g>
	</g>
</g>
<g>
</g>
<g>
</g>
<g>
</g>
<g>
</g>
<g>
</g>
<g>
</g>
<g>
</g>
<g>
</g>
<g>
</g>
<g>
</g>
<g>
</g>
<g>
</g>
<g>
</g>
<g>
</g>
<g>
</g>
</svg>
