<?xml version="1.0" encoding="iso-8859-1"?>
<!-- Generator: Adobe Illustrator 16.0.0, SVG Export Plug-In . SVG Version: 6.00 Build 0)  -->
<!DOCTYPE svg PUBLIC "-//W3C//DTD SVG 1.1//EN" "http://www.w3.org/Graphics/SVG/1.1/DTD/svg11.dtd">
<svg version="1.1" id="Capa_1" xmlns="http://www.w3.org/2000/svg" xmlns:xlink="http://www.w3.org/1999/xlink" x="0px" y="0px"
	 width="612px" height="612px" viewBox="0 0 612 612" style="enable-background:new 0 0 612 612;" xml:space="preserve">
<g>
	<g id="_x36__10_">
		<g>
			<path d="M500.215,0H111.154L0,191.25c0,0,0,65.599,0,76.5c0,20.387,7.306,42.63,19.144,57.375L19.718,535.5
				c0,42.247,35.324,76.5,78.891,76.5h414.152c43.566,0,80.114-34.253,80.114-76.5V325.125C606.263,309.366,612,293.186,612,267.75
				c0-20.942,0-76.5,0-76.5L500.215,0z M554.625,535.5c0,21.114-20.081,38.25-41.864,38.25H98.608
				c-21.783,0-41.176-17.136-41.176-38.25v-38.25h497.192V535.5z M554.625,459H57.433l-0.058-114.75c11.054,0,27.502,0,37.562,0
				c20.54,0,53.11-18.321,66.88-46.359c15.472,27.253,44.37,46.359,71.948,46.359c29.146,0,61.219-17.347,71.929-42.381
				c10.71,24.441,42.114,42.381,70.648,42.381c28.305,0,57.624-20.808,72.465-49.247c17.346,28.707,31.365,49.247,67.568,49.247
				c5.604,0,33.354,0.898,38.25,0V459z M573.75,267.75c-0.268,26.412-30.734,38.27-57.375,38.25
				c-30.753-0.019-58.427-18.628-58.427-38.25h-18.073c0,19.297-34.253,38.25-63.743,38.25c-28.286,0-61.182-19.546-61.182-38.25
				h-18.532c0,19.297-33.469,38.25-61.755,38.25c-29.491,0-63.15-13.579-63.15-38.25h-18.092c0,19.24-29.548,38.843-57.892,38.843
				c-28.764,0-57.279-12.431-57.279-38.843V229.5h535.5V267.75z M574.936,191.25H39.015l89.103-153h355.189l90.997,153H574.936
				L574.936,191.25z"/>
		</g>
	</g>
</g>
<g>
</g>
<g>
</g>
<g>
</g>
<g>
</g>
<g>
</g>
<g>
</g>
<g>
</g>
<g>
</g>
<g>
</g>
<g>
</g>
<g>
</g>
<g>
</g>
<g>
</g>
<g>
</g>
<g>
</g>
</svg>
