<?xml version="1.0" encoding="iso-8859-1"?>
<!-- Generator: Adobe Illustrator 16.0.0, SVG Export Plug-In . SVG Version: 6.00 Build 0)  -->
<!DOCTYPE svg PUBLIC "-//W3C//DTD SVG 1.1//EN" "http://www.w3.org/Graphics/SVG/1.1/DTD/svg11.dtd">
<svg version="1.1" id="Capa_1" xmlns="http://www.w3.org/2000/svg" xmlns:xlink="http://www.w3.org/1999/xlink" x="0px" y="0px"
	 width="612px" height="612px" viewBox="0 0 612 612" style="enable-background:new 0 0 612 612;" xml:space="preserve">
<g>
	<g id="_x36__33_">
		<g>
			<path d="M516.375,497.143h-76.5c-10.557,0-19.125,8.568-19.125,19.125c0,10.558,8.568,19.125,19.125,19.125h76.5
				c10.557,0,19.125-8.567,19.125-19.125C535.5,505.711,526.932,497.143,516.375,497.143z M344.25,229.393h-229.5
				c-21.133,0-38.25,17.136-38.25,38.25v229.5c0,21.114,17.117,38.25,38.25,38.25h229.5c21.133,0,38.25-17.116,38.25-38.25v-229.5
				C382.5,246.528,365.383,229.393,344.25,229.393z M344.25,478.018c0,10.558-8.568,19.125-19.125,19.125h-191.25
				c-10.557,0-19.125-8.567-19.125-19.125v-191.25c0-10.557,8.568-19.125,19.125-19.125h191.25c10.557,0,19.125,8.568,19.125,19.125
				V478.018z M516.375,439.768h-76.5c-10.557,0-19.125,8.568-19.125,19.125c0,10.558,8.568,19.125,19.125,19.125h76.5
				c10.557,0,19.125-8.567,19.125-19.125C535.5,448.336,526.932,439.768,516.375,439.768z M535.5,152.893H358.518L526.282,37.473
				c8.874-6.101,11.398-18.685,5.66-28.095c-5.737-9.41-17.575-12.106-26.449-6.005c0,0-183.791,126.895-199.321,136.266
				L106.507,3.373c-8.855-6.101-20.693-3.404-26.431,6.005c-5.737,9.41-3.213,21.994,5.661,28.095l167.765,115.419H76.5
				c-42.247,0-76.5,34.252-76.5,76.5v306c0,42.247,34.253,76.5,76.5,76.5h459c42.247,0,76.5-34.253,76.5-76.5v-306
				C612,187.145,577.747,152.893,535.5,152.893z M573.75,535.393c0,21.134-17.117,38.25-38.25,38.25h-459
				c-21.133,0-38.25-17.116-38.25-38.25v-306c0-21.114,17.117-38.25,38.25-38.25h459c21.133,0,38.25,17.136,38.25,38.25V535.393z
				 M478.125,229.393c-31.69,0-57.375,25.685-57.375,57.375s25.685,57.375,57.375,57.375s57.375-25.685,57.375-57.375
				S509.815,229.393,478.125,229.393z M497.25,305.893H459v-38.25h38.25V305.893z"/>
		</g>
	</g>
</g>
<g>
</g>
<g>
</g>
<g>
</g>
<g>
</g>
<g>
</g>
<g>
</g>
<g>
</g>
<g>
</g>
<g>
</g>
<g>
</g>
<g>
</g>
<g>
</g>
<g>
</g>
<g>
</g>
<g>
</g>
</svg>
