<?xml version="1.0" encoding="iso-8859-1"?>
<!-- Generator: Adobe Illustrator 16.0.0, SVG Export Plug-In . SVG Version: 6.00 Build 0)  -->
<!DOCTYPE svg PUBLIC "-//W3C//DTD SVG 1.1//EN" "http://www.w3.org/Graphics/SVG/1.1/DTD/svg11.dtd">
<svg version="1.1" id="Capa_1" xmlns="http://www.w3.org/2000/svg" xmlns:xlink="http://www.w3.org/1999/xlink" x="0px" y="0px"
	 width="699.428px" height="699.428px" viewBox="0 0 699.428 699.428" style="enable-background:new 0 0 699.428 699.428;"
	 xml:space="preserve">
<g>
	<g id="_x37__8_">
		<g>
			<path d="M502.714,393.428h-306c-12.065,0-21.857,9.793-21.857,21.857c0,12.066,9.792,21.857,21.857,21.857h306
				c12.065,0,21.857-9.791,21.857-21.857C524.571,403.221,514.779,393.428,502.714,393.428z M502.714,261.783h-306
				c-12.065,0-21.857,9.792-21.857,21.857c0,12.065,9.792,21.857,21.857,21.857h306c12.065,0,21.857-9.792,21.857-21.857
				C524.571,271.575,514.779,261.783,502.714,261.783z M502.714,131.143h-306c-12.065,0-21.857,9.792-21.857,21.857
				s9.792,21.857,21.857,21.857h306c12.065,0,21.857-9.792,21.857-21.857S514.779,131.143,502.714,131.143z M568.285,0H131.143
				C82.86,0,43.714,39.146,43.714,87.429v611.999h40.807l90.336-65.57l87.428,65.57l87.429-65.57l87.429,65.57l87.429-65.57
				l90.335,65.57h40.808V87.429C655.714,39.146,616.567,0,568.285,0z M612,656.305l-87.429-66.162l-87.429,69.682l-87.429-69.682
				l-87.429,69.682l-87.428-69.682l-87.429,66.84V87.429c0-24.152,19.584-43.714,43.714-43.714h437.143
				c24.152,0,43.715,19.562,43.715,43.714V656.305z"/>
		</g>
	</g>
</g>
<g>
</g>
<g>
</g>
<g>
</g>
<g>
</g>
<g>
</g>
<g>
</g>
<g>
</g>
<g>
</g>
<g>
</g>
<g>
</g>
<g>
</g>
<g>
</g>
<g>
</g>
<g>
</g>
<g>
</g>
</svg>
