<?xml version="1.0" encoding="iso-8859-1"?>
<!-- Generator: Adobe Illustrator 16.0.0, SVG Export Plug-In . SVG Version: 6.00 Build 0)  -->
<!DOCTYPE svg PUBLIC "-//W3C//DTD SVG 1.1//EN" "http://www.w3.org/Graphics/SVG/1.1/DTD/svg11.dtd">
<svg version="1.1" id="Capa_1" xmlns="http://www.w3.org/2000/svg" xmlns:xlink="http://www.w3.org/1999/xlink" x="0px" y="0px"
	 width="706.154px" height="706.154px" viewBox="0 0 706.154 706.154" style="enable-background:new 0 0 706.154 706.154;"
	 xml:space="preserve">
<g>
	<g id="_x39__24_">
		<g>
			<path d="M376.615,333.87V211.847c0-12.994-10.545-23.539-23.538-23.539s-23.539,10.545-23.539,23.539V333.87
				c-27.375,9.722-47.077,35.59-47.077,66.285c0,39.003,31.612,70.615,70.615,70.615c39.003,0,70.615-31.612,70.615-70.615
				C423.692,369.46,403.991,343.591,376.615,333.87z M376.38,95.331c0.023-0.4,0.235-0.753,0.235-1.177V47.077h94.154
				c12.993,0,23.538-10.545,23.538-23.539S483.763,0,470.77,0H235.385c-12.993,0-23.539,10.545-23.539,23.539
				s10.545,23.539,23.539,23.539h94.154v47.077c0,0.423,0.212,0.776,0.235,1.177C171.69,107.289,47.077,239.033,47.077,400.154
				c0,169.006,136.994,306,306,306c169.006,0,306-136.994,306-306C659.077,239.033,534.465,107.289,376.38,95.331z M353.077,659.077
				c-142.996,0-258.923-115.927-258.923-258.923c0-142.997,115.927-258.923,258.923-258.923S612,257.158,612,400.154
				C612,543.15,496.073,659.077,353.077,659.077z"/>
		</g>
	</g>
</g>
<g>
</g>
<g>
</g>
<g>
</g>
<g>
</g>
<g>
</g>
<g>
</g>
<g>
</g>
<g>
</g>
<g>
</g>
<g>
</g>
<g>
</g>
<g>
</g>
<g>
</g>
<g>
</g>
<g>
</g>
</svg>
