<?xml version="1.0" encoding="iso-8859-1"?>
<!-- Generator: Adobe Illustrator 16.0.0, SVG Export Plug-In . SVG Version: 6.00 Build 0)  -->
<!DOCTYPE svg PUBLIC "-//W3C//DTD SVG 1.1//EN" "http://www.w3.org/Graphics/SVG/1.1/DTD/svg11.dtd">
<svg version="1.1" id="Capa_1" xmlns="http://www.w3.org/2000/svg" xmlns:xlink="http://www.w3.org/1999/xlink" x="0px" y="0px"
	 width="612px" height="612px" viewBox="0 0 612 612" style="enable-background:new 0 0 612 612;" xml:space="preserve">
<g>
	<g id="_x33__5_">
		<g>
			<path d="M592.875,382.5h-191.25c-10.557,0-19.125,8.568-19.125,19.125s8.568,19.125,19.125,19.125h146.02
				c-43.013,90.365-134.889,153-241.645,153c-134.851,0-246.101-99.794-264.709-229.5H2.639C21.497,495.146,149.978,612,306,612
				c115.285,0,215.577-63.801,267.75-157.973v138.848c0,10.557,8.568,19.125,19.125,19.125S612,603.432,612,592.875v-191.25
				C612,381.314,592.875,382.5,592.875,382.5z M19.125,229.5h191.25c10.557,0,19.125-8.568,19.125-19.125
				s-8.568-19.125-19.125-19.125H64.241c42.974-90.423,134.984-153,241.759-153c134.851,0,246.101,99.794,264.709,229.5h38.651
				C590.504,116.834,462.021,0,306,0C190.714,0,90.423,63.801,38.25,157.973V19.125C38.25,8.568,29.682,0,19.125,0S0,8.568,0,19.125
				v191.25C0,228.907,19.125,229.5,19.125,229.5z"/>
		</g>
	</g>
</g>
<g>
</g>
<g>
</g>
<g>
</g>
<g>
</g>
<g>
</g>
<g>
</g>
<g>
</g>
<g>
</g>
<g>
</g>
<g>
</g>
<g>
</g>
<g>
</g>
<g>
</g>
<g>
</g>
<g>
</g>
</svg>
