<?xml version="1.0" encoding="iso-8859-1"?>
<!-- Generator: Adobe Illustrator 16.0.0, SVG Export Plug-In . SVG Version: 6.00 Build 0)  -->
<!DOCTYPE svg PUBLIC "-//W3C//DTD SVG 1.1//EN" "http://www.w3.org/Graphics/SVG/1.1/DTD/svg11.dtd">
<svg version="1.1" id="Capa_1" xmlns="http://www.w3.org/2000/svg" xmlns:xlink="http://www.w3.org/1999/xlink" x="0px" y="0px"
	 width="753.23px" height="753.23px" viewBox="0 0 753.23 753.23" style="enable-background:new 0 0 753.23 753.23;"
	 xml:space="preserve">
<g>
	<g id="_x36__15_">
		<g>
			<path d="M376.615,235.385c-61.859,61.882-164.769,147.821-164.769,237.597c0,89.776,73.77,162.557,164.769,162.557
				c91,0,164.77-72.78,164.77-162.557C541.385,383.206,440.97,298.868,376.615,235.385z M376.615,588.461
				c-64.849,0-117.41-55.645-117.41-124.306c0-68.662,72.545-122.495,116.609-169.807
				c45.853,48.537,118.187,101.168,118.187,169.807C494.025,532.793,441.464,588.461,376.615,588.461z M376.615,0
				c-114.868,116.492-306,278.225-306,447.23s136.994,306,306,306c169.006,0,306-136.994,306-306S496.12,119.505,376.615,0z
				 M376.615,706.153c-142.996,0-258.923-115.597-258.923-258.193c0-142.596,161.732-279.048,258.923-377.345
				C477.736,171.454,635.538,305.364,635.538,447.96C635.538,590.557,519.611,706.153,376.615,706.153z"/>
		</g>
	</g>
</g>
<g>
</g>
<g>
</g>
<g>
</g>
<g>
</g>
<g>
</g>
<g>
</g>
<g>
</g>
<g>
</g>
<g>
</g>
<g>
</g>
<g>
</g>
<g>
</g>
<g>
</g>
<g>
</g>
<g>
</g>
</svg>
