<?xml version="1.0" encoding="iso-8859-1"?>
<!-- Generator: Adobe Illustrator 16.0.0, SVG Export Plug-In . SVG Version: 6.00 Build 0)  -->
<!DOCTYPE svg PUBLIC "-//W3C//DTD SVG 1.1//EN" "http://www.w3.org/Graphics/SVG/1.1/DTD/svg11.dtd">
<svg version="1.1" id="Capa_1" xmlns="http://www.w3.org/2000/svg" xmlns:xlink="http://www.w3.org/1999/xlink" x="0px" y="0px"
	 width="652.801px" height="652.801px" viewBox="0 0 652.801 652.801" style="enable-background:new 0 0 652.801 652.801;"
	 xml:space="preserve">
<g>
	<g id="_x37__39_">
		<g>
			<path d="M239.354,381.848L306,301.206v249.595c0,11.26,9.139,20.398,20.4,20.398s20.4-9.139,20.4-20.398v-250.37l67.299,81.417
				c7.997,8.018,20.972,8.018,28.969,0c7.996-8.018,7.996-21.033,0-29.051L342.251,230.806c-4.264-4.284-9.935-6.1-15.504-5.814
				c-5.589-0.286-11.24,1.53-15.504,5.814L210.426,352.797c-7.997,8.018-7.997,21.033,0,29.051
				C218.382,389.865,231.357,389.865,239.354,381.848z M550.801,0H102C56.937,0,20.4,36.536,20.4,81.6v489.599
				c0,45.064,36.537,81.602,81.6,81.602h448.8c45.063,0,81.6-36.537,81.6-81.602V81.6C632.4,36.536,595.864,0,550.801,0z
				 M591.601,571.199c0,22.521-18.258,40.801-40.8,40.801H102c-22.521,0-40.8-18.279-40.8-40.801v-408h530.4V571.199z
				 M591.601,122.4H61.2V81.6c0-22.522,18.279-40.8,40.8-40.8h448.8c22.542,0,40.8,18.278,40.8,40.8V122.4z"/>
		</g>
	</g>
</g>
<g>
</g>
<g>
</g>
<g>
</g>
<g>
</g>
<g>
</g>
<g>
</g>
<g>
</g>
<g>
</g>
<g>
</g>
<g>
</g>
<g>
</g>
<g>
</g>
<g>
</g>
<g>
</g>
<g>
</g>
</svg>
