<?xml version="1.0" encoding="iso-8859-1"?>
<!-- Generator: Adobe Illustrator 16.0.0, SVG Export Plug-In . SVG Version: 6.00 Build 0)  -->
<!DOCTYPE svg PUBLIC "-//W3C//DTD SVG 1.1//EN" "http://www.w3.org/Graphics/SVG/1.1/DTD/svg11.dtd">
<svg version="1.1" id="Capa_1" xmlns="http://www.w3.org/2000/svg" xmlns:xlink="http://www.w3.org/1999/xlink" x="0px" y="0px"
	 width="612px" height="612px" viewBox="0 0 612 612" style="enable-background:new 0 0 612 612;" xml:space="preserve">
<g>
	<g id="_x36__34_">
		<g>
			<path d="M322.811,180.999c-4.59-4.571-10.882-6.005-16.811-4.953c-5.929-1.052-12.221,0.382-16.811,4.953l-108.19,108.19
				c-7.478,7.478-7.478,19.584,0,27.042c7.478,7.479,19.584,7.479,27.043,0l78.833-78.813v202.457
				c0,10.557,8.568,19.125,19.125,19.125c10.557,0,19.125-8.568,19.125-19.125V237.418l78.814,78.813
				c7.478,7.479,19.584,7.479,27.042,0c7.479-7.478,7.479-19.583,0-27.042L322.811,180.999z M306,0C137.012,0,0,136.992,0,306
				s137.012,306,306,306c169.008,0,306-137.012,306-306S475.008,0,306,0z M306,573.75C158.125,573.75,38.25,453.875,38.25,306
				C38.25,158.125,158.125,38.25,306,38.25c147.875,0,267.75,119.875,267.75,267.75C573.75,453.875,453.875,573.75,306,573.75z"/>
		</g>
	</g>
</g>
<g>
</g>
<g>
</g>
<g>
</g>
<g>
</g>
<g>
</g>
<g>
</g>
<g>
</g>
<g>
</g>
<g>
</g>
<g>
</g>
<g>
</g>
<g>
</g>
<g>
</g>
<g>
</g>
<g>
</g>
</svg>
