<?xml version="1.0" encoding="iso-8859-1"?>
<!-- Generator: Adobe Illustrator 16.0.0, SVG Export Plug-In . SVG Version: 6.00 Build 0)  -->
<!DOCTYPE svg PUBLIC "-//W3C//DTD SVG 1.1//EN" "http://www.w3.org/Graphics/SVG/1.1/DTD/svg11.dtd">
<svg version="1.1" id="Capa_1" xmlns="http://www.w3.org/2000/svg" xmlns:xlink="http://www.w3.org/1999/xlink" x="0px" y="0px"
	 width="612px" height="612px" viewBox="0 0 612 612" style="enable-background:new 0 0 612 612;" xml:space="preserve">
<g>
	<g id="_x39__4_">
		<g>
			<path d="M535.5,0h-459C34.253,0,0,34.253,0,76.5v459C0,577.747,34.253,612,76.5,612h459c42.247,0,76.5-34.253,76.5-76.5v-459
				C612,34.253,577.747,0,535.5,0z M573.75,535.5c0,21.114-17.117,38.25-38.25,38.25h-459c-21.133,0-38.25-17.136-38.25-38.25v-459
				c0-21.133,17.136-38.25,38.25-38.25h459c21.133,0,38.25,17.117,38.25,38.25V535.5z M322.811,161.874
				c-4.59-4.571-10.882-6.005-16.811-4.953c-5.929-1.052-12.221,0.382-16.811,4.972l-108.19,108.19
				c-7.478,7.459-7.478,19.584,0,27.043c7.478,7.478,19.584,7.478,27.043,0l78.833-78.833V420.75
				c0,10.557,8.568,19.125,19.125,19.125c10.557,0,19.125-8.568,19.125-19.125V218.293l78.814,78.814
				c7.478,7.478,19.584,7.478,27.042,0c7.479-7.478,7.479-19.584,0-27.043L322.811,161.874z"/>
		</g>
	</g>
</g>
<g>
</g>
<g>
</g>
<g>
</g>
<g>
</g>
<g>
</g>
<g>
</g>
<g>
</g>
<g>
</g>
<g>
</g>
<g>
</g>
<g>
</g>
<g>
</g>
<g>
</g>
<g>
</g>
<g>
</g>
</svg>
