<?xml version="1.0" encoding="iso-8859-1"?>
<!-- Generator: Adobe Illustrator 16.0.0, SVG Export Plug-In . SVG Version: 6.00 Build 0)  -->
<!DOCTYPE svg PUBLIC "-//W3C//DTD SVG 1.1//EN" "http://www.w3.org/Graphics/SVG/1.1/DTD/svg11.dtd">
<svg version="1.1" id="Capa_1" xmlns="http://www.w3.org/2000/svg" xmlns:xlink="http://www.w3.org/1999/xlink" x="0px" y="0px"
	 width="612px" height="612px" viewBox="0 0 612 612" style="enable-background:new 0 0 612 612;" xml:space="preserve">
<g>
	<g id="_x38__9_">
		<g>
			<path d="M320.86,196.624c-4.017-3.997-9.314-5.699-14.573-5.432c-5.24-0.268-10.557,1.435-14.573,5.432L178.111,309.71
				c-7.516,7.479-7.516,19.622,0,27.101c7.516,7.478,19.699,7.478,27.215,0l81.549-81.167v183.944
				c0,10.576,8.568,19.145,19.125,19.145c10.557,0,19.125-8.568,19.125-19.145V255.051l82.142,81.778
				c7.517,7.479,19.699,7.479,27.215,0c7.517-7.478,7.517-19.622,0-27.1L320.86,196.624z M441.156,172.68
				c-28.075-56.935-86.521-96.18-154.281-96.18c-90.825,0-165.049,70.399-171.494,159.598C48.616,255.127,0,313.459,0,382.5
				c0,81.453,67.703,147.855,153,152.541l325.125,0.459C543.839,506.966,612,427.463,612,353.812
				C612,257.136,536.418,178.321,441.156,172.68z M478.125,497.25H153c0,0-115.477-11.857-114.75-114.75
				C38.652,324.437,89.639,271.231,153,267.75c0-79.216,50.7-153,133.875-153c65.656,0,109.452,40.067,125.039,95.874
				c94.765-4.131,158.853,70.839,161.836,133.626C576.332,398.316,529.38,468.161,478.125,497.25z"/>
		</g>
	</g>
</g>
<g>
</g>
<g>
</g>
<g>
</g>
<g>
</g>
<g>
</g>
<g>
</g>
<g>
</g>
<g>
</g>
<g>
</g>
<g>
</g>
<g>
</g>
<g>
</g>
<g>
</g>
<g>
</g>
<g>
</g>
</svg>
