<?xml version="1.0" encoding="iso-8859-1"?>
<!-- Generator: Adobe Illustrator 16.0.0, SVG Export Plug-In . SVG Version: 6.00 Build 0)  -->
<!DOCTYPE svg PUBLIC "-//W3C//DTD SVG 1.1//EN" "http://www.w3.org/Graphics/SVG/1.1/DTD/svg11.dtd">
<svg version="1.1" id="Capa_1" xmlns="http://www.w3.org/2000/svg" xmlns:xlink="http://www.w3.org/1999/xlink" x="0px" y="0px"
	 width="612.01px" height="612.01px" viewBox="0 0 612.01 612.01" style="enable-background:new 0 0 612.01 612.01;"
	 xml:space="preserve">
<g>
	<g id="_x35__17_">
		<g>
			<path d="M596.905,15.396c-23.856-23.914-65.753-18.308-89.724,5.72L385.202,142.828l-226.3-84.578
				c-21.656-5.605-43.485-12.837-70.383,14.1c-13.698,13.736-42.222,42.318,0,84.616L243.69,284.015L142.736,384.758l-94.201-23.531
				c-13.984-3.616-23.378-0.784-30.552,7.116c-3.616,4.516-29.844,23.972-11.574,42.28l109.544,85.209l85.19,109.544
				c13.239,13.258,25.54,4.993,42.356-10.981c10.656-10.675,8.36-16.165,5.146-31.738l-21.293-93.531l100.266-100.609
				l126.838,155.171c42.223,42.299,70.747,13.717,84.444,0c26.898-26.955,19.667-48.822,14.08-70.517L469.13,226.526
				l121.501-121.922C614.621,80.557,620.762,39.292,596.905,15.396z M571.021,79.352L428.457,222.432l86.204,237.128
				c4.247,13.583,1.607,30.399-3.883,35.89c-15.592,15.63-26.727,8.207-32.618,1.646L340.321,310.875l-152.57,153.124
				l27.453,101.968c-10.828-10.866-74.133-95.636-75.663-97.166c-1.014-1.014-84.253-63.074-93.245-72.085l97.798,26.381
				l155.477-152.665L114.671,133.626c-5.299-4.744-12.263-18.748,2.009-33.058c5.472-5.491,22.116-7.155,35.679-2.908
				l236.095,85.554L532.951,41.319c10.082-10.102,29.863-9.068,38.701-0.21C580.511,49.966,581.104,69.25,571.021,79.352z"/>
		</g>
	</g>
</g>
<g>
</g>
<g>
</g>
<g>
</g>
<g>
</g>
<g>
</g>
<g>
</g>
<g>
</g>
<g>
</g>
<g>
</g>
<g>
</g>
<g>
</g>
<g>
</g>
<g>
</g>
<g>
</g>
<g>
</g>
</svg>
