<?xml version="1.0" encoding="iso-8859-1"?>
<!-- Generator: Adobe Illustrator 16.0.0, SVG Export Plug-In . SVG Version: 6.00 Build 0)  -->
<!DOCTYPE svg PUBLIC "-//W3C//DTD SVG 1.1//EN" "http://www.w3.org/Graphics/SVG/1.1/DTD/svg11.dtd">
<svg version="1.1" id="Capa_1" xmlns="http://www.w3.org/2000/svg" xmlns:xlink="http://www.w3.org/1999/xlink" x="0px" y="0px"
	 width="612px" height="612px" viewBox="0 0 612 612" style="enable-background:new 0 0 612 612;" xml:space="preserve">
<g>
	<g id="_x36__16_">
		<g>
			<path d="M439.875,286.875h-114.75V153c0-10.557-8.568-19.125-19.125-19.125c-10.557,0-19.125,8.568-19.125,19.125v153
				c0,10.557,8.568,19.125,19.125,19.125h133.875c10.557,0,19.125-8.568,19.125-19.125C459,295.443,450.432,286.875,439.875,286.875
				z M38.25,95.625c0-31.69,25.685-57.375,57.375-57.375h38.25V0h-38.25C42.821,0,0,42.821,0,95.625v38.25h38.25V95.625z M516.375,0
				h-38.25v38.25h38.25c31.69,0,57.375,25.685,57.375,57.375v38.25H612v-38.25C612,42.821,569.179,0,516.375,0z M573.75,306
				c0-147.875-119.875-267.75-267.75-267.75C158.125,38.25,38.25,158.125,38.25,306c0,101.4,56.399,189.624,139.517,235.065
				L114.75,612h57.375l51.351-51.351c26.01,8.435,53.703,13.101,82.524,13.101s56.515-4.686,82.524-13.101L439.875,612h57.375
				l-63.017-70.935C517.351,495.624,573.75,407.42,573.75,306z M306,535.5C179.259,535.5,76.5,432.761,76.5,306
				C76.5,179.259,179.259,76.5,306,76.5S535.5,179.239,535.5,306S432.741,535.5,306,535.5z"/>
		</g>
	</g>
</g>
<g>
</g>
<g>
</g>
<g>
</g>
<g>
</g>
<g>
</g>
<g>
</g>
<g>
</g>
<g>
</g>
<g>
</g>
<g>
</g>
<g>
</g>
<g>
</g>
<g>
</g>
<g>
</g>
<g>
</g>
</svg>
