<?xml version="1.0" encoding="iso-8859-1"?>
<!-- Generator: Adobe Illustrator 16.0.0, SVG Export Plug-In . SVG Version: 6.00 Build 0)  -->
<!DOCTYPE svg PUBLIC "-//W3C//DTD SVG 1.1//EN" "http://www.w3.org/Graphics/SVG/1.1/DTD/svg11.dtd">
<svg version="1.1" id="Capa_1" xmlns="http://www.w3.org/2000/svg" xmlns:xlink="http://www.w3.org/1999/xlink" x="0px" y="0px"
	 width="612.017px" height="612.017px" viewBox="0 0 612.017 612.017" style="enable-background:new 0 0 612.017 612.017;"
	 xml:space="preserve">
<g>
	<g id="_x35__1_">
		<g>
			<path d="M285.752,61.078L102.054,183.543H40.822C18.268,183.543,0,201.811,0,224.365v163.287
				c0,22.554,18.268,40.821,40.822,40.821h61.232l183.698,122.466c22.554,0,40.822-18.288,40.822-40.822V101.899
				C326.574,79.366,308.307,61.078,285.752,61.078z M102.054,367.241c0,11.267-9.144,20.411-20.411,20.411H61.232
				c-11.267,0-20.411-9.145-20.411-20.411V244.776c0-11.267,9.144-20.411,20.411-20.411h20.411c11.267,0,20.411,9.144,20.411,20.411
				V367.241z M285.752,510.117L142.876,420.82V191.197l142.876-89.297V510.117z M519.335,306.008l85.174-85.175
				c9.206-9.205,10.043-23.248,1.919-31.392c-8.144-8.144-22.187-7.287-31.392,1.918l-85.175,85.175l-85.175-85.175
				c-9.205-9.206-23.248-10.062-31.392-1.918c-8.145,8.144-7.287,22.187,1.918,31.392l85.175,85.175l-85.175,85.175
				c-9.205,9.205-10.062,23.248-1.918,31.392c8.144,8.145,22.187,7.287,31.392-1.918l85.175-85.175l85.175,85.175
				c9.205,9.185,23.248,10.042,31.392,1.918c8.145-8.144,7.287-22.207-1.919-31.392L519.335,306.008z"/>
		</g>
	</g>
</g>
<g>
</g>
<g>
</g>
<g>
</g>
<g>
</g>
<g>
</g>
<g>
</g>
<g>
</g>
<g>
</g>
<g>
</g>
<g>
</g>
<g>
</g>
<g>
</g>
<g>
</g>
<g>
</g>
<g>
</g>
</svg>
