<?xml version="1.0" encoding="iso-8859-1"?>
<!-- Generator: Adobe Illustrator 16.0.0, SVG Export Plug-In . SVG Version: 6.00 Build 0)  -->
<!DOCTYPE svg PUBLIC "-//W3C//DTD SVG 1.1//EN" "http://www.w3.org/Graphics/SVG/1.1/DTD/svg11.dtd">
<svg version="1.1" id="Capa_1" xmlns="http://www.w3.org/2000/svg" xmlns:xlink="http://www.w3.org/1999/xlink" x="0px" y="0px"
	 width="612px" height="612px" viewBox="0 0 612 612" style="enable-background:new 0 0 612 612;" xml:space="preserve">
<g>
	<g id="_x34__25_">
		<g>
			<path d="M535.5,0h-459C34.253,0,0,34.253,0,76.5v459C0,577.747,34.253,612,76.5,612h459c42.247,0,76.5-34.253,76.5-76.5v-459
				C612,34.253,577.747,0,535.5,0z M573.75,535.5c0,21.133-17.117,38.25-38.25,38.25h-459c-21.133,0-38.25-17.117-38.25-38.25v-459
				c0-21.133,17.117-38.25,38.25-38.25h459c21.133,0,38.25,17.136,38.25,38.25V535.5z M421.267,173.425
				c-9.142-5.278-20.847-2.142-26.125,7L272.837,392.272l-68.429-63.112c-7.229-7.707-19.316-8.108-27.043-0.88
				c-7.708,7.229-8.109,19.316-0.88,27.024l87.439,80.649c7.229,7.708,19.316,8.109,27.043,0.88
				c2.333-2.18,137.317-237.284,137.317-237.284C433.545,190.409,430.408,178.704,421.267,173.425z"/>
		</g>
	</g>
</g>
<g>
</g>
<g>
</g>
<g>
</g>
<g>
</g>
<g>
</g>
<g>
</g>
<g>
</g>
<g>
</g>
<g>
</g>
<g>
</g>
<g>
</g>
<g>
</g>
<g>
</g>
<g>
</g>
<g>
</g>
</svg>
