<?xml version="1.0" encoding="UTF-8" standalone="no"?>
<!-- Created with Inkscape (http://www.inkscape.org/) -->

<svg
   xmlns:dc="http://purl.org/dc/elements/1.1/"
   xmlns:cc="http://creativecommons.org/ns#"
   xmlns:rdf="http://www.w3.org/1999/02/22-rdf-syntax-ns#"
   xmlns:svg="http://www.w3.org/2000/svg"
   xmlns="http://www.w3.org/2000/svg"
   xmlns:sodipodi="http://sodipodi.sourceforge.net/DTD/sodipodi-0.dtd"
   xmlns:inkscape="http://www.inkscape.org/namespaces/inkscape"
   preserveAspectRatio="none"
   viewBox="0 0 200 200"
   width="100%"
   height="100%"
   id="svg5459"
   version="1.1"
   inkscape:version="0.48.4 r9939"
   sodipodi:docname="circle01.svg">
  <defs
     id="defs5461" />
  <sodipodi:namedview
     id="base"
     pagecolor="#ffffff"
     bordercolor="#666666"
     borderopacity="1.0"
     inkscape:pageopacity="0.0"
     inkscape:pageshadow="2"
     inkscape:zoom="1.979899"
     inkscape:cx="55.233697"
     inkscape:cy="58.104838"
     inkscape:document-units="px"
     inkscape:current-layer="layer1"
     showgrid="false"
     inkscape:window-width="1289"
     inkscape:window-height="744"
     inkscape:window-x="77"
     inkscape:window-y="24"
     inkscape:window-maximized="1" />
  <metadata
     id="metadata5464">
    <rdf:RDF>
      <cc:Work
         rdf:about="">
        <dc:format>image/svg+xml</dc:format>
        <dc:type
           rdf:resource="http://purl.org/dc/dcmitype/StillImage" />
        <dc:title />
      </cc:Work>
    </rdf:RDF>
  </metadata>
  <g
     inkscape:label="Layer 1"
     inkscape:groupmode="layer"
     id="layer1"
     transform="translate(0,-852.36218)">
    <path
       inkscape:connector-curvature="0"
       d="m 104.06956,874.90966 2.83974,0.31174 0.89945,-0.86878 -3.73919,0.55704"
       style="fill:#d41f25;fill-opacity:1;fill-rule:nonzero;stroke:none"
       id="path1606" />
    <path
       inkscape:connector-curvature="0"
       d="m 117.00082,878.7204 4.63693,0.59281 c -1.03572,-1.50419 -0.7342,-1.8977 -1.00335,-2.31846 -0.13799,-0.21294 -0.42588,-0.43269 -1.12773,-0.80746 -0.70353,-0.36455 -1.804,-0.9727 -3.66763,-1.56552 -1.37131,0.0648 -3.54328,0.11243 -5.26041,0.38329 -1.72564,0.385 -2.97941,0.85005 -2.60294,1.34406 0.93522,-0.0256 2.10552,-0.37476 3.39507,-0.47017 1.28614,-0.0801 2.70346,-0.0936 4.08669,0.20613 -1.29124,0.63881 -4.26215,0.0954 -5.68457,1.09195 2.19581,0.42417 2.87721,0.48889 3.6506,0.31684 0.76316,-0.11761 1.61151,-0.32366 4.02026,0.14991 l -0.44292,1.07662"
       style="fill:#d41f25;fill-opacity:1;fill-rule:nonzero;stroke:none"
       id="path1608" />
    <path
       inkscape:connector-curvature="0"
       d="m 122.98012,877.40359 c -0.5349,0.33048 -1.08173,0.65755 -1.08003,1.02039 0.52638,-0.33217 2.94706,-0.37647 1.08003,-1.02039"
       style="fill:#d41f25;fill-opacity:1;fill-rule:nonzero;stroke:none"
       id="path1610" />
    <path
       inkscape:connector-curvature="0"
       d="m 125.88118,877.9436 c 2.88743,1.00507 -0.32027,0.87389 -0.0529,1.10216 l 3.80052,-0.50764 -3.7477,-0.59452"
       style="fill:#d41f25;fill-opacity:1;fill-rule:nonzero;stroke:none"
       id="path1612" />
    <path
       inkscape:connector-curvature="0"
       d="m 137.62,882.71511 c 0.45484,0.1959 0.89264,0.37646 1.32192,0.53659 -0.31345,-0.46165 -0.76998,-0.45653 -1.32192,-0.53659"
       style="fill:#d41f25;fill-opacity:1;fill-rule:nonzero;stroke:none"
       id="path1614" />
    <path
       inkscape:connector-curvature="0"
       d="m 143.14786,885.60935 c -0.71036,-1.22482 -2.3338,-1.62855 -4.20594,-2.35765 l 0.12264,0.18739 c 1.30489,1.23844 -0.69672,1.48034 -2.97771,-0.0988 -2.72902,-0.9676 -2.06465,-1.86193 -4.66759,-2.16515 l 2.78522,2.19581 c 1.06809,0.36625 1.99481,0.75295 2.87381,1.01869 0.87901,0.26745 1.69838,0.4378 2.45304,0.56386 1.51611,0.24019 2.76137,0.31685 3.61653,0.65585"
       style="fill:#d41f25;fill-opacity:1;fill-rule:nonzero;stroke:none"
       id="path1616" />
    <path
       inkscape:connector-curvature="0"
       d="m 137.62,882.71511 c -0.48209,-0.20613 -0.9761,-0.45314 -1.49397,-0.71378 0.56727,0.50765 1.04254,0.64904 1.49397,0.71378"
       style="fill:#d41f25;fill-opacity:1;fill-rule:nonzero;stroke:none"
       id="path1618" />
    <path
       inkscape:connector-curvature="0"
       d="m 131.86387,879.97076 -1.54338,-0.3935 0.18058,0.60985 1.3628,-0.21635"
       style="fill:#d41f25;fill-opacity:1;fill-rule:nonzero;stroke:none"
       id="path1620" />
    <path
       inkscape:connector-curvature="0"
       d="m 151.61937,891.70277 c -0.79724,0.36965 -2.20263,-0.81769 -3.59951,-2.05613 -1.38664,-1.24696 -2.95727,-2.2878 -3.6046,-2.03227 0.85175,0.54682 1.62173,1.13112 2.27077,1.69668 0.63199,0.59112 1.09876,1.22653 1.45138,1.74609 0.69333,1.06128 0.81768,1.81253 0.20783,1.87726 0,0 0.93011,0.59452 1.86022,1.18563 0.47187,0.29301 0.93692,0.59453 1.25207,0.86197 0.32537,0.25553 0.54342,0.42248 0.54342,0.42248 0.7308,0.2947 0.96929,-0.0936 0.86707,-0.83813 -0.0919,-0.75465 -0.5383,-1.85681 -1.24865,-2.86358"
       style="fill:#d41f25;fill-opacity:1;fill-rule:nonzero;stroke:none"
       id="path1622" />
    <path
       inkscape:connector-curvature="0"
       d="m 155.12517,900.57971 c 0.27937,0.12265 0.55875,0.31174 0.83812,0.56726 -0.35433,-0.31685 -0.67289,-0.56726 -0.83812,-0.56726"
       style="fill:#d41f25;fill-opacity:1;fill-rule:nonzero;stroke:none"
       id="path1624" />
    <path
       inkscape:connector-curvature="0"
       d="m 169.52315,917.57894 c 0,0 -0.36284,-0.55194 -0.90626,-1.37984 -0.54342,-0.82279 -1.22822,-1.93518 -2.09531,-2.93343 -1.63366,-2.02206 -3.26561,-4.04581 -3.26561,-4.04581 0.91308,0.54342 1.13283,-0.0459 2.47689,1.91303 -0.53149,-1.02551 -1.00336,-1.79549 -1.43605,-2.42237 -0.48549,-0.59453 -0.93863,-1.04255 -1.36791,-1.47353 -0.86197,-0.85687 -1.66092,-1.61662 -2.68471,-3.19918 0.50423,-1.82785 3.95212,5.38477 3.76473,2.84996 -0.79894,-1.08683 -1.80401,-2.45305 -2.88062,-3.66764 -1.15497,-1.15327 -2.44964,-2.097 -3.6012,-2.50415 0,0 -0.50253,-0.97099 -1.00506,-1.94369 -0.23679,-0.50593 -0.56387,-0.93181 -0.77339,-1.28443 -0.21975,-0.34582 -0.36625,-0.57579 -0.36625,-0.57579 l -0.13452,2.12256 c 0.78702,1.56212 3.19577,1.76482 3.03905,3.28776 -0.1925,0.83812 -1.39006,-0.35433 -2.28268,-1.14475 0.96076,0.9284 2.00842,2.45304 3.02541,4.3814 0.49061,0.97951 1.0255,2.02375 1.63876,3.08333 0.30834,0.52808 0.63541,1.06469 0.98973,1.59619 0.31345,0.55874 0.6286,1.13452 0.98804,1.69668 2.98453,4.76298 4.53131,2.44452 6.87703,5.6437"
       style="fill:#d41f25;fill-opacity:1;fill-rule:nonzero;stroke:none"
       id="path1626" />
    <path
       inkscape:connector-curvature="0"
       d="m 168.06836,918.66066 -0.293,0.86878 0.5843,-0.76487 -0.2913,-0.10398"
       style="fill:#d41f25;fill-opacity:1;fill-rule:nonzero;stroke:none"
       id="path1628" />
    <path
       inkscape:connector-curvature="0"
       d="m 173.7802,928.6125 c 0,0 -0.14139,-0.31344 -0.35433,-0.78871 -0.23168,-0.46677 -0.44973,-1.1124 -0.82109,-1.71032 -0.6848,-1.20097 -1.37472,-2.40023 -1.37472,-2.40023 -0.058,-0.59282 0.15331,-1.00848 0.29981,-1.48375 -0.28448,0.32026 -1.35087,-0.8245 -1.5587,-0.49572 -0.27597,1.42753 0.36114,2.89936 1.23504,4.38992 0.8739,1.48375 1.69498,3.07993 2.20092,4.45279 1.03232,7.57869 -0.80235,-0.17155 -1.49568,2.96783 -0.46164,-2.02887 -0.13968,-2.17929 -0.72739,-5.0272 -0.3424,4.78309 1.87045,10.06053 2.54332,13.07964 0.0682,-0.879 0.55535,-1.16059 0.17376,-2.77159 0,0 0.2436,0.74732 0.43951,1.51254 0.17886,0.76998 0.35603,1.54184 0.35603,1.54184 0.49742,-1.67165 0.62348,-3.19747 0.5366,-5.22293 -0.0425,-1.0141 -0.1448,-2.14811 -0.31174,-3.47889 -0.27086,-1.31153 -0.66947,-2.8055 -1.14134,-4.56522"
       style="fill:#d41f25;fill-opacity:1;fill-rule:nonzero;stroke:none"
       id="path1630" />
    <path
       inkscape:connector-curvature="0"
       d="m 170.68664,919.34887 c 0.90966,1.82956 0.95737,2.61999 0.85515,2.84996 0.16525,-0.62178 0.29811,-1.43094 -0.85515,-2.84996"
       style="fill:#d41f25;fill-opacity:1;fill-rule:nonzero;stroke:none"
       id="path1632" />
    <path
       inkscape:connector-curvature="0"
       d="m 173.88922,943.20434 c 0.0682,-0.3407 -0.007,-0.88888 -0.16184,-1.60759 -0.0307,0.36592 -0.0136,0.84647 0.16184,1.60759"
       style="fill:#d41f25;fill-opacity:1;fill-rule:nonzero;stroke:none"
       id="path1634" />
    <path
       inkscape:connector-curvature="0"
       d="m 175.38319,939.99376 0.13287,3.82743 0.57578,-1.55172 c -0.11924,-0.52962 -0.36454,-2.40228 -0.70865,-2.27571"
       style="fill:#d41f25;fill-opacity:1;fill-rule:nonzero;stroke:none"
       id="path1636" />
    <path
       inkscape:connector-curvature="0"
       d="m 85.593402,1028.9109 c 0.291298,0.5724 1.647285,1.0475 4.550049,0.9271 -0.350921,0.8225 -4.132691,0.555 -5.938401,0.833 3.84991,0.7699 -0.126059,0.9403 0.802349,1.7662 4.423989,0.3359 6.38131,-0.7014 11.055715,-0.7186 -0.20953,0.238 -0.105617,0.5788 0.526381,0.8091 2.827806,-0.4074 6.578915,-1.2098 10.272105,-2.0496 3.7034,-0.8258 7.30971,-1.8719 10.06087,-2.3197 5.17182,-1.3322 8.78154,-3.1209 13.84094,-6.0154 8.66912,-4.0831 16.74029,-9.9362 23.61051,-17.1421 6.88385,-7.20601 12.53606,-15.77281 16.66024,-25.24249 0,0 -0.0614,-0.81101 -0.18739,-1.62891 -0.12606,-0.81052 -0.25042,-1.62173 -0.25042,-1.62173 1.11069,-0.66402 1.47523,-4.60081 2.25544,-3.76966 -0.50083,1.02209 -0.62008,2.09342 -1.0698,3.36645 0.70695,-0.91837 1.21629,-2.10605 1.6592,-3.42626 0.47699,-1.30828 0.7751,-2.77618 1.04936,-4.27203 0.56216,-2.9951 0.81257,-6.12936 1.35769,-8.72516 -0.35091,0.57221 -1.78526,1.233 -1.82103,-0.33747 1.71882,0.601 0.57067,-6.09001 2.45815,-7.56388 0.32025,-2.65235 -0.0784,-2.70634 -0.4838,-2.78147 -0.40202,-0.0765 -0.83471,-0.17375 -0.76828,-2.898 -0.51275,-0.26744 -0.60304,1.03608 -0.65414,2.52663 -0.0493,1.49057 -0.20613,3.1721 -0.58089,3.64533 -0.39181,-0.85652 -0.26575,-2.05953 -0.20102,-3.03376 0.0307,-0.97424 0.0375,-1.70878 -0.49061,-1.58102 -0.15672,4.27595 0.0392,10.36597 -0.66777,17.05356 -0.62519,6.68488 -2.34231,13.91816 -5.02532,20.04013 l -0.26064,-1.66616 c -1.0715,3.22125 -3.09866,7.21657 -5.59429,10.68462 -2.48541,3.47501 -5.38647,6.42748 -7.79352,7.84618 0.75295,-0.1717 -0.96759,1.6096 -2.76307,3.3665 -1.76823,1.7765 -3.59439,3.5666 -2.53822,4.0232 -1.62684,0.7444 -1.9505,1.1603 -3.97768,2.5364 l -0.12605,0.9117 c -2.80907,2.1141 -2.94365,0.9436 -6.20585,3.2147 2.68471,-0.6647 0.40203,1.102 -0.22316,2.3576 -4.46829,1.647 -9.62478,3.2872 -13.64164,4.0844 0.40033,0.1348 0.86368,0.3141 2.29121,0.093 -2.64894,0.8105 -1.89769,1.3848 -2.46667,1.9591 -2.47858,1.0613 -2.63531,-0.1604 -2.71197,-0.7241 -4.61478,1.3663 -6.09853,4.0285 -9.85474,4.2554 l 1.47182,0.5723 c -4.89415,1.5027 -9.30111,1.3369 -14.798306,2.1654 -2.783515,-0.9882 4.442736,-1.4773 6.575516,-2.4974 -1.14645,-0.077 -3.48196,0.2283 -4.28431,-0.1212 -2.207734,0.9743 -6.101932,2.0647 -9.064319,2.7235 2.778409,-1.4645 -4.214459,-1.3248 -6.054239,-1.625"
       style="fill:#d41f25;fill-opacity:1;fill-rule:nonzero;stroke:none"
       id="path1638" />
    <path
       inkscape:connector-curvature="0"
       d="m 100.71196,1027.8124 c 0.65585,-0.2741 1.18904,-0.4943 1.49227,-0.6848 -0.50253,0.1531 -0.98633,0.2828 -1.77846,0.3222 -0.0527,0.1663 0.0733,0.2808 0.28619,0.3626"
       style="fill:#d41f25;fill-opacity:1;fill-rule:nonzero;stroke:none"
       id="path1640" />
    <path
       inkscape:connector-curvature="0"
       d="m 85.593402,1028.9109 -0.103981,-0.1529 c -0.550231,0.059 -0.393509,0.102 0.103981,0.1529"
       style="fill:#d41f25;fill-opacity:1;fill-rule:nonzero;stroke:none"
       id="path1642" />
    <path
       inkscape:connector-curvature="0"
       d="m 117.64475,1028.0033 c -0.21975,0.046 -0.48209,0.1036 -0.72228,0.1551 -0.31004,0.078 -0.58601,0.1465 -0.91137,0.2282 0,0 0.40883,-0.089 0.82108,-0.1777 0.40714,-0.1019 0.81257,-0.2056 0.81257,-0.2056"
       style="fill:#d41f25;fill-opacity:1;fill-rule:nonzero;stroke:none"
       id="path1644" />
    <path
       inkscape:connector-curvature="0"
       d="m 120.24089,1022.7479 c 1.10046,-0.068 2.59953,-0.2696 4.24852,-0.6376 -0.60133,-0.2176 -1.04424,-0.2774 -4.24852,0.6376"
       style="fill:#d41f25;fill-opacity:1;fill-rule:nonzero;stroke:none"
       id="path1646" />
    <path
       inkscape:connector-curvature="0"
       d="m 149.09818,1006.4455 c 0.65244,-0.8111 0.0289,-0.6134 0.34923,-1.3049 -1.57064,1.3794 -1.91134,2.0921 -0.34923,1.3049"
       style="fill:#d41f25;fill-opacity:1;fill-rule:nonzero;stroke:none"
       id="path1648" />
    <path
       inkscape:connector-curvature="0"
       d="m 94.759936,1028.1039 c 0,0 -1.028914,0.1049 -2.054421,0.2128 -1.028914,0.1254 -2.059531,0.1599 -2.059531,0.1599 l -1.516116,0.2336 c 0,0 1.410498,-0.1226 2.8227,-0.2458 1.40198,-0.1801 2.807368,-0.3605 2.807368,-0.3605"
       style="fill:#d41f25;fill-opacity:1;fill-rule:nonzero;stroke:none"
       id="path1650" />
    <path
       inkscape:connector-curvature="0"
       d="m 29.27058,986.19381 c -0.318554,4.02708 1.933473,9.40383 3.757921,13.80899 1.030618,1.959 1.802304,2.8701 2.335499,3.3112 0.528085,0.4452 0.833012,0.4106 1.1192,0.3753 0.577486,-0.079 1.011878,-0.1349 3.229835,3.1868 0,0 -0.649033,0.015 -1.298066,0.033 -0.655848,0 -1.313399,0.013 -1.313399,0.013 2.289504,3.4734 5.439276,7.466 9.168237,10.6161 3.694892,3.1768 7.895723,5.4645 11.384491,6.231 0.388398,0.5251 1.516115,1.5265 -0.502532,0.7806 2.418969,1.3017 3.461512,0.7819 4.553455,0.5842 0.551934,-0.1062 1.156677,-0.2161 1.998206,-0.068 0.844936,0.1471 1.918141,0.5589 3.527949,1.2896 -1.671134,-0.2042 -2.412156,-0.2282 -2.609763,-0.093 -0.201013,0.1377 0.124424,0.4684 0.609854,0.8205 0.970994,0.6899 2.558656,1.5995 1.454789,1.9422 l -1.062984,-0.2075 c 4.456356,1.5191 10.624729,2.0982 13.616075,2.5786 0.195902,-0.5537 -2.25373,-1.7866 1.727349,-1.2897 -1.596179,-0.342 -0.848343,-0.8903 -0.647329,-1.4393 -4.139506,0.072 -6.204148,-0.8857 -8.805393,-0.7493 -1.982874,-1.3693 1.536557,0.1976 -0.453131,-1.1599 0,0 -0.829604,-0.066 -1.657505,-0.1294 -0.838122,-0.047 -1.659209,-0.1771 -1.659209,-0.1771 -2.212847,-0.9629 2.558657,0.105 -0.887523,-1.273 -0.272561,0.1309 -1.173712,0.081 -2.313353,-0.238 -0.57408,-0.1498 -1.2163,-0.3462 -1.880665,-0.5812 -0.65244,-0.2608 -1.321916,-0.5755 -1.967543,-0.9129 l 0.863675,0.1295 c -2.170259,-0.6269 -4.713585,-2.5859 -4.38992,-0.9535 0,0 -0.451427,-0.569 -0.844935,-1.2032 -0.395212,-0.6148 -0.793831,-1.2297 -0.793831,-1.2297 l -0.05451,0.9662 c -2.548437,-1.7648 -3.855021,-3.5574 -5.350694,-5.322 -1.475231,-1.8127 -3.12933,-3.6013 -6.001431,-6.2313 0.99314,1.5844 -0.439503,0.579 -1.218002,-0.1035 0.829604,1.4405 1.587662,2.1492 2.471778,2.6743 0.872192,0.5396 1.730756,1.0387 2.916393,2.0116 -0.109025,0.4585 -1.330434,0.013 -2.182184,-0.2687 -0.839826,-0.2862 -1.412202,-0.2915 -0.209531,1.2702 -2.345719,-3.652 -5.458014,-6.0082 -4.783428,-8.6857 -1.335544,-2.0935 -2.412156,-3.4377 -3.372931,-4.8908 -0.514456,-0.7068 -0.969291,-1.4547 -1.390055,-2.33377 -0.430986,-0.87507 -0.894338,-1.84939 -1.216299,-3.09971 l 0.344107,0.0134 c -1.662616,-0.39842 -0.947146,-4.02376 -3.216208,-7.31819 0,0 0.09376,0.6833 0.185681,1.36471 0.07319,0.6893 0.235084,1.35544 0.235084,1.35544 -0.604744,0.0504 -0.996548,-1.24165 -1.536557,-3.03564 0.269153,0.15903 0.269153,0.15495 0.384991,-0.49374 -1.211189,-0.2896 -2.425785,-6.16326 -2.746043,-6.88392 0.06978,1.25896 0.420765,2.63185 0.942035,4.01318 0.245305,0.69012 0.499127,1.39209 0.751244,2.09735 0.291299,0.69148 0.572376,1.38487 0.814273,2.07622 -0.902855,-1.29288 -1.727348,-0.64337 -2.027165,-3.16333"
       style="fill:#d41f25;fill-opacity:1;fill-rule:nonzero;stroke:none"
       id="path1652" />
    <path
       inkscape:connector-curvature="0"
       d="m 63.219633,1023.8059 c 0,0 -0.422468,-0.034 -0.831308,-0.1063 -0.413951,-0.064 -0.829605,-0.1295 -0.829605,-0.1295 0.631999,0.2096 1.22652,0.3527 1.660913,0.2357"
       style="fill:#d41f25;fill-opacity:1;fill-rule:nonzero;stroke:none"
       id="path1654" />
    <path
       inkscape:connector-curvature="0"
       d="m 29.970719,962.63158 c 0.693324,-3.20804 0.734209,0.96758 1.608104,-1.95766 -0.221455,-3.40173 -1.959025,3.55673 -2.536512,0.19624 0.422468,-0.97815 0.534899,-2.31029 0.61837,-3.58128 0.04088,-1.27558 0.04252,-2.48864 0.221456,-3.15284 0.20442,1.61169 1.722238,1.06469 2.137892,0.55705 -0.02045,-0.64886 0.274264,-1.63041 0.708656,-2.68114 0.456538,-1.04798 0.97781,-2.18047 1.325324,-3.19065 -1.18734,2.37416 -0.972699,1.29296 -0.752948,0.11911 0.258932,-1.1531 0.558748,-2.38694 -0.68651,-0.26421 -0.332183,-0.29813 -0.182275,-1.68152 0.195902,-3.22455 0.37988,-1.54185 1.132828,-3.18214 1.797193,-4.01652 0.465056,0.37119 -0.286188,1.85443 -0.788721,3.11553 0.599632,1.42923 1.815932,-2.92526 3.079928,-3.18555 0.316852,-2.61708 2.500738,-7.5213 4.360961,-11.269 1.829558,-3.75433 3.187248,-6.47822 0.807459,-5.25682 -1.42583,1.19416 -1.792083,2.80226 -2.729008,4.49383 3.332046,-4.29452 1.086833,0.67459 1.224817,1.26741 -1.558702,1.73603 -2.78863,5.54505 -3.108888,4.35585 0.0013,0 0.219751,-0.91819 0.497422,-1.81593 0.26745,-0.9083 0.534899,-1.81457 0.534899,-1.81457 -3.199172,4.94219 -6.430713,11.23304 -8.502169,18.18146 -2.177072,6.90649 -3.113997,14.42063 -2.914687,21.21726 0,0 -0.0154,-0.36592 0.01363,-0.91836 0.02045,-0.55159 0.0477,-1.2875 0.07496,-2.02341 0.02222,-0.73609 0.0511,-1.47201 0.11761,-2.01899 0.05274,-0.54973 0.08681,-0.91633 0.08681,-0.91633 0.548527,0.73269 0.47698,3.48554 0.763168,5.61152 0,0 0.417358,-0.7119 0.833012,-1.40403 0.417357,-0.68601 0.836419,-1.36945 0.836419,-1.36945 -0.168648,1.62838 0.02903,3.18879 -0.521272,3.06307 0.727394,1.99821 1.114089,1.06655 1.633657,-0.11584 0.19931,2.09207 0.121016,3.3099 0.190792,4.40185 0.09362,1.08853 0.277671,2.05748 0.91989,3.59797 0.192495,-1.74611 0.194199,-2.9578 0.09199,-3.93867 -0.04593,-0.98617 -0.206123,-1.73621 -0.371362,-2.52459 -0.332183,-1.57251 -0.706953,-3.30667 0.178867,-7.16015 0,0 -0.492311,-0.5855 -0.984623,-1.17185 -0.502533,-0.59622 -0.960773,-1.20574 -0.962477,-1.20574"
       style="fill:#d41f25;fill-opacity:1;fill-rule:nonzero;stroke:none"
       id="path1656" />
    <path
       inkscape:connector-curvature="0"
       d="m 30.738997,977.97107 -0.938628,-1.62495 0.597928,2.54854 0.3407,-0.92359"
       style="fill:#d41f25;fill-opacity:1;fill-rule:nonzero;stroke:none"
       id="path1658" />
    <path
       inkscape:connector-curvature="0"
       d="m 27.011739,975.50305 c 0.34581,-0.10048 0.586004,0.9589 0.926704,0.84834 -0.03407,-1.6868 -0.07319,-2.42408 -0.250415,-2.48064 -0.158425,-0.058 -0.456538,0.57289 -0.676289,1.6323"
       style="fill:#d41f25;fill-opacity:1;fill-rule:nonzero;stroke:none"
       id="path1660" />
    <path
       inkscape:connector-curvature="0"
       d="m 38.859582,937.53033 c 0,0 0.432689,-0.96759 0.863674,-1.93177 0.46676,-0.95089 0.936925,-1.89923 0.936925,-1.89923 0,0 -0.413949,0.55704 -0.829604,1.11391 -0.427578,0.55041 -0.800645,1.13471 -0.800645,1.13471 0.347514,0.10161 -0.0027,1.0899 -0.17035,1.58238"
       style="fill:#d41f25;fill-opacity:1;fill-rule:nonzero;stroke:none"
       id="path1662" />
    <path
       inkscape:connector-curvature="0"
       d="m 53.460281,910.81093 c -2.069753,2.24692 -3.37293,4.01003 -4.774911,5.80041 -1.403684,1.79379 -2.926613,3.59439 -5.30981,6.11898 -1.170304,3.30819 2.512663,-0.0936 2.410453,1.63196 2.18048,-2.51438 0.550231,-3.26221 2.504145,-6.20416 1.524632,-0.41736 3.219616,-4.01685 5.72376,-6.29102 -0.558747,0.0324 -0.867081,-0.26064 -0.553637,-1.05617"
       style="fill:#d41f25;fill-opacity:1;fill-rule:nonzero;stroke:none"
       id="path1664" />
    <path
       inkscape:connector-curvature="0"
       d="m 71.391323,899.94259 c 2.183886,-1.58254 4.076475,-3.69999 6.130897,-4.50064 0.04088,0.62518 -1.189044,1.69668 -2.619984,2.482 1.56211,0.4889 2.361052,-1.84829 5.311513,-2.65917 -0.291298,0.0171 -1.311695,0.39862 -0.764871,-0.27256 3.183842,-1.76652 3.940195,-2.49732 4.972516,-3.30648 1.035728,-0.79725 2.323574,-1.7495 6.732233,-3.5007 1.091943,-0.89945 2.32187,-1.46841 1.763122,-2.14812 5.381353,-1.16859 2.863584,-0.17715 9.200601,-1.61662 -0.40714,-0.40542 -2.780114,-0.69332 -3.137849,-1.70009 4.582419,-0.98462 6.798679,-1.68646 8.623119,-2.36956 1.82956,-0.62349 3.25709,-1.23845 6.25015,-1.35599 -0.62349,0.21804 -1.33555,0.6354 -2.88404,0.91818 1.09705,1.218 4.67952,-1.47012 7.95364,-1.78527 l -0.0698,1.3134 c 2.84144,-0.74443 7.91276,-2.26054 11.68942,-1.45649 l -0.80746,0.66437 c 3.71022,-0.68992 7.81566,-0.73251 11.72008,-0.3373 3.91295,0.38499 7.60102,1.22653 10.72013,1.96925 0,0 0.73762,0.47527 1.47523,0.94885 0.36455,0.23508 0.7291,0.46847 1.00166,0.64562 0.26234,0.1908 0.4395,0.31856 0.4395,0.31856 4.16336,1.27252 2.26225,0.33048 0.0631,-0.87049 -2.22307,-1.07491 -4.82942,-2.32357 -1.40368,-2.13448 0.0733,1.29296 1.22141,1.42582 2.88743,1.78356 0.83983,0.16524 1.83637,0.32196 2.84655,0.73421 1.02551,0.37818 2.11234,0.91307 3.07652,1.81082 0.79042,1.02381 -0.38499,0.45484 -1.51612,-0.0681 -1.16689,-0.48209 -2.31335,-0.87049 -1.39857,0.19079 0.7819,-0.2913 1.41902,-0.0358 2.143,0.44632 0.73251,0.47187 1.58937,1.09705 2.76649,1.76142 -0.57238,0.31514 0.57918,1.09194 1.5076,1.93517 0.93181,0.83983 1.74097,1.59789 0.70183,1.57574 0,0 0.13111,0.0648 0.36285,0.18058 0.23679,0.10902 0.56216,0.28107 0.93352,0.51445 0.74102,0.46506 1.81423,1.0221 2.78522,1.71883 2.00332,1.32703 3.86525,2.93854 3.86525,2.93683 0.2436,0.78702 0.73591,1.7478 1.33213,2.71368 0.63371,0.94204 1.29807,1.93518 1.86193,2.78011 -1.264,-2.23499 -0.78702,-2.12767 -0.20101,-2.16515 0.56216,-0.0273 1.16519,-0.1345 -0.31174,-2.79032 -1.35259,-1.72906 -3.07312,-3.63527 -5.04407,-5.58237 -2.04249,-1.87385 -4.28941,-3.84821 -6.84977,-5.50061 -5.01681,-3.47173 -10.9501,-5.89411 -16.14578,-7.50562 -0.77849,0.65755 -2.42748,0.17886 -4.19571,-0.12266 -1.75291,-0.37476 -3.60631,-0.64221 -4.51087,-0.0988 -0.1942,-0.51786 -0.96929,-1.05105 -1.18905,-1.54678 -6.98436,-0.0938 1.57744,0.95226 -0.17376,1.41561 -3.00497,-0.0307 -5.41543,-0.93351 -5.13947,-1.50419 -4.99635,-0.0289 -0.57407,0.41396 -3.07481,1.31511 0,0 -0.8262,-0.40032 -1.6541,-0.80065 -0.83982,-0.36455 -1.68135,-0.7291 -1.68135,-0.7291 -7.80885,0.81428 -16.61594,3.14296 -25.25098,6.45286 -8.662297,3.27924 -17.149134,7.54992 -24.864286,11.82229 l 1.677948,0.21123 c -3.517728,1.83467 -5.955436,4.18039 -8.292638,6.36769 -2.357645,2.18048 -4.626706,4.1838 -8.042224,5.56533 l -1.204443,2.26736 c 0.650737,-1.25888 -2.098712,-0.30493 -1.001658,-2.22648 -1.415609,1.68988 -3.371227,2.98284 -4.757876,4.78514 0,0 0.790425,-0.62008 1.614919,-1.19585 0.815976,-0.58431 1.631953,-1.17032 1.631953,-1.17032 -1.447975,2.53311 -3.965748,4.29623 -5.205896,4.40015 -1.66432,2.5314 -0.701843,2.19922 0.826197,1.21459 1.575738,-0.94373 3.737479,-2.52629 4.541531,-2.61657 1.151566,-1.76483 2.217958,-2.90447 3.250278,-3.67956 1.01699,-0.79213 1.974357,-1.25038 2.96409,-1.63707 1.965839,-0.80235 3.952121,-1.42753 6.859995,-4.05773 3.573943,-3.33546 -0.98803,-0.52128 -1.09024,-1.14817"
       style="fill:#d41f25;fill-opacity:1;fill-rule:nonzero;stroke:none"
       id="path1666" />
    <path
       inkscape:connector-curvature="0"
       d="m 61.49058,904.0293 c -0.344107,0.41054 -0.577486,0.75124 -0.734209,1.01869 0.272561,-0.32537 0.51105,-0.65244 0.734209,-1.01869"
       style="fill:#d41f25;fill-opacity:1;fill-rule:nonzero;stroke:none"
       id="path1668" />
    <path
       inkscape:connector-curvature="0"
       d="m 177.90607,900.20323 c 0.28619,0.53491 0.71717,1.13113 1.1669,1.98458 0.57408,0.58431 -0.0936,-0.48719 -1.1669,-1.98458"
       style="fill:#d41f25;fill-opacity:1;fill-rule:nonzero;stroke:none"
       id="path1670" />
    <path
       inkscape:connector-curvature="0"
       d="m 54.013918,911.8671 0.02562,0 0.02889,-0.0546 -0.05451,0.0546"
       style="fill:#d41f25;fill-opacity:1;fill-rule:nonzero;stroke:none"
       id="path1672" />
    <path
       inkscape:connector-curvature="0"
       d="m 53.208162,916.54662 1.511005,-1.557 -0.614963,-0.0614 -0.896042,1.61833"
       style="fill:#d41f25;fill-opacity:1;fill-rule:nonzero;stroke:none"
       id="path1674" />
    <path
       inkscape:connector-curvature="0"
       d="m 183.94498,922.20053 0.55875,-0.0664 c -0.20783,-0.17716 -0.39692,-0.22827 -0.55875,0.0664"
       style="fill:#d41f25;fill-opacity:1;fill-rule:nonzero;stroke:none"
       id="path1676" />
    <path
       inkscape:connector-curvature="0"
       d="m 171.85013,981.49052 0.69503,-1.13589 c -0.27937,0.31344 -0.50764,0.73264 -0.69503,1.13589"
       style="fill:#d41f25;fill-opacity:1;fill-rule:nonzero;stroke:none"
       id="path1678" />
    <path
       inkscape:connector-curvature="0"
       d="m 45.472569,1031.9621 c -1.822745,-0.8845 -3.94701,-1.9491 -6.015058,-2.8959 -1.993095,-1.0581 -3.843097,-2.1349 -5.362619,-2.6679 l 0.582597,-0.2727 c -0.488904,-0.2709 -1.253776,-0.6928 -2.061234,-1.1393 -0.776796,-0.4891 -1.584256,-1.0221 -2.269062,-1.3801 -1.359394,-0.7206 -2.175371,-0.8191 -0.766576,1.1532 l 1.166898,0.3986 c 1.09024,0.7752 1.892588,1.2252 2.393417,1.6849 0.509347,0.4466 0.775093,0.8385 0.991437,1.237 0.430986,0.7986 0.664366,1.6384 2.270766,3.0557 2.177073,1.3593 4.296227,1.7719 6.158152,2.3423 1.853409,0.6115 3.710224,0.9323 5.601108,2.0941 1.790379,0.7632 1.29466,1.1599 0.601336,1.3049 1.984578,1.0814 3.628456,1.1885 5.062802,1.245 1.439458,0.056 2.703455,0 4.163354,0.3932 -0.03924,2.2065 3.463217,2.7955 7.566948,3.1416 2.079973,0.041 4.304744,0.051 6.396642,0.2761 2.10723,0.051 4.086698,0.2981 5.727168,1.0527 0.524678,-0.013 1.069798,-0.027 1.63536,-0.041 0.562155,-0.041 1.144752,-0.081 1.740977,-0.128 1.192449,-0.071 2.444522,-0.1478 3.734072,-0.225 1.292956,-0.041 2.602948,-0.2503 3.91805,-0.5157 1.311696,-0.2543 2.630204,-0.5536 3.911237,-0.927 -1.320214,0.69 -0.07155,0.5948 1.376427,0.3986 1.436051,-0.2535 3.085039,-0.535 2.630204,0.1738 0.497422,-1.3903 4.285998,-1.7582 7.917868,-2.7032 3.68807,-0.7312 7.16151,-2.0275 7.06952,-3.6165 3.50581,-0.7773 3.54669,-0.905 3.71023,-1.0567 0.17035,-0.1511 0.44801,-0.3693 4.36437,-1.6929 0.13798,0.3235 -1.13965,0.8859 -1.61493,1.1632 1.63536,-0.3679 2.65917,-1.1785 3.63868,-1.8705 0.95226,-0.758 1.86704,-1.3879 3.39508,-1.3781 5.96565,-2.8785 0.64392,-1.2124 3.59949,-3.8495 6.00824,-3.2473 4.66077,-1.7601 8.49706,-2.8553 -0.16182,-0.792 0.70185,-1.6232 1.89259,-2.5685 0.59964,-0.4706 1.26571,-0.9917 1.94711,-1.5234 0.64221,-0.5841 1.27592,-1.2077 1.81252,-1.8752 -0.34751,0.2244 -1.47524,1.0016 -2.26565,1.4169 -0.82109,0.3752 -1.264,0.4377 -0.20272,-0.6622 3.17703,-2.341 4.27067,-3.5114 5.24678,-4.6899 0.95055,-1.213 1.73757,-2.5028 4.3337,-5.058 3.8942,-1.2568 -5.44098,4.8943 0.25382,1.5745 -1.49908,1.8126 -2.88232,3.3676 -4.13779,4.654 -1.26741,1.2809 -2.2878,2.4394 -2.9198,3.6965 5.19056,-3.6986 10.69286,-9.2449 14.98058,-14.6673 2.69663,-2.727 -0.73592,2.0101 1.37472,-0.1673 5.17182,-4.66378 5.55681,-9.0864 9.28237,-13.0689 l 0.0529,1.43598 c 0.45144,-1.74262 2.28951,-4.14101 4.16336,-6.98571 0.90797,-1.43994 1.87896,-2.95578 2.78863,-4.47557 0.93863,-1.50386 1.58085,-3.13753 2.16856,-4.6148 -0.73421,0.53167 -1.22822,0.88105 -1.10899,0.004 0.89776,0.50713 1.73246,-1.56568 2.58251,-4.46163 0.78191,-2.93327 1.86364,-6.51248 3.4036,-9.28937 -0.71377,0.0273 -0.80065,-1.45274 -0.59112,-3.36577 0.19931,-1.91984 0.41565,-4.35125 0.79894,-6.18251 0.65415,-1.21103 1.14646,-0.82909 1.49738,-0.74596 -1.08854,2.94382 -1.06298,4.47697 -0.83642,5.94027 0.1925,1.44798 0.47869,2.78012 0.0375,5.27761 0.28959,-2.1108 1.20267,-4.71732 1.68647,-7.37972 0.28789,-1.31681 0.56045,-2.62169 0.75294,-3.8242 0.20272,-1.20301 0.13968,-2.33891 0.0477,-3.26595 l 0.84834,1.58103 c 0.93863,-5.78322 -1.5093,-5.27745 -0.24019,-11.16644 l 0.74613,0.62347 c 0.25211,-3.03376 0.10223,-6.20057 0.0699,-9.41183 -0.0563,-3.20769 -0.37647,-6.43071 -0.83982,-9.56686 -0.93182,-6.25866 -2.83633,-12.14425 -5.62326,-16.21903 -0.91137,-0.48038 -0.42077,4.48703 -0.90456,4.88565 2.36276,5.03554 4.131,8.02689 5.40861,12.26179 l -1.20777,0.15672 c 0.47697,0.41907 1.09364,1.90111 1.5127,2.93514 0.42417,1.03232 0.7751,1.59617 0.94204,0.0902 0.97781,3.52795 -0.66777,2.79033 0.16183,6.86493 -1.28274,-0.26405 -1.51441,-2.68284 -2.57228,-2.63344 l 0.75806,3.45657 c -0.53491,-1.06996 -0.34581,2.13073 -0.88753,1.0727 1.00847,3.19747 0.52638,5.49379 0.20953,7.75297 -0.27938,2.28234 -1.09535,4.4969 -1.18563,7.8567 l 0.74613,-3.66116 c 0.69843,0.11774 0.32366,2.2418 0.30152,3.87751 -1.18053,1.66091 -1.4105,2.70686 -2.56547,5.96686 -0.029,3.01706 0.51275,4.93008 -0.67459,8.83094 -0.85345,-1.21238 -3.12592,6.01676 -4.44443,6.26564 0.97951,1.3628 -2.95898,7.21126 -2.49563,8.07964 -0.85345,2.01217 -2.4786,4.52627 -3.07652,4.12438 0.12946,-0.29491 0.32877,-0.90762 0.61667,-1.5232 l -1.11921,1.83664 c -0.029,-0.25757 -0.16353,-0.25361 -0.0631,-0.47848 -0.9795,1.63359 -0.14308,2.18866 -2.09871,3.86354 -0.28448,-0.21641 0.47528,-1.30161 0.94204,-2.2846 -1.49908,2.04897 -2.3338,4.16514 -3.20939,6.16327 -0.91989,1.96243 -2.02376,3.70656 -3.78348,5.01865 0.0784,1.12401 -3.87034,5.60233 -1.93347,5.58243 -1.48204,0.855 -1.83807,-0.2642 -4.68632,3.0131 -0.44462,1.2982 -1.39006,2.0887 -2.4326,2.9031 -1.04084,0.8245 -2.17878,1.6688 -3.17192,3.0216 1.22482,-1.9183 1.14305,-1.9961 1.04425,-2.0115 -0.10398,-0.013 -0.24191,0.025 0.6848,-1.758 -1.17882,0.889 -2.35083,2.2891 -3.71874,3.9126 -1.35258,1.6358 -2.89936,3.5043 -5.02873,4.9608 -0.58089,0.092 -0.79724,-0.1962 -1.38836,-0.097 -1.2197,1.5178 -2.37638,3.6691 -4.50405,3.8615 l 0.68481,0.5689 c -1.58426,0.8044 -3.29628,2.0123 -5.14628,3.0563 -1.87215,1.0087 -3.80221,1.9776 -5.62837,2.5333 0,0 -0.18398,0.2282 -0.45995,0.569 -0.28958,0.3233 -0.67628,0.7511 -1.06297,1.1783 -0.78362,0.8658 -1.56893,1.7295 -1.56893,1.7295 -1.52463,0.2742 -2.99645,0.8977 -4.54153,1.4633 -1.53144,0.5943 -3.03564,1.3421 -4.47509,2.17 -2.89084,1.6097 -5.64541,3.2825 -7.6419,4.8111 -2.13619,0.5309 -5.38136,1.1446 -5.4495,0.7898 0.45484,-0.2549 1.21119,-0.7286 2.11746,-1.2124 -1.5519,0.3779 -3.29288,0.7154 -4.866912,0.9556 -1.57233,0.2501 -2.926608,0.6369 -3.676148,1.4805 -3.149772,1.0834 -2.524587,-0.4566 -4.940151,-0.3513 -1.562109,0.6288 -3.563722,1.1759 -5.72376,1.2491 -2.158335,0.063 -4.449542,0.1158 -6.578917,-0.039 -2.131078,-0.2095 -4.105435,-0.3786 -5.696504,-0.3199 -1.584255,0 -2.780112,0.1117 -3.376337,0.7818 0.676289,0.096 1.49908,0.2467 2.436005,0.4293 0.938628,0.1629 2.003316,0.2328 3.144661,0.3626 1.139642,0.1158 2.362755,0.2335 3.625048,0.3254 1.262294,0.094 2.568878,-0.027 3.872056,-0.089 -1.374725,0.4074 -0.282781,0.9316 -2.223068,1.0767 -5.328548,0.053 -7.955345,-1.0973 -13.21405,-1.4273 l 0.901152,-1.7383 c -1.054467,-0.4105 -2.125968,-0.5941 -3.148068,-0.938 -1.032322,-0.3102 -2.059532,-0.547 -3.09015,-0.7346 -1.02721,-0.1925 -2.059531,-0.3235 -3.081632,-0.4546 -1.005064,-0.2063 -1.996501,-0.4105 -2.974311,-0.6116 -3.981079,-0.6267 -7.601017,-2.0442 -10.127307,-4.6505"
       style="fill:#d41f25;fill-opacity:1;fill-rule:nonzero;stroke:none"
       id="path1680" />
    <path
       inkscape:connector-curvature="0"
       d="m 109.40662,1034.7607 c 0,0 -0.95225,0.096 -1.90451,0.1925 -0.47016,0.062 -0.95566,0.063 -1.3168,0.077 -0.35943,0.013 -0.60133,0.019 -0.60133,0.019 l 0.61836,0.6508 c 1.08344,-0.4027 2.16686,-0.8725 3.20428,-0.939"
       style="fill:#d41f25;fill-opacity:1;fill-rule:nonzero;stroke:none"
       id="path1682" />
    <path
       inkscape:connector-curvature="0"
       d="m 106.20234,1035.6997 c -0.71206,0.2894 -1.39004,0.6248 -1.99138,0.9556 0.79212,-0.2082 1.54506,-0.4565 2.1413,-0.7887 l -0.14992,-0.1669"
       style="fill:#d41f25;fill-opacity:1;fill-rule:nonzero;stroke:none"
       id="path1684" />
    <path
       inkscape:connector-curvature="0"
       d="m 32.992727,1023.9469 c -0.562155,-0.6149 -1.655801,-1.8173 -2.996456,-2.7628 0.640516,0.8855 2.204329,2.4155 2.996456,2.7628"
       style="fill:#d41f25;fill-opacity:1;fill-rule:nonzero;stroke:none"
       id="path1686" />
    <path
       inkscape:connector-curvature="0"
       d="m 29.394935,1021.4036 1.209486,1.4993 0.344106,0.028 -1.553592,-1.5266"
       style="fill:#d41f25;fill-opacity:1;fill-rule:nonzero;stroke:none"
       id="path1688" />
    <path
       inkscape:connector-curvature="0"
       d="m 25.887429,921.02512 c 0,0 0.710359,-1.40028 1.420719,-2.79886 0.344107,-0.71377 0.747837,-1.38324 1.039136,-1.89599 0.294705,-0.51105 0.490608,-0.85345 0.490608,-0.85345 0.567265,-0.22997 1.848297,-1.79038 2.90106,-2.99987 1.110682,-1.15497 1.970949,-1.96754 1.560406,-0.81086 1.441161,-3.68808 8.209166,-8.29775 4.718695,-7.61806 -6.37109,6.57211 -13.704658,14.71143 -19.610693,24.35835 -0.72058,1.2146 -1.444568,2.43226 -2.170259,3.654 -0.730801,1.21785 -1.32362,2.51932 -1.987984,3.77837 -1.35769,2.50739 -2.398527,5.1783 -3.495582,7.78688 -1.9419896,5.32343 -3.5364656,10.71807 -4.0849926,16.03486 l -0.035842,-3.53151 c -0.17035,2.8261 -0.6916211,5.08987 -0.9863266,7.16134 -0.2827809,2.06823 -0.7716855,3.86217 -0.98803,5.63024 -0.1976059,1.76805 -0.3492175,3.48688 -0.2742635,5.31678 0.2248621,1.83126 0.677993,3.77632 1.5314466,5.91969 l -1.6081041,-1.06994 c -0.1039816,1.3016 0.231676,2.54652 0.54512,3.76623 0.3424036,1.21971 0.7239875,2.41093 1.1379381,3.59125 0.487201,1.16656 0.936925,2.3338 1.243555,3.55678 0.153315,0.61366 0.2708565,1.24028 0.3389965,1.89442 0.091989,0.64557 0.1993095,1.29644 0.214641,1.99841 l 0.4292821,-0.70538 c 0.456538,1.33023 0.371363,1.9503 0.8330114,3.30646 l 0.08354,-0.63397 c 0.844936,1.6682 1.6149181,2.94241 2.2486201,4.27591 0.313444,0.6682 0.594521,1.3496 0.870488,2.0801 0.258932,0.7428 0.545119,1.5191 0.940332,2.3423 -0.320258,0.4719 -1.068095,-1.3659 -1.609808,-2.3608 0.16013,1.8225 2.706862,3.7236 4.07818,6.1563 0.812569,2.1307 -0.625185,0.376 -0.945444,0.209 1.238445,1.7548 2.468372,3.1449 3.39678,4.525 0.488905,0.6728 0.91989,1.3336 1.369614,1.9331 0.483794,0.569 0.94885,1.1125 1.398573,1.6423 0.918187,1.048 1.822745,2.0048 2.851659,2.8772 0.514458,0.4359 1.059578,0.8499 1.650692,1.2418 0.630295,0.3527 1.323619,0.6647 2.071456,0.9595 0.717173,0.08 -1.042542,-2.0275 1.325323,-0.1295 -1.83467,-2.0343 -3.430849,-3.889 -5.209303,-5.5383 -0.88582,-0.8259 -1.800599,-1.6133 -2.7256,-2.4157 -0.843232,-0.8789 -1.694983,-1.7661 -2.570582,-2.6757 l 0.822791,1.1359 c -2.088491,-0.9436 -2.459855,-1.6695 -2.849956,-2.693 -0.391805,-1.0446 -0.647329,-2.484 -2.734117,-5.0219 1.688168,1.02 3.035636,3.4322 4.084993,4.0763 -0.645627,-1.7713 -1.267404,-3.2078 -1.998205,-4.3919 -0.354329,-0.5974 -0.729099,-1.1358 -1.08513,-1.6535 -0.321962,-0.535 -0.628592,-1.0447 -0.925,-1.5383 -1.189043,-1.9644 -2.330388,-3.71393 -1.982874,-6.38475 l 0.235082,0.48695 c -0.119244,-1.08865 -1.226519,-2.72225 -1.841483,-4.25212 -0.2112336,0.61026 0.247008,2.16535 0.381584,3.27931 -0.7188766,-1.5059 -2.0169436,-2.02499 -2.5279937,-2.49352 0.5212711,-2.1246 -1.0749084,-2.36473 -1.2861425,-5.49373 0.6660685,-1.21969 1.4002771,2.3304 2.1532241,3.29594 l -1.4547887,-3.40359 c -0.5161605,-3.3067 0.5502305,-3.407 0.824494,-5.06267 -1.0715014,-2.6743 -0.2776705,1.67624 -1.563813,-0.46635 0.446317,-1.84523 0.3355895,-6.50606 0.6796965,-11.63053 0.446317,-5.1018 1.1822291,-10.66543 1.8210417,-14.26818 -0.5451201,2.46156 0.6268879,1.07475 -0.1482046,4 0.3407,-1.04476 0.9897335,-4.85174 0.3185545,-5.09517 0.3287755,-2.53532 1.3338407,-5.22974 2.4121567,-7.83492 0.528084,-1.30487 1.253774,-2.51384 1.88918,-3.69437 0.676289,-1.15855 1.262293,-2.29513 1.98117,-3.24194 0,0 -0.316851,0.22146 -0.631998,0.44121 -0.325369,0.21823 -0.611557,0.45638 -0.611557,0.45638 0.3407,-2.02546 1.69328,-4.17153 3.321825,-6.54844 1.720536,-2.33175 3.626752,-4.9415 5.34899,-7.97374 l -0.09539,0.11584 c 1.083427,-1.95391 0.875599,-4.50916 3.686375,-7.60954 -0.03585,1.4548 -1.432644,3.18044 -0.611557,3.50581"
       style="fill:#d41f25;fill-opacity:1;fill-rule:nonzero;stroke:none"
       id="path1690" />
    <path
       inkscape:connector-curvature="0"
       d="m 41.268331,901.80793 c 0,0 -0.262339,0.55875 -0.524678,1.1175 -0.243601,0.57237 -0.485498,1.14475 -0.485498,1.14475 1.955618,-1.54166 3.517728,-4.49724 2.691531,-4.65226 -1.131125,1.2657 -3.122516,2.41897 -2.970905,3.04927 0.315148,-0.0954 0.538306,0.18568 1.28955,-0.65926"
       style="fill:#d41f25;fill-opacity:1;fill-rule:nonzero;stroke:none"
       id="path1692" />
    <path
       inkscape:connector-curvature="0"
       d="m 81.629358,877.78517 c 0.812569,-0.51105 0.480387,-0.79042 0.775092,-1.18222 -2.395121,0.87219 -4.986145,1.65409 -7.405114,2.77159 -1.223113,0.52638 -2.441116,1.04765 -3.633566,1.56041 -1.161787,0.57237 -2.301429,1.13282 -3.396779,1.67113 -2.224771,1.01869 -4.154837,2.16515 -5.851523,3.00497 -1.705203,0.8279 -3.049265,1.56382 -4.003225,1.93688 -1.522929,0.78532 -2.21455,1.57574 -2.943648,2.482 -0.706952,0.93863 -1.429236,2.02376 -3.056079,3.37804 l -2.153224,0.30152 c -1.451383,1.87896 -7.575465,5.42395 -4.621596,5.13435 0.296409,-0.0665 1.076612,-1.83467 2.798851,-2.8261 l 0.102209,0.64051 c 0,0 0.850046,-0.7308 1.701796,-1.4616 0.419061,-0.37478 0.863674,-0.71718 1.197561,-0.971 0.333886,-0.25893 0.555341,-0.42928 0.555341,-0.42928 l -0.742726,1.39006 c 5.558521,-2.65065 2.200922,-4.31327 9.011515,-7.79182 l 0.6814,1.25208 c 2.177073,-1.25889 3.812433,-2.20433 5.379654,-3.1123 1.589365,-0.87219 3.236649,-1.49055 5.391577,-2.07316 0,0 -0.264042,-0.65925 -0.902855,-0.0341 -0.793831,0.29811 -2.028869,0.26064 -1.686465,-0.37648 6.446044,-4.31667 -0.701843,1.22652 4.347332,-0.45142 1.398574,-0.82109 3.12933,-1.83467 5.057692,-2.76308 1.964135,-0.8296 4.040702,-1.81253 6.144524,-2.44793 4.171872,-1.40369 8.224499,-1.95562 10.08472,-1.71713 -1.574033,-0.14991 -1.287846,-0.65245 -0.117609,-1.19416 1.180525,-0.47527 3.267309,-0.879 5.139456,-1.03062 1.730751,0.3356 -1.134532,0.96248 -1.666023,1.44457 0.85686,-0.008 1.637063,0.0425 2.413864,0.0459 0.7819,0.0595 1.5604,0.092 2.42238,-0.0273 -2.26055,-0.74955 -0.88412,-1.84319 3.30308,-2.37639 -2.26735,-0.16694 -4.45806,-0.22316 -6.534627,0.0527 -2.066346,0.35774 -4.081582,0.68992 -6.008241,1.30659 -3.887387,1.1686 -7.582279,2.63531 -11.784813,3.89249"
       style="fill:#d41f25;fill-opacity:1;fill-rule:nonzero;stroke:none"
       id="path1694" />
    <path
       inkscape:connector-curvature="0"
       d="m 83.797913,875.86703 c -0.882413,0.27086 -1.233334,0.51275 -1.393463,0.73592 1.143049,-0.38499 2.326982,-0.65926 3.413814,-0.96078 l -2.020351,0.22486"
       style="fill:#d41f25;fill-opacity:1;fill-rule:nonzero;stroke:none"
       id="path1696" />
    <path
       inkscape:connector-curvature="0"
       d="m 179.80377,899.49458 -0.24019,0.0324 0.24019,-0.0324"
       style="fill:#d41f25;fill-opacity:1;fill-rule:nonzero;stroke:none"
       id="path1698" />
    <path
       inkscape:connector-curvature="0"
       d="m 188.66367,939.50468 -0.10222,-0.48055 c 0.0136,0.31344 0.0493,0.43251 0.10222,0.48055"
       style="fill:#d41f25;fill-opacity:1;fill-rule:nonzero;stroke:none"
       id="path1700" />
    <path
       inkscape:connector-curvature="0"
       d="m 163.18102,881.09508 0.0783,-0.009 c -0.30833,-0.23849 -0.73591,-0.54001 -1.46842,-0.97951 0,0 0.35433,0.23678 0.70695,0.47527 0.35263,0.24191 0.68311,0.51447 0.68311,0.51447"
       style="fill:#d41f25;fill-opacity:1;fill-rule:nonzero;stroke:none"
       id="path1702" />
    <path
       inkscape:connector-curvature="0"
       d="m 149.55131,1014.2762 0.45995,-0.2841 c -0.21123,0.124 -0.35944,0.1856 -0.45995,0.2841"
       style="fill:#d41f25;fill-opacity:1;fill-rule:nonzero;stroke:none"
       id="path1704" />
    <path
       inkscape:connector-curvature="0"
       d="m 181.44424,974.92403 c 0.0358,0.18569 -0.0186,0.45791 -0.0766,0.72399 0.12264,-0.31737 0.19078,-0.58089 0.0766,-0.72399"
       style="fill:#d41f25;fill-opacity:1;fill-rule:nonzero;stroke:none"
       id="path1706" />
    <path
       inkscape:connector-curvature="0"
       d="m 152.9021,870.73098 0.62518,0.56045 c 0.0341,-0.1345 -0.17716,-0.36285 -0.62518,-0.56045"
       style="fill:#d41f25;fill-opacity:1;fill-rule:nonzero;stroke:none"
       id="path1708" />
    <path
       inkscape:connector-curvature="0"
       d="m 125.796,869.36137 0.0783,0.0629 -0.0783,-0.0629"
       style="fill:#d41f25;fill-opacity:1;fill-rule:nonzero;stroke:none"
       id="path1710" />
    <path
       inkscape:connector-curvature="0"
       d="m 136.26231,870.27615 c 0.22486,-0.017 0.4855,-0.058 0.74954,-0.0988 -0.31515,-0.008 -0.71717,-0.0324 -0.74954,0.0988"
       style="fill:#d41f25;fill-opacity:1;fill-rule:nonzero;stroke:none"
       id="path1712" />
    <path
       inkscape:connector-curvature="0"
       d="m 137.36959,870.11601 -0.35774,0.0614 c 0.19931,10e-4 0.36115,-0.003 0.35774,-0.0614"
       style="fill:#d41f25;fill-opacity:1;fill-rule:nonzero;stroke:none"
       id="path1714" />
    <path
       inkscape:connector-curvature="0"
       d="m 120.97339,876.0459 c 0.71718,0.0595 1.34406,-0.14821 2.01013,-0.31175 l -2.01013,0.31175"
       style="fill:#d41f25;fill-opacity:1;fill-rule:nonzero;stroke:none"
       id="path1716" />
    <path
       inkscape:connector-curvature="0"
       d="m 72.699611,1028.0319 0.17546,-0.1076 -0.17546,0.1076"
       style="fill:#d41f25;fill-opacity:1;fill-rule:nonzero;stroke:none"
       id="path1718" />
    <path
       inkscape:connector-curvature="0"
       d="m 122.02615,873.28623 0.52298,0.097 c -0.19079,-0.0648 -0.36114,-0.0902 -0.52298,-0.097"
       style="fill:#d41f25;fill-opacity:1;fill-rule:nonzero;stroke:none"
       id="path1720" />
    <path
       inkscape:connector-curvature="0"
       d="m 166.51988,876.50074 c 0.85005,0.20271 2.00331,1.4667 2.17366,1.20608 -0.73761,-0.44973 -1.61321,-1.34747 -2.17366,-1.20608"
       style="fill:#d41f25;fill-opacity:1;fill-rule:nonzero;stroke:none"
       id="path1722" />
    <path
       inkscape:connector-curvature="0"
       d="m 52.506321,1035.1734 -0.51616,-0.1824 c 0.241897,0.096 0.398618,0.1478 0.51616,0.1824"
       style="fill:#d41f25;fill-opacity:1;fill-rule:nonzero;stroke:none"
       id="path1724" />
    <path
       inkscape:connector-curvature="0"
       d="m 122.02615,873.28623 -0.60814,-0.11584 0.17715,0.17206 0.43099,-0.0561"
       style="fill:#d41f25;fill-opacity:1;fill-rule:nonzero;stroke:none"
       id="path1726" />
    <path
       inkscape:connector-curvature="0"
       d="m 21.914867,976.35276 0.0027,0.0258 0.06814,0.15841 -0.07155,-0.18431"
       style="fill:#d41f25;fill-opacity:1;fill-rule:nonzero;stroke:none"
       id="path1728" />
    <path
       inkscape:connector-curvature="0"
       d="m 22.287934,972.08071 c 0.03407,0.29607 0.06991,0.5843 0.105616,0.90304 0.03229,-0.47921 -0.02222,-0.73132 -0.105616,-0.90304"
       style="fill:#d41f25;fill-opacity:1;fill-rule:nonzero;stroke:none"
       id="path1730" />
    <path
       inkscape:connector-curvature="0"
       d="m 122.98352,875.73415 1.15667,-0.17886 c -0.41395,0.0122 -0.79041,0.0902 -1.15667,0.17886"
       style="fill:#d41f25;fill-opacity:1;fill-rule:nonzero;stroke:none"
       id="path1732" />
    <path
       inkscape:connector-curvature="0"
       d="m 34.772885,927.96518 -0.190791,0.3884 c 0.100571,-0.15673 0.163535,-0.2845 0.190791,-0.3884"
       style="fill:#d41f25;fill-opacity:1;fill-rule:nonzero;stroke:none"
       id="path1734" />
    <path
       inkscape:connector-curvature="0"
       d="m 182.68439,971.78789 0.18738,-0.34462 c -0.0561,-0.0626 -0.1142,-0.0539 -0.18738,0.34462"
       style="fill:#d41f25;fill-opacity:1;fill-rule:nonzero;stroke:none"
       id="path1736" />
    <path
       inkscape:connector-curvature="0"
       d="m 173.60473,1005.8865 -0.008,0.013 0.005,0 0.003,-0.013"
       style="fill:#d41f25;fill-opacity:1;fill-rule:nonzero;stroke:none"
       id="path1738" />
    <path
       inkscape:connector-curvature="0"
       d="m 174.47693,1004.1152 c -0.42247,0.4291 -0.77169,1.2536 -0.8722,1.7713 0.37137,-0.4803 0.66948,-0.9761 0.8722,-1.7713"
       style="fill:#d41f25;fill-opacity:1;fill-rule:nonzero;stroke:none"
       id="path1740" />
    <path
       inkscape:connector-curvature="0"
       d="m 170.68664,1008.8423 0.18398,-0.1398 -0.18398,0.1398"
       style="fill:#d41f25;fill-opacity:1;fill-rule:nonzero;stroke:none"
       id="path1742" />
    <path
       inkscape:connector-curvature="0"
       d="m 190.70957,975.96146 -0.0324,-0.0122 0.0205,0.0307 0.0122,-0.0186"
       style="fill:#d41f25;fill-opacity:1;fill-rule:nonzero;stroke:none"
       id="path1744" />
    <path
       inkscape:connector-curvature="0"
       d="m 187.99931,983.13283 c -0.10902,0.10223 -0.22827,0.25757 -0.33559,0.4312 0.10562,-0.0954 0.22316,-0.23496 0.33559,-0.4312"
       style="fill:#d41f25;fill-opacity:1;fill-rule:nonzero;stroke:none"
       id="path1746" />
    <path
       inkscape:connector-curvature="0"
       d="m 156.7435,1022.0851 -0.001,-0.015 -0.0307,0.028 0.0324,-0.013"
       style="fill:#d41f25;fill-opacity:1;fill-rule:nonzero;stroke:none"
       id="path1748" />
    <path
       inkscape:connector-curvature="0"
       d="m 87.961267,1042.3193 c 7.360824,-0.026 16.704523,-1.3746 23.821743,-2.3255 1.47864,-0.8671 3.6029,-1.2811 5.81234,-1.8393 l 0.3935,0.8091 1.82787,-0.6493 c 0.81427,0.1035 -1.41392,0.4483 10e-4,0.501 l 0.60474,-0.6714 c 0.20442,0.2762 4.87201,-0.77 1.84489,0.4752 0,0 1.83296,-0.3662 3.66593,-0.7355 1.83126,-0.5129 3.66082,-1.026 3.66082,-1.026 1.62515,-0.4372 0.74102,-0.9654 2.58251,-1.2704 0.43609,0.1377 -0.58941,0.3507 -0.35432,0.6082 1.38494,-0.2474 2.45303,-0.5263 3.30479,-0.9761 0.85345,-0.4519 1.52634,-0.9404 2.17877,-1.4313 1.31171,-0.9842 2.53481,-1.9624 5.01851,-2.7104 l -0.36284,0.2663 c 0.72569,-0.535 2.22988,-1.2811 2.20263,-1.3889 -0.96419,-0.5229 -0.632,0.8638 -2.28439,1.0256 -0.14651,-0.6881 1.61151,-1.2025 1.29465,-1.661 1.18905,-0.2789 1.64729,-0.9676 2.56207,-1.4612 1.81081,-0.3561 3.96575,-1.7496 5.37114,-2.0138 0.63881,-0.6559 1.10386,-1.7832 2.68301,-2.7748 1.45819,-0.2081 0.022,0.6336 1.71032,-0.1396 l 0.017,-0.5097 c 1.30489,-0.7428 1.14134,-0.5704 1.22312,-0.3509 1.3134,-0.9434 0.74273,-1.2755 2.52629,-2.2504 l -0.66267,1.0068 c 1.11069,-1.0221 1.64218,-1.3234 3.34057,-2.5378 0.11584,0.2215 -0.56726,0.7086 -1.10387,1.0187 1.29977,-0.181 1.39687,-1.3695 1.91814,-1.6915 -0.24871,-0.025 -1.46501,0.7558 -1.16008,0.013 0.90626,-0.5158 1.28614,-1.8632 2.17537,-1.9419 l -0.57238,1.0634 c 1.39176,-1.6883 0.50765,-1.1705 2.45134,-2.6848 l 0.0614,0.2521 c 0.79042,-1.4428 2.67789,-2.3903 4.22638,-4.1071 l -0.21464,0.3986 c 0.53149,-0.7819 0.59792,-1.416 0.95907,-1.7615 -1.0698,0.7888 -0.91649,0.4394 -1.29636,0.2436 1.67284,-0.7938 1.21289,-2.4326 3.33034,-4.2573 0.16523,0.1942 -0.0154,0.9236 -0.75294,1.3036 -0.10223,1.1786 0.27937,1.6762 -0.65075,3.1753 0.60985,-0.9049 1.39347,-1.9011 1.44287,-1.5011 l -0.27937,-0.6934 c 0.41736,-0.4958 0.8279,-0.8177 1.11579,-1.2163 -0.15162,-0.4838 -1.34577,0.5656 -0.6337,-0.7799 0.85515,-1.4618 1.08171,-0.2656 1.00677,-0.6642 1.20436,-1.9981 0.0136,-1.2043 1.54507,-2.8247 -0.0902,0.2097 -0.26064,0.6216 -0.42928,0.734 1.1703,-1.1107 2.32868,-3.13225 3.19236,-3.10157 0.0136,0.29815 0.21463,0.49169 -0.20613,0.94357 l -0.0851,-0.092 c -0.29982,0.8717 -0.10562,0.5568 0.1925,0.1295 0.2947,-0.43066 0.63199,-1.01541 0.79041,-0.56902 -0.42416,-0.1465 0.87561,-1.99105 1.49057,-2.80744 l -0.59112,0 c 0.55535,-3.63855 0.7308,0.68482 2.37809,-2.25583 0.85515,-1.97227 -0.55193,0.61028 -0.15161,-0.67271 0.84153,-1.1686 1.40709,-1.46664 2.21966,-3.42362 0.44631,-0.42452 1.23844,-1.36812 1.78186,-1.20649 0.19931,-0.62348 0.70866,-1.46324 1.15157,-2.26239 0.41054,-0.81059 0.69844,-1.60115 0.60134,-2.0442 -1.25889,1.82465 -0.36115,2.25571 -2.19752,4.22005 L 185.4997,988.344 c 0.90796,-1.53314 1.5127,-3.73557 2.16345,-4.77647 -0.19421,0.1837 -0.36456,0.22827 -0.41055,0.0395 0.77679,-2.39554 0.58941,-3.2387 1.62514,-5.42918 0.59281,-0.11789 0.009,1.17901 -0.37477,2.14264 0.99484,-1.29765 0.68992,-1.49185 1.59447,-3.7458 0.45143,0.0219 -0.54342,1.54319 -0.23337,1.95713 l 0.72739,-2.60582 0.0851,0.0273 c -0.56556,-0.60355 0.71036,-1.92836 1.02721,-3.56406 0.66437,-1.84319 0.59452,-3.02696 0.54342,-3.97392 -0.0851,-0.95619 -0.2947,-1.71425 -0.31515,-2.81607 0.32878,-0.50917 0.55193,-0.63029 0.67118,-0.35279 -0.54683,0.84188 -0.25893,0.73933 -0.15672,1.10728 0.24701,-1.27882 1.39857,-2.61112 1.50419,-1.83791 0.30662,-2.07009 -0.55875,0.64358 -0.46506,-0.64069 0,0 0.19761,-0.68804 0.35773,-1.37948 0.13799,-0.69674 0.27597,-1.39347 0.27597,-1.39347 -0.42587,0.25689 -0.68139,1.21782 -0.70013,-0.27937 0.11924,-1.23504 0.2964,-1.80605 0.60645,-3.38844 0.13798,0.26217 0.64902,-0.4073 0.41054,0.78515 0.27426,-0.74256 0.50934,-1.94899 0.23678,-2.47008 -0.64562,1.68493 0.1942,-2.89919 -0.60985,-1.68612 l 0.53667,-1.69566 c -0.0511,0.39725 0.18739,0.47579 0.0495,1.05328 0.61666,-0.41925 0.001,-1.45326 0.017,-2.06669 0.17887,-0.601 0.40714,-2.1907 0.63882,-2.29972 -0.0936,-0.57033 0.18227,-1.90588 0.49742,-2.13415 -0.0188,-0.83301 -0.35944,-0.099 -0.51616,-0.35603 0,0 0.0885,-0.69725 0.17717,-1.39534 0.0561,-0.70662 0.11243,-1.41544 0.11243,-1.41544 0.32366,-0.1296 1.20437,-0.31532 1.29465,0.12592 -0.22145,-1.10727 -0.89433,-0.44649 -0.76316,-2.07486 0.56726,0.97287 0.56044,-2.14999 1.22993,-0.75653 0.4395,-0.93164 0.53319,-3.66917 0.29299,-5.16177 -0.50763,-0.91632 -0.21123,1.6236 -0.7359,1.52651 -0.26916,-4.18227 -1.63707,-4.3453 -1.65752,-7.36764 l -0.0732,0.79382 c -0.43951,-1.84811 -0.32878,-1.6471 -0.88923,-2.68113 0.6337,0.46165 1.44457,-2.33209 0.72398,-5.39839 -0.3475,-0.20272 -0.26744,1.81253 -0.83641,1.39176 l -0.45143,-1.99991 c 0.0188,-0.15331 0.16013,0.0477 0.28448,0.293 -0.50252,-1.76652 0.0648,-3.52624 -0.73761,-3.88909 0,0 0.11066,-0.50934 0.22145,-1.0204 0.11584,-0.51105 0.20954,-1.0255 0.20954,-1.0255 l -0.1908,0.81938 c -0.31856,-0.18568 -0.99995,-2.14811 -1.22311,-2.52969 -0.8773,-1.942 -0.925,-2.71879 -0.91819,-3.94871 -0.11761,0.43098 -0.36965,1.47352 -0.98973,-0.058 0.98462,-0.32538 -0.86027,-3.38486 -0.38499,-3.51943 -0.26575,-0.61838 -0.41054,-1.86023 -0.83813,-1.76143 l 0.61327,-0.14138 c -0.8705,0.1993 -1.80912,-2.06124 -2.79715,-3.66594 1.23674,-0.15331 -1.03913,-1.77846 -0.49742,-3.03052 -0.85005,0.0681 -1.9931,-2.73753 -2.73242,-2.66769 -0.80405,-1.20097 -0.13287,-1.47012 -0.12102,-1.92325 l -0.62859,-0.40202 c -0.058,-0.40373 -0.4412,-1.20097 -0.94885,-2.05272 -0.52467,-0.84153 -1.13452,-1.76482 -1.53485,-2.49733 0,0 -0.37306,-0.19421 -0.74613,-0.38499 -0.38329,-0.17717 -0.76658,-0.35603 -0.76658,-0.35603 l -0.12606,-0.63371 c -0.2964,-0.0699 -1.20096,-0.95907 -0.88582,-0.1925 l -0.50424,-0.64732 c -0.60133,0.44801 -0.90455,-0.73251 -2.30142,-1.66432 -0.17546,-0.35433 0.0239,-0.41225 0.34581,-0.22998 -0.56556,-0.58941 -0.0409,-0.61496 -0.17717,-1.1192 0.13629,0.27938 -0.62688,-0.0122 -1.24866,-0.12946 -0.65074,-0.0937 -1.13283,-0.0443 -0.46847,0.82619 -0.10047,0.31345 -1.18734,-0.36625 -1.67794,-0.99313 l 0.10561,-0.83302 -1.18393,-0.0919 c -0.9761,-0.74443 -1.14134,-1.36792 -1.87044,-2.06806 0.81939,0.59453 2.64895,0.41566 0.51105,-1.26229 1.1652,0.82109 1.97777,0.94715 2.63191,1.32874 -0.40884,-0.39181 -0.58942,-0.62519 0.27426,-0.27086 -1.79548,-1.20778 -0.82619,-0.13451 -2.5314,-1.38835 0.45143,-0.39011 0.16524,-0.98633 -1.26229,-2.22648 0,0 0.22146,0.2913 0.44461,0.5843 0.22656,0.28448 0.42417,0.60133 0.42417,0.60133 l -0.30833,-0.0341 c 0.37307,0.38158 0.43099,0.55022 0.37648,0.80745 -0.30664,-0.30152 -2.42409,-0.8279 -2.49393,-1.32873 1.17883,1.96585 -3.43426,-1.45137 -2.64894,-0.1959 -0.29812,0.0307 -1.54167,-0.67288 -1.51441,-1.01358 1.72564,0.4889 -0.76318,-1.27422 -0.31686,-1.5076 -0.64392,-0.18057 0.95397,1.10046 0.0836,0.85176 -0.89605,-0.51447 -1.40369,-1.16691 -1.83297,-1.60982 l 0.44291,0.0972 -1.32021,-0.98292 c -0.36966,0.15672 1.16008,1.17542 -0.23508,0.64563 -0.28449,-0.30152 -1.68307,-0.81598 -1.55019,-0.99654 0.8296,-0.10223 0.59622,-0.83131 1.79208,-0.34411 -0.95055,-0.50424 -4.14291,-1.68647 -3.09185,-0.64393 l -1.15511,-0.51275 c 0.64051,0.55364 2.46326,1.83978 0.13287,0.93863 l 0.0664,-0.10725 c 0,0 -0.44291,-0.0614 -0.88411,-0.12266 -0.44291,-0.0563 -0.89604,-0.0783 -0.89604,-0.0783 l -0.60304,-0.54682 c -0.0324,0.15672 -0.3373,0.20101 -0.93693,-0.0186 -0.0988,-0.22997 -0.64904,-0.49743 -0.52638,-0.71717 -1.78527,-0.57067 -1.74609,-0.15162 -2.02206,-0.0665 -1.01188,-0.22827 -1.35598,-0.45483 -0.79212,-0.67799 -1.35258,-0.51276 -3.81925,-0.89604 -4.7221,-1.40198 -1.93348,-0.097 0.36113,0.20441 -0.80747,0.40032 -0.72057,-0.67799 -2.29631,-0.95567 -4.05773,-1.13623 -1.77164,-0.0699 -3.72897,-0.0341 -5.28256,0.0392 0.8296,0.93352 -0.85345,0.11421 -1.4122,0.9744 0.67118,-0.30152 -2.94706,-0.70353 -0.23679,-0.98972 l -1.65915,0.11066 c -1.16348,-0.50424 2.74946,-0.41055 1.00678,-1.10387 -1.90622,0.008 -3.04927,1.23844 -5.26552,1.01869 0.66607,-0.74613 -1.66092,0.39351 -1.19246,-0.37988 0.42589,-0.31345 1.04595,-0.29641 1.66944,-0.3884 l -0.40032,-0.10223 c -4.12247,0.29301 -1.09876,0.9216 -3.1583,1.64729 -2.43429,0.41395 -2.01524,-0.23849 -2.21114,-0.52638 -0.40373,-0.0546 -1.62173,0.29301 -2.22647,0.59112 1.41732,-0.69674 2.8244,-0.13452 2.21114,0.41395 -1.19926,-0.5349 -3.60972,0.65755 -4.1889,1.07831 3.59778,0.12443 2.39001,-0.49913 5.76464,-0.17035 0.40544,-0.29811 0.23338,-0.96247 2.22818,-0.95055 -1.18223,0.50083 0.1311,0.36455 0.4872,0.42587 -0.42247,-0.35432 1.33384,-0.33728 1.92155,-0.51275 0.56726,0.27596 -1.08342,0.98462 0.89433,0.99996 l 0.30493,-0.94545 c 0.78702,0.0801 -0.28278,0.69673 1.34918,0.35603 -0.85686,0.54512 0.29981,0.72569 -1.89089,1.03403 2.66087,0.54683 3.99641,-0.61667 6.0849,-0.9727 -0.21294,0.058 -0.23508,0.18057 -0.44291,0.2436 0.44121,-0.2453 1.24525,-0.24701 1.85682,-0.24701 1.35258,0.2896 -1.09024,0.35433 -0.74273,0.62689 l 2.18901,0.10398 0.0493,0.0681 c 0.58259,-0.0919 1.14134,-0.1431 1.32192,0.0972 -0.67289,0.25723 -0.94886,0.54853 -1.39518,0.76147 0,0 0.5775,-0.12443 1.15668,-0.25042 0.5843,-0.14139 1.16861,-0.21975 1.16861,-0.22145 -0.27597,0.27086 1.8023,0.75806 0.17886,0.77508 0,0 0.83301,0.0732 1.66943,0.14651 0.83301,0.0767 1.66773,0.16013 1.66773,0.16013 l 0.17376,0.66777 c 0.79553,0.0459 0.84493,-0.0716 -0.0801,-0.33048 0.54512,0.18057 1.83297,0.15842 2.89766,0.22997 1.06468,0.0597 1.85852,0.33559 1.41901,0.83131 2.66598,0.16354 3.51262,0.65755 6.61299,1.45649 -2.46496,-0.37306 2.30483,1.73757 -0.17035,1.00336 1.2691,0.83813 1.81763,0.34071 2.95727,0.71207 0.87901,0.75636 0.18739,1.02039 -0.99313,0.77509 0,0 0.34921,0.0716 0.69843,0.14309 0.3407,0.0954 0.6814,0.1908 0.6814,0.1908 l -0.0783,0.0988 1.23844,0.2385 c 0.99315,0.879 -0.0477,0.67457 1.08683,1.34746 l 0.51616,-0.33388 0.60986,0.74102 c -0.16183,-0.39181 0.56556,-0.0851 1.41902,0.37647 l -0.0817,0.0936 1.05616,0.52297 c -1.14644,-0.36115 0.81939,0.69843 0.15843,0.73591 0.80065,0.59111 0.82109,0.59281 2.35595,1.53826 l -0.0341,-0.48379 c 2.06635,1.18222 -0.25211,0.50082 1.21801,1.70179 l 0.17546,-0.41224 c 0.42417,0.57067 0.879,1.01017 1.33895,1.38494 0.4395,0.40373 0.89264,0.73251 1.33725,1.04425 0.89263,0.61155 1.74268,1.16178 2.27076,2.07145 -0.88582,-0.76316 -1.02891,-0.19079 -0.9267,-0.26404 0.65585,0.57067 1.47353,1.37302 2.30484,2.17196 0.79553,0.83472 1.63025,1.64558 2.42748,2.16685 -0.0732,0.91138 -0.1345,1.16179 0.75806,2.78864 0.85515,1.0255 0.97611,1.18222 1.52974,1.33213 0.26405,0.60645 0.81257,1.3645 1.25377,2.00843 0.41907,0.65755 0.71037,1.218 0.53491,1.3611 0.46505,0.0716 0.53659,1.03913 1.1703,1.49737 l -0.0851,0.22316 0.31855,-0.31004 c 0.24872,2.48712 2.36276,3.19747 2.55525,5.70843 l -0.27426,-0.31684 0.56556,0.82278 c -0.10902,0.21805 -0.38328,-0.0988 -0.62689,-0.0375 0,0 0.47358,1.02891 0.85005,2.09871 0.40202,1.05957 0.80064,2.11915 0.80064,2.11915 l -0.0239,-0.94374 c 0.40884,0.86538 0.99825,1.34577 1.10217,2.47519 -1.19926,-1.51612 0.46335,1.44457 0.0835,1.87385 l -0.47527,-0.86878 c 0.47017,1.24185 0.45484,1.24865 0.84153,1.01358 0.61837,1.62854 -0.47017,1.37302 0.41395,2.775 l -0.28959,-1.09365 c 0.1499,-0.39351 0.71547,0.2964 0.91307,1.03573 -0.0136,0.19078 -0.0527,0.75806 -0.26234,0.21294 0.51957,1.27592 0.7274,3.33715 1.04424,3.88227 0.0222,0.75295 -0.33047,0.57237 -0.52638,0.20783 0.90116,2.78863 0.17035,1.29806 1.03574,4.11225 l -0.25042,-0.0123 0.41906,0.95226 -0.33218,1.48204 0.25041,-0.54512 c 0.16524,0.94204 0.4361,1.51782 0.36625,2.64708 l -0.3952,-0.41584 c 0.42416,2.67502 -0.3373,3.13274 0.23678,5.66074 -0.0595,0.1758 -0.19079,-0.21617 -0.25382,-0.41719 0.66096,2.35629 -0.60816,1.77998 0.0665,4.15825 l -0.37818,0.0122 0.22146,1.08649 -0.49232,-0.10161 c 0,0 0.17717,0.22622 0.35262,0.45313 0.16695,0.22826 0.33389,0.45653 0.33389,0.45653 l -0.54853,0.64 0.20954,0.43321 c -0.99826,1.08478 -0.40885,2.7663 -1.32363,4.29741 l 0.65074,-0.21089 c 0.40373,2.07674 -0.008,4.38651 -0.57919,6.74604 -0.69332,2.33838 -1.48545,4.73385 -1.62174,7.18536 l -0.46505,-0.18773 0.11079,2.07163 c -0.64221,0.9502 -0.2487,-0.71871 -0.57918,-0.44989 -0.26064,2.12801 0.4872,1.02737 0.0122,3.47888 -0.6337,1.15123 -0.2436,-0.52502 -0.26574,-1.14527 -0.16865,1.1572 -0.39863,2.58984 -0.66948,3.92675 -0.30833,1.32226 -0.75806,2.5147 -1.13794,3.25862 l 0.15673,0.10575 c -0.30882,1.53627 -1.08562,3.44419 -1.70909,5.03049 -0.19761,-0.12442 -0.0529,-0.51769 0.0477,-0.93164 -0.24531,0.56028 -0.7308,1.26366 -0.71718,1.83263 l -0.14479,-0.74597 c -0.58771,1.16197 -1.20779,3.62469 -1.77846,3.68984 0.23509,-0.0668 0.54682,0.14309 0.0868,1.17378 -0.85515,0.28618 -1.06299,2.88205 -2.25543,4.30481 -0.0595,-0.27434 0.51956,-1.4567 0.33729,-1.13331 -0.59453,0.70539 -0.65414,1.58303 -0.81939,2.40017 l -0.15331,-0.3606 c 0,0 -0.39351,0.98271 -0.78872,1.96366 -0.43269,0.95954 -0.93011,1.88448 -0.93182,1.88448 -0.9744,0.12401 -2.03398,3.39312 -2.3406,2.85342 -0.8228,1.24305 0.95055,-0.87436 0.005,0.76989 -0.26404,0.12395 -0.46165,0.50775 -0.64052,0.81578 -0.20272,0.28959 -0.37988,0.50774 -0.55534,0.33397 l 0.0767,-0.19087 -0.7751,1.06141 0.11761,-0.93695 c -0.60304,0.94879 -0.72568,1.89448 -0.47016,2.16524 -0.87219,0.68997 -1.63366,2.03882 -2.27076,2.14939 l 0.1516,-0.38998 c -0.80235,1.29157 -1.96413,1.93707 -2.9266,2.62377 -0.97611,0.6761 -1.82446,1.3356 -2.3287,2.4853 -0.16694,0.08 -0.23848,-0.021 0.0136,-0.2847 l -1.30828,1.2895 0.0749,-0.5503 -1.88406,2.4276 -0.13506,-0.2076 c -0.7819,0.6301 -1.73416,1.4918 -2.72559,2.4242 -1.0681,0.8397 -2.19241,1.7255 -3.2077,2.5259 l 0.24361,-0.3221 c -1.02211,0.9903 -1.60811,1.3508 -2.11916,1.641 -0.49912,0.3027 -0.95566,0.5023 -1.77675,1.1359 l 0.12946,-0.201 -1.58595,0.9676 0.22486,-0.414 c -0.90967,1.1638 -3.7,1.4294 -2.75115,1.3802 -0.5349,0.6214 -1.56382,1.5332 -1.6524,1.8704 -1.82444,0.9097 -0.59622,-0.063 -1.82274,0.2981 -1.33043,0.615 -1.38325,1.114 -3.26732,1.7848 l -0.0629,-0.2416 c -0.80576,0.47 -1.27934,0.8366 -2.49052,1.3234 l 0.31855,-0.2434 c -1.80231,1.2331 -2.72901,0.2568 -3.91806,1.8618 -0.89263,0.1498 -2.44111,0.8671 -2.52969,0.3355 -2.45815,1.0255 -4.40866,1.7514 -6.91621,2.663 -0.60986,-0.704 -0.55705,0.1631 -2.25714,0.032 l 0.21293,0.3966 c -1.86191,0.4004 -3.91975,0.5535 -6.00313,0.7292 -2.14982,0.1484 -4.34392,0.3067 -6.3796,0.678 l -0.17717,-0.4124 -0.76146,0.5963 c -4.49213,0.4311 -10.297662,0.7152 -13.863083,0.7817 -1.158381,0.2948 -2.933427,0.7959 -4.79876,0.6628 l 0.194199,-0.059 c -3.233243,0.1923 -6.689645,0.2882 -10.168192,-0.3188 0.235083,-0.165 -0.0988,-0.3232 0.303223,-0.4066 -0.879006,0.4221 -2.051014,-0.1722 -2.790333,-0.2828 l 0.838122,0.4293 c -1.039135,0.2895 -2.417266,-0.2761 -2.8721,-0.6495 l -1.621733,0.213 -0.253822,-0.2197 -0.310037,0.1825 -0.730801,-0.6949 c -0.410543,0.083 -2.454743,-0.1962 -3.205987,0.2177 -0.110796,-0.2143 -1.514412,-0.6436 -0.383287,-0.5263 0,0 -0.345812,-0.083 -0.868786,-0.2076 -0.514456,-0.1397 -1.200968,-0.3275 -1.887478,-0.5143 -1.383242,-0.3494 -2.720489,-0.806 -2.720489,-0.806 l 0.795534,0.4392 c -0.0027,0.4498 -1.730755,0.2401 -2.527994,-0.1942 1.218002,-0.015 0.265746,-0.5638 -0.109024,-1.0028 -0.802348,0 0.524678,0.5582 0.06991,0.6673 -1.01188,0 -3.006678,-0.5397 -3.43085,-0.8803 l 0.60815,0.02 c -1.313398,-0.2481 -1.584254,-1.2329 -2.790332,-1.6455 -1.214597,-0.075 -1.846595,-0.7472 -1.928363,0.039 -1.585958,-0.5481 -0.381584,-0.7252 -0.839826,-1.0134 -0.880709,0.037 -2.846548,-1.2211 -2.919799,-1.7015 -1.364503,0.603 -3.626751,-2.5146 -4.393326,-1.8846 l -0.822791,-1.185 c -0.172054,0.1837 -0.698435,0.4938 -1.667726,-0.035 -0.706953,-0.7872 -0.224862,-1.0275 -0.328775,-1.4054 l -1.090241,0.3148 c -2.100415,-2.134 -4.510868,-4.4937 -6.749267,-7.0968 -2.258841,-2.5772 -4.214459,-5.5224 -5.384764,-8.485 -1.608104,-2.31173 -3.376337,-5.50709 -4.355849,-8.73565 l 0.219751,0.32066 -0.730801,-3.27248 0.304926,2.44595 c -0.313444,-0.67131 -0.650736,-1.17037 -0.846639,-1.85641 -0.211235,-0.90299 -0.26745,-1.92059 -0.441207,-2.95591 -0.08014,-0.51773 -0.161832,-1.05072 -0.245304,-1.59094 -0.0511,-0.5518 -0.103982,-1.11409 -0.156722,-1.68292 -0.114202,-1.13467 -0.260635,-2.28977 -0.454834,-3.44284 -0.115838,-1.16724 -0.250415,-2.33709 -0.458242,-3.48372 -1.306585,-2.94517 0.841529,-2.01558 0.01704,-4.85362 0.09703,0.24565 0.247008,0.33611 0.352625,0.55569 -0.436096,-3.07823 -0.376474,-4.75123 -0.809163,-7.92792 0.989734,0.46318 0.248712,-2.01694 0.754651,-1.67828 l -0.386695,-0.31004 c 0.349218,-0.65739 0.654144,-2.26242 0.923297,-1.98101 0,0 -0.08681,-0.35926 -0.173757,-0.72057 -0.08518,-0.36268 -0.136279,-0.72211 -0.136279,-0.72211 l 0.45313,-0.0425 c 0.195903,-0.88957 0.398619,-2.31029 0.681401,-3.60854 0.260634,-1.29959 0.783609,-2.43226 1.308287,-2.78488 0.195903,-2.27247 1.018693,-5.08325 1.998205,-7.98975 0.584301,-1.42072 1.183933,-2.87329 1.773344,-4.30271 0.63711,-1.40742 1.359394,-2.75148 1.989688,-4.02911 -0.01226,-0.8957 0.766575,-2.38422 1.35769,-3.55487 l 1.115792,-0.98137 c 0.453132,-1.25701 0.674587,-2.77824 1.59618,-3.67598 l 0.03925,0.19419 c 0.626888,-1.20777 1.480342,-2.18388 1.826152,-3.47854 0.865378,-1.21629 1.906217,-2.25373 2.0442,-1.60129 -0.31174,-0.30663 0.156723,-0.94033 0.701843,-1.49397 0.572375,-0.5332 1.226519,-0.97952 1.226519,-0.97952 0,0 0.742726,-0.9284 2.062938,-2.57909 0.652441,-0.8296 1.541669,-1.76994 2.512663,-2.89595 0.955664,-1.13964 2.120858,-2.36276 3.417221,-3.68637 2.536511,-2.70516 5.781679,-5.65051 9.408431,-8.75089 3.720444,-2.98964 7.832693,-6.14793 12.348672,-8.95018 4.507461,-2.79545 9.280668,-5.44609 14.142458,-7.61124 4.868603,-2.13108 9.738909,-3.97256 14.375832,-5.3047 9.267044,-2.74264 17.418284,-3.61483 22.133564,-4.58753 0.64053,-0.38158 2.41558,-0.54852 1.77846,-1.09705 1.37814,-0.0749 1.93177,0.71035 2.235,0.30322 -1.83127,-0.39351 0.6848,-1.05957 -1.10558,-1.69838 l 1.19586,-0.0307 c 0.26916,-0.28789 -1.64047,0.2436 -1.30488,-0.28619 l -0.39522,0.77339 c -0.94374,-0.18057 -1.45819,-0.37818 -1.78185,-0.66778 -0.925,0.26405 -1.51782,1.24356 -3.64039,0.81769 l 0.58941,-0.0511 c -1.73926,0.0409 -1.06638,-0.50595 -1.43264,-0.63371 l 0.38669,0.005 -1.48545,-0.39011 c 1.12432,0.25893 2.98454,-0.39862 2.01184,-0.34752 -2.11064,-0.20782 0.54512,0.1908 -1.03402,0.29813 -0.97782,0.0493 -0.71206,-0.37819 -0.66948,-0.6252 l -1.77164,0.0409 c 0.046,-0.36796 1.17541,0.0123 0.4429,-0.36284 0,0 -0.55873,0.0835 -1.11067,0.23678 -0.55193,0.13799 -1.10387,0.27767 -1.10387,0.27767 -0.48039,-0.90285 -2.3866,0.62348 -3.48195,-0.18057 1.58766,-0.33388 -0.17546,-0.30151 0.0493,-0.62007 0,0 -0.24872,0.007 -0.61837,0.0648 -0.36966,0.0561 -0.86027,0.12946 -1.35257,0.20442 -0.98463,0.14821 -1.96755,0.29641 -1.96755,0.29641 -0.39351,-0.0783 0.99825,-0.42929 0.40373,-0.29982 -0.7819,-0.15331 -1.18904,0.39181 -1.58937,0.44121 -0.3918,-0.25723 -2.91639,0.55534 -2.9249,-0.0817 -2.749454,0.13288 -0.96419,0.97781 -3.502401,1.15497 -0.415655,-0.31684 1.943693,-0.49571 0.756353,-0.65244 0,0 -0.638812,0.14821 -1.262293,0.36456 -0.62518,0.19931 -1.252068,0.39862 -1.252068,0.39862 0.183977,-0.2385 0.347514,-0.72059 1.321912,-0.89264 -1.751194,0.33048 -3.333746,0.52127 -4.829419,0.65755 -1.483749,0.19079 -2.865287,0.36626 -4.217866,0.54171 -1.374725,0.15502 -2.696641,0.42758 -4.052627,0.83301 -1.350876,0.41907 -2.78863,0.85345 -4.238308,1.67625 -1.028914,-0.0222 0.490608,-0.56045 0.994844,-1.08683 -2.091898,1.24014 -3.722147,1.72224 -5.330252,2.09871 -1.579144,0.42417 -3.103777,0.80405 -4.93504,1.76993 l 0.109025,0.35944 c -5.626661,1.73416 -11.173257,6.05935 -16.619346,9.635 l 0.771684,-0.27086 c -0.497421,0.8262 -1.592771,1.76823 -2.325276,2.55866 -0.243601,-0.0409 0.11243,-1.09705 -1.269108,0.20272 0.388398,-0.1431 1.097054,-0.5315 1.025507,-0.24531 -1.252073,0.66948 -2.742635,1.67284 -4.332001,2.95728 -0.798942,0.64051 -1.643877,1.32021 -2.52629,2.02886 -0.834716,0.76488 -1.701797,1.55701 -2.591024,2.36958 -3.568833,3.24857 -7.08145,7.19729 -10.195448,10.63835 -7.541395,9.95015 -15.079382,21.61231 -18.678878,33.66252 0.57408,-1.81729 1.180526,-0.75123 0.531493,0.53032 -1.388353,1.6011 -1.766531,3.28587 -2.074863,4.97404 -0.160129,0.84511 -0.304927,1.69293 -0.538307,2.55866 -0.211233,0.87031 -0.454834,1.77129 -0.918186,2.70499 -0.240193,1.8212 -0.603039,3.55673 -0.827901,5.29618 -0.235083,1.73398 -0.6524402,3.41364 -0.7802027,5.11918 -0.1669431,1.7001 -0.3458105,3.39167 -0.3577351,5.08649 0.051105,1.69821 0.1993095,3.40034 0.5076431,5.09517 l -0.4343926,0.14837 c -0.183978,1.03079 0.180571,1.29636 0.293002,2.36429 l -0.1244236,-0.0185 c 0.013629,1.27423 0.1924955,2.67096 0.354328,3.92787 0.221455,1.2591 0.4684629,2.37632 0.4667589,3.11768 l 0.500829,0.019 c 0.264043,1.48586 -0.260635,0.8384 0.248711,2.32575 l -0.247007,0 c 0,0 0.183977,0.42588 0.36966,0.85175 0.216343,0.42056 0.432688,0.84098 0.432688,0.84098 -0.863674,0 0.85175,4.23682 0.921594,5.47847 0.681398,1.87061 2.246915,5.29832 3.343969,8.1091 -0.08517,0.3459 0.264043,1.3662 0.73932,2.5838 0.507643,1.203 1.228223,2.5625 1.7035,3.6712 2.417266,4.0085 6.555068,9.3079 10.815521,13.4542 l 0.308334,-0.4838 1.172007,0.9916 c -0.0988,0.076 0.01226,0.2622 -0.201012,0.1517 0.236786,0.6303 0.942035,1.1871 1.667726,1.7134 0.741023,0.511 1.52804,0.9542 1.894292,1.4927 -0.304926,-0.8744 -0.802348,-0.7195 -1.490562,-1.2658 -0.795535,-1.012 0.453131,-0.6387 1.626843,0.5856 l -0.100572,0.078 1.088536,0.4677 c -0.155018,0.4225 0.551935,1.2404 0.422468,1.653 4.231494,2.8413 7.585686,3.8241 12.103368,6.1631 -0.683103,0.2449 3.403593,1.3714 2.1413,1.7275 2.976014,0.8245 -0.211234,-0.8164 1.311695,-0.8605 0.78361,0.3202 1.691575,0.4259 1.723942,0.7733 -0.444613,0.045 0.465056,0.7327 -0.206123,0.5556 0,0 0.476979,0.1784 0.964181,0.3254 0.4872,0.1465 0.974402,0.2929 0.974402,0.2929 0.160129,0.1254 -0.299817,0.092 -0.533196,0.074 4.050923,0.9128 6.859995,2.7035 10.575329,3.0729 0.332181,-0.2335 -1.401981,-0.4241 -1.071502,-0.6608 1.863629,0.1483 2.630204,0.3966 3.366116,0.7152 0.735912,0.2916 1.442864,0.6763 3.17362,0.7087 l -0.773389,0.3049 c 1.149863,-0.1118 1.676244,-0.3953 3.42574,0.2236 0.245303,0.545 -1.589367,0.1616 -2.499036,0.2521 1.240148,0.2468 4.403548,0.5464 3.5041,-0.041 1.504191,0.021 1.991392,0.5229 2.780112,0.7546 0.03924,-0.1172 -1.350875,-0.497 -0.454834,-0.6216 1.987984,0.5091 5.122424,0.7679 7.590796,0.9143 -0.02903,0.1213 0.13628,0.3175 -0.08177,0.3667 2.020351,-0.5363 1.763123,0.5437 4.514275,0.4652"
       style="fill:#d41f25;fill-opacity:1;fill-rule:nonzero;stroke:none"
       id="path1750" />
    <path
       inkscape:connector-curvature="0"
       d="m 191.09457,975.04446 -0.385,0.917 c 0.10385,0.0353 0.20954,0.12048 0.17717,0.59623 l 0.20783,-1.51323"
       style="fill:#d41f25;fill-opacity:1;fill-rule:nonzero;stroke:none"
       id="path1752" />
    <path
       inkscape:connector-curvature="0"
       d="m 165.71582,1014.3121 -0.17716,0.3387 c 0.16694,-0.177 0.18909,-0.2722 0.17716,-0.3387"
       style="fill:#d41f25;fill-opacity:1;fill-rule:nonzero;stroke:none"
       id="path1754" />
    <path
       inkscape:connector-curvature="0"
       d="m 157.20514,1022.2009 c 0.60645,-0.581 -0.0648,-0.2502 -0.46164,-0.1158 0.0409,0.094 0.12441,0.1842 0.46164,0.1158"
       style="fill:#d41f25;fill-opacity:1;fill-rule:nonzero;stroke:none"
       id="path1756" />
    <path
       inkscape:connector-curvature="0"
       d="m 195.30562,949.05093 c 0.029,0.17359 0.0836,0.28279 0.18909,0.26746 -0.0648,-0.23697 -0.12442,-0.29148 -0.18909,-0.26746"
       style="fill:#d41f25;fill-opacity:1;fill-rule:nonzero;stroke:none"
       id="path1758" />
    <path
       inkscape:connector-curvature="0"
       d="m 173.07154,881.60612 0.17205,0.25553 -0.17205,-0.25553"
       style="fill:#d41f25;fill-opacity:1;fill-rule:nonzero;stroke:none"
       id="path1760" />
    <path
       inkscape:connector-curvature="0"
       d="m 175.51266,885.01824 c 0.13798,0.14649 0.33217,0.32196 0.6354,0.55022 -0.23678,-0.27937 -0.44802,-0.4395 -0.6354,-0.55022"
       style="fill:#d41f25;fill-opacity:1;fill-rule:nonzero;stroke:none"
       id="path1762" />
    <path
       inkscape:connector-curvature="0"
       d="m 192.44715,966.34998 c -0.0493,0.26556 -0.0801,0.52978 -0.0358,0.77866 0.0936,-0.40867 0.075,-0.62552 0.0358,-0.77866"
       style="fill:#d41f25;fill-opacity:1;fill-rule:nonzero;stroke:none"
       id="path1764" />
    <path
       inkscape:connector-curvature="0"
       d="m 176.82265,886.10337 0.64562,0.80915 0.0836,-0.0511 -0.72911,-0.75805"
       style="fill:#d41f25;fill-opacity:1;fill-rule:nonzero;stroke:none"
       id="path1766" />
    <path
       inkscape:connector-curvature="0"
       d="m 172.13462,880.67601 c 0.29129,0.28789 0.70525,0.65755 0.93692,0.93011 -0.29641,-0.44973 -0.60134,-0.7308 -0.93692,-0.93011"
       style="fill:#d41f25;fill-opacity:1;fill-rule:nonzero;stroke:none"
       id="path1768" />
    <path
       inkscape:connector-curvature="0"
       d="m 193.99563,922.44073 0.029,0.10561 c 0.35092,0.74273 0.17546,0.26916 -0.029,-0.10561"
       style="fill:#d41f25;fill-opacity:1;fill-rule:nonzero;stroke:none"
       id="path1770" />
    <path
       inkscape:connector-curvature="0"
       d="m 180.42725,889.00102 0.0698,0.12605 0.2913,0.15503 -0.36115,-0.28108"
       style="fill:#d41f25;fill-opacity:1;fill-rule:nonzero;stroke:none"
       id="path1772" />
    <path
       inkscape:connector-curvature="0"
       d="m 168.69354,877.70682 c 0.16866,0.10902 0.3373,0.18737 0.4821,0.23507 -0.11421,-0.11923 -0.26746,-0.23507 -0.45314,-0.3918 l -0.0289,0.15673"
       style="fill:#d41f25;fill-opacity:1;fill-rule:nonzero;stroke:none"
       id="path1774" />
    <path
       inkscape:connector-curvature="0"
       d="m 190.50857,907.50103 c -0.27767,-0.20272 -0.4361,-0.25723 -0.52639,-0.23168 0.13111,0.31515 0.2913,0.4855 0.52639,0.23168"
       style="fill:#d41f25;fill-opacity:1;fill-rule:nonzero;stroke:none"
       id="path1776" />
  </g>
</svg>
