<?xml version="1.0" encoding="UTF-8" standalone="no"?>
<!-- Created with Inkscape (http://www.inkscape.org/) -->

<svg
   xmlns:dc="http://purl.org/dc/elements/1.1/"
   xmlns:cc="http://creativecommons.org/ns#"
   xmlns:rdf="http://www.w3.org/1999/02/22-rdf-syntax-ns#"
   xmlns:svg="http://www.w3.org/2000/svg"
   xmlns="http://www.w3.org/2000/svg"
   xmlns:sodipodi="http://sodipodi.sourceforge.net/DTD/sodipodi-0.dtd"
   xmlns:inkscape="http://www.inkscape.org/namespaces/inkscape"
   width="200"
   height="200"
   id="svg5459"
   version="1.1"
   inkscape:version="0.48.4 r9939"
   sodipodi:docname="New document 3">
  <defs
     id="defs5461" />
  <sodipodi:namedview
     id="base"
     pagecolor="#ffffff"
     bordercolor="#666666"
     borderopacity="1.0"
     inkscape:pageopacity="0.0"
     inkscape:pageshadow="2"
     inkscape:zoom="5.6"
     inkscape:cx="86.161268"
     inkscape:cy="101.1411"
     inkscape:document-units="px"
     inkscape:current-layer="layer1"
     showgrid="false"
     inkscape:window-width="1920"
     inkscape:window-height="1056"
     inkscape:window-x="1366"
     inkscape:window-y="24"
     inkscape:window-maximized="1" />
  <metadata
     id="metadata5464">
    <rdf:RDF>
      <cc:Work
         rdf:about="">
        <dc:format>image/svg+xml</dc:format>
        <dc:type
           rdf:resource="http://purl.org/dc/dcmitype/StillImage" />
        <dc:title></dc:title>
      </cc:Work>
    </rdf:RDF>
  </metadata>
  <g
     inkscape:label="Layer 1"
     inkscape:groupmode="layer"
     id="layer1"
     transform="translate(0,-852.36218)">
    <path
       inkscape:connector-curvature="0"
       d="m 96.698983,882.27861 2.08375,0.22875 0.66,-0.6375 -2.74375,0.40875"
       style="fill:#d41f25;fill-opacity:1;fill-rule:nonzero;stroke:none"
       id="path1606" />
    <path
       inkscape:connector-curvature="0"
       d="m 106.18773,885.07486 3.4025,0.435 c -0.76,-1.10375 -0.53875,-1.3925 -0.73625,-1.70125 -0.10125,-0.15625 -0.3125,-0.3175 -0.8275,-0.5925 -0.51625,-0.2675 -1.32375,-0.71375 -2.69125,-1.14875 -1.00625,0.0475 -2.6,0.0825 -3.86,0.28125 -1.26625,0.2825 -2.186247,0.62375 -1.909997,0.98625 0.686247,-0.0188 1.544997,-0.275 2.491247,-0.345 0.94375,-0.0588 1.98375,-0.0687 2.99875,0.15125 -0.9475,0.46875 -3.1275,0.07 -4.17125,0.80125 1.61125,0.31125 2.11125,0.35875 2.67875,0.2325 0.56,-0.0863 1.1825,-0.2375 2.95,0.11 l -0.325,0.79"
       style="fill:#d41f25;fill-opacity:1;fill-rule:nonzero;stroke:none"
       id="path1608" />
    <path
       inkscape:connector-curvature="0"
       d="m 110.57523,884.10861 c -0.3925,0.2425 -0.79375,0.4825 -0.7925,0.74875 0.38625,-0.24375 2.1625,-0.27625 0.7925,-0.74875"
       style="fill:#d41f25;fill-opacity:1;fill-rule:nonzero;stroke:none"
       id="path1610" />
    <path
       inkscape:connector-curvature="0"
       d="m 112.70398,884.50486 c 2.11875,0.7375 -0.235,0.64125 -0.0388,0.80875 l 2.78875,-0.3725 -2.75,-0.43625"
       style="fill:#d41f25;fill-opacity:1;fill-rule:nonzero;stroke:none"
       id="path1612" />
    <path
       inkscape:connector-curvature="0"
       d="m 121.31773,888.00611 c 0.33375,0.14375 0.655,0.27625 0.97,0.39375 -0.23,-0.33875 -0.565,-0.335 -0.97,-0.39375"
       style="fill:#d41f25;fill-opacity:1;fill-rule:nonzero;stroke:none"
       id="path1614" />
    <path
       inkscape:connector-curvature="0"
       d="m 125.37398,890.12986 c -0.52125,-0.89875 -1.7125,-1.195 -3.08625,-1.73 l 0.09,0.1375 c 0.9575,0.90875 -0.51125,1.08625 -2.185,-0.0725 -2.0025,-0.71 -1.515,-1.36625 -3.425,-1.58875 l 2.04375,1.61125 c 0.78375,0.26875 1.46375,0.5525 2.10875,0.7475 0.645,0.19625 1.24625,0.32125 1.8,0.41375 1.1125,0.17625 2.02625,0.2325 2.65375,0.48125"
       style="fill:#d41f25;fill-opacity:1;fill-rule:nonzero;stroke:none"
       id="path1616" />
    <path
       inkscape:connector-curvature="0"
       d="m 121.31773,888.00611 c -0.35375,-0.15125 -0.71625,-0.3325 -1.09625,-0.52375 0.41625,0.3725 0.765,0.47625 1.09625,0.52375"
       style="fill:#d41f25;fill-opacity:1;fill-rule:nonzero;stroke:none"
       id="path1618" />
    <path
       inkscape:connector-curvature="0"
       d="m 117.09398,885.99236 -1.1325,-0.28875 0.1325,0.4475 1,-0.15875"
       style="fill:#d41f25;fill-opacity:1;fill-rule:nonzero;stroke:none"
       id="path1620" />
    <path
       inkscape:connector-curvature="0"
       d="m 131.59023,894.60111 c -0.585,0.27125 -1.61625,-0.6 -2.64125,-1.50875 -1.0175,-0.915 -2.17,-1.67875 -2.645,-1.49125 0.625,0.40125 1.19,0.83 1.66625,1.245 0.46375,0.43375 0.80625,0.9 1.065,1.28125 0.50875,0.77875 0.6,1.33 0.1525,1.3775 0,0 0.6825,0.43625 1.365,0.87 0.34625,0.215 0.6875,0.43625 0.91875,0.6325 0.23875,0.1875 0.39875,0.31 0.39875,0.31 0.53625,0.21625 0.71125,-0.0687 0.63625,-0.615 -0.0675,-0.55375 -0.395,-1.3625 -0.91625,-2.10125"
       style="fill:#d41f25;fill-opacity:1;fill-rule:nonzero;stroke:none"
       id="path1622" />
    <path
       inkscape:connector-curvature="0"
       d="m 134.16273,901.11486 c 0.205,0.09 0.41,0.22875 0.615,0.41625 -0.26,-0.2325 -0.49375,-0.41625 -0.615,-0.41625"
       style="fill:#d41f25;fill-opacity:1;fill-rule:nonzero;stroke:none"
       id="path1624" />
    <path
       inkscape:connector-curvature="0"
       d="m 144.72773,913.58861 c 0,0 -0.26625,-0.405 -0.665,-1.0125 -0.39875,-0.60375 -0.90125,-1.42 -1.5375,-2.1525 -1.19875,-1.48375 -2.39625,-2.96875 -2.39625,-2.96875 0.67,0.39875 0.83125,-0.0337 1.8175,1.40375 -0.39,-0.7525 -0.73625,-1.3175 -1.05375,-1.7775 -0.35625,-0.43625 -0.68875,-0.765 -1.00375,-1.08125 -0.6325,-0.62875 -1.21875,-1.18625 -1.97,-2.3475 0.37,-1.34125 2.9,3.95125 2.7625,2.09125 -0.58625,-0.7975 -1.32375,-1.8 -2.11375,-2.69125 -0.8475,-0.84625 -1.7975,-1.53875 -2.6425,-1.8375 0,0 -0.36875,-0.7125 -0.7375,-1.42625 -0.17375,-0.37125 -0.41375,-0.68375 -0.5675,-0.9425 -0.16125,-0.25375 -0.26875,-0.4225 -0.26875,-0.4225 l -0.0987,1.5575 c 0.5775,1.14625 2.345,1.295 2.23,2.4125 -0.14125,0.615 -1.02,-0.26 -1.675,-0.84 0.705,0.68125 1.47375,1.8 2.22,3.215 0.36,0.71875 0.7525,1.485 1.2025,2.2625 0.22625,0.3875 0.46625,0.78125 0.72625,1.17125 0.23,0.41 0.46125,0.8325 0.725,1.245 2.19,3.495 3.325,1.79375 5.04625,4.14125"
       style="fill:#d41f25;fill-opacity:1;fill-rule:nonzero;stroke:none"
       id="path1626" />
    <path
       inkscape:connector-curvature="0"
       d="m 143.66023,914.38236 -0.215,0.6375 0.42875,-0.56125 -0.21375,-0.0763"
       style="fill:#d41f25;fill-opacity:1;fill-rule:nonzero;stroke:none"
       id="path1628" />
    <path
       inkscape:connector-curvature="0"
       d="m 147.85148,921.68486 c 0,0 -0.10375,-0.23 -0.26,-0.57875 -0.17,-0.3425 -0.33,-0.81625 -0.6025,-1.255 -0.5025,-0.88125 -1.00875,-1.76125 -1.00875,-1.76125 -0.0425,-0.435 0.1125,-0.74 0.22,-1.08875 -0.20875,0.235 -0.99125,-0.605 -1.14375,-0.36375 -0.2025,1.0475 0.265,2.1275 0.90625,3.22125 0.64125,1.08875 1.24375,2.26 1.615,3.26738 0.7575,5.56112 -0.58875,-0.12588 -1.0975,2.17775 -0.33875,-1.48875 -0.1025,-1.59913 -0.53375,-3.68888 -0.25125,3.50975 1.3725,7.38225 1.86625,9.59763 0.05,-0.645 0.4075,-0.85163 0.1275,-2.03375 0,0 0.17875,0.54837 0.3225,1.10987 0.13125,0.565 0.26125,1.13138 0.26125,1.13138 0.365,-1.22663 0.4575,-2.34625 0.39375,-3.8325 -0.0312,-0.74413 -0.10625,-1.57625 -0.22875,-2.55275 -0.19875,-0.96238 -0.49125,-2.05863 -0.8375,-3.34988"
       style="fill:#d41f25;fill-opacity:1;fill-rule:nonzero;stroke:none"
       id="path1630" />
    <path
       inkscape:connector-curvature="0"
       d="m 145.58148,914.88736 c 0.6675,1.3425 0.7025,1.9225 0.6275,2.09125 0.12125,-0.45625 0.21875,-1.05 -0.6275,-2.09125"
       style="fill:#d41f25;fill-opacity:1;fill-rule:nonzero;stroke:none"
       id="path1632" />
    <path
       inkscape:connector-curvature="0"
       d="m 147.93148,932.39211 c 0.05,-0.25 -0.005,-0.65225 -0.11875,-1.17962 -0.0225,0.2685 -0.01,0.62112 0.11875,1.17962"
       style="fill:#d41f25;fill-opacity:1;fill-rule:nonzero;stroke:none"
       id="path1634" />
    <path
       inkscape:connector-curvature="0"
       d="m 149.02773,930.03624 0.0975,2.8085 0.4225,-1.13863 c -0.0875,-0.38862 -0.2675,-1.76275 -0.52,-1.66987"
       style="fill:#d41f25;fill-opacity:1;fill-rule:nonzero;stroke:none"
       id="path1636" />
    <path
       inkscape:connector-curvature="0"
       d="m 83.141486,995.2822 c 0.21375,0.42 1.20875,0.7687 3.33875,0.6803 -0.2575,0.6035 -3.0325,0.4072 -4.3575,0.6112 2.825,0.565 -0.0925,0.69 0.58875,1.296 3.24625,0.2465 4.6825,-0.5147 8.1125,-0.5273 -0.15375,0.1747 -0.0775,0.4247 0.38625,0.5937 2.074997,-0.2989 4.827497,-0.8877 7.537497,-1.5039 2.717497,-0.606 5.363747,-1.3736 7.382497,-1.7022 3.795,-0.9775 6.44375,-2.29 10.15625,-4.414 6.36125,-2.9961 12.28375,-7.291 17.325,-12.57864 5.05125,-5.28762 9.19875,-11.57375 12.225,-18.5225 0,0 -0.045,-0.59512 -0.1375,-1.19525 -0.0925,-0.59475 -0.18375,-1.19 -0.18375,-1.19 0.815,-0.48725 1.0825,-3.376 1.655,-2.76612 -0.3675,0.75 -0.455,1.53612 -0.785,2.47025 0.51875,-0.67388 0.8925,-1.54538 1.2175,-2.51413 0.35,-0.96 0.56875,-2.03712 0.77,-3.13475 0.4125,-2.19775 0.59625,-4.49762 0.99625,-6.40237 -0.2575,0.41987 -1.31,0.90475 -1.33625,-0.24763 1.26125,0.441 0.41875,-4.46875 1.80375,-5.55025 0.235,-1.94625 -0.0575,-1.98587 -0.355,-2.041 -0.295,-0.0561 -0.6125,-0.1275 -0.56375,-2.1265 -0.37625,-0.19625 -0.4425,0.76025 -0.48,1.854 -0.0362,1.09375 -0.15125,2.32763 -0.42625,2.67488 -0.2875,-0.6285 -0.195,-1.51125 -0.1475,-2.22613 0.0225,-0.71487 0.0275,-1.25387 -0.36,-1.16012 -0.115,3.13762 0.0288,7.60637 -0.49,12.51362 -0.45875,4.90525 -1.71875,10.21288 -3.6875,14.70513 l -0.19125,-1.22263 c -0.78625,2.36375 -2.27375,5.29538 -4.105,7.84025 -1.82375,2.54988 -3.9525,4.71638 -5.71875,5.75738 0.5525,-0.126 -0.71,1.18112 -2.0275,2.47024 -1.2975,1.30363 -2.6375,2.61717 -1.8625,2.95217 -1.19375,0.5463 -1.43125,0.8515 -2.91875,1.8612 l -0.0925,0.669 c -2.06125,1.5513 -2.16,0.6924 -4.55375,2.3589 1.97,-0.4878 0.295,0.8086 -0.16375,1.73 -3.27875,1.2085 -7.0625,2.4121 -10.01,2.997 0.29375,0.099 0.63375,0.2305 1.68125,0.068 -1.94375,0.5947 -1.3925,1.0161 -1.81,1.4375 -1.81875,0.7788 -1.93375,-0.1177 -1.99,-0.5313 -3.38625,1.0025 -4.475,2.9561 -7.23125,3.1226 l 1.08,0.4199 c -3.591247,1.1026 -6.824997,0.981 -10.858747,1.5889 -2.042497,-0.7251 3.26,-1.084 4.825,-1.8325 -0.84125,-0.057 -2.555,0.1675 -3.14375,-0.089 -1.62,0.7149 -4.477497,1.5151 -6.651247,1.9985 2.03875,-1.0746 -3.0925,-0.9721 -4.4425,-1.1924"
       style="fill:#d41f25;fill-opacity:1;fill-rule:nonzero;stroke:none"
       id="path1638" />
    <path
       inkscape:connector-curvature="0"
       d="m 94.235233,994.4761 c 0.48125,-0.2011 0.8725,-0.3627 1.095,-0.5024 -0.36875,0.1123 -0.72375,0.2075 -1.305,0.2363 -0.0387,0.1221 0.0538,0.2061 0.21,0.2661"
       style="fill:#d41f25;fill-opacity:1;fill-rule:nonzero;stroke:none"
       id="path1640" />
    <path
       inkscape:connector-curvature="0"
       d="m 83.141486,995.2822 -0.0763,-0.1122 c -0.40375,0.043 -0.28875,0.075 0.0763,0.1122"
       style="fill:#d41f25;fill-opacity:1;fill-rule:nonzero;stroke:none"
       id="path1642" />
    <path
       inkscape:connector-curvature="0"
       d="m 106.66023,994.6162 c -0.16125,0.034 -0.35375,0.076 -0.53,0.1138 -0.2275,0.057 -0.43,0.1075 -0.66875,0.1675 0,0 0.3,-0.065 0.6025,-0.1304 0.29875,-0.075 0.59625,-0.1509 0.59625,-0.1509"
       style="fill:#d41f25;fill-opacity:1;fill-rule:nonzero;stroke:none"
       id="path1644" />
    <path
       inkscape:connector-curvature="0"
       d="m 108.56523,990.7599 c 0.8075,-0.05 1.9075,-0.1978 3.1175,-0.4679 -0.44125,-0.1596 -0.76625,-0.2035 -3.1175,0.4679"
       style="fill:#d41f25;fill-opacity:1;fill-rule:nonzero;stroke:none"
       id="path1646" />
    <path
       inkscape:connector-curvature="0"
       d="m 129.74023,978.79736 c 0.47875,-0.59513 0.0212,-0.45013 0.25625,-0.9575 -1.1525,1.01225 -1.4025,1.53525 -0.25625,0.9575"
       style="fill:#d41f25;fill-opacity:1;fill-rule:nonzero;stroke:none"
       id="path1648" />
    <path
       inkscape:connector-curvature="0"
       d="m 89.867736,994.69 c 0,0 -0.755,0.077 -1.5075,0.1562 -0.755,0.092 -1.51125,0.1173 -1.51125,0.1173 l -1.1125,0.1714 c 0,0 1.035,-0.09 2.07125,-0.1803 1.02875,-0.1322 2.06,-0.2646 2.06,-0.2646"
       style="fill:#d41f25;fill-opacity:1;fill-rule:nonzero;stroke:none"
       id="path1650" />
    <path
       inkscape:connector-curvature="0"
       d="m 41.812736,963.93711 c -0.23375,2.955 1.41875,6.90038 2.7575,10.13275 0.75625,1.4375 1.3225,2.106 1.71375,2.42975 0.3875,0.32662 0.61125,0.30125 0.82125,0.27537 0.42375,-0.0576 0.7425,-0.0991 2.37,2.33838 0,0 -0.47625,0.0113 -0.9525,0.0239 -0.48125,0.004 -0.96375,0.006 -0.96375,0.006 1.68,2.54884 3.99125,5.47854 6.7275,7.79004 2.71125,2.3311 5.79375,4.0097 8.35375,4.5722 0.285,0.3853 1.1125,1.1201 -0.36875,0.5728 1.775,0.9551 2.54,0.5737 3.34125,0.4287 0.405,-0.078 0.84875,-0.1586 1.46625,-0.05 0.62,0.1079 1.4075,0.4101 2.58875,0.9463 -1.22625,-0.1499 -1.77,-0.1675 -1.915,-0.068 -0.1475,0.1011 0.0913,0.3437 0.4475,0.6021 0.7125,0.5062 1.8775,1.1737 1.0675,1.4252 l -0.78,-0.1523 c 3.27,1.1147 7.79625,1.5396 9.99125,1.8921 0.14375,-0.4063 -1.65375,-1.311 1.2675,-0.9463 -1.17125,-0.251 -0.6225,-0.6533 -0.475,-1.0562 -3.0375,0.053 -4.5525,-0.6499 -6.46125,-0.5498 -1.455,-1.0048 1.1275,0.145 -0.3325,-0.8511 0,0 -0.60875,-0.048 -1.21625,-0.095 -0.615,-0.035 -1.2175,-0.1299 -1.2175,-0.1299 -1.62375,-0.7066 1.8775,0.077 -0.65125,-0.9341 -0.2,0.096 -0.86125,0.06 -1.6975,-0.1747 -0.42125,-0.1099 -0.8925,-0.254 -1.38,-0.4264 -0.47875,-0.1914 -0.97,-0.4224 -1.44375,-0.6699 l 0.63375,0.095 c -1.5925,-0.46 -3.45875,-1.8975 -3.22125,-0.6997 0,0 -0.33125,-0.4175 -0.62,-0.8828 -0.29,-0.4512 -0.5825,-0.9024 -0.5825,-0.9024 l -0.04,0.709 c -1.87,-1.295 -2.82875,-2.6103 -3.92625,-3.9052 -1.0825,-1.3301 -2.29625,-2.6426 -4.40375,-4.5724 0.72875,1.1626 -0.3225,0.4249 -0.89375,-0.076 0.60875,1.0571 1.165,1.5771 1.81375,1.9624 0.64,0.396 1.27,0.7622 2.14,1.4761 -0.08,0.3364 -0.97625,0.01 -1.60125,-0.1972 -0.61625,-0.21 -1.03625,-0.2139 -0.15375,0.9321 -1.72125,-2.6798 -4.005,-4.4088 -3.51,-6.37351 -0.98,-1.53625 -1.77,-2.5225 -2.475,-3.58887 -0.3775,-0.51863 -0.71125,-1.06738 -1.02,-1.7125 -0.31625,-0.64208 -0.65625,-1.35696 -0.8925,-2.27446 l 0.2525,0.009 c -1.22,-0.29237 -0.695,-2.95262 -2.36,-5.37 0,0 0.0688,0.50138 0.13625,1.00138 0.0537,0.50587 0.1725,0.99462 0.1725,0.99462 -0.44375,0.0366 -0.73125,-0.91112 -1.1275,-2.2275 0.1975,0.11675 0.1975,0.11375 0.2825,-0.36225 -0.88875,-0.2125 -1.78,-4.5225 -2.015,-5.05137 0.0512,0.92387 0.30875,1.93125 0.69125,2.94487 0.18,0.50638 0.36625,1.0215 0.55125,1.539 0.21375,0.50738 0.42,1.01613 0.5975,1.5235 -0.6625,-0.94875 -1.2675,-0.47212 -1.4875,-2.32125"
       style="fill:#d41f25;fill-opacity:1;fill-rule:nonzero;stroke:none"
       id="path1652" />
    <path
       inkscape:connector-curvature="0"
       d="m 66.723986,991.5362 c 0,0 -0.31,-0.025 -0.61,-0.078 -0.30375,-0.047 -0.60875,-0.095 -0.60875,-0.095 0.46375,0.1538 0.9,0.2588 1.21875,0.1729"
       style="fill:#d41f25;fill-opacity:1;fill-rule:nonzero;stroke:none"
       id="path1654" />
    <path
       inkscape:connector-curvature="0"
       d="m 42.326486,946.64749 c 0.50875,-2.354 0.53875,0.71 1.18,-1.4365 -0.1625,-2.49613 -1.4375,2.60987 -1.86125,0.144 0.31,-0.71775 0.3925,-1.69525 0.45375,-2.62788 0.03,-0.936 0.0312,-1.82612 0.1625,-2.3135 0.15,1.18263 1.26375,0.78125 1.56875,0.40875 -0.015,-0.47612 0.20125,-1.19637 0.52,-1.96737 0.335,-0.769 0.7175,-1.6 0.9725,-2.34125 -0.87125,1.74212 -0.71375,0.94875 -0.5525,0.0874 0.19,-0.84613 0.41,-1.7515 -0.50375,-0.19388 -0.24375,-0.21875 -0.13375,-1.23387 0.14375,-2.36612 0.27875,-1.13138 0.83125,-2.335 1.31875,-2.94725 0.34125,0.27237 -0.21,1.36075 -0.57875,2.28612 0.44,1.04875 1.3325,-2.1465 2.26,-2.3375 0.2325,-1.92037 1.835,-5.519 3.2,-8.269 1.3425,-2.75487 2.33875,-4.75362 0.5925,-3.85737 -1.04625,0.87625 -1.315,2.05625 -2.0025,3.2975 2.445,-3.15125 0.7975,0.495 0.89875,0.93 -1.14375,1.27387 -2.04625,4.06887 -2.28125,3.19625 0.001,0 0.16125,-0.67375 0.365,-1.3325 0.19625,-0.6665 0.3925,-1.3315 0.3925,-1.3315 -2.3475,3.6265 -4.71875,8.24262 -6.23875,13.34125 -1.5975,5.06787 -2.285,10.58162 -2.13875,15.56887 0,0 -0.0113,-0.2685 0.01,-0.67387 0.015,-0.40475 0.035,-0.94475 0.055,-1.48475 0.0163,-0.54013 0.0375,-1.08013 0.0863,-1.4815 0.0387,-0.40338 0.0637,-0.67238 0.0637,-0.67238 0.4025,0.53763 0.35,2.55763 0.56,4.11763 0,0 0.30625,-0.52238 0.61125,-1.03025 0.30625,-0.50338 0.61375,-1.00488 0.61375,-1.00488 -0.12375,1.19488 0.0213,2.33988 -0.3825,2.24763 0.53375,1.46625 0.8175,0.78262 1.19875,-0.085 0.14625,1.53512 0.0888,2.42875 0.14,3.23 0.0687,0.79875 0.20375,1.50975 0.675,2.64012 0.14125,-1.28125 0.1425,-2.17037 0.0675,-2.89012 -0.0337,-0.72363 -0.15125,-1.274 -0.2725,-1.8525 -0.24375,-1.15388 -0.51875,-2.42638 0.13125,-5.254 0,0 -0.36125,-0.42963 -0.7225,-0.85988 -0.36875,-0.4375 -0.705,-0.88475 -0.70625,-0.88475"
       style="fill:#d41f25;fill-opacity:1;fill-rule:nonzero;stroke:none"
       id="path1656" />
    <path
       inkscape:connector-curvature="0"
       d="m 42.890236,957.90336 -0.68875,-1.19237 0.43875,1.87012 0.25,-0.67775"
       style="fill:#d41f25;fill-opacity:1;fill-rule:nonzero;stroke:none"
       id="path1658" />
    <path
       inkscape:connector-curvature="0"
       d="m 40.155236,956.09236 c 0.25375,-0.0737 0.43,0.70363 0.68,0.6225 -0.025,-1.23775 -0.0537,-1.77875 -0.18375,-1.82025 -0.11625,-0.0425 -0.335,0.42038 -0.49625,1.19775"
       style="fill:#d41f25;fill-opacity:1;fill-rule:nonzero;stroke:none"
       id="path1660" />
    <path
       inkscape:connector-curvature="0"
       d="m 48.848986,928.22861 c 0,0 0.3175,-0.71 0.63375,-1.4175 0.3425,-0.69775 0.6875,-1.39362 0.6875,-1.39362 0,0 -0.30375,0.40875 -0.60875,0.81737 -0.31375,0.40388 -0.5875,0.83263 -0.5875,0.83263 0.255,0.0746 -0.002,0.79975 -0.125,1.16112"
       style="fill:#d41f25;fill-opacity:1;fill-rule:nonzero;stroke:none"
       id="path1662" />
    <path
       inkscape:connector-curvature="0"
       d="m 59.562736,908.62236 c -1.51875,1.64875 -2.475,2.9425 -3.50375,4.25625 -1.03,1.31625 -2.1475,2.6375 -3.89625,4.49 -0.85875,2.4275 1.84375,-0.0687 1.76875,1.1975 1.6,-1.845 0.40375,-2.39375 1.8375,-4.5525 1.11875,-0.30625 2.3625,-2.9475 4.2,-4.61625 -0.41,0.0238 -0.63625,-0.19125 -0.40625,-0.775"
       style="fill:#d41f25;fill-opacity:1;fill-rule:nonzero;stroke:none"
       id="path1664" />
    <path
       inkscape:connector-curvature="0"
       d="m 72.720236,900.64736 c 1.6025,-1.16125 2.99125,-2.715 4.49875,-3.3025 0.03,0.45875 -0.8725,1.245 -1.9225,1.82125 1.14625,0.35875 1.7325,-1.35625 3.8975,-1.95125 -0.21375,0.0125 -0.9625,0.2925 -0.56125,-0.2 2.33625,-1.29625 2.89125,-1.8325 3.64875,-2.42625 0.76,-0.585 1.705,-1.28375 4.94,-2.56875 0.80125,-0.66 1.70375,-1.0775 1.29375,-1.57625 3.948747,-0.8575 2.10125,-0.13 6.751247,-1.18625 -0.29875,-0.2975 -2.04,-0.50875 -2.3025,-1.2475 3.3625,-0.7225 4.98875,-1.2375 6.3275,-1.73875 1.342497,-0.4575 2.389997,-0.90875 4.586247,-0.995 -0.4575,0.16 -0.98,0.46625 -2.11625,0.67375 0.805,0.89375 3.43375,-1.07875 5.83625,-1.31 l -0.0512,0.96375 c 2.085,-0.54625 5.80625,-1.65875 8.5775,-1.06875 l -0.5925,0.4875 c 2.7225,-0.50625 5.735,-0.5375 8.6,-0.2475 2.87125,0.2825 5.5775,0.9 7.86625,1.445 0,0 0.54125,0.34875 1.0825,0.69625 0.2675,0.1725 0.535,0.34375 0.735,0.47375 0.1925,0.14 0.3225,0.23375 0.3225,0.23375 3.055,0.93375 1.66,0.2425 0.0463,-0.63875 -1.63125,-0.78875 -3.54375,-1.705 -1.03,-1.56625 0.0538,0.94875 0.89625,1.04625 2.11875,1.30875 0.61625,0.12125 1.3475,0.23625 2.08875,0.53875 0.7525,0.2775 1.55,0.67 2.2575,1.32875 0.58,0.75125 -0.2825,0.33375 -1.1125,-0.05 -0.85625,-0.35375 -1.6975,-0.63875 -1.02625,0.14 0.57375,-0.21375 1.04125,-0.0263 1.5725,0.3275 0.5375,0.34625 1.16625,0.805 2.03,1.2925 -0.42,0.23125 0.425,0.80125 1.10625,1.42 0.68375,0.61625 1.2775,1.1725 0.515,1.15625 0,0 0.0962,0.0475 0.26625,0.1325 0.17375,0.08 0.4125,0.20625 0.685,0.3775 0.54375,0.34125 1.33125,0.75 2.04375,1.26125 1.47,0.97375 2.83625,2.15625 2.83625,2.155 0.17875,0.5775 0.54,1.2825 0.9775,1.99125 0.465,0.69125 0.9525,1.42 1.36625,2.04 -0.9275,-1.64 -0.5775,-1.56125 -0.1475,-1.58875 0.4125,-0.02 0.855,-0.0987 -0.22875,-2.0475 -0.9925,-1.26875 -2.255,-2.6675 -3.70125,-4.09625 -1.49875,-1.375 -3.1475,-2.82375 -5.02625,-4.03625 -3.68125,-2.5475 -8.035,-4.325 -11.8475,-5.5075 -0.57125,0.4825 -1.78125,0.13125 -3.07875,-0.09 -1.28625,-0.275 -2.64625,-0.47125 -3.31,-0.0725 -0.1425,-0.38 -0.71125,-0.77125 -0.8725,-1.135 -5.125,-0.0688 1.1575,0.69875 -0.1275,1.03875 -2.205,-0.0225 -3.97375,-0.685 -3.77125,-1.10375 -3.66625,-0.0212 -0.42125,0.30375 -2.25625,0.965 0,0 -0.60625,-0.29375 -1.21375,-0.5875 -0.61625,-0.2675 -1.23375,-0.535 -1.23375,-0.535 -5.73,0.5975 -12.1925,2.30625 -18.528747,4.735 -6.356247,2.40625 -12.583747,5.54 -18.244997,8.675 l 1.23125,0.155 c -2.58125,1.34625 -4.37,3.0675 -6.085,4.6725 -1.73,1.6 -3.395,3.07 -5.90125,4.08375 l -0.8838,1.66375 c 0.4775,-0.92375 -1.54,-0.22375 -0.735,-1.63375 -1.03875,1.24 -2.47375,2.18875 -3.49125,3.51125 0,0 0.58,-0.455 1.185,-0.8775 0.59875,-0.42875 1.1975,-0.85875 1.1975,-0.85875 -1.0625,1.85875 -2.91,3.1525 -3.82,3.22875 -1.22125,1.8575 -0.515,1.61375 0.60625,0.89125 1.15625,-0.6925 2.7425,-1.85375 3.3325,-1.92 0.845,-1.295 1.6275,-2.13125 2.385,-2.7 0.74625,-0.58125 1.44875,-0.9175 2.175,-1.20125 1.4425,-0.58875 2.9,-1.0475 5.03375,-2.9775 2.6225,-2.4475 -0.725,-0.3825 -0.8,-0.8425"
       style="fill:#d41f25;fill-opacity:1;fill-rule:nonzero;stroke:none"
       id="path1666" />
    <path
       inkscape:connector-curvature="0"
       d="m 65.455236,903.64611 c -0.2525,0.30125 -0.42375,0.55125 -0.53875,0.7475 0.2,-0.23875 0.375,-0.47875 0.53875,-0.7475"
       style="fill:#d41f25;fill-opacity:1;fill-rule:nonzero;stroke:none"
       id="path1668" />
    <path
       inkscape:connector-curvature="0"
       d="m 150.87898,900.83861 c 0.21,0.3925 0.52625,0.83 0.85625,1.45625 0.42125,0.42875 -0.0687,-0.3575 -0.85625,-1.45625"
       style="fill:#d41f25;fill-opacity:1;fill-rule:nonzero;stroke:none"
       id="path1670" />
    <path
       inkscape:connector-curvature="0"
       d="m 59.968986,909.39736 0.0188,0 0.0212,-0.04 -0.04,0.04"
       style="fill:#d41f25;fill-opacity:1;fill-rule:nonzero;stroke:none"
       id="path1672" />
    <path
       inkscape:connector-curvature="0"
       d="m 59.377736,912.83111 1.10875,-1.1425 -0.45125,-0.045 -0.6575,1.1875"
       style="fill:#d41f25;fill-opacity:1;fill-rule:nonzero;stroke:none"
       id="path1674" />
    <path
       inkscape:connector-curvature="0"
       d="m 155.31023,916.97986 0.41,-0.0487 c -0.1525,-0.13 -0.29125,-0.1675 -0.41,0.0487"
       style="fill:#d41f25;fill-opacity:1;fill-rule:nonzero;stroke:none"
       id="path1676" />
    <path
       inkscape:connector-curvature="0"
       d="m 146.43523,960.48586 0.51,-0.8335 c -0.205,0.23 -0.3725,0.53763 -0.51,0.8335"
       style="fill:#d41f25;fill-opacity:1;fill-rule:nonzero;stroke:none"
       id="path1678" />
    <path
       inkscape:connector-curvature="0"
       d="m 53.701486,997.5211 c -1.3375,-0.649 -2.89625,-1.4302 -4.41375,-2.125 -1.4625,-0.7764 -2.82,-1.5665 -3.935,-1.9576 l 0.4275,-0.2001 c -0.35875,-0.1988 -0.92,-0.5084 -1.5125,-0.836 -0.57,-0.3589 -1.1625,-0.75 -1.665,-1.0127 -0.9975,-0.5288 -1.59625,-0.6011 -0.5625,0.8462 l 0.85625,0.2925 c 0.8,0.5688 1.38875,0.899 1.75625,1.2363 0.37375,0.3277 0.56875,0.6153 0.7275,0.9077 0.31625,0.586 0.4875,1.2022 1.66625,2.2422 1.5975,0.9975 3.1525,1.3003 4.51875,1.7188 1.36,0.4487 2.7225,0.6841 4.11,1.5366 1.31375,0.56 0.95,0.8511 0.44125,0.9575 1.45625,0.7935 2.6625,0.8721 3.715,0.9136 1.05625,0.041 1.98375,10e-4 3.055,0.2885 -0.0288,1.6191 2.54125,2.0513 5.5525,2.3053 1.52625,0.03 3.15875,0.037 4.69375,0.2026 1.54625,0.037 2.99875,0.2187 4.2025,0.7724 0.385,-0.01 0.785,-0.02 1.2,-0.03 0.4125,-0.03 0.84,-0.06 1.2775,-0.094 0.875,-0.052 1.79375,-0.1084 2.74,-0.165 0.94875,-0.03 1.91,-0.1837 2.875,-0.3784 0.9625,-0.1866 1.93,-0.4063 2.87,-0.6803 -0.96875,0.5064 -0.0525,0.4365 1.01,0.2925 1.05375,-0.186 2.26375,-0.3926 1.93,0.1275 0.365,-1.0201 3.144997,-1.2901 5.809997,-1.9835 2.70625,-0.5366 5.254997,-1.4877 5.187497,-2.6537 2.5725,-0.5704 2.6025,-0.6641 2.7225,-0.7754 0.125,-0.1109 0.32875,-0.271 3.2025,-1.2422 0.10125,0.2373 -0.83625,0.65 -1.185,0.8535 1.2,-0.27 1.95125,-0.8648 2.67,-1.3725 0.69875,-0.5562 1.37,-1.0185 2.49125,-1.0113 4.3775,-2.1122 0.4725,-0.8896 2.64125,-2.8247 4.40875,-2.3828 3.42,-1.2915 6.235,-2.0952 -0.11875,-0.5811 0.515,-1.191 1.38875,-1.8847 0.44,-0.3453 0.92875,-0.7276 1.42875,-1.1178 0.47125,-0.4286 0.93625,-0.8862 1.33,-1.376 -0.255,0.1647 -1.0825,0.7349 -1.6625,1.0397 -0.6025,0.2753 -0.9275,0.3212 -0.14875,-0.4859 2.33125,-1.7178 3.13375,-2.5766 3.85,-3.4414 0.6975,-0.8901 1.275,-1.8365 3.18,-3.7115 2.8575,-0.92224 -3.9925,3.5914 0.18625,1.1554 -1.1,1.33 -2.115,2.4711 -3.03625,3.415 -0.93,0.9399 -1.67875,1.79 -2.1425,2.7124 3.80875,-2.7139 7.84625,-6.7837 10.9925,-10.76267 1.97875,-2.00099 -0.54,1.475 1.00875,-0.12262 3.795,-3.42237 4.0775,-6.6675 6.81125,-9.58987 l 0.0388,1.05375 c 0.33125,-1.27875 1.68,-3.03863 3.055,-5.126 0.66625,-1.05663 1.37875,-2.16888 2.04625,-3.28413 0.68875,-1.1035 1.16,-2.30225 1.59125,-3.38625 -0.53875,0.39013 -0.90125,0.6465 -0.81375,0.003 0.65875,0.37213 1.27125,-1.14887 1.895,-3.27387 0.57375,-2.15238 1.3675,-4.77875 2.4975,-6.81638 -0.52375,0.02 -0.5875,-1.066 -0.43375,-2.46975 0.14625,-1.40875 0.305,-3.19287 0.58625,-4.53662 0.48,-0.88863 0.84125,-0.60838 1.09875,-0.54738 -0.79875,2.16013 -0.78,3.28513 -0.61375,4.35888 0.14125,1.0625 0.35125,2.04 0.0275,3.87262 0.2125,-1.54887 0.8825,-3.4615 1.2375,-5.41512 0.21125,-0.96625 0.41125,-1.92375 0.5525,-2.80613 0.14875,-0.88275 0.1025,-1.71625 0.035,-2.3965 l 0.6225,1.16013 c 0.68875,-4.24363 -1.1075,-3.8725 -0.17625,-8.19375 l 0.5475,0.4575 c 0.185,-2.22613 0.075,-4.54988 0.0513,-6.90625 -0.0413,-2.35375 -0.27625,-4.71875 -0.61625,-7.02 -0.68375,-4.5925 -2.08125,-8.91125 -4.12625,-11.90125 -0.66875,-0.3525 -0.30875,3.2925 -0.66375,3.585 1.73375,3.695 3.03125,5.89 3.96875,8.9975 l -0.88625,0.115 c 0.35,0.3075 0.8025,1.395 1.11,2.15375 0.31125,0.7575 0.56875,1.17125 0.69125,0.0662 0.7175,2.58875 -0.49,2.0475 0.11875,5.03737 -0.94125,-0.19375 -1.11125,-1.96862 -1.8875,-1.93237 l 0.55625,2.53637 c -0.3925,-0.78512 -0.25375,1.5635 -0.65125,0.78713 0.74,2.34625 0.38625,4.03125 0.15375,5.689 -0.205,1.67475 -0.80375,3.29975 -0.87,5.76512 l 0.5475,-2.6865 c 0.5125,0.0864 0.2375,1.645 0.22125,2.84525 -0.86625,1.21875 -1.035,1.98625 -1.8825,4.37838 -0.0213,2.21387 0.37625,3.61762 -0.495,6.48 -0.62625,-0.88963 -2.29375,4.415 -3.26125,4.59762 0.71875,1 -2.17125,5.2915 -1.83125,5.92875 -0.62625,1.4765 -1.81875,3.32125 -2.2575,3.02638 0.095,-0.21638 0.24125,-0.666 0.4525,-1.11775 l -0.82125,1.34775 c -0.0213,-0.189 -0.12,-0.18613 -0.0463,-0.35113 -0.71875,1.19875 -0.105,1.606 -1.54,2.835 -0.20875,-0.15875 0.34875,-0.95512 0.69125,-1.67637 -1.1,1.5035 -1.7125,3.05625 -2.355,4.5225 -0.675,1.44 -1.485,2.71975 -2.77625,3.68262 0.0575,0.82475 -2.84,4.11088 -1.41875,4.09625 -1.0875,0.62738 -1.34875,-0.19387 -3.43875,2.21087 -0.32625,0.95262 -1.02,1.53275 -1.785,2.13037 -0.76375,0.605 -1.59875,1.2246 -2.3275,2.2172 0.89875,-1.4076 0.83875,-1.4647 0.76625,-1.476 -0.0763,-0.01 -0.1775,0.018 0.5025,-1.29007 -0.865,0.65237 -1.725,1.67977 -2.72875,2.87107 -0.9925,1.2003 -2.1275,2.5714 -3.69,3.6402 -0.42625,0.067 -0.585,-0.144 -1.01875,-0.071 -0.895,1.1137 -1.74375,2.6923 -3.305,2.8335 l 0.5025,0.4175 c -1.1625,0.5902 -2.41875,1.4765 -3.77625,2.2426 -1.37375,0.7402 -2.79,1.4512 -4.13,1.8589 0,0 -0.135,0.1675 -0.3375,0.4175 -0.2125,0.2373 -0.49625,0.5512 -0.78,0.8647 -0.575,0.6353 -1.15125,1.269 -1.15125,1.269 -1.11875,0.2013 -2.19875,0.6588 -3.3325,1.0738 -1.12375,0.4361 -2.2275,0.9848 -3.28375,1.5923 -2.12125,1.1812 -4.1425,2.4087 -5.607497,3.5303 -1.5675,0.3896 -3.94875,0.8399 -3.99875,0.5795 0.33375,-0.187 0.88875,-0.5346 1.55375,-0.8896 -1.13875,0.2773 -2.41625,0.525 -3.57125,0.7012 -1.15375,0.1835 -2.147497,0.4673 -2.697497,1.0864 -2.31125,0.7949 -1.8525,-0.335 -3.625,-0.2578 -1.14625,0.4614 -2.615,0.8628 -4.2,0.9165 -1.58375,0.046 -3.265,0.085 -4.8275,-0.029 -1.56375,-0.1537 -3.0125,-0.2778 -4.18,-0.2348 -1.1625,-10e-4 -2.04,0.082 -2.4775,0.5737 0.49625,0.07 1.1,0.1811 1.7875,0.315 0.68875,0.1196 1.47,0.1709 2.3075,0.2661 0.83625,0.085 1.73375,0.1714 2.66,0.2388 0.92625,0.069 1.885,-0.02 2.84125,-0.065 -1.00875,0.2989 -0.2075,0.6836 -1.63125,0.79 -3.91,0.039 -5.8375,-0.8051 -9.69625,-1.0473 l 0.66125,-1.2755 c -0.77375,-0.3012 -1.56,-0.436 -2.31,-0.6883 -0.7575,-0.2276 -1.51125,-0.4014 -2.2675,-0.5391 -0.75375,-0.1412 -1.51125,-0.2373 -2.26125,-0.3335 -0.7375,-0.1514 -1.465,-0.3013 -2.1825,-0.4488 -2.92125,-0.4599 -5.5775,-1.5 -7.43125,-3.4125"
       style="fill:#d41f25;fill-opacity:1;fill-rule:nonzero;stroke:none"
       id="path1680" />
    <path
       inkscape:connector-curvature="0"
       d="m 100.61523,999.5747 c 0,0 -0.698747,0.07 -1.397497,0.1412 -0.345,0.045 -0.70125,0.046 -0.96625,0.057 -0.26375,0.01 -0.44125,0.014 -0.44125,0.014 l 0.45375,0.4775 c 0.795,-0.2954 1.59,-0.6402 2.351247,-0.689"
       style="fill:#d41f25;fill-opacity:1;fill-rule:nonzero;stroke:none"
       id="path1682" />
    <path
       inkscape:connector-curvature="0"
       d="m 98.263983,1000.2637 c -0.5225,0.2124 -1.02,0.4585 -1.46125,0.7012 0.58125,-0.1528 1.13375,-0.3349 1.57125,-0.5787 l -0.11,-0.1225"
       style="fill:#d41f25;fill-opacity:1;fill-rule:nonzero;stroke:none"
       id="path1684" />
    <path
       inkscape:connector-curvature="0"
       d="m 44.543986,991.6397 c -0.4125,-0.4512 -1.215,-1.3335 -2.19875,-2.0273 0.47,0.6498 1.6175,1.7725 2.19875,2.0273"
       style="fill:#d41f25;fill-opacity:1;fill-rule:nonzero;stroke:none"
       id="path1686" />
    <path
       inkscape:connector-curvature="0"
       d="m 41.903986,989.7735 0.8875,1.1001 0.2525,0.02 -1.14,-1.1201"
       style="fill:#d41f25;fill-opacity:1;fill-rule:nonzero;stroke:none"
       id="path1688" />
    <path
       inkscape:connector-curvature="0"
       d="m 39.330236,916.11736 c 0,0 0.52125,-1.0275 1.0425,-2.05375 0.2525,-0.52375 0.54875,-1.015 0.7625,-1.39125 0.21625,-0.375 0.36,-0.62625 0.36,-0.62625 0.41625,-0.16875 1.35625,-1.31375 2.12875,-2.20125 0.815,-0.8475 1.44625,-1.44375 1.145,-0.595 1.0575,-2.70625 6.02375,-6.08875 3.4625,-5.59 -4.675,4.8225 -10.05625,10.795 -14.39,17.87375 -0.52875,0.89125 -1.06,1.78475 -1.5925,2.68125 -0.53625,0.89363 -0.97125,1.84863 -1.45875,2.7725 -0.99625,1.83988 -1.76,3.79975 -2.565,5.71388 -1.425,3.90625 -2.595,7.86475 -2.9975,11.76612 l -0.0263,-2.59137 c -0.125,2.07375 -0.5075,3.73487 -0.72375,5.25487 -0.2075,1.51763 -0.56625,2.834 -0.725,4.13138 -0.145,1.29737 -0.25625,2.55862 -0.20125,3.90137 0.165,1.34375 0.4975,2.771 1.12375,4.34375 l -1.18,-0.78512 c -0.0763,0.95512 0.17,1.86862 0.4,2.76362 0.25125,0.895 0.53125,1.76913 0.835,2.63525 0.3575,0.856 0.6875,1.7125 0.9125,2.60988 0.1125,0.45025 0.19875,0.91012 0.24875,1.39012 0.0675,0.47363 0.14625,0.95125 0.1575,1.46638 l 0.315,-0.51763 c 0.335,0.97613 0.2725,1.43113 0.61125,2.42625 l 0.0613,-0.46525 c 0.62,1.22413 1.185,2.15913 1.65,3.13763 0.23,0.49025 0.43625,0.99025 0.63875,1.52637 0.19,0.545 0.4,1.11475 0.69,1.71875 -0.235,0.34625 -0.78375,-1.00238 -1.18125,-1.73237 0.1175,1.33737 1.98625,2.73237 2.9925,4.51746 0.59625,1.5635 -0.45875,0.2759 -0.69375,0.1534 0.90875,1.2876 1.81125,2.3076 2.4925,3.3203 0.35875,0.4937 0.675,0.9786 1.005,1.4185 0.355,0.4175 0.69625,0.8163 1.02625,1.2051 0.67375,0.769 1.3375,1.4711 2.0925,2.1112 0.3775,0.3199 0.7775,0.6237 1.21125,0.9112 0.4625,0.2588 0.97125,0.4878 1.52,0.7041 0.52625,0.059 -0.765,-1.4878 0.9725,-0.095 -1.34625,-1.4928 -2.5175,-2.8537 -3.8225,-4.064 -0.65,-0.606 -1.32125,-1.1837 -2,-1.7725 -0.61875,-0.645 -1.24375,-1.2959 -1.88625,-1.9634 l 0.60375,0.8335 c -1.5325,-0.6924 -1.805,-1.2251 -2.09125,-1.9761 -0.2875,-0.7665 -0.475,-1.82277 -2.00625,-3.68502 1.23875,0.7485 2.2275,2.5185 2.9975,2.99122 -0.47375,-1.29985 -0.93,-2.35397 -1.46625,-3.22272 -0.26,-0.43838 -0.535,-0.8335 -0.79625,-1.21337 -0.23625,-0.3925 -0.46125,-0.7665 -0.67875,-1.12888 -0.8725,-1.44137 -1.71,-2.72512 -1.455,-4.685 l 0.1725,0.35738 c -0.0875,-0.79888 -0.9,-1.9975 -1.35125,-3.12013 -0.155,0.44775 0.18125,1.58888 0.28,2.40625 -0.5275,-1.105 -1.48,-1.48587 -1.855,-1.82962 0.3825,-1.559 -0.78875,-1.73525 -0.94375,-4.03125 0.48875,-0.895 1.0275,1.71 1.58,2.4185 l -1.0675,-2.4975 c -0.37875,-2.42638 0.40375,-2.5 0.605,-3.71488 -0.78625,-1.96237 -0.20375,1.23 -1.1475,-0.34225 0.3275,-1.354 0.24625,-4.774 0.49875,-8.53425 0.3275,-3.74362 0.8675,-7.82612 1.33625,-10.46975 -0.4,1.80625 0.46,0.78863 -0.10875,2.93513 0.25,-0.76663 0.72625,-3.56013 0.23375,-3.73875 0.24125,-1.86038 0.97875,-3.8375 1.77,-5.74913 0.3875,-0.9575 0.92,-1.84462 1.38625,-2.71087 0.49625,-0.85013 0.92625,-1.68413 1.45375,-2.37888 0,0 -0.2325,0.1625 -0.46375,0.32375 -0.23875,0.16013 -0.44875,0.33488 -0.44875,0.33488 0.25,-1.48625 1.2425,-3.061 2.4375,-4.80513 1.2625,-1.711 2.66125,-3.626 3.925,-5.851 l -0.07,0.085 c 0.795,-1.43375 0.6425,-3.30875 2.705,-5.58375 -0.0263,1.0675 -1.05125,2.33375 -0.44875,2.5725"
       style="fill:#d41f25;fill-opacity:1;fill-rule:nonzero;stroke:none"
       id="path1690" />
    <path
       inkscape:connector-curvature="0"
       d="m 50.616486,902.01611 c 0,0 -0.1925,0.41 -0.385,0.82 -0.17875,0.42 -0.35625,0.84 -0.35625,0.84 1.435,-1.13125 2.58125,-3.3 1.975,-3.41375 -0.83,0.92875 -2.29125,1.775 -2.18,2.2375 0.23125,-0.07 0.395,0.13625 0.94625,-0.48375"
       style="fill:#d41f25;fill-opacity:1;fill-rule:nonzero;stroke:none"
       id="path1692" />
    <path
       inkscape:connector-curvature="0"
       d="m 80.232736,884.38861 c 0.59625,-0.375 0.3525,-0.58 0.56875,-0.8675 -1.7575,0.64 -3.65875,1.21375 -5.43375,2.03375 -0.8975,0.38625 -1.79125,0.76875 -2.66625,1.145 -0.8525,0.42 -1.68875,0.83125 -2.4925,1.22625 -1.6325,0.7475 -3.04875,1.58875 -4.29375,2.205 -1.25125,0.6075 -2.2375,1.1475 -2.9375,1.42125 -1.1175,0.57625 -1.625,1.15625 -2.16,1.82125 -0.51875,0.68875 -1.04875,1.485 -2.2425,2.47875 l -1.58,0.22125 c -1.065,1.37875 -5.55875,3.98 -3.39125,3.7675 0.2175,-0.0488 0.79,-1.34625 2.05375,-2.07375 l 0.075,0.47 c 0,0 0.62375,-0.53625 1.24875,-1.0725 0.3075,-0.275 0.63375,-0.52625 0.87875,-0.7125 0.245,-0.19 0.4075,-0.315 0.4075,-0.315 l -0.545,1.02 c 4.07875,-1.945 1.615,-3.165 6.6125,-5.7175 l 0.5,0.91875 c 1.5975,-0.92375 2.7975,-1.6175 3.9475,-2.28375 1.16625,-0.64 2.375,-1.09375 3.95625,-1.52125 0,0 -0.19375,-0.48375 -0.6625,-0.025 -0.5825,0.21875 -1.48875,0.19125 -1.2375,-0.27625 4.73,-3.1675 -0.515,0.9 3.19,-0.33125 1.02625,-0.6025 2.29625,-1.34625 3.71125,-2.0275 1.44125,-0.60875 2.965,-1.33 4.50875,-1.79625 3.06125,-1.03 6.035,-1.435 7.4,-1.26 -1.155,-0.11 -0.945,-0.47875 -0.0863,-0.87625 0.86625,-0.34875 2.397497,-0.645 3.771247,-0.75625 1.27,0.24625 -0.8325,0.70625 -1.2225,1.06 0.62875,-0.006 1.20125,0.0312 1.77125,0.0337 0.57375,0.0437 1.145,0.0675 1.7775,-0.02 -1.65875,-0.55 -0.64875,-1.3525 2.42375,-1.74375 -1.66375,-0.1225 -3.27125,-0.16375 -4.795,0.0387 -1.51625,0.2625 -2.994997,0.50625 -4.408747,0.95875 -2.8525,0.8575 -5.56375,1.93375 -8.6475,2.85625"
       style="fill:#d41f25;fill-opacity:1;fill-rule:nonzero;stroke:none"
       id="path1694" />
    <path
       inkscape:connector-curvature="0"
       d="m 81.823986,882.98111 c -0.6475,0.19875 -0.905,0.37625 -1.0225,0.54 0.83875,-0.2825 1.7075,-0.48375 2.505,-0.705 l -1.4825,0.165"
       style="fill:#d41f25;fill-opacity:1;fill-rule:nonzero;stroke:none"
       id="path1696" />
    <path
       inkscape:connector-curvature="0"
       d="m 152.27148,900.31861 -0.17625,0.0238 0.17625,-0.0238"
       style="fill:#d41f25;fill-opacity:1;fill-rule:nonzero;stroke:none"
       id="path1698" />
    <path
       inkscape:connector-curvature="0"
       d="m 158.77273,929.67736 -0.075,-0.35262 c 0.01,0.23 0.0362,0.31737 0.075,0.35262"
       style="fill:#d41f25;fill-opacity:1;fill-rule:nonzero;stroke:none"
       id="path1700" />
    <path
       inkscape:connector-curvature="0"
       d="m 140.07398,886.81736 0.0575,-0.007 c -0.22625,-0.175 -0.54,-0.39625 -1.0775,-0.71875 0,0 0.26,0.17375 0.51875,0.34875 0.25875,0.1775 0.50125,0.3775 0.50125,0.3775"
       style="fill:#d41f25;fill-opacity:1;fill-rule:nonzero;stroke:none"
       id="path1702" />
    <path
       inkscape:connector-curvature="0"
       d="m 130.07273,984.5435 0.3375,-0.2085 c -0.155,0.091 -0.26375,0.1362 -0.3375,0.2085"
       style="fill:#d41f25;fill-opacity:1;fill-rule:nonzero;stroke:none"
       id="path1704" />
    <path
       inkscape:connector-curvature="0"
       d="m 153.47523,955.66749 c 0.0263,0.13625 -0.0137,0.336 -0.0562,0.53125 0.09,-0.23288 0.14,-0.42625 0.0562,-0.53125"
       style="fill:#d41f25;fill-opacity:1;fill-rule:nonzero;stroke:none"
       id="path1706" />
    <path
       inkscape:connector-curvature="0"
       d="m 132.53148,879.21236 0.45875,0.41125 c 0.025,-0.0987 -0.13,-0.26625 -0.45875,-0.41125"
       style="fill:#d41f25;fill-opacity:1;fill-rule:nonzero;stroke:none"
       id="path1708" />
    <path
       inkscape:connector-curvature="0"
       d="m 112.64148,878.20736 0.0575,0.0462 -0.0575,-0.0462"
       style="fill:#d41f25;fill-opacity:1;fill-rule:nonzero;stroke:none"
       id="path1710" />
    <path
       inkscape:connector-curvature="0"
       d="m 120.32148,878.87861 c 0.165,-0.0125 0.35625,-0.0425 0.55,-0.0725 -0.23125,-0.006 -0.52625,-0.0238 -0.55,0.0725"
       style="fill:#d41f25;fill-opacity:1;fill-rule:nonzero;stroke:none"
       id="path1712" />
    <path
       inkscape:connector-curvature="0"
       d="m 121.13398,878.76111 -0.2625,0.045 c 0.14625,10e-4 0.265,-0.002 0.2625,-0.045"
       style="fill:#d41f25;fill-opacity:1;fill-rule:nonzero;stroke:none"
       id="path1714" />
    <path
       inkscape:connector-curvature="0"
       d="m 109.10273,883.11236 c 0.52625,0.0437 0.98625,-0.10875 1.475,-0.22875 l -1.475,0.22875"
       style="fill:#d41f25;fill-opacity:1;fill-rule:nonzero;stroke:none"
       id="path1716" />
    <path
       inkscape:connector-curvature="0"
       d="m 73.680236,994.6372 0.12875,-0.079 -0.12875,0.079"
       style="fill:#d41f25;fill-opacity:1;fill-rule:nonzero;stroke:none"
       id="path1718" />
    <path
       inkscape:connector-curvature="0"
       d="m 109.87523,881.08736 0.38375,0.0712 c -0.14,-0.0475 -0.265,-0.0662 -0.38375,-0.0712"
       style="fill:#d41f25;fill-opacity:1;fill-rule:nonzero;stroke:none"
       id="path1720" />
    <path
       inkscape:connector-curvature="0"
       d="m 142.52398,883.44611 c 0.62375,0.14875 1.47,1.07625 1.595,0.885 -0.54125,-0.33 -1.18375,-0.98875 -1.595,-0.885"
       style="fill:#d41f25;fill-opacity:1;fill-rule:nonzero;stroke:none"
       id="path1722" />
    <path
       inkscape:connector-curvature="0"
       d="m 58.862736,999.8775 -0.37875,-0.1338 c 0.1775,0.07 0.2925,0.1084 0.37875,0.1338"
       style="fill:#d41f25;fill-opacity:1;fill-rule:nonzero;stroke:none"
       id="path1724" />
    <path
       inkscape:connector-curvature="0"
       d="m 109.87523,881.08736 -0.44625,-0.085 0.13,0.12625 0.31625,-0.0412"
       style="fill:#d41f25;fill-opacity:1;fill-rule:nonzero;stroke:none"
       id="path1726" />
    <path
       inkscape:connector-curvature="0"
       d="m 36.415236,956.71586 0.002,0.019 0.05,0.11625 -0.0525,-0.13525"
       style="fill:#d41f25;fill-opacity:1;fill-rule:nonzero;stroke:none"
       id="path1728" />
    <path
       inkscape:connector-curvature="0"
       d="m 36.688986,953.58111 c 0.025,0.21725 0.0513,0.42875 0.0775,0.66263 0.0237,-0.35163 -0.0163,-0.53663 -0.0775,-0.66263"
       style="fill:#d41f25;fill-opacity:1;fill-rule:nonzero;stroke:none"
       id="path1730" />
    <path
       inkscape:connector-curvature="0"
       d="m 110.57773,882.88361 0.84875,-0.13125 c -0.30375,0.009 -0.58,0.0662 -0.84875,0.13125"
       style="fill:#d41f25;fill-opacity:1;fill-rule:nonzero;stroke:none"
       id="path1732" />
    <path
       inkscape:connector-curvature="0"
       d="m 45.850236,921.20986 -0.14,0.285 c 0.0738,-0.115 0.12,-0.20875 0.14,-0.285"
       style="fill:#d41f25;fill-opacity:1;fill-rule:nonzero;stroke:none"
       id="path1734" />
    <path
       inkscape:connector-curvature="0"
       d="m 154.38523,953.36624 0.1375,-0.25288 c -0.0412,-0.0459 -0.0838,-0.0396 -0.1375,0.25288"
       style="fill:#d41f25;fill-opacity:1;fill-rule:nonzero;stroke:none"
       id="path1736" />
    <path
       inkscape:connector-curvature="0"
       d="m 147.72273,978.38723 -0.006,0.007 0.004,0.003 0.002,-0.0102"
       style="fill:#d41f25;fill-opacity:1;fill-rule:nonzero;stroke:none"
       id="path1738" />
    <path
       inkscape:connector-curvature="0"
       d="m 148.36273,977.08748 c -0.31,0.31488 -0.56625,0.91988 -0.64,1.29975 0.2725,-0.3525 0.49125,-0.71625 0.64,-1.29975"
       style="fill:#d41f25;fill-opacity:1;fill-rule:nonzero;stroke:none"
       id="path1740" />
    <path
       inkscape:connector-curvature="0"
       d="m 145.58148,980.5562 0.135,-0.1026 -0.135,0.1026"
       style="fill:#d41f25;fill-opacity:1;fill-rule:nonzero;stroke:none"
       id="path1742" />
    <path
       inkscape:connector-curvature="0"
       d="m 160.27398,956.42874 -0.0238,-0.009 0.015,0.0225 0.009,-0.0137"
       style="fill:#d41f25;fill-opacity:1;fill-rule:nonzero;stroke:none"
       id="path1744" />
    <path
       inkscape:connector-curvature="0"
       d="m 158.28523,961.69099 c -0.08,0.0751 -0.1675,0.189 -0.24625,0.31637 0.0775,-0.0702 0.16375,-0.17237 0.24625,-0.31637"
       style="fill:#d41f25;fill-opacity:1;fill-rule:nonzero;stroke:none"
       id="path1746" />
    <path
       inkscape:connector-curvature="0"
       d="m 135.35023,990.2735 -0.001,-0.011 -0.0225,0.02 0.0238,-0.01"
       style="fill:#d41f25;fill-opacity:1;fill-rule:nonzero;stroke:none"
       id="path1748" />
    <path
       inkscape:connector-curvature="0"
       d="m 84.878986,1005.1211 c 5.40125,-0.019 12.257497,-1.0087 17.479994,-1.7065 1.085,-0.6362 2.64375,-0.94 4.265,-1.3496 l 0.28875,0.5937 1.34125,-0.4765 c 0.5975,0.076 -1.0375,0.329 0.001,0.3677 l 0.44375,-0.4927 c 0.15,0.2027 3.575,-0.565 1.35375,0.3487 0,0 1.345,-0.2687 2.69,-0.5397 1.34375,-0.3763 2.68625,-0.7528 2.68625,-0.7528 1.1925,-0.3209 0.54375,-0.7085 1.895,-0.9322 0.32,0.101 -0.4325,0.2573 -0.26,0.4463 1.01625,-0.1816 1.8,-0.3863 2.425,-0.7163 0.62625,-0.3316 1.12,-0.69 1.59875,-1.0503 0.9625,-0.7222 1.86,-1.4399 3.6825,-1.9888 l -0.26625,0.1954 c 0.5325,-0.3926 1.63625,-0.94 1.61625,-1.0191 -0.7075,-0.3838 -0.46375,0.6338 -1.67625,0.7525 -0.1075,-0.5049 1.1825,-0.8824 0.95,-1.2188 0.8725,-0.2046 1.20875,-0.71 1.88,-1.0722 1.32875,-0.2613 2.91,-1.2838 3.94125,-1.4777 0.46875,-0.4813 0.81,-1.3085 1.96875,-2.0361 1.07,-0.1527 0.0162,0.4649 1.255,-0.1025 l 0.0125,-0.374 c 0.9575,-0.545 0.8375,-0.4185 0.8975,-0.2574 0.96375,-0.6923 0.545,-0.936 1.85375,-1.6513 l -0.48625,0.7387 c 0.815,-0.75 1.205,-0.9711 2.45125,-1.8622 0.085,0.1626 -0.41625,0.52 -0.81,0.7475 0.95375,-0.1328 1.025,-1.0049 1.4075,-1.2412 -0.1825,-0.018 -1.075,0.5547 -0.85125,0.01 0.665,-0.3785 0.94375,-1.3672 1.59625,-1.4249 l -0.42,0.7803 c 1.02125,-1.2388 0.3725,-0.8589 1.79875,-1.9701 l 0.045,0.185 c 0.58,-1.0587 1.965,-1.7539 3.10125,-3.0137 l -0.1575,0.2925 c 0.39,-0.5737 0.43875,-1.0391 0.70375,-1.2925 -0.785,0.5787 -0.6725,0.3223 -0.95125,0.1787 1.2275,-0.5825 0.89,-1.78515 2.44375,-3.12402 0.12125,0.14262 -0.0113,0.67775 -0.5525,0.95662 -0.075,0.86475 0.205,1.22988 -0.4775,2.33 0.4475,-0.664 1.0225,-1.395 1.05875,-1.1015 l -0.205,-0.50887 c 0.30625,-0.36375 0.6075,-0.6 0.81875,-0.8925 -0.11125,-0.355 -0.9875,0.415 -0.465,-0.57225 0.6275,-1.07275 0.79375,-0.19488 0.73875,-0.48738 0.88375,-1.46624 0.01,-0.88375 1.13375,-2.07274 -0.0662,0.15387 -0.19125,0.45612 -0.315,0.53862 0.85875,-0.815 1.70875,-2.29837 2.3425,-2.27587 0.01,0.21875 0.1575,0.36075 -0.15125,0.69237 l -0.0625,-0.0674 c -0.22,0.63963 -0.0775,0.40863 0.14125,0.0947 0.21625,-0.316 0.46375,-0.74512 0.58,-0.4175 -0.31125,-0.1075 0.6425,-1.461 1.09375,-2.06012 l -0.43375,10e-4 c 0.4075,-2.66988 0.53625,0.5025 1.745,-1.65525 0.6275,-1.44725 -0.405,0.44775 -0.11125,-0.49363 0.6175,-0.8575 1.0325,-1.07625 1.62875,-2.51225 0.3275,-0.3115 0.90875,-1.00387 1.3075,-0.88525 0.14625,-0.4575 0.52,-1.07375 0.845,-1.66012 0.30125,-0.59475 0.5125,-1.17488 0.44125,-1.5 -0.92375,1.33887 -0.265,1.65525 -1.6125,3.09662 l -0.11125,-0.6465 c 0.66625,-1.125 1.11,-2.74112 1.5875,-3.50487 -0.1425,0.13475 -0.2675,0.1675 -0.30125,0.0289 0.57,-1.75788 0.4325,-2.3765 1.1925,-3.98388 0.435,-0.0865 0.007,0.86513 -0.275,1.57225 0.73,-0.95225 0.50625,-1.09475 1.17,-2.74862 0.33125,0.0161 -0.39875,1.13237 -0.17125,1.43612 l 0.53375,-1.91212 0.0625,0.02 c -0.415,-0.44288 0.52125,-1.415 0.75375,-2.61525 0.4875,-1.3525 0.43625,-2.22113 0.39875,-2.916 -0.0625,-0.70163 -0.21625,-1.25788 -0.23125,-2.06638 0.24125,-0.37362 0.405,-0.4625 0.4925,-0.25887 -0.40125,0.61775 -0.19,0.5425 -0.115,0.8125 0.18125,-0.93838 1.02625,-1.916 1.10375,-1.34863 0.225,-1.519 -0.41,0.47225 -0.34125,-0.47012 0,0 0.145,-0.50488 0.2625,-1.01225 0.10125,-0.51125 0.2025,-1.0225 0.2025,-1.0225 -0.3125,0.1885 -0.5,0.89362 -0.51375,-0.205 0.0875,-0.90625 0.2175,-1.32525 0.445,-2.48638 0.10125,0.19238 0.47625,-0.29887 0.30125,0.57613 0.20125,-0.54488 0.37375,-1.43013 0.17375,-1.8125 -0.47375,1.23637 0.1425,-2.12738 -0.4475,-1.23725 l 0.3938,-1.24425 c -0.0375,0.2915 0.1375,0.34913 0.0363,0.77288 0.4525,-0.30763 0.001,-1.06638 0.0125,-1.5165 0.13125,-0.441 0.29875,-1.6075 0.46875,-1.6875 -0.0687,-0.4185 0.13375,-1.3985 0.365,-1.566 -0.0138,-0.61125 -0.26375,-0.0727 -0.37875,-0.26125 0,0 0.065,-0.51163 0.13,-1.02388 0.0412,-0.5185 0.0825,-1.03862 0.0825,-1.03862 0.2375,-0.0951 0.88375,-0.23138 0.95,0.0924 -0.1625,-0.8125 -0.65625,-0.32763 -0.56,-1.5225 0.41625,0.71387 0.41125,-1.57763 0.9025,-0.55513 0.3225,-0.68362 0.39125,-2.69237 0.215,-3.78762 -0.3725,-0.67238 -0.155,1.19137 -0.54,1.12012 -0.1975,-3.06887 -1.20125,-3.1885 -1.21625,-5.40625 l -0.0537,0.5825 c -0.3225,-1.35612 -0.24125,-1.20862 -0.6525,-1.96737 0.465,0.33875 1.06,-1.71125 0.53125,-3.96125 -0.255,-0.14875 -0.19625,1.33 -0.61375,1.02125 l -0.33125,-1.4675 c 0.0138,-0.1125 0.1175,0.035 0.20875,0.215 -0.36875,-1.29625 0.0475,-2.5875 -0.54125,-2.85375 0,0 0.0812,-0.37375 0.1625,-0.74875 0.085,-0.375 0.15375,-0.7525 0.15375,-0.7525 l -0.14,0.60125 c -0.23375,-0.13625 -0.73375,-1.57625 -0.8975,-1.85625 -0.64375,-1.425 -0.67875,-1.995 -0.67375,-2.8975 -0.0863,0.31625 -0.27125,1.08125 -0.72625,-0.0425 0.7225,-0.23875 -0.63125,-2.48375 -0.2825,-2.5825 -0.195,-0.45375 -0.30125,-1.365 -0.615,-1.2925 l 0.45,-0.10375 c -0.63875,0.14625 -1.3275,-1.5125 -2.0525,-2.69 0.9075,-0.1125 -0.7625,-1.305 -0.365,-2.22375 -0.62375,0.05 -1.4625,-2.00875 -2.005,-1.9575 -0.59,-0.88125 -0.0975,-1.07875 -0.0888,-1.41125 l -0.46125,-0.295 c -0.0425,-0.29625 -0.32375,-0.88125 -0.69625,-1.50625 -0.385,-0.6175 -0.8325,-1.295 -1.12625,-1.8325 0,0 -0.27375,-0.1425 -0.5475,-0.2825 -0.28125,-0.13 -0.5625,-0.26125 -0.5625,-0.26125 l -0.0925,-0.465 c -0.2175,-0.0513 -0.88125,-0.70375 -0.65,-0.14125 l -0.37,-0.475 c -0.44125,0.32875 -0.66375,-0.5375 -1.68875,-1.22125 -0.12875,-0.26 0.0175,-0.3025 0.25375,-0.16875 -0.415,-0.4325 -0.03,-0.45125 -0.13,-0.82125 0.1,0.205 -0.46,-0.009 -0.91625,-0.095 -0.4775,-0.0687 -0.83125,-0.0325 -0.34375,0.60625 -0.0737,0.23 -0.87125,-0.26875 -1.23125,-0.72875 l 0.0775,-0.61125 -0.86875,-0.0675 c -0.71625,-0.54625 -0.8375,-1.00375 -1.3725,-1.5175 0.60125,0.43625 1.94375,0.305 0.375,-0.92625 0.855,0.6025 1.45125,0.695 1.93125,0.975 -0.3,-0.2875 -0.4325,-0.45875 0.20125,-0.19875 -1.3175,-0.88625 -0.60625,-0.0987 -1.8575,-1.01875 0.33125,-0.28625 0.12125,-0.72375 -0.92625,-1.63375 0,0 0.1625,0.21375 0.32625,0.42875 0.16625,0.20875 0.31125,0.44125 0.31125,0.44125 l -0.22625,-0.025 c 0.27375,0.28 0.31625,0.40375 0.27625,0.5925 -0.225,-0.22125 -1.77875,-0.6075 -1.83,-0.975 0.865,1.4425 -2.52,-1.065 -1.94375,-0.14375 -0.21875,0.0225 -1.13125,-0.49375 -1.11125,-0.74375 1.26625,0.35875 -0.56,-0.935 -0.2325,-1.10625 -0.4725,-0.1325 0.7,0.8075 0.0613,0.625 -0.6575,-0.3775 -1.03,-0.85625 -1.345,-1.18125 l 0.325,0.0713 -0.96875,-0.72125 c -0.27125,0.115 0.85125,0.8625 -0.1725,0.47375 -0.20875,-0.22125 -1.235,-0.59875 -1.1375,-0.73125 0.60875,-0.075 0.4375,-0.61 1.315,-0.2525 -0.6975,-0.37 -3.04,-1.2375 -2.26875,-0.4725 l -0.8476,-0.37625 c 0.47,0.40625 1.8075,1.35 0.0975,0.68875 l 0.0487,-0.0787 c 0,0 -0.325,-0.045 -0.64875,-0.09 -0.325,-0.0413 -0.6575,-0.0575 -0.6575,-0.0575 l -0.4425,-0.40125 c -0.0238,0.115 -0.2475,0.1475 -0.6875,-0.0137 -0.0725,-0.16875 -0.47625,-0.365 -0.38625,-0.52625 -1.31,-0.41875 -1.28125,-0.11125 -1.48375,-0.0488 -0.7425,-0.1675 -0.995,-0.33375 -0.58125,-0.4975 -0.9925,-0.37625 -2.8025,-0.6575 -3.465,-1.02875 -1.41875,-0.0712 0.265,0.15 -0.5925,0.29375 -0.52875,-0.4975 -1.685,-0.70125 -2.9775,-0.83375 -1.3,-0.0513 -2.73625,-0.025 -3.87625,0.0288 0.60875,0.685 -0.62625,0.0838 -1.03625,0.715 0.4925,-0.22125 -2.1625,-0.51625 -0.17375,-0.72625 l -1.21745,0.0812 c -0.85375,-0.37 2.0175,-0.30125 0.73875,-0.81 -1.39875,0.006 -2.2375,0.90875 -3.86375,0.7475 0.48875,-0.5475 -1.21875,0.28875 -0.875,-0.27875 0.3125,-0.23 0.7675,-0.2175 1.225,-0.285 l -0.29375,-0.075 c -3.025,0.215 -0.80625,0.67625 -2.3175,1.20875 -1.78625,0.30375 -1.47875,-0.175 -1.6225,-0.38625 -0.29625,-0.04 -1.19,0.215 -1.63375,0.43375 1.04,-0.51125 2.0725,-0.0987 1.6225,0.30375 -0.88,-0.3925 -2.64875,0.4825 -3.07375,0.79125 2.64,0.0913 1.75375,-0.36625 4.23,-0.125 0.2975,-0.21875 0.17125,-0.70625 1.635,-0.6975 -0.8675,0.3675 0.0962,0.2675 0.3575,0.3125 -0.31,-0.26 0.97875,-0.2475 1.41,-0.37625 0.41625,0.2025 -0.795,0.7225 0.65625,0.73375 l 0.22375,-0.69375 c 0.5775,0.0588 -0.2075,0.51125 0.99,0.26125 -0.62875,0.4 0.22,0.5325 -1.3875,0.75875 1.9525,0.40125 2.9325,-0.4525 4.465,-0.71375 -0.15625,0.0425 -0.1725,0.1325 -0.325,0.17875 0.32375,-0.18 0.91375,-0.18125 1.3625,-0.18125 0.9925,0.2125 -0.8,0.26 -0.545,0.46 l 1.60625,0.0763 0.0362,0.05 c 0.4275,-0.0675 0.8375,-0.105 0.97,0.0713 -0.49375,0.18875 -0.69625,0.4025 -1.02375,0.55875 0,0 0.42375,-0.0913 0.84875,-0.18375 0.42875,-0.10375 0.8575,-0.16125 0.8575,-0.1625 -0.2025,0.19875 1.3225,0.55625 0.13125,0.56875 0,0 0.61125,0.0537 1.225,0.1075 0.61125,0.0563 1.22375,0.1175 1.22375,0.1175 l 0.1275,0.49 c 0.58375,0.0337 0.62,-0.0525 -0.0588,-0.2425 0.4,0.1325 1.345,0.11625 2.12625,0.16875 0.78125,0.0438 1.36375,0.24625 1.04125,0.61 1.95625,0.12 2.5775,0.4825 4.8525,1.06875 -1.80875,-0.27375 1.69125,1.275 -0.125,0.73625 0.93125,0.615 1.33375,0.25 2.17,0.5225 0.645,0.555 0.1375,0.74875 -0.72875,0.56875 0,0 0.25625,0.0525 0.5125,0.105 0.25,0.07 0.5,0.14 0.5,0.14 l -0.0575,0.0725 0.90875,0.175 c 0.72875,0.645 -0.035,0.495 0.7975,0.98875 l 0.37875,-0.245 0.4475,0.54375 c -0.11875,-0.2875 0.415,-0.0625 1.04125,0.27625 l -0.06,0.0687 0.775,0.38375 c -0.84125,-0.265 0.60125,0.5125 0.11625,0.54 0.5875,0.43375 0.6025,0.435 1.72875,1.12875 l -0.025,-0.355 c 1.51625,0.8675 -0.185,0.3675 0.89375,1.24875 l 0.12875,-0.3025 c 0.31125,0.41875 0.645,0.74125 0.9825,1.01625 0.3225,0.29625 0.655,0.5375 0.98125,0.76625 0.655,0.44875 1.27875,0.8525 1.66625,1.52 -0.65,-0.56 -0.755,-0.14 -0.68,-0.19375 0.48125,0.41875 1.08125,1.0075 1.69125,1.59375 0.58375,0.6125 1.19625,1.2075 1.78125,1.59 -0.0537,0.66875 -0.0987,0.8525 0.55625,2.04625 0.6275,0.7525 0.71625,0.8675 1.1225,0.9775 0.19375,0.445 0.59625,1.00125 0.92,1.47375 0.3075,0.4825 0.52125,0.89375 0.3925,0.99875 0.34125,0.0525 0.39375,0.7625 0.85875,1.09875 l -0.0625,0.16375 0.23375,-0.2275 c 0.1825,1.825 1.73375,2.34625 1.875,4.18875 l -0.20125,-0.2325 0.415,0.60375 c -0.08,0.16 -0.28125,-0.0725 -0.46,-0.0275 0,0 0.3475,0.755 0.62375,1.54 0.295,0.7775 0.5875,1.555 0.5875,1.555 l -0.0175,-0.6925 c 0.3,0.635 0.7325,0.9875 0.80875,1.81625 -0.88,-1.1125 0.34,1.06 0.0613,1.375 l -0.34875,-0.6375 c 0.345,0.91125 0.33375,0.91625 0.6175,0.74375 0.45375,1.195 -0.345,1.0075 0.30375,2.03625 l -0.2125,-0.8025 c 0.11,-0.28875 0.525,0.2175 0.67,0.76 -0.01,0.14 -0.0387,0.55625 -0.1925,0.15625 0.38125,0.93625 0.53375,2.44875 0.76625,2.84875 0.0163,0.5525 -0.2425,0.42 -0.38625,0.1525 0.66125,2.04625 0.125,0.9525 0.76,3.0175 l -0.18375,-0.009 0.3075,0.69875 -0.24375,1.0875 0.18375,-0.4 c 0.12125,0.69125 0.32,1.11375 0.26875,1.94238 l -0.29,-0.30513 c 0.31125,1.96288 -0.2475,2.29875 0.17375,4.15375 -0.0437,0.129 -0.14,-0.15862 -0.18625,-0.30612 0.485,1.729 -0.44625,1.30612 0.0488,3.05125 l -0.2775,0.009 0.1625,0.79725 -0.36125,-0.0746 c 0,0 0.13,0.166 0.25875,0.3325 0.1225,0.1675 0.245,0.335 0.245,0.335 l -0.4025,0.46962 0.15375,0.31788 c -0.7325,0.796 -0.3,2.02987 -0.97125,3.15337 l 0.4775,-0.15475 c 0.29625,1.52388 -0.006,3.21875 -0.425,4.95013 -0.50875,1.71587 -1.09,3.47362 -1.19,5.2725 l -0.34125,-0.13775 0.0813,1.52012 c -0.47125,0.69725 -0.1825,-0.52737 -0.425,-0.33012 -0.19125,1.5615 0.3575,0.75387 0.009,2.55275 -0.465,0.84475 -0.17875,-0.38525 -0.195,-0.84038 -0.12375,0.84913 -0.2925,1.90038 -0.49125,2.88138 -0.22625,0.97025 -0.55625,1.84525 -0.835,2.39112 l 0.115,0.0776 c -0.2266,1.12729 -0.7966,2.52729 -1.2541,3.69129 -0.145,-0.0913 -0.0388,-0.37987 0.035,-0.68362 -0.18,0.41112 -0.53625,0.92725 -0.52625,1.34475 l -0.10625,-0.54738 c -0.43125,0.85263 -0.88625,2.65975 -1.305,2.7075 0.1725,-0.0488 0.40125,0.105 0.0637,0.86138 -0.6275,0.21 -0.78,2.11475 -1.655,3.15875 -0.0437,-0.20125 0.38125,-1.06888 0.2475,-0.83163 -0.43625,0.51763 -0.48,1.16163 -0.60125,1.76125 l -0.1125,-0.26462 c 0,0 -0.28875,0.72112 -0.57875,1.44087 -0.3175,0.70413 -0.6825,1.38288 -0.68375,1.38288 -0.715,0.0913 -1.4925,2.48975 -1.7175,2.09375 -0.60375,0.91212 0.6975,-0.64163 0.004,0.56487 -0.19375,0.0914 -0.33875,0.37263 -0.47,0.59863 -0.14875,0.2125 -0.27875,0.37262 -0.4075,0.24512 l 0.0563,-0.14012 -0.56875,0.77887 0.0863,-0.6875 c -0.4425,0.69625 -0.5325,1.39013 -0.345,1.58888 -0.64,0.50625 -1.19875,1.496 -1.66625,1.57712 l 0.11125,-0.28612 c -0.58875,0.94775 -1.44125,1.42137 -2.1475,1.92525 -0.71625,0.49612 -1.33875,0.97999 -1.70875,1.82374 -0.1225,0.0586 -0.175,-0.0151 0.01,-0.209 l -0.96,0.94625 0.055,-0.40375 -1.3825,1.78125 -0.0991,-0.15237 c -0.57375,0.46237 -1.2725,1.09472 -2,1.77882 -0.78375,0.6162 -1.60875,1.2662 -2.35375,1.8535 l 0.17875,-0.2363 c -0.75,0.7266 -1.18,0.9912 -1.555,1.2041 -0.36625,0.2221 -0.70125,0.3686 -1.30375,0.8335 l 0.095,-0.1475 -1.16375,0.71 0.165,-0.3038 c -0.6675,0.854 -2.715,1.0489 -2.01875,1.0128 -0.3925,0.456 -1.1475,1.125 -1.2125,1.3725 -1.33875,0.6675 -0.4375,-0.046 -1.3375,0.2187 -0.97625,0.4513 -1.015,0.8174 -2.3975,1.3097 l -0.0462,-0.1773 c -0.59125,0.3448 -0.93875,0.6138 -1.8275,0.9711 l 0.23375,-0.1786 c -1.3225,0.9048 -2.0025,0.1884 -2.875,1.3661 -0.655,0.1099 -1.79125,0.6363 -1.85625,0.2462 -1.80375,0.7525 -3.235,1.2851 -5.075,1.9541 -0.4475,-0.5166 -0.40875,0.1196 -1.65625,0.023 l 0.15625,0.291 c -1.36625,0.2939 -2.87625,0.4062 -4.405,0.5351 -1.5775,0.1089 -3.1875,0.2251 -4.68125,0.4975 l -0.129997,-0.3026 -0.55875,0.4375 c -3.29625,0.3164 -7.55625,0.5249 -10.172497,0.5736 -0.85,0.2164 -2.1525,0.584 -3.52125,0.4864 l 0.1425,-0.043 c -2.3725,0.1411 -4.90875,0.2115 -7.46125,-0.2339 0.1725,-0.1211 -0.0725,-0.2372 0.2225,-0.2984 -0.645,0.3097 -1.505,-0.1263 -2.0475,-0.2075 l 0.615,0.315 c -0.7625,0.2124 -1.77375,-0.2026 -2.1075,-0.4766 l -1.19,0.1563 -0.18625,-0.1612 -0.2275,0.1339 -0.53625,-0.5099 c -0.30125,0.061 -1.80125,-0.144 -2.3525,0.1598 -0.0813,-0.1573 -1.11125,-0.4723 -0.28125,-0.3863 0,0 -0.25375,-0.061 -0.6375,-0.1523 -0.3775,-0.1025 -0.88125,-0.2403 -1.385,-0.3774 -1.015,-0.2564 -1.99625,-0.5914 -1.99625,-0.5914 l 0.58375,0.3223 c -0.002,0.3301 -1.27,0.1762 -1.855,-0.1425 0.89375,-0.011 0.195,-0.4137 -0.08,-0.7359 -0.58875,0 0.385,0.4096 0.0513,0.4897 -0.7425,0 -2.20625,-0.396 -2.5175,-0.646 l 0.44625,0.015 c -0.96375,-0.1821 -1.1625,-0.9047 -2.0475,-1.2075 -0.89125,-0.055 -1.355,-0.5483 -1.415,0.029 -1.16375,-0.4022 -0.28,-0.5321 -0.61625,-0.7436 -0.64625,0.027 -2.08875,-0.896 -2.1425,-1.2485 -1.00125,0.4424 -2.66125,-1.8452 -3.22375,-1.3829 l -0.60375,-0.8696 c -0.12625,0.1349 -0.5125,0.3624 -1.22375,-0.026 -0.51875,-0.5776 -0.165,-0.7539 -0.24125,-1.0312 l -0.8,0.231 c -1.54125,-1.5659 -3.31,-3.2974 -4.9525,-5.2075 -1.6575,-1.89116 -3.0925,-4.05228 -3.95125,-6.22615 -1.18,-1.69625 -2.4775,-4.041 -3.19625,-6.41013 l 0.16125,0.23538 -0.53625,-2.40138 0.22375,1.79488 c -0.23,-0.49263 -0.4775,-0.85888 -0.62125,-1.36225 -0.155,-0.66263 -0.19625,-1.40925 -0.32375,-2.169 -0.0588,-0.37988 -0.11875,-0.771 -0.18,-1.16738 -0.0375,-0.40487 -0.0763,-0.8175 -0.115,-1.23487 -0.0838,-0.83263 -0.19125,-1.68025 -0.33375,-2.52638 -0.085,-0.8565 -0.18375,-1.71487 -0.33625,-2.55625 -0.95875,-2.16112 0.6175,-1.479 0.0125,-3.5615 0.0712,0.18025 0.18125,0.24663 0.25875,0.40775 -0.32,-2.25875 -0.27625,-3.48637 -0.59375,-5.81737 0.72625,0.33987 0.1825,-1.48 0.55375,-1.2315 l -0.28375,-0.2275 c 0.25625,-0.48238 0.48,-1.66013 0.6775,-1.45363 0,0 -0.0637,-0.26362 -0.1275,-0.52875 -0.0625,-0.26612 -0.1,-0.52987 -0.1,-0.52987 l 0.3325,-0.0312 c 0.14375,-0.65275 0.2925,-1.69525 0.5,-2.64788 0.19125,-0.95362 0.575,-1.78475 0.96,-2.0435 0.14375,-1.6675 0.7475,-3.73 1.46625,-5.86275 0.42875,-1.0425 0.86875,-2.10837 1.30125,-3.15725 0.4675,-1.03275 0.9975,-2.019 1.46,-2.9565 -0.009,-0.65725 0.5625,-1.7495 0.99625,-2.6085 l 0.81875,-0.72012 c 0.3325,-0.92237 0.495,-2.03862 1.17125,-2.69737 l 0.0288,0.1425 c 0.46,-0.88625 1.08625,-1.6025 1.34,-2.5525 0.635,-0.8925 1.39875,-1.65375 1.5,-1.175 -0.22875,-0.225 0.115,-0.69 0.515,-1.09625 0.42,-0.39125 0.9,-0.71875 0.9,-0.71875 0,0 0.545,-0.68125 1.51375,-1.8925 0.47875,-0.60875 1.13125,-1.29875 1.84375,-2.125 0.70125,-0.83625 1.55625,-1.73375 2.5075,-2.705 1.86125,-1.985 4.2425,-4.14625 6.90375,-6.42125 2.73,-2.19375 5.7475,-4.51125 9.06125,-6.5675 3.3075,-2.05125 6.81,-3.99625 10.3775,-5.585 3.5725,-1.56375 7.14625,-2.915 10.548747,-3.8925 6.8,-2.0125 12.781247,-2.6525 16.241247,-3.36625 0.47,-0.28 1.7725,-0.4025 1.305,-0.805 1.01125,-0.055 1.4175,0.52125 1.64,0.2225 -1.34375,-0.28875 0.5025,-0.7775 -0.81125,-1.24625 l 0.8775,-0.0225 c 0.1975,-0.21125 -1.20375,0.17875 -0.9575,-0.21 l -0.29,0.5675 c -0.6925,-0.1325 -1.07,-0.2775 -1.3075,-0.49 -0.67875,0.19375 -1.11375,0.9125 -2.67125,0.6 l 0.4325,-0.0375 c -1.27625,0.03 -0.7825,-0.37125 -1.05125,-0.465 l 0.28375,0.004 -1.09,-0.28625 c 0.825,0.19 2.19,-0.2925 1.47625,-0.255 -1.54875,-0.1525 0.4,0.14 -0.75875,0.21875 -0.7175,0.0362 -0.5225,-0.2775 -0.49125,-0.45875 l -1.3,0.03 c 0.0338,-0.27 0.8625,0.009 0.325,-0.26625 0,0 -0.41,0.0613 -0.815,0.17375 -0.405,0.10125 -0.81,0.20375 -0.81,0.20375 -0.3525,-0.6625 -1.75125,0.4575 -2.555,-0.1325 1.165,-0.245 -0.12875,-0.22125 0.0362,-0.455 0,0 -0.1825,0.005 -0.45375,0.0475 -0.271247,0.0412 -0.631247,0.095 -0.992497,0.15 -0.7225,0.10875 -1.44375,0.2175 -1.44375,0.2175 -0.28875,-0.0575 0.7325,-0.315 0.29625,-0.22 -0.57375,-0.1125 -0.8725,0.2875 -1.16625,0.32375 -0.2875,-0.18875 -2.14,0.4075 -2.14625,-0.06 -2.0175,0.0975 -0.7075,0.7175 -2.57,0.8475 -0.305,-0.2325 1.42625,-0.36375 0.555,-0.47875 0,0 -0.46875,0.10875 -0.92625,0.2675 -0.458747,0.14625 -0.918747,0.2925 -0.918747,0.2925 0.135,-0.175 0.255,-0.52875 0.969997,-0.655 -1.284997,0.2425 -2.446247,0.3825 -3.543747,0.4825 -1.08875,0.14 -2.1025,0.26875 -3.095,0.3975 -1.00875,0.11375 -1.97875,0.31375 -2.97375,0.61125 -0.99125,0.3075 -2.04625,0.62625 -3.11,1.23 -0.755,-0.0163 0.36,-0.41125 0.73,-0.7975 -1.535,0.91 -2.73125,1.26375 -3.91125,1.54 -1.15875,0.31125 -2.2775,0.59 -3.62125,1.29875 l 0.08,0.26375 c -4.12875,1.2725 -8.19875,4.44625 -12.195,7.07 l 0.56625,-0.19875 c -0.365,0.60625 -1.16875,1.2975 -1.70625,1.8775 -0.17875,-0.03 0.0825,-0.805 -0.93125,0.14875 0.285,-0.105 0.805,-0.39 0.7525,-0.18 -0.91875,0.49125 -2.0125,1.2275 -3.17875,2.17 -0.58625,0.47 -1.20625,0.96875 -1.85375,1.48875 -0.6125,0.56125 -1.24875,1.1425 -1.90125,1.73875 -2.61875,2.38375 -5.19625,5.28125 -7.48125,7.80625 -5.53375,7.30125 -11.065,15.85875 -13.70625,24.701 0.42125,-1.3335 0.86625,-0.55125 0.39,0.38913 -1.01875,1.17487 -1.29625,2.41112 -1.5225,3.64987 -0.1175,0.62013 -0.22375,1.24225 -0.395,1.8775 -0.155,0.63863 -0.33375,1.29975 -0.67375,1.98488 -0.17625,1.33637 -0.4425,2.60987 -0.6075,3.88625 -0.1725,1.27237 -0.47875,2.50487 -0.5725,3.75637 -0.1225,1.2475 -0.25375,2.48875 -0.2625,3.73238 0.0375,1.24612 0.14625,2.49512 0.3725,3.73875 l -0.31875,0.10887 c -0.135,0.75638 0.1325,0.95125 0.215,1.73488 l -0.0913,-0.0136 c 0.01,0.935 0.14125,1.95987 0.26,2.88225 0.1625,0.92387 0.34375,1.74362 0.3425,2.28762 l 0.3675,0.0136 c 0.19375,1.09038 -0.19125,0.61525 0.1825,1.70663 l -0.18125,0 c 0,0 0.135,0.3125 0.27125,0.625 0.15875,0.30862 0.3175,0.61712 0.3175,0.61712 -0.63375,0.004 0.625,3.10888 0.67625,4.02 0.5,1.37263 1.64875,3.88775 2.45375,5.95025 -0.0625,0.25388 0.19375,1.0025 0.5425,1.896 0.3725,0.88275 0.90125,1.88037 1.25,2.69387 1.77375,2.9414 4.81,6.83 7.93625,9.8725 l 0.22625,-0.355 0.86,0.7276 c -0.0725,0.056 0.009,0.1924 -0.1475,0.1113 0.17375,0.4625 0.69125,0.8711 1.22375,1.2573 0.54375,0.375 1.12125,0.7002 1.39,1.0953 -0.22375,-0.6416 -0.58875,-0.5279 -1.09375,-0.9288 -0.58375,-0.7426 0.3325,-0.4687 1.19375,0.4297 l -0.0738,0.057 0.79875,0.3432 c -0.11375,0.31 0.405,0.9101 0.31,1.2129 3.105,2.0849 5.56625,2.8061 8.88125,4.5224 -0.50125,0.1797 2.4975,1.0063 1.57125,1.2676 2.18375,0.605 -0.155,-0.5991 0.9625,-0.6314 0.575,0.2349 1.24125,0.3125 1.265,0.5674 -0.32625,0.033 0.34125,0.5376 -0.15125,0.4077 0,0 0.35,0.1309 0.7075,0.2388 0.3575,0.1075 0.715,0.2149 0.715,0.2149 0.1175,0.092 -0.22,0.067 -0.39125,0.054 2.9725,0.6698 5.03375,1.9838 7.76,2.2548 0.24375,-0.1713 -1.02875,-0.3111 -0.78625,-0.4848 1.3675,0.1088 1.93,0.291 2.47,0.5248 0.54,0.2139 1.05875,0.4962 2.32875,0.52 l -0.5675,0.2237 c 0.84375,-0.082 1.23,-0.29 2.51375,0.1641 0.18,0.3999 -1.16625,0.1186 -1.83375,0.185 0.91,0.1811 3.23125,0.4009 2.57125,-0.03 1.10375,0.015 1.46125,0.3837 2.04,0.5537 0.0288,-0.086 -0.99125,-0.3647 -0.33375,-0.4561 1.45875,0.3736 3.75875,0.5635 5.57,0.6709 -0.0213,0.089 0.1,0.233 -0.06,0.2691 1.4825,-0.3936 1.29375,0.3989 3.3125,0.3413"
       style="fill:#d41f25;fill-opacity:1;fill-rule:nonzero;stroke:none"
       id="path1750" />
    <path
       inkscape:connector-curvature="0"
       d="m 160.55648,955.75586 -0.2825,0.67288 c 0.0762,0.0259 0.15375,0.0884 0.13,0.4375 l 0.1525,-1.11038"
       style="fill:#d41f25;fill-opacity:1;fill-rule:nonzero;stroke:none"
       id="path1752" />
    <path
       inkscape:connector-curvature="0"
       d="m 141.93398,984.5699 -0.13,0.2485 c 0.1225,-0.1299 0.13875,-0.1997 0.13,-0.2485"
       style="fill:#d41f25;fill-opacity:1;fill-rule:nonzero;stroke:none"
       id="path1754" />
    <path
       inkscape:connector-curvature="0"
       d="m 135.68898,990.3585 c 0.445,-0.4263 -0.0475,-0.1836 -0.33875,-0.085 0.03,0.069 0.0913,0.1352 0.33875,0.085"
       style="fill:#d41f25;fill-opacity:1;fill-rule:nonzero;stroke:none"
       id="path1756" />
    <path
       inkscape:connector-curvature="0"
       d="m 163.64648,936.68224 c 0.0213,0.12737 0.0613,0.2075 0.13875,0.19625 -0.0475,-0.17388 -0.0913,-0.21388 -0.13875,-0.19625"
       style="fill:#d41f25;fill-opacity:1;fill-rule:nonzero;stroke:none"
       id="path1758" />
    <path
       inkscape:connector-curvature="0"
       d="m 147.33148,887.19236 0.12625,0.1875 -0.12625,-0.1875"
       style="fill:#d41f25;fill-opacity:1;fill-rule:nonzero;stroke:none"
       id="path1760" />
    <path
       inkscape:connector-curvature="0"
       d="m 149.12273,889.69611 c 0.10125,0.1075 0.24375,0.23625 0.46625,0.40375 -0.17375,-0.205 -0.32875,-0.3225 -0.46625,-0.40375"
       style="fill:#d41f25;fill-opacity:1;fill-rule:nonzero;stroke:none"
       id="path1762" />
    <path
       inkscape:connector-curvature="0"
       d="m 161.54898,949.37599 c -0.0362,0.19487 -0.0588,0.38875 -0.0263,0.57137 0.0687,-0.29987 0.055,-0.459 0.0263,-0.57137"
       style="fill:#d41f25;fill-opacity:1;fill-rule:nonzero;stroke:none"
       id="path1764" />
    <path
       inkscape:connector-curvature="0"
       d="m 150.08398,890.49236 0.47375,0.59375 0.0613,-0.0375 -0.535,-0.55625"
       style="fill:#d41f25;fill-opacity:1;fill-rule:nonzero;stroke:none"
       id="path1766" />
    <path
       inkscape:connector-curvature="0"
       d="m 146.64398,886.50986 c 0.21375,0.21125 0.5175,0.4825 0.6875,0.6825 -0.2175,-0.33 -0.44125,-0.53625 -0.6875,-0.6825"
       style="fill:#d41f25;fill-opacity:1;fill-rule:nonzero;stroke:none"
       id="path1768" />
    <path
       inkscape:connector-curvature="0"
       d="m 162.68523,917.15611 0.0213,0.0775 c 0.2575,0.545 0.12875,0.1975 -0.0213,-0.0775"
       style="fill:#d41f25;fill-opacity:1;fill-rule:nonzero;stroke:none"
       id="path1770" />
    <path
       inkscape:connector-curvature="0"
       d="m 152.72898,892.61861 0.0512,0.0925 0.21375,0.11375 -0.265,-0.20625"
       style="fill:#d41f25;fill-opacity:1;fill-rule:nonzero;stroke:none"
       id="path1772" />
    <path
       inkscape:connector-curvature="0"
       d="m 144.11898,884.33111 c 0.12375,0.08 0.2475,0.1375 0.35375,0.1725 -0.0838,-0.0875 -0.19625,-0.1725 -0.3325,-0.2875 l -0.0212,0.115"
       style="fill:#d41f25;fill-opacity:1;fill-rule:nonzero;stroke:none"
       id="path1774" />
    <path
       inkscape:connector-curvature="0"
       d="m 160.12648,906.19361 c -0.20375,-0.14875 -0.32,-0.18875 -0.38625,-0.17 0.0962,0.23125 0.21375,0.35625 0.38625,0.17"
       style="fill:#d41f25;fill-opacity:1;fill-rule:nonzero;stroke:none"
       id="path1776" />
  </g>
</svg>
