<?xml version="1.0" encoding="iso-8859-1"?>
<!-- Generator: Adobe Illustrator 16.0.0, SVG Export Plug-In . SVG Version: 6.00 Build 0)  -->
<!DOCTYPE svg PUBLIC "-//W3C//DTD SVG 1.1//EN" "http://www.w3.org/Graphics/SVG/1.1/DTD/svg11.dtd">
<svg version="1.1" id="Capa_1" xmlns="http://www.w3.org/2000/svg" xmlns:xlink="http://www.w3.org/1999/xlink" x="0px" y="0px"
	 width="612px" height="612px" viewBox="0 0 612 612" style="enable-background:new 0 0 612 612;" xml:space="preserve">
<g>
	<g id="_x33__2_">
		<g>
			<path d="M442.189,219.249L306,355.457L169.811,219.268c-7.478-7.478-19.584-7.478-27.043,0c-7.478,7.478-7.478,19.565,0,27.043
				l146.44,146.44c4.59,4.59,10.863,6.005,16.812,4.973c5.929,1.052,12.221-0.383,16.811-4.973l146.44-146.44
				c7.478-7.478,7.478-19.565,0-27.043C461.773,211.79,449.667,211.79,442.189,219.249z M306,0C136.992,0,0,136.992,0,306
				s136.992,306,306,306s306-137.012,306-306S475.008,0,306,0z M306,573.75C158.125,573.75,38.25,453.875,38.25,306
				C38.25,158.125,158.125,38.25,306,38.25c147.875,0,267.75,119.875,267.75,267.75C573.75,453.875,453.875,573.75,306,573.75z"/>
		</g>
	</g>
</g>
<g>
</g>
<g>
</g>
<g>
</g>
<g>
</g>
<g>
</g>
<g>
</g>
<g>
</g>
<g>
</g>
<g>
</g>
<g>
</g>
<g>
</g>
<g>
</g>
<g>
</g>
<g>
</g>
<g>
</g>
</svg>
