<?xml version="1.0" encoding="iso-8859-1"?>
<!-- Generator: Adobe Illustrator 16.0.0, SVG Export Plug-In . SVG Version: 6.00 Build 0)  -->
<!DOCTYPE svg PUBLIC "-//W3C//DTD SVG 1.1//EN" "http://www.w3.org/Graphics/SVG/1.1/DTD/svg11.dtd">
<svg version="1.1" id="Capa_1" xmlns="http://www.w3.org/2000/svg" xmlns:xlink="http://www.w3.org/1999/xlink" x="0px" y="0px"
	 width="612px" height="612px" viewBox="0 0 612 612" style="enable-background:new 0 0 612 612;" xml:space="preserve">
<g>
	<g id="_x31__36_">
		<g>
			<path d="M393.047,414.085L326.4,494.868V204.005c0-11.281-9.14-20.441-20.4-20.441s-20.4,9.16-20.4,20.441v291.638l-67.3-81.559
				c-7.997-8.037-20.971-8.037-28.968,0c-7.997,8.037-7.997,21.072,0,29.09l100.817,122.217c4.263,4.283,9.935,6.1,15.504,5.814
				c5.59,0.285,11.24-1.531,15.504-5.814l100.816-122.217c7.997-8.037,7.997-21.053,0-29.09
				C414.018,406.048,401.044,406.048,393.047,414.085z M591.6,40.765H20.4c-11.261,0-20.4,9.139-20.4,20.4v163.2
				c0,11.261,9.139,20.4,20.4,20.4s20.4-9.139,20.4-20.4v-142.8h530.4v142.8c0,11.261,9.139,20.4,20.399,20.4s20.4-9.139,20.4-20.4
				v-163.2C612,49.904,602.86,40.765,591.6,40.765z"/>
		</g>
	</g>
</g>
<g>
</g>
<g>
</g>
<g>
</g>
<g>
</g>
<g>
</g>
<g>
</g>
<g>
</g>
<g>
</g>
<g>
</g>
<g>
</g>
<g>
</g>
<g>
</g>
<g>
</g>
<g>
</g>
<g>
</g>
</svg>
