<?xml version="1.0" encoding="iso-8859-1"?>
<!-- Generator: Adobe Illustrator 16.0.0, SVG Export Plug-In . SVG Version: 6.00 Build 0)  -->
<!DOCTYPE svg PUBLIC "-//W3C//DTD SVG 1.1//EN" "http://www.w3.org/Graphics/SVG/1.1/DTD/svg11.dtd">
<svg version="1.1" id="Capa_1" xmlns="http://www.w3.org/2000/svg" xmlns:xlink="http://www.w3.org/1999/xlink" x="0px" y="0px"
	 width="652.801px" height="652.801px" viewBox="0 0 652.801 652.801" style="enable-background:new 0 0 652.801 652.801;"
	 xml:space="preserve">
<g>
	<g id="_x36__12_">
		<g>
			<path d="M550.801,0H102C56.937,0,20.4,36.536,20.4,81.6v489.599c0,45.064,36.537,81.602,81.6,81.602h448.8
				c45.063,0,81.6-36.537,81.6-81.602V81.6C632.4,36.536,595.864,0,550.801,0z M591.601,571.199c0,22.521-18.258,40.801-40.8,40.801
				H102c-22.542,0-40.8-18.279-40.8-40.801V530.4h530.4V571.199z M591.601,489.6H61.2v-408c0-22.542,18.258-40.8,40.8-40.8h448.8
				c22.542,0,40.8,18.258,40.8,40.8V489.6z M413.447,270.953l-66.646,80.641V102c0-11.261-9.14-20.4-20.4-20.4S306,90.739,306,102
				v250.369l-67.279-81.417c-7.997-8.017-20.971-8.017-28.968,0c-7.997,8.017-7.997,21.032,0,29.05L310.57,421.994
				c4.264,4.283,9.935,6.1,15.504,5.814c5.59,0.285,11.24-1.531,15.504-5.814l100.816-121.992c7.997-8.018,7.997-21.033,0-29.05
				C434.398,262.936,421.444,262.936,413.447,270.953z"/>
		</g>
	</g>
</g>
<g>
</g>
<g>
</g>
<g>
</g>
<g>
</g>
<g>
</g>
<g>
</g>
<g>
</g>
<g>
</g>
<g>
</g>
<g>
</g>
<g>
</g>
<g>
</g>
<g>
</g>
<g>
</g>
<g>
</g>
</svg>
