<?xml version="1.0" encoding="iso-8859-1"?>
<!-- Generator: Adobe Illustrator 16.0.0, SVG Export Plug-In . SVG Version: 6.00 Build 0)  -->
<!DOCTYPE svg PUBLIC "-//W3C//DTD SVG 1.1//EN" "http://www.w3.org/Graphics/SVG/1.1/DTD/svg11.dtd">
<svg version="1.1" id="Capa_1" xmlns="http://www.w3.org/2000/svg" xmlns:xlink="http://www.w3.org/1999/xlink" x="0px" y="0px"
	 width="612px" height="612px" viewBox="0 0 612 612" style="enable-background:new 0 0 612 612;" xml:space="preserve">
<g>
	<g id="_x37__1_">
		<g>
			<path d="M407.267,313.421l-82.142,81.778V210.662c0-10.576-8.568-19.145-19.125-19.145c-10.557,0-19.125,8.568-19.125,19.145
				v183.944l-81.549-81.186c-7.516-7.479-19.699-7.479-27.215,0c-7.516,7.478-7.516,19.622,0,27.1l113.603,113.086
				c4.016,3.997,9.313,5.699,14.573,5.432c5.24,0.268,10.557-1.435,14.573-5.432l113.603-113.086c7.516-7.478,7.516-19.622,0-27.1
				C426.966,305.942,414.783,305.942,407.267,313.421z M441.156,172.68c-28.075-56.935-86.521-96.18-154.281-96.18
				c-90.825,0-165.049,70.399-171.494,159.598C48.616,255.127,0,313.459,0,382.5c0,81.453,67.703,147.855,153,152.541l325.125,0.459
				C543.839,506.966,612,427.463,612,353.812C612,257.136,536.418,178.321,441.156,172.68z M478.125,497.25H153
				c0,0-115.477-11.857-114.75-114.75C38.652,324.437,89.658,271.231,153,267.75c0-79.216,50.7-153,133.875-153
				c65.656,0,109.452,40.067,125.039,95.874c94.765-4.131,158.853,70.839,161.836,133.626
				C576.332,398.316,529.38,468.161,478.125,497.25z"/>
		</g>
	</g>
</g>
<g>
</g>
<g>
</g>
<g>
</g>
<g>
</g>
<g>
</g>
<g>
</g>
<g>
</g>
<g>
</g>
<g>
</g>
<g>
</g>
<g>
</g>
<g>
</g>
<g>
</g>
<g>
</g>
<g>
</g>
</svg>
