<?xml version="1.0" encoding="iso-8859-1"?>
<!-- Generator: Adobe Illustrator 16.0.0, SVG Export Plug-In . SVG Version: 6.00 Build 0)  -->
<!DOCTYPE svg PUBLIC "-//W3C//DTD SVG 1.1//EN" "http://www.w3.org/Graphics/SVG/1.1/DTD/svg11.dtd">
<svg version="1.1" id="Capa_1" xmlns="http://www.w3.org/2000/svg" xmlns:xlink="http://www.w3.org/1999/xlink" x="0px" y="0px"
	 width="612px" height="612px" viewBox="0 0 612 612" style="enable-background:new 0 0 612 612;" xml:space="preserve">
<g>
	<g id="_x32__16_">
		<g>
			<path d="M497.25,153H284.178c-8.53-32.933-38.192-57.375-73.803-57.375S145.121,120.067,136.572,153H114.75
				c-10.557,0-19.125,8.568-19.125,19.125s8.568,19.125,19.125,19.125h21.822c8.53,32.933,38.192,57.375,73.803,57.375
				s65.254-24.442,73.803-57.375H497.25c10.557,0,19.125-8.568,19.125-19.125S507.807,153,497.25,153z M210.375,218.025
				c-25.341,0-45.9-20.54-45.9-45.9c0-25.341,20.559-45.9,45.9-45.9c25.36,0,45.9,20.559,45.9,45.9S235.735,218.025,210.375,218.025
				z M497.25,459H284.178c-8.53-32.934-38.192-57.375-73.803-57.375S145.121,426.066,136.591,459H114.75
				c-10.557,0-19.125,8.568-19.125,19.125s8.568,19.125,19.125,19.125h21.822c8.53,32.934,38.192,57.375,73.784,57.375
				c35.611,0,65.254-24.441,73.803-57.375H497.25c10.557,0,19.125-8.568,19.125-19.125S507.807,459,497.25,459z M210.375,524.025
				c-25.341,0-45.9-20.56-45.9-45.9c0-25.359,20.559-45.9,45.9-45.9c25.36,0,45.9,20.541,45.9,45.9
				C256.275,503.466,235.735,524.025,210.375,524.025z M497.25,306h-40.946c-8.53-32.933-38.193-57.375-73.804-57.375
				S317.245,273.067,308.696,306H114.75c-10.557,0-19.125,8.568-19.125,19.125s8.568,19.125,19.125,19.125h193.946
				c8.53,32.934,38.193,57.375,73.804,57.375s65.255-24.441,73.804-57.375h40.946c10.557,0,19.125-8.568,19.125-19.125
				S507.807,306,497.25,306z M382.5,371.025c-25.359,0-45.9-20.56-45.9-45.9c0-25.36,20.541-45.9,45.9-45.9
				c25.341,0,45.9,20.54,45.9,45.9C428.4,350.466,407.859,371.025,382.5,371.025z M535.5,0h-459C34.253,0,0,34.253,0,76.5v459
				C0,577.747,34.253,612,76.5,612h459c42.247,0,76.5-34.253,76.5-76.5v-459C612,34.253,577.747,0,535.5,0z M573.75,535.5
				c0,21.114-17.117,38.25-38.25,38.25h-459c-21.133,0-38.25-17.136-38.25-38.25v-459c0-21.133,17.117-38.25,38.25-38.25h459
				c21.133,0,38.25,17.136,38.25,38.25V535.5z"/>
		</g>
	</g>
</g>
<g>
</g>
<g>
</g>
<g>
</g>
<g>
</g>
<g>
</g>
<g>
</g>
<g>
</g>
<g>
</g>
<g>
</g>
<g>
</g>
<g>
</g>
<g>
</g>
<g>
</g>
<g>
</g>
<g>
</g>
</svg>
