<?xml version="1.0" encoding="iso-8859-1"?>
<!-- Generator: Adobe Illustrator 16.0.0, SVG Export Plug-In . SVG Version: 6.00 Build 0)  -->
<!DOCTYPE svg PUBLIC "-//W3C//DTD SVG 1.1//EN" "http://www.w3.org/Graphics/SVG/1.1/DTD/svg11.dtd">
<svg version="1.1" id="Capa_1" xmlns="http://www.w3.org/2000/svg" xmlns:xlink="http://www.w3.org/1999/xlink" x="0px" y="0px"
	 width="612px" height="612px" viewBox="0 0 612 612" style="enable-background:new 0 0 612 612;" xml:space="preserve">
<g>
	<g id="_x36__13_">
		<g>
			<path d="M122.4,267.261V40.8c0-11.261-9.139-20.4-20.4-20.4S81.6,29.54,81.6,40.8v226.46C35.047,276.706,0,317.854,0,367.201
				s35.047,90.494,81.6,99.939v104.061c0,11.26,9.139,20.398,20.4,20.398s20.4-9.139,20.4-20.398V467.141
				c46.553-9.445,81.6-50.592,81.6-99.939S168.953,276.706,122.4,267.261z M102,428.4c-33.803,0-61.2-27.396-61.2-61.199
				S68.197,306,102,306s61.2,27.398,61.2,61.201S135.803,428.4,102,428.4z M326.4,63.261V40.8c0-11.261-9.14-20.4-20.4-20.4
				s-20.4,9.139-20.4,20.4v22.46c-46.553,9.445-81.6,50.592-81.6,99.94s35.047,90.494,81.6,99.939v308.061
				c0,11.26,9.139,20.398,20.4,20.398s20.4-9.139,20.4-20.398V263.14c46.553-9.445,81.6-50.592,81.6-99.939
				S372.953,72.706,326.4,63.261z M306,224.4c-33.803,0-61.2-27.397-61.2-61.2S272.197,102,306,102s61.2,27.397,61.2,61.2
				S339.803,224.4,306,224.4z M530.4,348.861V40.8c0-11.261-9.14-20.4-20.4-20.4s-20.4,9.139-20.4,20.4v308.061
				c-46.553,9.445-81.6,50.592-81.6,99.939s35.047,90.494,81.6,99.939v22.461c0,11.26,9.14,20.398,20.4,20.398
				s20.4-9.139,20.4-20.398V548.74c46.553-9.445,81.6-50.592,81.6-99.939S576.953,358.307,530.4,348.861z M510,510
				c-33.803,0-61.2-27.396-61.2-61.199S476.197,387.6,510,387.6s61.2,27.398,61.2,61.201S543.803,510,510,510z"/>
		</g>
	</g>
</g>
<g>
</g>
<g>
</g>
<g>
</g>
<g>
</g>
<g>
</g>
<g>
</g>
<g>
</g>
<g>
</g>
<g>
</g>
<g>
</g>
<g>
</g>
<g>
</g>
<g>
</g>
<g>
</g>
<g>
</g>
</svg>
