<?xml version="1.0" encoding="iso-8859-1"?>
<!-- Generator: Adobe Illustrator 16.0.0, SVG Export Plug-In . SVG Version: 6.00 Build 0)  -->
<!DOCTYPE svg PUBLIC "-//W3C//DTD SVG 1.1//EN" "http://www.w3.org/Graphics/SVG/1.1/DTD/svg11.dtd">
<svg version="1.1" id="Capa_1" xmlns="http://www.w3.org/2000/svg" xmlns:xlink="http://www.w3.org/1999/xlink" x="0px" y="0px"
	 width="652.801px" height="652.801px" viewBox="0 0 652.801 652.801" style="enable-background:new 0 0 652.801 652.801;"
	 xml:space="preserve">
<g>
	<g id="_x37__38_">
		<g>
			<path d="M550.801,0H102C56.937,0,20.4,36.536,20.4,81.6v489.599c0,45.064,36.537,81.602,81.6,81.602h448.8
				c45.063,0,81.6-36.537,81.6-81.602V81.6C632.4,36.536,595.864,0,550.801,0z M591.601,571.199c0,22.543-18.258,40.801-40.8,40.801
				H102c-22.542,0-40.8-18.258-40.8-40.801v-408h530.4V571.199z M591.601,122.4H61.2V81.6c0-22.542,18.258-40.8,40.8-40.8h448.8
				c22.542,0,40.8,18.278,40.8,40.8V122.4z M489.601,367.199c33.803,0,61.2-27.396,61.2-61.199s-27.397-61.2-61.2-61.2
				s-61.2,27.397-61.2,61.2S455.798,367.199,489.601,367.199z M469.2,285.6H510v40.8h-40.8V285.6z M489.601,530.4
				c33.803,0,61.2-27.398,61.2-61.201S523.403,408,489.601,408s-61.2,27.396-61.2,61.199S455.798,530.4,489.601,530.4z
				 M469.2,448.801H510V489.6h-40.8V448.801z M163.2,367.199c33.803,0,61.2-27.396,61.2-61.199s-27.397-61.2-61.2-61.2
				S102,272.197,102,306S129.397,367.199,163.2,367.199z M142.8,285.6h40.8v40.8h-40.8V285.6z M326.4,367.199
				c33.803,0,61.2-27.396,61.2-61.199s-27.397-61.2-61.2-61.2s-61.2,27.397-61.2,61.2S292.598,367.199,326.4,367.199z M306,285.6
				h40.8v40.8H306V285.6z M163.2,530.4c33.803,0,61.2-27.398,61.2-61.201S197.003,408,163.2,408S102,435.396,102,469.199
				S129.397,530.4,163.2,530.4z M142.8,448.801h40.8V489.6h-40.8V448.801z M326.4,530.4c33.803,0,61.2-27.398,61.2-61.201
				S360.203,408,326.4,408s-61.2,27.396-61.2,61.199S292.598,530.4,326.4,530.4z M306,448.801h40.8V489.6H306V448.801z"/>
		</g>
	</g>
</g>
<g>
</g>
<g>
</g>
<g>
</g>
<g>
</g>
<g>
</g>
<g>
</g>
<g>
</g>
<g>
</g>
<g>
</g>
<g>
</g>
<g>
</g>
<g>
</g>
<g>
</g>
<g>
</g>
<g>
</g>
</svg>
