<?xml version="1.0" encoding="UTF-8" standalone="no"?>
<!-- Created with Inkscape (http://www.inkscape.org/) -->

<svg
   xmlns:dc="http://purl.org/dc/elements/1.1/"
   xmlns:cc="http://creativecommons.org/ns#"
   xmlns:rdf="http://www.w3.org/1999/02/22-rdf-syntax-ns#"
   xmlns:svg="http://www.w3.org/2000/svg"
   xmlns="http://www.w3.org/2000/svg"
   version="1.1"
   width="1792"
   height="1792"
   viewBox="0 0 1792 1792"
   id="svg2">
  <metadata
     id="metadata10">
    <rdf:RDF>
      <cc:Work
         rdf:about="">
        <dc:format>image/svg+xml</dc:format>
        <dc:type
           rdf:resource="http://purl.org/dc/dcmitype/StillImage" />
        <dc:title></dc:title>
      </cc:Work>
    </rdf:RDF>
  </metadata>
  <defs
     id="defs8" />
  <path
     d="M 1217.5114,674.37571 995.88698,896 l 221.62442,221.6243 89.8983,-89.8983 q 18.1044,-19.3531 43.7004,-8.7401 24.3475,10.613 24.3475,36.8333 v 279.6836 q 0,16.2317 -11.8615,28.0933 -11.8616,11.8615 -28.0933,11.8615 h -279.6836 q -26.2203,0 -36.8333,-24.9717 -10.613,-24.3475 8.7401,-43.0762 l 89.8983,-89.8983 L 896,995.88698 674.37571,1217.5114 l 89.8983,89.8983 q 19.3531,18.7287 8.74011,43.0762 -10.613,24.9717 -36.83332,24.9717 H 456.49718 q -16.23164,0 -28.09323,-11.8615 -11.86157,-11.8616 -11.86157,-28.0933 v -279.6836 q 0,-26.2203 24.97174,-36.8333 24.34746,-10.613 43.07627,8.7401 l 89.8983,89.8983 L 796.11299,896 574.48869,674.37571 l -89.8983,89.8983 q -11.86157,11.86157 -28.09321,11.86157 -7.49153,0 -14.98306,-3.12146 -24.97174,-10.613 -24.97174,-36.83332 V 456.49718 q 0,-16.23164 11.86157,-28.09323 11.86159,-11.86157 28.09323,-11.86157 H 736.1808 q 26.22032,0 36.83332,24.97174 10.61299,24.34746 -8.74011,43.07627 l -89.8983,89.8983 L 896,796.11299 l 221.6243,-221.6243 -89.8983,-89.8983 q -19.3531,-18.72881 -8.7401,-43.07627 10.613,-24.97174 36.8333,-24.97174 h 279.6836 q 16.2317,0 28.0933,11.86157 11.8615,11.86159 11.8615,28.09323 V 736.1808 q 0,26.22032 -24.3475,36.83332 -8.1157,3.12146 -15.6073,3.12146 -16.2316,0 -28.0931,-11.86157 z"
     id="path4"
     style="fill:#444444;fill-opacity:1" />
</svg>
