<?xml version="1.0" encoding="UTF-8" standalone="no"?>
<!-- Created with Inkscape (http://www.inkscape.org/) -->

<svg
   xmlns:dc="http://purl.org/dc/elements/1.1/"
   xmlns:cc="http://creativecommons.org/ns#"
   xmlns:rdf="http://www.w3.org/1999/02/22-rdf-syntax-ns#"
   xmlns:svg="http://www.w3.org/2000/svg"
   xmlns="http://www.w3.org/2000/svg"
   version="1.1"
   width="1792"
   height="1792"
   viewBox="0 0 1792 1792"
   id="svg2">
  <metadata
     id="metadata10">
    <rdf:RDF>
      <cc:Work
         rdf:about="">
        <dc:format>image/svg+xml</dc:format>
        <dc:type
           rdf:resource="http://purl.org/dc/dcmitype/StillImage" />
        <dc:title></dc:title>
      </cc:Work>
    </rdf:RDF>
  </metadata>
  <defs
     id="defs8" />
  <path
     d="M 1268.4294,639.27684 1011.7062,896 l 256.7232,256.7232 104.1356,-104.1356 q 20.9717,-22.4181 50.6214,-10.1243 28.2034,12.2938 28.2034,42.6666 v 323.9774 q 0,18.8023 -13.7401,32.5424 -13.7401,13.7401 -32.5424,13.7401 h -323.9774 q -30.3728,0 -42.6666,-28.9265 -12.2938,-28.2034 10.1243,-49.8983 L 1152.7232,1268.4294 896,1011.7062 639.27684,1268.4294 743.41243,1372.565 q 22.41808,21.6949 10.12429,49.8983 -12.29378,28.9265 -42.66666,28.9265 h -323.9774 q -18.80226,0 -32.54238,-13.7401 -13.74011,-13.7401 -13.74011,-32.5424 v -323.9774 q 0,-30.3728 28.92655,-42.6666 28.20339,-12.2938 49.89831,10.1243 L 523.57062,1152.7232 780.29379,896 523.57062,639.27684 419.43503,743.41243 q -13.74011,13.74011 -32.54237,13.74011 -8.67797,0 -17.35594,-3.61582 -28.92655,-12.29378 -28.92655,-42.66666 v -323.9774 q 0,-18.80226 13.74011,-32.54238 13.74012,-13.74011 32.54238,-13.74011 h 323.9774 q 30.37288,0 42.66666,28.92655 12.29379,28.20339 -10.12429,49.89831 L 639.27684,523.57062 896,780.29379 1152.7232,523.57062 1048.5876,419.43503 q -22.4181,-21.69492 -10.1243,-49.89831 12.2938,-28.92655 42.6666,-28.92655 h 323.9774 q 18.8023,0 32.5424,13.74011 13.7401,13.74012 13.7401,32.54238 v 323.9774 q 0,30.37288 -28.2034,42.66666 -9.4011,3.61582 -18.0791,3.61582 -18.8022,0 -32.5423,-13.74011 z"
     id="path4"
     style="fill:#444444;fill-opacity:1" />
</svg>
