<?xml version="1.0" encoding="UTF-8" standalone="no"?>
<svg
   xmlns:dc="http://purl.org/dc/elements/1.1/"
   xmlns:cc="http://creativecommons.org/ns#"
   xmlns:rdf="http://www.w3.org/1999/02/22-rdf-syntax-ns#"
   xmlns:svg="http://www.w3.org/2000/svg"
   xmlns="http://www.w3.org/2000/svg"
   xmlns:sodipodi="http://sodipodi.sourceforge.net/DTD/sodipodi-0.dtd"
   xmlns:inkscape="http://www.inkscape.org/namespaces/inkscape"
   width="17"
   height="17"
   viewBox="0 0 1792 1792"
   id="svg2"
   version="1.1"
   inkscape:version="0.48.4 r9939"
   sodipodi:docname="fa-home.svg">
  <metadata
     id="metadata10">
    <rdf:RDF>
      <cc:Work
         rdf:about="">
        <dc:format>image/svg+xml</dc:format>
        <dc:type
           rdf:resource="http://purl.org/dc/dcmitype/StillImage" />
      </cc:Work>
    </rdf:RDF>
  </metadata>
  <defs
     id="defs8" />
  <sodipodi:namedview
     pagecolor="#ffffff"
     bordercolor="#666666"
     borderopacity="1"
     objecttolerance="10"
     gridtolerance="10"
     guidetolerance="10"
     inkscape:pageopacity="0"
     inkscape:pageshadow="2"
     inkscape:window-width="753"
     inkscape:window-height="480"
     id="namedview6"
     showgrid="false"
     inkscape:zoom="0.13169643"
     inkscape:cx="896"
     inkscape:cy="896"
     inkscape:window-x="87"
     inkscape:window-y="34"
     inkscape:window-maximized="0"
     inkscape:current-layer="svg2" />
  <path
     d="m 1336.3582,969.0398 v 366.9652 q 0,19.8772 -14.5257,34.4029 -14.5257,14.5257 -34.403,14.5257 H 993.85737 V 1091.3615 H 798.14263 v 293.5721 H 504.5705 q -19.87728,0 -34.40298,-14.5257 -14.52571,-14.5257 -14.52571,-34.4029 V 969.0398 q 0,-0.76451 0.38226,-2.29354 0.38225,-1.52902 0.38225,-2.29353 L 896,602.07464 1335.5937,964.45273 q 0.7645,1.52902 0.7645,4.58707 z m 170.4859,-52.75124 -47.3997,56.57379 q -6.1161,6.8806 -16.0547,8.40962 h -2.2935 q -9.9387,0 -16.0548,-5.35158 L 896,534.7977 366.95857,975.92039 q -9.17413,6.11609 -18.34826,5.35158 -9.93864,-1.52902 -16.05473,-8.40962 l -47.39966,-56.57379 q -6.11609,-7.64511 -5.35158,-17.96601 0.76451,-10.32089 8.40962,-16.43698 L 837.89718,423.94364 Q 862.36153,404.06636 896,404.06636 q 33.63847,0 58.10282,19.87728 L 1140.6434,579.90383 V 430.82424 q 0,-10.70315 6.8806,-17.58375 6.8806,-6.8806 17.5838,-6.8806 h 146.786 q 10.7032,0 17.5838,6.8806 6.8806,6.8806 6.8806,17.58375 v 311.92038 l 167.4278,139.14095 q 7.6451,6.11609 8.4097,16.43698 0.7645,10.3209 -5.3516,17.96601 z"
     id="path4"
     inkscape:connector-curvature="0"
     style="fill:#444444;fill-opacity:1" />
</svg>
