<?xml version="1.0" encoding="UTF-8" standalone="no"?>
<svg
   xmlns:dc="http://purl.org/dc/elements/1.1/"
   xmlns:cc="http://creativecommons.org/ns#"
   xmlns:rdf="http://www.w3.org/1999/02/22-rdf-syntax-ns#"
   xmlns:svg="http://www.w3.org/2000/svg"
   xmlns="http://www.w3.org/2000/svg"
   xmlns:sodipodi="http://sodipodi.sourceforge.net/DTD/sodipodi-0.dtd"
   xmlns:inkscape="http://www.inkscape.org/namespaces/inkscape"
   width="17"
   height="17"
   viewBox="0 0 1792 1792"
   id="svg2"
   version="1.1"
   inkscape:version="0.48.4 r9939"
   sodipodi:docname="fa-navicon.svg">
  <metadata
     id="metadata10">
    <rdf:RDF>
      <cc:Work
         rdf:about="">
        <dc:format>image/svg+xml</dc:format>
        <dc:type
           rdf:resource="http://purl.org/dc/dcmitype/StillImage" />
      </cc:Work>
    </rdf:RDF>
  </metadata>
  <defs
     id="defs8" />
  <sodipodi:namedview
     pagecolor="#ffffff"
     bordercolor="#666666"
     borderopacity="1"
     objecttolerance="10"
     gridtolerance="10"
     guidetolerance="10"
     inkscape:pageopacity="0"
     inkscape:pageshadow="2"
     inkscape:window-width="753"
     inkscape:window-height="480"
     id="namedview6"
     showgrid="false"
     inkscape:zoom="0.13169643"
     inkscape:cx="896"
     inkscape:cy="896"
     inkscape:window-x="87"
     inkscape:window-y="34"
     inkscape:window-maximized="0"
     inkscape:current-layer="svg2" />
  <path
     d="m 1504.5424,1250.9831 v 101.4237 q 0,20.6017 -15.0551,35.6568 -15.0551,15.055 -35.6568,15.055 H 338.16949 q -20.60169,0 -35.65678,-15.055 -15.05508,-15.0551 -15.05508,-35.6568 v -101.4237 q 0,-20.6017 15.05508,-35.6568 15.05509,-15.0551 35.65678,-15.0551 H 1453.8305 q 20.6017,0 35.6568,15.0551 15.0551,15.0551 15.0551,35.6568 z m 0,-405.69496 v 101.42372 q 0,20.6017 -15.0551,35.65678 -15.0551,15.05509 -35.6568,15.05509 H 338.16949 q -20.60169,0 -35.65678,-15.05509 -15.05508,-15.05508 -15.05508,-35.65678 V 845.28814 q 0,-20.6017 15.05508,-35.65678 15.05509,-15.05509 35.65678,-15.05509 H 1453.8305 q 20.6017,0 35.6568,15.05509 15.0551,15.05508 15.0551,35.65678 z m 0,-405.69492 v 101.42373 q 0,20.60169 -15.0551,35.65678 -15.0551,15.05508 -35.6568,15.05508 H 338.16949 q -20.60169,0 -35.65678,-15.05508 -15.05508,-15.05509 -15.05508,-35.65678 V 439.59322 q 0,-20.60169 15.05508,-35.65678 15.05509,-15.05508 35.65678,-15.05508 H 1453.8305 q 20.6017,0 35.6568,15.05508 15.0551,15.05509 15.0551,35.65678 z"
     id="path4"
     inkscape:connector-curvature="0"
     style="fill:#444444;fill-opacity:1" />
</svg>
