<?xml version="1.0" encoding="iso-8859-1"?>
<!-- Generator: Adobe Illustrator 16.0.0, SVG Export Plug-In . SVG Version: 6.00 Build 0)  -->
<!DOCTYPE svg PUBLIC "-//W3C//DTD SVG 1.1//EN" "http://www.w3.org/Graphics/SVG/1.1/DTD/svg11.dtd">
<svg version="1.1" id="Capa_1" xmlns="http://www.w3.org/2000/svg" xmlns:xlink="http://www.w3.org/1999/xlink" x="0px" y="0px"
	 width="611.983px" height="611.983px" viewBox="0 0 611.983 611.983" style="enable-background:new 0 0 611.983 611.983;"
	 xml:space="preserve">
<g>
	<g id="_x31_0_12_">
		<g>
			<path d="M601.519,278.99L276.266,45.625c-21.56-11.565-46.259-14.303-46.278,30.233v101.576L46.271,45.625
				C24.71,34.041-0.602,33.696,0.011,77.045v458.421c0.613,39.156,26.5,44.823,46.279,32.033l183.717-131.828V536.06
				c0.019,37.969,26.519,44.229,46.278,31.439l325.253-233.365C615.132,324.312,615.803,288.793,601.519,278.99z M268.32,521.01
				c0-8.98,0-160.836,0-160.836L38.324,521.01V92.114L268.32,252.95c0,0,0-126.601,0-160.836L574.98,306.562L268.32,521.01z"/>
		</g>
	</g>
</g>
<g>
</g>
<g>
</g>
<g>
</g>
<g>
</g>
<g>
</g>
<g>
</g>
<g>
</g>
<g>
</g>
<g>
</g>
<g>
</g>
<g>
</g>
<g>
</g>
<g>
</g>
<g>
</g>
<g>
</g>
</svg>
