<?xml version="1.0" encoding="iso-8859-1"?>
<!-- Generator: Adobe Illustrator 16.0.0, SVG Export Plug-In . SVG Version: 6.00 Build 0)  -->
<!DOCTYPE svg PUBLIC "-//W3C//DTD SVG 1.1//EN" "http://www.w3.org/Graphics/SVG/1.1/DTD/svg11.dtd">
<svg version="1.1" id="Capa_1" xmlns="http://www.w3.org/2000/svg" xmlns:xlink="http://www.w3.org/1999/xlink" x="0px" y="0px"
	 width="765px" height="765px" viewBox="0 0 765 765" style="enable-background:new 0 0 765 765;" xml:space="preserve">
<g>
	<g id="_x34__13_">
		<g>
			<path d="M586.5,0h-408c-56.33,0-102,45.67-102,102v663c60.001,0,45.67,0,102,0h408c56.329,0,23.791,0,102,0V102
				C688.5,45.67,642.829,0,586.5,0z M178.5,714h-51v-51h51V714z M178.5,612h-51v-51h51V612z M178.5,510h-51v-51h51V510z M178.5,408
				h-51v-51h51V408z M178.5,306h-51v-51h51V306z M178.5,204h-51v-51h51V204z M535.5,688.5c0,14.076-11.424,25.5-25.5,25.5H255
				c-14.076,0-25.5-11.424-25.5-25.5v-255c0-14.076,11.424-25.5,25.5-25.5h255c14.076,0,25.5,11.424,25.5,25.5V688.5z M535.5,331.5
				c0,14.076-11.424,25.5-25.5,25.5H255c-14.076,0-25.5-11.424-25.5-25.5v-255c0-14.076,11.424-25.5,25.5-25.5h255
				c14.076,0,25.5,11.424,25.5,25.5V331.5z M637.5,714h-51v-51h51V714z M637.5,612h-51v-51h51V612z M637.5,510h-51v-51h51V510z
				 M637.5,408h-51v-51h51V408z M637.5,306h-51v-51h51V306z M637.5,204h-51v-51h51V204z"/>
		</g>
	</g>
</g>
<g>
</g>
<g>
</g>
<g>
</g>
<g>
</g>
<g>
</g>
<g>
</g>
<g>
</g>
<g>
</g>
<g>
</g>
<g>
</g>
<g>
</g>
<g>
</g>
<g>
</g>
<g>
</g>
<g>
</g>
</svg>
