<?xml version="1.0" encoding="iso-8859-1"?>
<!-- Generator: Adobe Illustrator 16.0.0, SVG Export Plug-In . SVG Version: 6.00 Build 0)  -->
<!DOCTYPE svg PUBLIC "-//W3C//DTD SVG 1.1//EN" "http://www.w3.org/Graphics/SVG/1.1/DTD/svg11.dtd">
<svg version="1.1" id="Capa_1" xmlns="http://www.w3.org/2000/svg" xmlns:xlink="http://www.w3.org/1999/xlink" x="0px" y="0px"
	 width="612px" height="612px" viewBox="0 0 612 612" style="enable-background:new 0 0 612 612;" xml:space="preserve">
<g>
	<g id="_x39__22_">
		<g>
			<path d="M325.125,554.625h-191.25c-10.557,0-19.125,8.568-19.125,19.125s8.568,19.125,19.125,19.125h191.25
				c10.557,0,19.125-8.568,19.125-19.125S335.682,554.625,325.125,554.625z M592.875,401.625H314.3
				c-5.011-21.592-8.3-43.835-8.3-66.938c0-131.542,85.757-242.907,204.331-281.654c-41.1-21.554-87.765-33.909-137.394-33.909
				C209.228,19.125,76.5,151.833,76.5,315.562c0,29.95,4.533,58.81,12.794,86.062H19.125C8.568,401.625,0,410.193,0,420.75
				s8.568,19.125,19.125,19.125h573.75c10.557,0,19.125-8.568,19.125-19.125S603.432,401.625,592.875,401.625z M133.875,401.625
				c-13.655-30.581-19.125-53.302-19.125-81.76c0-155.524,83.557-204.197,153-243.365c50.777-23.925,112.952-29.051,153-19.125
				C342.338,94.19,266.488,213.072,266.488,338.034c0,21.956,2.18,43.089,5.489,63.591H133.875z M363.375,478.125H95.625
				c-10.557,0-19.125,8.568-19.125,19.125s8.568,19.125,19.125,19.125h267.75c10.557,0,19.125-8.568,19.125-19.125
				C382.5,486.674,373.932,478.125,363.375,478.125z"/>
		</g>
	</g>
</g>
<g>
</g>
<g>
</g>
<g>
</g>
<g>
</g>
<g>
</g>
<g>
</g>
<g>
</g>
<g>
</g>
<g>
</g>
<g>
</g>
<g>
</g>
<g>
</g>
<g>
</g>
<g>
</g>
<g>
</g>
</svg>
