<?xml version="1.0" encoding="iso-8859-1"?>
<!-- Generator: Adobe Illustrator 16.0.0, SVG Export Plug-In . SVG Version: 6.00 Build 0)  -->
<!DOCTYPE svg PUBLIC "-//W3C//DTD SVG 1.1//EN" "http://www.w3.org/Graphics/SVG/1.1/DTD/svg11.dtd">
<svg version="1.1" id="Capa_1" xmlns="http://www.w3.org/2000/svg" xmlns:xlink="http://www.w3.org/1999/xlink" x="0px" y="0px"
	 width="612px" height="612px" viewBox="0 0 612 612" style="enable-background:new 0 0 612 612;" xml:space="preserve">
<g>
	<g id="_x34__10_">
		<g>
			<path d="M106.447,346.801c18.931-93.044,100.837-163.2,199.553-163.2s180.621,70.135,199.553,163.2h42.942
				c-15.688-115.077-118.137-204-242.495-204s-226.807,88.924-242.475,204H106.447z M61.2,192.046c7.976,7.977,20.89,7.977,28.845,0
				c7.977-7.976,7.977-20.889,0-28.845L61.2,134.355c-7.977-7.977-20.89-7.977-28.846,0s-7.977,20.89,0,28.846L61.2,192.046z
				 M550.8,192.046l28.846-28.845c7.977-7.977,7.977-20.89,0-28.846s-20.89-7.977-28.846,0l-28.846,28.846
				c-7.977,7.976-7.977,20.89,0,28.845C529.91,200.022,542.823,200.022,550.8,192.046z M306,102c11.261,0,20.4-9.139,20.4-20.4V40.8
				c0-11.261-9.14-20.4-20.4-20.4s-20.4,9.139-20.4,20.4v40.8C285.6,92.861,294.739,102,306,102z M591.6,387.6H20.4
				C9.139,387.6,0,396.74,0,408c0,11.262,9.139,20.4,20.4,20.4h571.2c11.261,0,20.4-9.139,20.4-20.4
				C612,396.74,602.86,387.6,591.6,387.6z M510,550.801H102c-11.261,0-20.4,9.139-20.4,20.4c0,11.26,9.139,20.398,20.4,20.398h408
				c11.261,0,20.4-9.139,20.4-20.398C530.4,559.939,521.261,550.801,510,550.801z M571.2,469.201H40.8
				c-11.261,0-20.4,9.139-20.4,20.398c0,11.262,9.139,20.4,20.4,20.4h530.4c11.261,0,20.399-9.139,20.399-20.4
				C591.6,478.34,582.461,469.201,571.2,469.201z"/>
		</g>
	</g>
</g>
<g>
</g>
<g>
</g>
<g>
</g>
<g>
</g>
<g>
</g>
<g>
</g>
<g>
</g>
<g>
</g>
<g>
</g>
<g>
</g>
<g>
</g>
<g>
</g>
<g>
</g>
<g>
</g>
<g>
</g>
</svg>
