<?xml version="1.0" encoding="iso-8859-1"?>
<!-- Generator: Adobe Illustrator 16.0.0, SVG Export Plug-In . SVG Version: 6.00 Build 0)  -->
<!DOCTYPE svg PUBLIC "-//W3C//DTD SVG 1.1//EN" "http://www.w3.org/Graphics/SVG/1.1/DTD/svg11.dtd">
<svg version="1.1" id="Capa_1" xmlns="http://www.w3.org/2000/svg" xmlns:xlink="http://www.w3.org/1999/xlink" x="0px" y="0px"
	 width="792px" height="792px" viewBox="0 0 792 792" style="enable-background:new 0 0 792 792;" xml:space="preserve">
<g>
	<g id="_x31__28_">
		<g>
			<path d="M495,0c-13.662,0-24.75,11.088-24.75,24.75V198c0,34.823-20.716,58.311-49.5,69.35V24.75C420.75,11.088,409.662,0,396,0
				s-24.75,11.088-24.75,24.75v242.6c-28.784-11.039-49.5-34.526-49.5-69.35V24.75C321.75,11.088,310.662,0,297,0
				s-24.75,11.088-24.75,24.75V198c0,59.87,42.521,109.791,99,121.275V767.25c0,13.662,11.088,24.75,24.75,24.75
				s24.75-11.088,24.75-24.75V319.275c56.479-11.459,99-61.405,99-121.275V24.75C519.75,11.088,508.662,0,495,0z"/>
		</g>
	</g>
</g>
<g>
</g>
<g>
</g>
<g>
</g>
<g>
</g>
<g>
</g>
<g>
</g>
<g>
</g>
<g>
</g>
<g>
</g>
<g>
</g>
<g>
</g>
<g>
</g>
<g>
</g>
<g>
</g>
<g>
</g>
</svg>
