<?xml version="1.0" encoding="UTF-8" standalone="no"?>
<!-- Generator: Adobe Illustrator 16.0.0, SVG Export Plug-In . SVG Version: 6.00 Build 0)  -->

<svg
   xmlns:dc="http://purl.org/dc/elements/1.1/"
   xmlns:cc="http://creativecommons.org/ns#"
   xmlns:rdf="http://www.w3.org/1999/02/22-rdf-syntax-ns#"
   xmlns:svg="http://www.w3.org/2000/svg"
   xmlns="http://www.w3.org/2000/svg"
   xmlns:sodipodi="http://sodipodi.sourceforge.net/DTD/sodipodi-0.dtd"
   xmlns:inkscape="http://www.inkscape.org/namespaces/inkscape"
   version="1.1"
   id="Capa_1"
   x="0px"
   y="0px"
   width="612px"
   height="612px"
   viewBox="0 0 612 612"
   style="enable-background:new 0 0 612 612;"
   xml:space="preserve"
   inkscape:version="0.48.4 r9939"
   sodipodi:docname="full-screen-interface-symbol-of-four-arrows-button.svg"><metadata
     id="metadata44"><rdf:RDF><cc:Work
         rdf:about=""><dc:format>image/svg+xml</dc:format><dc:type
           rdf:resource="http://purl.org/dc/dcmitype/StillImage" /><dc:title /></cc:Work></rdf:RDF></metadata><defs
     id="defs42" /><sodipodi:namedview
     pagecolor="#ffffff"
     bordercolor="#666666"
     borderopacity="1"
     objecttolerance="10"
     gridtolerance="10"
     guidetolerance="10"
     inkscape:pageopacity="0"
     inkscape:pageshadow="2"
     inkscape:window-width="784"
     inkscape:window-height="480"
     id="namedview40"
     showgrid="false"
     inkscape:zoom="0.38562092"
     inkscape:cx="215.23729"
     inkscape:cy="306"
     inkscape:window-x="490"
     inkscape:window-y="0"
     inkscape:window-maximized="0"
     inkscape:current-layer="_x32__4_" /><g
     id="g3"><g
       id="_x32__4_"><path
         inkscape:connector-curvature="0"
         id="path8"
         d="M 207.31253,360.36385 61.959987,505.7164 62.629654,427.68516 c 0,-16.79253 -13.62874,-30.42128 -30.421295,-30.42128 -16.792553,0 -30.4212915,13.62875 -30.4212915,30.42128 l 0,152.10647 c 0,9.00471 3.7109982,16.27402 9.6123315,21.29571 5.505262,5.62773 13.172223,9.1256 21.659961,9.1256 l 151.25548,0 c 16.79252,0 30.42128,-13.62874 30.42128,-30.42131 0,-16.79253 -13.62875,-30.42128 -30.42128,-30.42128 l -79.9782,0 145.99199,-145.99199 z M 184.31484,62.629654 c 16.79252,0 30.42128,-13.62874 30.42128,-30.421295 0,-16.792553 -13.62875,-30.4212915 -30.42128,-30.4212915 l -151.253889,0 c -8.487739,0 -16.1547,3.5296652 -21.659959,9.1255915 -5.9013339,5.02011 -9.6123346,12.290998 -9.6123346,21.2957 l 0,152.106481 c 0,16.79253 13.6287386,30.42128 30.4212936,30.42128 16.792554,0 30.419703,-13.62875 30.419703,-30.42128 L 61.959987,106.25339 207.31253,251.60593 250.32863,208.58983 104.36687,62.629654 z M 579.79163,397.26388 c -16.79254,0 -30.42128,13.62875 -30.42128,30.42128 l 0.66967,78.06145 -145.35414,-145.35412 -43.01451,43.0161 145.99038,145.96176 -79.97659,0 c -16.79253,0 -30.42128,13.62875 -30.42128,30.42128 0,16.79257 13.62875,30.42131 30.42128,30.42131 l 151.2555,0 c 8.51634,0 16.15308,-3.52966 21.65836,-9.1574 5.9029,-4.98989 9.61392,-12.2592 9.61392,-21.26391 l 0,-152.10647 c 0,-16.79253 -13.62874,-30.42128 -30.42131,-30.42128 z m -0.85097,-395.4768125 -151.2555,0 c -16.79253,0 -30.42128,13.6287385 -30.42128,30.4212915 0,16.792555 13.62875,30.421295 30.42128,30.421295 l 79.94797,0 -145.99199,145.991986 43.0161,43.0161 145.35255,-145.35253 -0.63944,78.02963 c 0,16.79252 13.62875,30.42128 30.42128,30.42128 16.79257,0 30.42131,-13.62875 30.42131,-30.42128 l 0,-152.106481 c 0,-9.004702 -3.74282,-16.27559 -9.61392,-21.2957 -5.50528,-5.5959263 -13.17066,-9.1255915 -21.65836,-9.1255915 z"
         sodipodi:nodetypes="cccssscsssscccsssscssscccccsscccccsssscssssssscccccssscs" /></g></g><g
     id="g10" /><g
     id="g12" /><g
     id="g14" /><g
     id="g16" /><g
     id="g18" /><g
     id="g20" /><g
     id="g22" /><g
     id="g24" /><g
     id="g26" /><g
     id="g28" /><g
     id="g30" /><g
     id="g32" /><g
     id="g34" /><g
     id="g36" /><g
     id="g38" /></svg>