<?xml version="1.0" encoding="iso-8859-1"?>
<!-- Generator: Adobe Illustrator 16.0.0, SVG Export Plug-In . SVG Version: 6.00 Build 0)  -->
<!DOCTYPE svg PUBLIC "-//W3C//DTD SVG 1.1//EN" "http://www.w3.org/Graphics/SVG/1.1/DTD/svg11.dtd">
<svg version="1.1" id="Capa_1" xmlns="http://www.w3.org/2000/svg" xmlns:xlink="http://www.w3.org/1999/xlink" x="0px" y="0px"
	 width="612px" height="612px" viewBox="0 0 612 612" style="enable-background:new 0 0 612 612;" xml:space="preserve">
<g>
	<g id="_x38__26_">
		<g>
			<path d="M306,382.5c10.557,0,19.125-8.568,19.125-19.125v-229.5c0-10.557-8.568-19.125-19.125-19.125
				c-10.557,0-19.125,8.568-19.125,19.125v229.5C286.875,373.932,295.443,382.5,306,382.5z M420.75,382.5
				c10.557,0,19.125-8.568,19.125-19.125V191.25c0-10.557-8.568-19.125-19.125-19.125s-19.125,8.568-19.125,19.125v172.125
				C401.625,373.932,410.193,382.5,420.75,382.5z M191.25,382.5c10.557,0,19.125-8.568,19.125-19.125v-76.5
				c0-10.557-8.568-19.125-19.125-19.125s-19.125,8.568-19.125,19.125v76.5C172.125,373.932,180.693,382.5,191.25,382.5z M0,0v38.25
				h38.25c0,31.04,0,363.375,0,363.375c0,45.326,31.441,76.5,76.5,76.5H229.5L153,612l57.604-0.249l76.271-133.626h38.25
				l76.271,133.626L459,612l-76.5-133.875h114.75c45.059,0,76.5-31.174,76.5-76.5c0,0,0-330.231,0-363.375H612V0H0z M535.5,401.625
				c0,23.505-15.186,38.25-38.25,38.25h-382.5c-23.065,0-38.25-14.745-38.25-38.25c0,0-0.287-339.354-0.287-363.566h459.574
				C535.787,76.634,535.5,401.625,535.5,401.625z"/>
		</g>
	</g>
</g>
<g>
</g>
<g>
</g>
<g>
</g>
<g>
</g>
<g>
</g>
<g>
</g>
<g>
</g>
<g>
</g>
<g>
</g>
<g>
</g>
<g>
</g>
<g>
</g>
<g>
</g>
<g>
</g>
<g>
</g>
</svg>
