<?xml version="1.0" encoding="UTF-8" standalone="no"?>
<!-- Generator: Adobe Illustrator 19.0.0, SVG Export Plug-In . SVG Version: 6.00 Build 0)  -->

<svg
   xmlns:dc="http://purl.org/dc/elements/1.1/"
   xmlns:cc="http://creativecommons.org/ns#"
   xmlns:rdf="http://www.w3.org/1999/02/22-rdf-syntax-ns#"
   xmlns:svg="http://www.w3.org/2000/svg"
   xmlns="http://www.w3.org/2000/svg"
   xmlns:sodipodi="http://sodipodi.sourceforge.net/DTD/sodipodi-0.dtd"
   xmlns:inkscape="http://www.inkscape.org/namespaces/inkscape"
   version="1.1"
   id="Capa_1"
   x="0px"
   y="0px"
   viewBox="0 0 26 26"
   xml:space="preserve"
   inkscape:version="0.48.4 r9939"
   width="100%"
   height="100%"
   sodipodi:docname="home.svg"><metadata
     id="metadata39"><rdf:RDF><cc:Work
         rdf:about=""><dc:format>image/svg+xml</dc:format><dc:type
           rdf:resource="http://purl.org/dc/dcmitype/StillImage" /></cc:Work></rdf:RDF></metadata><defs
     id="defs37"><marker
       inkscape:stockid="Arrow1Lstart"
       orient="auto"
       refY="0.0"
       refX="0.0"
       id="Arrow1Lstart"
       style="overflow:visible"><path
         id="path3808"
         d="M 0.0,0.0 L 5.0,-5.0 L -12.5,0.0 L 5.0,5.0 L 0.0,0.0 z "
         style="fill-rule:evenodd;stroke:#000000;stroke-width:1.0pt"
         transform="scale(0.8) translate(12.5,0)" /></marker></defs><sodipodi:namedview
     pagecolor="#ffffff"
     bordercolor="#666666"
     borderopacity="1"
     objecttolerance="10"
     gridtolerance="10"
     guidetolerance="10"
     inkscape:pageopacity="0"
     inkscape:pageshadow="2"
     inkscape:window-width="1301"
     inkscape:window-height="744"
     id="namedview35"
     showgrid="false"
     inkscape:zoom="86.20351"
     inkscape:cx="18.288322"
     inkscape:cy="14.272472"
     inkscape:window-x="65"
     inkscape:window-y="24"
     inkscape:window-maximized="1"
     inkscape:current-layer="Capa_1" /><path
     d="m 19.714076,12.860574 c -0.219729,0 -0.39794,0.178208 -0.39794,0.397938 l 0,7.089639 -4.270165,0 0,-4.450431 c 0,-0.219729 -0.178211,-0.397943 -0.397941,-0.397943 l -3.117198,0 c -0.219729,0 -0.39794,0.178214 -0.39794,0.397943 l 0,3.52887 c 0,0.21973 0.178211,0.397938 0.39794,0.397938 0.21973,0 0.39794,-0.178208 0.39794,-0.397938 l 0,-3.130931 2.321318,0 0,4.052492 -7.3874292,0 0,-9.740319 6.2267042,-4.9901048 6.375799,5.1095508 c 0.171513,0.13749 0.42195,0.109767 0.559372,-0.06168 0.137422,-0.171514 0.109832,-0.421882 -0.06168,-0.559372 L 16.84193,7.6050872 13.33821,4.7971737 c -0.145381,-0.1165936 -0.35231,-0.1165936 -0.49769,0 L 6.2158753,10.106228 c -0.094246,0.07554 -0.1490951,0.189685 -0.1490951,0.310525 l 0,10.329273 c 0,0.219725 0.1781449,0.397939 0.3979406,0.397939 l 13.2493552,0 c 0.219796,0 0.39794,-0.178214 0.39794,-0.397939 l 0,-7.487514 c 0,-0.219792 -0.178144,-0.397938 -0.39794,-0.397938 z"
     id="path3"
     inkscape:connector-curvature="0"
     style="stroke-width:0;stroke-miterlimit:4;stroke-dasharray:none;marker-start:none"
     sodipodi:nodetypes="ssccssssssscccccccccccccsssssss" /><g
     id="g5"
     transform="translate(0,-221.789)" /><g
     id="g7"
     transform="translate(0,-221.789)" /><g
     id="g9"
     transform="translate(0,-221.789)" /><g
     id="g11"
     transform="translate(0,-221.789)" /><g
     id="g13"
     transform="translate(0,-221.789)" /><g
     id="g15"
     transform="translate(0,-221.789)" /><g
     id="g17"
     transform="translate(0,-221.789)" /><g
     id="g19"
     transform="translate(0,-221.789)" /><g
     id="g21"
     transform="translate(0,-221.789)" /><g
     id="g23"
     transform="translate(0,-221.789)" /><g
     id="g25"
     transform="translate(0,-221.789)" /><g
     id="g27"
     transform="translate(0,-221.789)" /><g
     id="g29"
     transform="translate(0,-221.789)" /><g
     id="g31"
     transform="translate(0,-221.789)" /><g
     id="g33"
     transform="translate(0,-221.789)" /><path
     d="m 19.713734,12.175171 c -0.219729,0 -0.39794,0.178208 -0.39794,0.397938 l 0,7.089639 -4.270165,0 0,-4.450431 c 0,-0.219729 -0.178211,-0.397943 -0.397941,-0.397943 l -3.117198,0 c -0.219729,0 -0.39794,0.178214 -0.39794,0.397943 l 0,3.52887 c 0,0.21973 0.178211,0.397938 0.39794,0.397938 0.21973,0 0.39794,-0.178208 0.39794,-0.397938 l 0,-3.130931 2.321318,0 0,4.052492 -7.387429,0 0,-9.7403198 6.226704,-4.9901045 6.375799,5.1095503 c 0.171513,0.137491 0.42195,0.109768 0.559372,-0.06168 0.137422,-0.171514 0.109832,-0.4218817 -0.06168,-0.5593717 L 16.841588,6.9196837 13.337868,4.1117702 c -0.145381,-0.1165936 -0.35231,-0.1165936 -0.49769,0 L 6.2155335,9.4208245 c -0.094246,0.07554 -0.1490951,0.189685 -0.1490951,0.310525 l 0,10.3292735 c 0,0.219725 0.1781449,0.397939 0.3979406,0.397939 l 13.249355,0 c 0.219796,0 0.39794,-0.178214 0.39794,-0.397939 l 0,-7.487514 c 0,-0.219792 -0.178144,-0.397938 -0.39794,-0.397938 z"
     id="path3-0"
     inkscape:connector-curvature="0"
     style="stroke-width:0;stroke-miterlimit:4;stroke-dasharray:none;marker-start:none;"
     sodipodi:nodetypes="ssccssssssscccccccccccccsssssss" /><path
     d="m 20.142828,12.860608 c -0.219729,0 -0.39794,0.178208 -0.39794,0.397938 l 0,7.08964 -4.270165,0 0,-4.450431 c 0,-0.219729 -0.178211,-0.397943 -0.397941,-0.397943 l -3.117198,0 c -0.219729,0 -0.39794,0.178214 -0.39794,0.397943 l 0,3.52887 c 0,0.21973 0.178211,0.397938 0.39794,0.397938 0.21973,0 0.39794,-0.178208 0.39794,-0.397938 l 0,-3.130931 2.321318,0 0,4.052492 -7.3874295,0 0,-9.74032 6.2267045,-4.9901038 6.375799,5.1095498 c 0.171513,0.13749 0.42195,0.109767 0.559372,-0.06168 0.137422,-0.171514 0.109832,-0.421882 -0.06168,-0.559372 l -3.120926,-2.5011378 -3.50372,-2.807914 c -0.145381,-0.116594 -0.35231,-0.116594 -0.49769,0 L 6.644627,10.106262 c -0.094246,0.07554 -0.1490951,0.189685 -0.1490951,0.310525 l 0,10.329274 c 0,0.219725 0.1781449,0.397939 0.3979406,0.397939 l 13.2493555,0 c 0.219796,0 0.39794,-0.178214 0.39794,-0.397939 l 0,-7.487515 c 0,-0.219792 -0.178144,-0.397938 -0.39794,-0.397938 z"
     id="path3-2"
     inkscape:connector-curvature="0"
     style="stroke-width:0;stroke-miterlimit:4;stroke-dasharray:none;marker-start:none"
     sodipodi:nodetypes="ssccssssssscccccccccccccsssssss" /><path
     d="m 20.142828,12.175609 c -0.219729,0 -0.39794,0.178208 -0.39794,0.397938 l 0,7.089639 -4.270165,0 0,-4.450431 c 0,-0.219729 -0.178211,-0.397943 -0.397941,-0.397943 l -3.117198,0 c -0.219729,0 -0.39794,0.178214 -0.39794,0.397943 l 0,3.52887 c 0,0.21973 0.178211,0.397938 0.39794,0.397938 0.21973,0 0.39794,-0.178208 0.39794,-0.397938 l 0,-3.130931 2.321318,0 0,4.052492 -7.387429,0 0,-9.7403194 6.226704,-4.9901038 6.375799,5.1095502 c 0.171513,0.13749 0.42195,0.109767 0.559372,-0.06168 0.137422,-0.171514 0.109832,-0.421882 -0.06168,-0.559372 l -3.120926,-2.5011378 -3.50372,-2.807914 c -0.145381,-0.116594 -0.35231,-0.116594 -0.49769,0 L 6.6446271,9.4212626 c -0.094246,0.07554 -0.1490951,0.189685 -0.1490951,0.310525 l 0,10.3292734 c 0,0.219725 0.1781449,0.397939 0.3979406,0.397939 l 13.2493554,0 c 0.219796,0 0.39794,-0.178214 0.39794,-0.397939 l 0,-7.487514 c 0,-0.219792 -0.178144,-0.397938 -0.39794,-0.397938 z"
     id="path3-2-4"
     inkscape:connector-curvature="0"
     style="stroke-width:0;stroke-miterlimit:4;stroke-dasharray:none;marker-start:none"
     sodipodi:nodetypes="ssccssssssscccccccccccccsssssss" /><rect
     style="fill:#000000;fill-opacity:1;fill-rule:nonzero;stroke:#000000;stroke-width:0;stroke-miterlimit:4;stroke-opacity:1;stroke-dasharray:none"
     id="rect4537"
     width="0.45766574"
     height="0.64708734"
     x="19.654348"
     y="12.171618" /><rect
     style="fill:#000000;fill-opacity:1;fill-rule:nonzero;stroke:#000000;stroke-width:0;stroke-miterlimit:4;stroke-opacity:1;stroke-dasharray:none"
     id="rect4537-5"
     width="0.45766574"
     height="0.64708734"
     x="20.071964"
     y="9.7490311" /><rect
     style="fill:#000000;fill-opacity:1;fill-rule:nonzero;stroke:#000000;stroke-width:0;stroke-miterlimit:4;stroke-opacity:1;stroke-dasharray:none"
     id="rect4537-0"
     width="0.45766574"
     height="0.64708734"
     x="13.08849"
     y="4.0184054" /><rect
     style="fill:#000000;fill-opacity:1;fill-rule:nonzero;stroke:#000000;stroke-width:0;stroke-miterlimit:4;stroke-opacity:1;stroke-dasharray:none"
     id="rect4537-2"
     width="0.45766574"
     height="0.64708734"
     x="19.665949"
     y="10.155047" /></svg>