<?xml version="1.0" encoding="iso-8859-1"?>
<!-- Generator: Adobe Illustrator 16.0.0, SVG Export Plug-In . SVG Version: 6.00 Build 0)  -->
<!DOCTYPE svg PUBLIC "-//W3C//DTD SVG 1.1//EN" "http://www.w3.org/Graphics/SVG/1.1/DTD/svg11.dtd">
<svg version="1.1" id="Capa_1" xmlns="http://www.w3.org/2000/svg" xmlns:xlink="http://www.w3.org/1999/xlink" x="0px" y="0px"
	 width="612.015px" height="612.015px" viewBox="0 0 612.015 612.015" style="enable-background:new 0 0 612.015 612.015;"
	 xml:space="preserve">
<g>
	<g id="_x36__31_">
		<g>
			<path d="M575.365,0.256H318.919c-20.227,0-23.936,8.852-43.226,29.021L23.242,280.963c-30.989,30.875-30.989,80.963,0,111.858
				l196.359,195.767c30.99,30.895,81.213,30.895,112.202,0l252.471-251.686c16.25-16.212,27.74-24.261,27.74-44.449V36.79
				C611.995,16.602,595.592,0.256,575.365,0.256z M303.739,560.619c-15.485,15.447-40.606,15.447-56.11,0L51.288,364.853
				c-15.485-15.447-15.485-40.492,0-55.939l28.353-28.256l251.857,252.279L303.739,560.619z M575.365,274.195
				c0,10.094-9.272,24.892-19.156,34.737L359.85,504.699L107.687,252.688L303.739,57.246c9.005-8.985,23.362-20.456,33.476-20.456
				h219.816c10.113,0,18.315,8.183,18.315,18.258v219.147H575.365z M373.883,127.16c-30.99,30.895-30.99,80.964,0,111.858
				c30.989,30.895,81.212,30.895,112.202,0s30.99-80.964,0-111.858S404.854,96.266,373.883,127.16z M458.021,211.049
				c-15.486,15.447-40.606,15.447-56.111,0c-15.485-15.447-15.485-40.492,0-55.939s40.606-15.447,56.111,0
				C473.524,170.558,473.524,195.602,458.021,211.049z"/>
		</g>
	</g>
</g>
<g>
</g>
<g>
</g>
<g>
</g>
<g>
</g>
<g>
</g>
<g>
</g>
<g>
</g>
<g>
</g>
<g>
</g>
<g>
</g>
<g>
</g>
<g>
</g>
<g>
</g>
<g>
</g>
<g>
</g>
</svg>
