<?xml version="1.0" encoding="iso-8859-1"?>
<!-- Generator: Adobe Illustrator 16.0.0, SVG Export Plug-In . SVG Version: 6.00 Build 0)  -->
<!DOCTYPE svg PUBLIC "-//W3C//DTD SVG 1.1//EN" "http://www.w3.org/Graphics/SVG/1.1/DTD/svg11.dtd">
<svg version="1.1" id="Capa_1" xmlns="http://www.w3.org/2000/svg" xmlns:xlink="http://www.w3.org/1999/xlink" x="0px" y="0px"
	 width="612px" height="612px" viewBox="0 0 612 612" style="enable-background:new 0 0 612 612;" xml:space="preserve">
<g>
	<g id="_x33__7_">
		<g>
			<path d="M535.5,0h-459C34.253,0,0,34.253,0,76.5v459C0,577.747,34.253,612,76.5,612h459c42.247,0,76.5-34.253,76.5-76.5v-459
				C612,34.253,577.747,0,535.5,0z M573.75,535.5c0,21.114-17.117,38.25-38.25,38.25h-459c-21.133,0-38.25-17.136-38.25-38.25v-459
				c0-21.114,17.117-38.25,38.25-38.25h459c21.133,0,38.25,17.136,38.25,38.25V535.5z M414.726,120.755
				c-7.555-7.516-19.775-7.516-27.33,0L215.807,291.733c-4.036,4.016-5.738,9.333-5.47,14.574
				c-0.268,5.239,1.453,10.557,5.47,14.572l171.589,170.978c7.555,7.517,19.775,7.517,27.33,0c7.555-7.516,7.555-19.698,0-27.215
				l-158.91-158.335l158.91-158.336C422.261,140.454,422.261,128.271,414.726,120.755z"/>
		</g>
	</g>
</g>
<g>
</g>
<g>
</g>
<g>
</g>
<g>
</g>
<g>
</g>
<g>
</g>
<g>
</g>
<g>
</g>
<g>
</g>
<g>
</g>
<g>
</g>
<g>
</g>
<g>
</g>
<g>
</g>
<g>
</g>
</svg>
