<?xml version="1.0" encoding="iso-8859-1"?>
<!-- Generator: Adobe Illustrator 16.0.0, SVG Export Plug-In . SVG Version: 6.00 Build 0)  -->
<!DOCTYPE svg PUBLIC "-//W3C//DTD SVG 1.1//EN" "http://www.w3.org/Graphics/SVG/1.1/DTD/svg11.dtd">
<svg version="1.1" id="Capa_1" xmlns="http://www.w3.org/2000/svg" xmlns:xlink="http://www.w3.org/1999/xlink" x="0px" y="0px"
	 width="612px" height="612px" viewBox="0 0 612 612" style="enable-background:new 0 0 612 612;" xml:space="preserve">
<g>
	<g id="_x32__30_">
		<g>
			<path d="M136.446,560.336c-15.611,15.611-40.904,15.611-56.515,0l-28.257-28.257c-15.61-15.611-15.61-40.904,0-56.515
				L241.65,285.587c-26.618-7.035-56.08-0.455-76.947,20.413L23.416,447.287c-31.221,31.222-31.221,81.828,0,113.029l28.257,28.258
				c31.222,31.221,81.828,31.221,113.03,0L305.99,447.287c20.867-20.867,27.447-50.33,20.412-76.947L136.446,560.336z
				 M588.584,51.683l-28.258-28.257c-31.221-31.221-81.827-31.221-113.029,0L306.01,164.713
				c-20.867,20.867-27.447,50.33-20.413,76.927L475.574,51.664c15.61-15.611,40.904-15.611,56.515,0l28.258,28.257
				c15.61,15.611,15.61,40.904,0,56.515L370.369,326.412c26.618,7.035,56.08,0.455,76.928-20.412l141.287-141.287
				C619.806,133.511,619.806,82.885,588.584,51.683z M369.579,242.747c-7.806-7.805-20.452-7.805-28.258,0l-98.9,98.901
				c-7.806,7.806-7.806,20.452,0,28.258c7.805,7.806,20.452,7.806,28.257,0l98.901-98.901
				C377.385,263.199,377.385,250.532,369.579,242.747z"/>
		</g>
	</g>
</g>
<g>
</g>
<g>
</g>
<g>
</g>
<g>
</g>
<g>
</g>
<g>
</g>
<g>
</g>
<g>
</g>
<g>
</g>
<g>
</g>
<g>
</g>
<g>
</g>
<g>
</g>
<g>
</g>
<g>
</g>
</svg>
