<?xml version="1.0" encoding="iso-8859-1"?>
<!-- Generator: Adobe Illustrator 16.0.0, SVG Export Plug-In . SVG Version: 6.00 Build 0)  -->
<!DOCTYPE svg PUBLIC "-//W3C//DTD SVG 1.1//EN" "http://www.w3.org/Graphics/SVG/1.1/DTD/svg11.dtd">
<svg version="1.1" id="Capa_1" xmlns="http://www.w3.org/2000/svg" xmlns:xlink="http://www.w3.org/1999/xlink" x="0px" y="0px"
	 width="612px" height="612px" viewBox="0 0 612 612" style="enable-background:new 0 0 612 612;" xml:space="preserve">
<g>
	<g id="_x33__17_">
		<g>
			<path d="M573.75,19.125l-172.125,114.75H153c-84.494,0-153,49.381-153,133.875c0,71.394,48.616,121.233,114.75,133.875
				c0.861,5.164,0,153,0,153c0,21.133,17.117,38.25,38.25,38.25h57.375c21.133,0,38.25-17.136,38.25-38.25v-153h153l172.125,114.75
				c21.133,0,38.25-17.117,38.25-38.25V57.375C612,36.261,594.883,19.125,573.75,19.125z M210.375,535.5
				c0,10.557-8.568,19.125-19.125,19.125h-19.125c-10.557,0-19.125-8.568-19.125-19.125V401.625c0,0,47.812,0,57.375,0V535.5z
				 M306,363.375H153c-38.021,0-114.75-11.131-114.75-95.625s75.467-96.887,114.75-95.625h153V363.375z M401.625,363.375H344.25
				v-191.25h57.375C401.625,172.125,401.625,342.567,401.625,363.375z M573.75,478.125L439.875,382.5V153L573.75,57.375V478.125z"/>
		</g>
	</g>
</g>
<g>
</g>
<g>
</g>
<g>
</g>
<g>
</g>
<g>
</g>
<g>
</g>
<g>
</g>
<g>
</g>
<g>
</g>
<g>
</g>
<g>
</g>
<g>
</g>
<g>
</g>
<g>
</g>
<g>
</g>
</svg>
