<?xml version="1.0" encoding="iso-8859-1"?>
<!-- Generator: Adobe Illustrator 16.0.0, SVG Export Plug-In . SVG Version: 6.00 Build 0)  -->
<!DOCTYPE svg PUBLIC "-//W3C//DTD SVG 1.1//EN" "http://www.w3.org/Graphics/SVG/1.1/DTD/svg11.dtd">
<svg version="1.1" id="Capa_1" xmlns="http://www.w3.org/2000/svg" xmlns:xlink="http://www.w3.org/1999/xlink" x="0px" y="0px"
	 width="631.742px" height="631.742px" viewBox="0 0 631.742 631.742" style="enable-background:new 0 0 631.742 631.742;"
	 xml:space="preserve">
<g>
	<g id="_x31_0_39_">
		<g>
			<path d="M542.903,0H88.839C45.229,0,9.871,35.358,9.871,78.968v355.354c0,43.61,35.358,78.968,78.968,78.968h157.936v78.968
				h-39.484c-10.897,0-19.742,8.845-19.742,19.742s8.845,19.742,19.742,19.742h236.903c10.897,0,19.742-8.845,19.742-19.742
				s-8.845-19.742-19.742-19.742H404.71V513.29h138.193c43.61,0,78.968-35.357,78.968-78.968V78.968
				C621.871,35.358,586.514,0,542.903,0z M365.226,592.258h-78.967V513.29h78.967V592.258z M582.387,434.322
				c0,21.815-17.669,39.484-39.483,39.484H88.839c-21.815,0-39.484-17.669-39.484-39.484v-39.483h533.032V434.322z M582.387,355.355
				H49.355V78.968c0-21.815,17.669-39.484,39.484-39.484h454.064c21.814,0,39.483,17.689,39.483,39.484V355.355z"/>
		</g>
	</g>
</g>
<g>
</g>
<g>
</g>
<g>
</g>
<g>
</g>
<g>
</g>
<g>
</g>
<g>
</g>
<g>
</g>
<g>
</g>
<g>
</g>
<g>
</g>
<g>
</g>
<g>
</g>
<g>
</g>
<g>
</g>
</svg>
