<?xml version="1.0" encoding="iso-8859-1"?>
<!-- Generator: Adobe Illustrator 16.0.0, SVG Export Plug-In . SVG Version: 6.00 Build 0)  -->
<!DOCTYPE svg PUBLIC "-//W3C//DTD SVG 1.1//EN" "http://www.w3.org/Graphics/SVG/1.1/DTD/svg11.dtd">
<svg version="1.1" id="Capa_1" xmlns="http://www.w3.org/2000/svg" xmlns:xlink="http://www.w3.org/1999/xlink" x="0px" y="0px"
	 width="791.983px" height="791.983px" viewBox="0 0 791.983 791.983" style="enable-background:new 0 0 791.983 791.983;"
	 xml:space="preserve">
<g>
	<g id="_x38__11_">
		<g>
			<path d="M671.423,174.441L504.127,7.145c-9.826-9.801-25.207-9.248-35.535,0c-7.464,6.685-5.579,18.773-5.579,32.494l0,0l0,0
				v435.443c-55.74-41.34-147.795-41.391-229.294,5.654C132.391,539.241,85.823,648.259,129.702,724.255
				c43.879,75.996,161.592,90.17,262.92,31.665c78.71-45.437,124.749-121.307,120.678-188.557V89.172l122.614,120.804
				c9.826,9.826,25.733,9.826,35.535,0C681.25,200.175,681.25,184.268,671.423,174.441z M377.09,713.977
				c-74.136,46.266-165.009,43.929-200.921-9.299c-35.913-53.227-3.292-137.164,70.844-183.455
				c74.136-46.267,167.472-41.466,203.384,11.761C486.334,586.211,451.226,667.711,377.09,713.977z"/>
		</g>
	</g>
</g>
<g>
</g>
<g>
</g>
<g>
</g>
<g>
</g>
<g>
</g>
<g>
</g>
<g>
</g>
<g>
</g>
<g>
</g>
<g>
</g>
<g>
</g>
<g>
</g>
<g>
</g>
<g>
</g>
<g>
</g>
</svg>
