<?xml version="1.0" encoding="iso-8859-1"?>
<!-- Generator: Adobe Illustrator 16.0.0, SVG Export Plug-In . SVG Version: 6.00 Build 0)  -->
<!DOCTYPE svg PUBLIC "-//W3C//DTD SVG 1.1//EN" "http://www.w3.org/Graphics/SVG/1.1/DTD/svg11.dtd">
<svg version="1.1" id="Capa_1" xmlns="http://www.w3.org/2000/svg" xmlns:xlink="http://www.w3.org/1999/xlink" x="0px" y="0px"
	 width="705.797px" height="705.798px" viewBox="0 0 705.797 705.798" style="enable-background:new 0 0 705.797 705.798;"
	 xml:space="preserve">
<g>
	<g id="_x32__36_">
		<g>
			<path d="M635.361,0c-12.993,0-23.539,10.545-23.539,23.539v385.348c-52.161-39.145-138.147-39.969-214.765,4.261
				c-94.907,54.797-136.994,156.036-97.426,228.087c41.098,74.853,151.353,84.456,246.26,29.659
				c72.875-42.063,115.314-112.02,112.584-174.468c0.07-0.706,0.424-1.365,0.424-2.118V23.539C658.899,10.545,648.354,0,635.361,0z
				 M529.979,632.525c-70.074,42.299-157.049,41.051-189.932-9.298s0.753-130.732,70.828-173.031
				c70.073-42.299,160.155-40.533,193.039,9.792C636.796,510.361,600.053,590.25,529.979,632.525z M70.438,70.615h423.692
				c12.993,0,23.539-10.545,23.539-23.539c0-12.993-10.546-23.538-23.539-23.538H70.438c-12.993,0-23.539,10.545-23.539,23.538
				C46.899,60.07,57.444,70.615,70.438,70.615z M70.438,211.846h423.692c12.993,0,23.539-10.545,23.539-23.539
				s-10.546-23.539-23.539-23.539H70.438c-12.993,0-23.539,10.545-23.539,23.539S57.444,211.846,70.438,211.846z M211.668,447.23
				H70.438c-12.993,0-23.539,10.546-23.539,23.539s10.545,23.538,23.539,23.538h141.23c12.994,0,23.539-10.545,23.539-23.538
				S224.662,447.23,211.668,447.23z M70.438,353.076H329.36c12.993,0,23.539-10.544,23.539-23.538
				c0-12.994-10.545-23.539-23.539-23.539H70.438c-12.993,0-23.539,10.545-23.539,23.539
				C46.899,342.532,57.444,353.076,70.438,353.076z"/>
		</g>
	</g>
</g>
<g>
</g>
<g>
</g>
<g>
</g>
<g>
</g>
<g>
</g>
<g>
</g>
<g>
</g>
<g>
</g>
<g>
</g>
<g>
</g>
<g>
</g>
<g>
</g>
<g>
</g>
<g>
</g>
<g>
</g>
</svg>
