<?xml version="1.0" encoding="iso-8859-1"?>
<!-- Generator: Adobe Illustrator 16.0.0, SVG Export Plug-In . SVG Version: 6.00 Build 0)  -->
<!DOCTYPE svg PUBLIC "-//W3C//DTD SVG 1.1//EN" "http://www.w3.org/Graphics/SVG/1.1/DTD/svg11.dtd">
<svg version="1.1" id="Capa_1" xmlns="http://www.w3.org/2000/svg" xmlns:xlink="http://www.w3.org/1999/xlink" x="0px" y="0px"
	 width="612.006px" height="612.005px" viewBox="0 0 612.006 612.005" style="enable-background:new 0 0 612.006 612.005;"
	 xml:space="preserve">
<g>
	<g id="_x31_0_36_">
		<g>
			<path d="M592.889,19.242c-2.887,0-5.563,0.746-8.01,1.893L267.896,95.71c-10.553,0-19.117,8.564-19.117,19.117v267.68
				c-40.165-26.115-104.705-26.076-162.305,4.549C13.79,425.712-19.627,497.785,11.84,548.005s115.927,59.588,188.611,20.934
				c46.856-24.91,79.203-72.129,86.562-110.002c0-4.951,0-329.485,0-329.485l286.758-67.464v244.069
				c-40.165-26.114-104.705-26.095-162.306,4.55c-72.684,38.674-106.1,110.727-74.634,160.949
				c31.468,50.221,119.196,62.016,192.186,23.914c54.618-28.504,78.61-72.721,82.988-112.982c0-6.748,0-344.11,0-344.11
				C612.006,27.787,603.461,19.242,592.889,19.242z M191.427,535.408c-55.344,30.031-118.508,30.625-145.157-2.41
				c-26.63-33.053-3.25-83.963,52.229-113.729c55.478-29.766,104.208-28.637,137.013-4.377
				C271.452,441.484,238.551,509.828,191.427,535.408z M519.325,462.533c-54.732,30.586-121.738,26.113-148.024-6.959
				c-26.286-33.092-2.657-83.619,52.821-112.869c55.459-29.248,106.139-30.434,136.439-3.383
				C593.176,368.417,565.226,436.896,519.325,462.533z"/>
		</g>
	</g>
</g>
<g>
</g>
<g>
</g>
<g>
</g>
<g>
</g>
<g>
</g>
<g>
</g>
<g>
</g>
<g>
</g>
<g>
</g>
<g>
</g>
<g>
</g>
<g>
</g>
<g>
</g>
<g>
</g>
<g>
</g>
</svg>
