<?xml version="1.0" encoding="iso-8859-1"?>
<!-- Generator: Adobe Illustrator 16.0.0, SVG Export Plug-In . SVG Version: 6.00 Build 0)  -->
<!DOCTYPE svg PUBLIC "-//W3C//DTD SVG 1.1//EN" "http://www.w3.org/Graphics/SVG/1.1/DTD/svg11.dtd">
<svg version="1.1" id="Capa_1" xmlns="http://www.w3.org/2000/svg" xmlns:xlink="http://www.w3.org/1999/xlink" x="0px" y="0px"
	 width="782.609px" height="782.609px" viewBox="0 0 782.609 782.609" style="enable-background:new 0 0 782.609 782.609;"
	 xml:space="preserve">
<g>
	<g id="_x32__42_">
		<g>
			<path d="M184.525,468.221c-0.293-1.223-0.88-2.324-1.149-3.547h-48.913c2.69,14.576,6.627,28.736,11.69,42.383L184.525,468.221z
				 M281.202,171.196c0-67.525,54.758-122.283,122.283-122.283c53.168,0,97.948,34.141,114.799,81.538l36.782-37.223
				C526.623,38.103,469.786,0,403.484,0c-94.549,0-171.196,76.646-171.196,171.196v244.566c0,1.271,48.913-45.392,48.913-45.392
				V171.196z M662.16,73.663L85.305,625.988l34.924,34.461l577.076-552.058L662.16,73.663z M403.484,635.869
				c-47.421,0-92.055-15.578-129.229-41.111l-34.386,34.803c39.962,29.615,87.627,49.475,139.157,54.121v50.014h-24.457
				c-13.5,0-24.457,10.957-24.457,24.457s10.957,24.457,24.457,24.457h97.827c13.5,0,24.456-10.957,24.456-24.457
				s-10.956-24.457-24.456-24.457H427.94v-50.014c120.742-10.883,222.97-101.641,244.565-219.008h-48.913
				C601.337,562.646,508.207,635.869,403.484,635.869z M403.484,538.043c-21.155,0-40.72-5.844-58.084-15.309l-35.633,36.072
				c26.951,17.682,59.087,28.15,93.718,28.15c94.549,0,171.195-76.646,171.195-171.195V290.714l-48.913,49.5v75.547
				C525.767,483.285,471.009,538.043,403.484,538.043z"/>
		</g>
	</g>
</g>
<g>
</g>
<g>
</g>
<g>
</g>
<g>
</g>
<g>
</g>
<g>
</g>
<g>
</g>
<g>
</g>
<g>
</g>
<g>
</g>
<g>
</g>
<g>
</g>
<g>
</g>
<g>
</g>
<g>
</g>
</svg>
