<?xml version="1.0" encoding="iso-8859-1"?>
<!-- Generator: Adobe Illustrator 16.0.0, SVG Export Plug-In . SVG Version: 6.00 Build 0)  -->
<!DOCTYPE svg PUBLIC "-//W3C//DTD SVG 1.1//EN" "http://www.w3.org/Graphics/SVG/1.1/DTD/svg11.dtd">
<svg version="1.1" id="Capa_1" xmlns="http://www.w3.org/2000/svg" xmlns:xlink="http://www.w3.org/1999/xlink" x="0px" y="0px"
	 width="612px" height="612px" viewBox="0 0 612 612" style="enable-background:new 0 0 612 612;" xml:space="preserve">
<g>
	<g id="_x37__16_">
		<g>
			<path d="M286.875,535.5h38.25v-38.25h-38.25V535.5z M306,76.5c-10.557,0-19.125,8.568-19.125,19.125v191.709h-153
				c-10.557,0-19.125,8.568-19.125,19.125c0,10.557,8.568,19.125,19.125,19.125H306c10.557,0,19.125-8.568,19.125-19.125V95.625
				C325.125,85.068,316.557,76.5,306,76.5z M128.769,436.662l26.469,26.526l26.469-26.526l-26.469-26.526L128.769,436.662z
				 M185.378,159.177l-27.062-27.042l-27.043,27.042l27.043,27.043L185.378,159.177z M422.203,158.221l26.47,26.526l26.469-26.526
				l-26.469-26.526L422.203,158.221z M416.6,435.629l27.043,27.043l27.043-27.043l-27.043-27.042L416.6,435.629z M497.25,286.875
				v38.25h38.25v-38.25H497.25z M306,0C136.992,0,0,137.012,0,306c0,169.008,136.992,306,306,306s306-137.012,306-306
				S475.008,0,306,0z M306,573.75C158.125,573.75,38.25,453.875,38.25,306C38.25,158.125,158.125,38.25,306,38.25
				c147.875,0,267.75,119.875,267.75,267.75C573.75,453.875,453.875,573.75,306,573.75z"/>
		</g>
	</g>
</g>
<g>
</g>
<g>
</g>
<g>
</g>
<g>
</g>
<g>
</g>
<g>
</g>
<g>
</g>
<g>
</g>
<g>
</g>
<g>
</g>
<g>
</g>
<g>
</g>
<g>
</g>
<g>
</g>
<g>
</g>
</svg>
