<?xml version="1.0" encoding="iso-8859-1"?>
<!-- Generator: Adobe Illustrator 16.0.0, SVG Export Plug-In . SVG Version: 6.00 Build 0)  -->
<!DOCTYPE svg PUBLIC "-//W3C//DTD SVG 1.1//EN" "http://www.w3.org/Graphics/SVG/1.1/DTD/svg11.dtd">
<svg version="1.1" id="Capa_1" xmlns="http://www.w3.org/2000/svg" xmlns:xlink="http://www.w3.org/1999/xlink" x="0px" y="0px"
	 width="792px" height="792px" viewBox="0 0 792 792" style="enable-background:new 0 0 792 792;" xml:space="preserve">
<g>
	<g id="_x34__21_">
		<g>
			<path d="M544.5,544.5h-297c-13.662,0-24.75,11.088-24.75,24.75S233.838,594,247.5,594h297c13.662,0,24.75-11.088,24.75-24.75
				S558.162,544.5,544.5,544.5z M544.5,396h-297c-13.662,0-24.75,11.088-24.75,24.75s11.088,24.75,24.75,24.75h297
				c13.662,0,24.75-11.088,24.75-24.75S558.162,396,544.5,396z M544.5,247.5h-297c-13.662,0-24.75,11.088-24.75,24.75
				S233.838,297,247.5,297h297c13.662,0,24.75-11.088,24.75-24.75S558.162,247.5,544.5,247.5z M569.25,49.5V0h-49.5v49.5h-99V0
				h-49.5v49.5h-99V0h-49.5v49.5c-54.673,0-99,44.327-99,99V693c0,54.673,44.327,99,99,99h346.5c54.673,0,99-44.327,99-99V148.5
				C668.25,93.827,623.923,49.5,569.25,49.5z M618.75,693c0,27.324-22.151,49.5-49.5,49.5h-346.5c-27.349,0-49.5-22.176-49.5-49.5
				V148.5c0-27.349,22.151-49.5,49.5-49.5h346.5c27.349,0,49.5,22.176,49.5,49.5V693z"/>
		</g>
	</g>
</g>
<g>
</g>
<g>
</g>
<g>
</g>
<g>
</g>
<g>
</g>
<g>
</g>
<g>
</g>
<g>
</g>
<g>
</g>
<g>
</g>
<g>
</g>
<g>
</g>
<g>
</g>
<g>
</g>
<g>
</g>
</svg>
