<?xml version="1.0" encoding="iso-8859-1"?>
<!-- Generator: Adobe Illustrator 16.0.0, SVG Export Plug-In . SVG Version: 6.00 Build 0)  -->
<!DOCTYPE svg PUBLIC "-//W3C//DTD SVG 1.1//EN" "http://www.w3.org/Graphics/SVG/1.1/DTD/svg11.dtd">
<svg version="1.1" id="Capa_1" xmlns="http://www.w3.org/2000/svg" xmlns:xlink="http://www.w3.org/1999/xlink" x="0px" y="0px"
	 width="612px" height="612px" viewBox="0 0 612 612" style="enable-background:new 0 0 612 612;" xml:space="preserve">
<g>
	<g id="_x39__18_">
		<g>
			<path d="M306,0L0,172.125C0,215.749,0,535.5,0,535.5C0,577.747,34.253,612,76.5,612h459c42.247,0,76.5-34.253,76.5-76.5
				c0,0,0-321.529,0-363.375L306,0z M38.25,535.5V236.672l173.387,138.331l-171.57,171.57C38.996,543.035,38.25,539.383,38.25,535.5
				z M67.989,572.717l175.702-175.682L306,439.875l62.31-42.84l175.701,175.682C541.257,573.349,70.743,573.349,67.989,572.717z
				 M573.75,535.5c0,3.883-0.746,7.535-1.816,11.073l-171.57-171.57L573.75,236.672V535.5z M306,395.046L38.25,191.25
				L305.618,44.581L573.75,191.25L306,395.046z"/>
		</g>
	</g>
</g>
<g>
</g>
<g>
</g>
<g>
</g>
<g>
</g>
<g>
</g>
<g>
</g>
<g>
</g>
<g>
</g>
<g>
</g>
<g>
</g>
<g>
</g>
<g>
</g>
<g>
</g>
<g>
</g>
<g>
</g>
</svg>
