<?xml version="1.0" encoding="iso-8859-1"?>
<!-- Generator: Adobe Illustrator 16.0.0, SVG Export Plug-In . SVG Version: 6.00 Build 0)  -->
<!DOCTYPE svg PUBLIC "-//W3C//DTD SVG 1.1//EN" "http://www.w3.org/Graphics/SVG/1.1/DTD/svg11.dtd">
<svg version="1.1" id="Capa_1" xmlns="http://www.w3.org/2000/svg" xmlns:xlink="http://www.w3.org/1999/xlink" x="0px" y="0px"
	 width="792px" height="792px" viewBox="0 0 792 792" style="enable-background:new 0 0 792 792;" xml:space="preserve">
<g>
	<g id="_x38__6_">
		<g>
			<path d="M282.856,0H169.714c-31.228,0-56.571,25.344-56.571,56.571v678.857c0,31.228,25.344,56.571,56.571,56.571h113.143
				c31.256,0,56.572-25.315,56.572-56.571V56.571C339.428,25.344,314.112,0,282.856,0z M282.856,707.143
				c0,15.614-12.672,28.286-28.286,28.286H198c-15.614,0-28.286-12.672-28.286-28.286V84.857c0-15.614,12.672-28.286,28.286-28.286
				h56.571c15.614,0,28.286,12.672,28.286,28.286V707.143z M622.285,0H509.143c-31.256,0-56.572,25.344-56.572,56.571v678.857
				c0,31.228,25.316,56.571,56.572,56.571h113.143c31.256,0,56.572-25.315,56.572-56.571V56.571C678.857,25.344,653.541,0,622.285,0
				z M622.285,707.143c0,15.614-12.672,28.286-28.285,28.286h-56.572c-15.613,0-28.285-12.672-28.285-28.286V84.857
				c0-15.614,12.672-28.286,28.285-28.286H594c15.613,0,28.285,12.672,28.285,28.286V707.143z"/>
		</g>
	</g>
</g>
<g>
</g>
<g>
</g>
<g>
</g>
<g>
</g>
<g>
</g>
<g>
</g>
<g>
</g>
<g>
</g>
<g>
</g>
<g>
</g>
<g>
</g>
<g>
</g>
<g>
</g>
<g>
</g>
<g>
</g>
</svg>
