<?xml version="1.0" encoding="iso-8859-1"?>
<!-- Generator: Adobe Illustrator 16.0.0, SVG Export Plug-In . SVG Version: 6.00 Build 0)  -->
<!DOCTYPE svg PUBLIC "-//W3C//DTD SVG 1.1//EN" "http://www.w3.org/Graphics/SVG/1.1/DTD/svg11.dtd">
<svg version="1.1" id="Capa_1" xmlns="http://www.w3.org/2000/svg" xmlns:xlink="http://www.w3.org/1999/xlink" x="0px" y="0px"
	 width="792.006px" height="792.006px" viewBox="0 0 792.006 792.006" style="enable-background:new 0 0 792.006 792.006;"
	 xml:space="preserve">
<g>
	<g id="_x31_0_42_">
		<g>
			<path d="M519.857,49.542C519.857,19.296,500.288,0,470.315,0H321.69c-29.973,0-49.542,19.296-49.542,49.542v550.235
				l99.083,174.933c14.962,23.062,34.581,23.062,49.542,0l99.084-174.933V49.542z M396.003,724.723L321.69,594.502h148.625
				L396.003,724.723z M470.315,544.96c-50.879-0.024-134.208,0-148.625,0V222.938h148.625V544.96z M470.315,173.396H321.69V74.312
				c-0.768-24.498,0.495-25.563,24.771-24.771h99.084c24.3,0.173,24.87-0.817,24.771,24.771V173.396z"/>
		</g>
	</g>
</g>
<g>
</g>
<g>
</g>
<g>
</g>
<g>
</g>
<g>
</g>
<g>
</g>
<g>
</g>
<g>
</g>
<g>
</g>
<g>
</g>
<g>
</g>
<g>
</g>
<g>
</g>
<g>
</g>
<g>
</g>
</svg>
