<?xml version="1.0" encoding="iso-8859-1"?>
<!-- Generator: Adobe Illustrator 16.0.0, SVG Export Plug-In . SVG Version: 6.00 Build 0)  -->
<!DOCTYPE svg PUBLIC "-//W3C//DTD SVG 1.1//EN" "http://www.w3.org/Graphics/SVG/1.1/DTD/svg11.dtd">
<svg version="1.1" id="Capa_1" xmlns="http://www.w3.org/2000/svg" xmlns:xlink="http://www.w3.org/1999/xlink" x="0px" y="0px"
	 width="612px" height="612px" viewBox="0 0 612 612" style="enable-background:new 0 0 612 612;" xml:space="preserve">
<g>
	<g id="_x31__19_">
		<g>
			<path d="M535.5,325.125h-38.25V114.75c0-42.247-34.253-76.5-76.5-76.5h-229.5c-42.247,0-76.5,34.253-76.5,76.5
				c0,0,0,197.925,0,210.375H76.5c-42.247,0-76.5,34.253-76.5,76.5v38.25c0,42.247,34.253,76.5,76.5,76.5h40.947
				c8.53,32.934,38.192,57.375,73.803,57.375h229.5c35.61,0,65.255-24.441,73.804-57.375H535.5c42.247,0,76.5-34.253,76.5-76.5
				v-38.25C612,359.378,577.747,325.125,535.5,325.125z M153,114.75c0-21.114,17.117-38.25,38.25-38.25h229.5
				c21.133,0,38.25,17.117,38.25,38.25v210.375H153V114.75z M420.75,535.5h-229.5c-21.133,0-38.25-17.117-38.25-38.25
				c0-21.114,17.117-38.25,38.25-38.25h229.5c21.133,0,38.25,17.117,38.25,38.25S441.883,535.5,420.75,535.5z M573.75,439.875
				c0,21.133-17.117,38.25-38.25,38.25h-40.946c-8.53-32.934-38.193-57.375-73.804-57.375h-229.5
				c-35.611,0-65.254,24.441-73.803,57.375H76.5c-21.133,0-38.25-17.136-38.25-38.25v-38.25c0-21.133,17.117-38.25,38.25-38.25h459
				c21.133,0,38.25,17.117,38.25,38.25V439.875z"/>
		</g>
	</g>
</g>
<g>
</g>
<g>
</g>
<g>
</g>
<g>
</g>
<g>
</g>
<g>
</g>
<g>
</g>
<g>
</g>
<g>
</g>
<g>
</g>
<g>
</g>
<g>
</g>
<g>
</g>
<g>
</g>
<g>
</g>
</svg>
