<?xml version="1.0" encoding="iso-8859-1"?>
<!-- Generator: Adobe Illustrator 16.0.0, SVG Export Plug-In . SVG Version: 6.00 Build 0)  -->
<!DOCTYPE svg PUBLIC "-//W3C//DTD SVG 1.1//EN" "http://www.w3.org/Graphics/SVG/1.1/DTD/svg11.dtd">
<svg version="1.1" id="Capa_1" xmlns="http://www.w3.org/2000/svg" xmlns:xlink="http://www.w3.org/1999/xlink" x="0px" y="0px"
	 width="612px" height="612px" viewBox="0 0 612 612" style="enable-background:new 0 0 612 612;" xml:space="preserve">
<g>
	<g id="_x32__7_">
		<g>
			<path d="M363.375,516.375c-10.557,0-19.125,8.568-19.125,19.125v57.375c0,10.557,8.568,19.125,19.125,19.125
				s19.125-8.568,19.125-19.125V535.5C382.5,524.943,373.932,516.375,363.375,516.375z M133.875,516.375
				c-10.557,0-19.125,8.568-19.125,19.125v57.375c0,10.557,8.568,19.125,19.125,19.125S153,603.432,153,592.875V535.5
				C153,524.943,144.432,516.375,133.875,516.375z M248.625,516.375c-10.557,0-19.125,8.568-19.125,19.125v57.375
				c0,10.557,8.568,19.125,19.125,19.125s19.125-8.568,19.125-19.125V535.5C267.75,524.943,259.182,516.375,248.625,516.375z
				 M478.125,516.375c-10.557,0-19.125,8.568-19.125,19.125v57.375c0,10.557,8.568,19.125,19.125,19.125s19.125-8.568,19.125-19.125
				V535.5C497.25,524.943,488.682,516.375,478.125,516.375z M441.156,96.18C413.081,39.245,354.635,0,286.875,0
				C196.05,0,121.826,70.399,115.381,159.598C48.616,178.627,0,236.959,0,306c0,81.453,67.703,147.855,153,152.541
				c0,0,264.518,0.459,267.75,0.459C521.099,459,612,377.661,612,277.312C612,180.636,536.418,101.821,441.156,96.18z
				 M420.75,420.75c-2.429,0-267.75,0-267.75,0S37.523,408.893,38.25,306C38.652,247.937,92.029,196.031,153,191.25
				c0-79.216,50.7-153,133.875-153c65.656,0,109.452,40.067,125.039,95.874c94.765-4.131,158.853,70.839,161.836,133.626
				C577.767,352.148,489.619,420.75,420.75,420.75z"/>
		</g>
	</g>
</g>
<g>
</g>
<g>
</g>
<g>
</g>
<g>
</g>
<g>
</g>
<g>
</g>
<g>
</g>
<g>
</g>
<g>
</g>
<g>
</g>
<g>
</g>
<g>
</g>
<g>
</g>
<g>
</g>
<g>
</g>
</svg>
