<?xml version="1.0" encoding="iso-8859-1"?>
<!-- Generator: Adobe Illustrator 16.0.0, SVG Export Plug-In . SVG Version: 6.00 Build 0)  -->
<!DOCTYPE svg PUBLIC "-//W3C//DTD SVG 1.1//EN" "http://www.w3.org/Graphics/SVG/1.1/DTD/svg11.dtd">
<svg version="1.1" id="Capa_1" xmlns="http://www.w3.org/2000/svg" xmlns:xlink="http://www.w3.org/1999/xlink" x="0px" y="0px"
	 width="612px" height="612px" viewBox="0 0 612 612" style="enable-background:new 0 0 612 612;" xml:space="preserve">
<g>
	<g id="_x38__10_">
		<g>
			<path d="M95.625,325.125h234.721l-76.328,63.094c-7.516,7.497-7.516,19.66,0,27.157s19.718,7.497,27.234,0L395.62,320.86
				c4.016-3.997,5.718-9.295,5.45-14.535c0.268-5.24-1.435-10.538-5.45-14.535l-114.368-94.516c-7.516-7.497-19.718-7.497-27.234,0
				s-7.516,19.661,0,27.157l75.601,62.443H95.625c-10.557,0-19.125,8.568-19.125,19.125C76.5,316.557,85.068,325.125,95.625,325.125
				z M535.5,19.125h-459c-42.247,0-76.5,34.253-76.5,76.5v420.75c0,42.247,34.253,76.5,76.5,76.5h459
				c42.247,0,76.5-34.253,76.5-76.5V95.625C612,53.378,577.747,19.125,535.5,19.125z M459,554.625H76.5
				c-21.133,0-38.25-17.136-38.25-38.25V95.625c0-21.133,17.136-38.25,38.25-38.25H459V554.625z M573.75,516.375
				c0,21.114-17.136,38.25-38.25,38.25h-38.25V57.375h38.25c21.114,0,38.25,17.117,38.25,38.25V516.375z"/>
		</g>
	</g>
</g>
<g>
</g>
<g>
</g>
<g>
</g>
<g>
</g>
<g>
</g>
<g>
</g>
<g>
</g>
<g>
</g>
<g>
</g>
<g>
</g>
<g>
</g>
<g>
</g>
<g>
</g>
<g>
</g>
<g>
</g>
</svg>
