<?xml version="1.0" encoding="iso-8859-1"?>
<!-- Generator: Adobe Illustrator 16.0.0, SVG Export Plug-In . SVG Version: 6.00 Build 0)  -->
<!DOCTYPE svg PUBLIC "-//W3C//DTD SVG 1.1//EN" "http://www.w3.org/Graphics/SVG/1.1/DTD/svg11.dtd">
<svg version="1.1" id="Capa_1" xmlns="http://www.w3.org/2000/svg" xmlns:xlink="http://www.w3.org/1999/xlink" x="0px" y="0px"
	 width="634.998px" height="634.998px" viewBox="0 0 634.998 634.998" style="enable-background:new 0 0 634.998 634.998;"
	 xml:space="preserve">
<g>
	<g id="_x32__28_">
		<g>
			<path d="M616.956,254.889L390.572,6.68c-8.975-8.907-23.524-8.907-32.499,0c-5.167,5.122-7.003,12.057-6.232,18.743v133.668
				c-187.947,0-340.335,152.366-340.335,340.335c0,48.205,10.153,94.008,28.238,135.572
				c26.856-141.781,162.133-249.455,311.711-249.455c0,7.75,0.386,133.396,0.386,133.396c-0.793,6.686,1.065,13.598,6.232,18.742
				c0.068,0.068,0.136,0.068,0.204,0.137c4.125,4.283,9.858,6.979,16.272,6.979c7.048,0,13.122-3.422,17.269-8.475l225.138-246.849
				c4.782-4.759,6.821-11.06,6.505-17.292C623.777,265.949,621.738,259.648,616.956,254.889z M397.235,462.463V340.578
				c0,0-53.599-0.385-68.443-0.385c-94.528,0-223.007,73.725-271.914,136.502c0.725-85.238,111.866-267.496,271.914-272.459
				c11.785-0.363,68.443,0.227,68.443,0.227V81.877l173.556,190.304L397.235,462.463z"/>
		</g>
	</g>
</g>
<g>
</g>
<g>
</g>
<g>
</g>
<g>
</g>
<g>
</g>
<g>
</g>
<g>
</g>
<g>
</g>
<g>
</g>
<g>
</g>
<g>
</g>
<g>
</g>
<g>
</g>
<g>
</g>
<g>
</g>
</svg>
