<?xml version="1.0" encoding="iso-8859-1"?>
<!-- Generator: Adobe Illustrator 16.0.0, SVG Export Plug-In . SVG Version: 6.00 Build 0)  -->
<!DOCTYPE svg PUBLIC "-//W3C//DTD SVG 1.1//EN" "http://www.w3.org/Graphics/SVG/1.1/DTD/svg11.dtd">
<svg version="1.1" id="Capa_1" xmlns="http://www.w3.org/2000/svg" xmlns:xlink="http://www.w3.org/1999/xlink" x="0px" y="0px"
	 width="612px" height="612px" viewBox="0 0 612 612" style="enable-background:new 0 0 612 612;" xml:space="preserve">
<g>
	<g id="_x37__13_">
		<g>
			<path d="M592.875,172.125H468.046l38.767-76.5h47.812c10.557,0,19.125-8.568,19.125-19.125s-8.568-19.125-19.125-19.125h-76.5
				l-58.981,114.75H194.463l-60.588-114.75h-76.5c-10.557,0-19.125,8.568-19.125,19.125s8.568,19.125,19.125,19.125h47.812
				l41.042,76.5H19.125C8.568,172.125,0,180.693,0,191.25s8.568,19.125,19.125,19.125H38.25l19.125,267.75
				c0,42.247,34.253,76.5,76.5,76.5H459c42.247,0,76.5-34.253,76.5-76.5l38.25-267.75h19.125c10.557,0,19.125-8.568,19.125-19.125
				S603.432,172.125,592.875,172.125z M191.25,516.375h-57.375c-21.133,0-38.25-17.117-38.25-38.25l-2.735-38.25h98.36V516.375z
				 M191.25,401.625H90.155l-5.47-76.5H191.25V401.625z M191.25,286.875H81.97l-5.47-76.5h114.75V286.875z M382.5,516.375h-153
				v-76.5h153V516.375z M382.5,401.625h-153v-76.5h153V401.625z M382.5,286.875h-153v-76.5h153V286.875z M497.25,478.125
				c0,21.133-17.117,38.25-38.25,38.25h-38.25v-76.5h81.97L497.25,478.125z M508.17,401.625h-87.42v-76.5h98.359L508.17,401.625z
				 M524.58,286.875H420.75v-76.5H535.5L524.58,286.875z"/>
		</g>
	</g>
</g>
<g>
</g>
<g>
</g>
<g>
</g>
<g>
</g>
<g>
</g>
<g>
</g>
<g>
</g>
<g>
</g>
<g>
</g>
<g>
</g>
<g>
</g>
<g>
</g>
<g>
</g>
<g>
</g>
<g>
</g>
</svg>
