<?xml version="1.0" encoding="iso-8859-1"?>
<!-- Generator: Adobe Illustrator 16.0.0, SVG Export Plug-In . SVG Version: 6.00 Build 0)  -->
<!DOCTYPE svg PUBLIC "-//W3C//DTD SVG 1.1//EN" "http://www.w3.org/Graphics/SVG/1.1/DTD/svg11.dtd">
<svg version="1.1" id="Capa_1" xmlns="http://www.w3.org/2000/svg" xmlns:xlink="http://www.w3.org/1999/xlink" x="0px" y="0px"
	 width="612px" height="612px" viewBox="0 0 612 612" style="enable-background:new 0 0 612 612;" xml:space="preserve">
<g>
	<g id="_x34__38_">
		<g>
			<path d="M493.549,306.021c0-69.551-51.566-126.546-118.452-136.2v39.484c45.051,9.141,78.968,48.96,78.968,96.716
				c0,47.756-33.917,87.574-78.968,96.715v39.484C441.982,432.565,493.549,375.571,493.549,306.021z M276.387,69.117L98.709,187.568
				H39.484C17.669,187.568,0,205.237,0,227.052v157.935c0,21.814,17.669,39.484,39.484,39.484h59.226l177.678,118.451
				c21.815,0,39.484-17.688,39.484-39.484V108.601C315.871,86.786,298.202,69.117,276.387,69.117z M98.709,365.245
				c0,10.898-8.844,19.742-19.742,19.742H59.226c-10.897,0-19.742-8.844-19.742-19.742V246.794c0-10.898,8.844-19.742,19.742-19.742
				h19.742c10.897,0,19.742,8.844,19.742,19.742V365.245z M276.387,503.438l-138.194-86.369V194.972l138.194-86.371V503.438z
				 M375.097,29.909v40.55c115.925,22.328,197.419,116.872,197.419,235.542c0,118.016-78.967,209.441-197.419,235.541v40.549
				C508.868,562.526,612,446.997,612,305.98C612,165.003,508.868,49.474,375.097,29.909z"/>
		</g>
	</g>
</g>
<g>
</g>
<g>
</g>
<g>
</g>
<g>
</g>
<g>
</g>
<g>
</g>
<g>
</g>
<g>
</g>
<g>
</g>
<g>
</g>
<g>
</g>
<g>
</g>
<g>
</g>
<g>
</g>
<g>
</g>
</svg>
