<?xml version="1.0" encoding="iso-8859-1"?>
<!-- Generator: Adobe Illustrator 16.0.0, SVG Export Plug-In . SVG Version: 6.00 Build 0)  -->
<!DOCTYPE svg PUBLIC "-//W3C//DTD SVG 1.1//EN" "http://www.w3.org/Graphics/SVG/1.1/DTD/svg11.dtd">
<svg version="1.1" id="Capa_1" xmlns="http://www.w3.org/2000/svg" xmlns:xlink="http://www.w3.org/1999/xlink" x="0px" y="0px"
	 width="612px" height="612px" viewBox="0 0 612 612" style="enable-background:new 0 0 612 612;" xml:space="preserve">
<g>
	<g id="_x33__36_">
		<g>
			<path d="M342.72,12.24L122.4,159.12H48.96C21.91,159.12,0,181.03,0,208.08v195.84c0,27.051,21.91,48.96,48.96,48.96h73.44
				l220.32,146.88c27.051,0,48.96-21.934,48.96-48.96V61.2C391.68,34.174,369.771,12.24,342.72,12.24z M122.4,379.44
				c0,13.513-10.967,24.479-24.48,24.479H73.44c-13.513,0-24.48-10.967-24.48-24.479V232.56c0-13.513,10.967-24.48,24.48-24.48
				h24.48c13.513,0,24.48,10.967,24.48,24.48V379.44z M342.72,550.8L171.36,443.7V168.3L342.72,61.2V550.8z M465.12,137.112v48.96
				c55.863,11.334,97.92,60.71,97.92,119.928c0,59.217-42.057,108.594-97.92,119.928v48.96C548.059,462.917,612,392.243,612,306
				C612,219.732,548.059,149.083,465.12,137.112z"/>
		</g>
	</g>
</g>
<g>
</g>
<g>
</g>
<g>
</g>
<g>
</g>
<g>
</g>
<g>
</g>
<g>
</g>
<g>
</g>
<g>
</g>
<g>
</g>
<g>
</g>
<g>
</g>
<g>
</g>
<g>
</g>
<g>
</g>
</svg>
