<?xml version="1.0" encoding="iso-8859-1"?>
<!-- Generator: Adobe Illustrator 16.0.0, SVG Export Plug-In . SVG Version: 6.00 Build 0)  -->
<!DOCTYPE svg PUBLIC "-//W3C//DTD SVG 1.1//EN" "http://www.w3.org/Graphics/SVG/1.1/DTD/svg11.dtd">
<svg version="1.1" id="Capa_1" xmlns="http://www.w3.org/2000/svg" xmlns:xlink="http://www.w3.org/1999/xlink" x="0px" y="0px"
	 width="792px" height="792px" viewBox="0 0 792 792" style="enable-background:new 0 0 792 792;" xml:space="preserve">
<g>
	<g id="_x31__25_">
		<g>
			<path d="M594,0H198c-54.673,0-99,44.327-99,99v594c0,54.673,44.327,99,99,99h396c54.673,0,99-44.327,99-99V99
				C693,44.327,648.673,0,594,0z M643.5,693c0,27.324-22.151,49.5-49.5,49.5H396H198c-27.349,0-49.5-22.151-49.5-49.5V99
				c0-27.324,22.176-49.5,49.5-49.5h396c27.349,0,49.5,22.176,49.5,49.5V693z M396,99c-68.335,0-123.75,55.415-123.75,123.75
				c0,68.359,55.415,123.75,123.75,123.75s123.75-55.415,123.75-123.75S464.335,99,396,99z M396,297.198
				c-41.11,0-74.448-33.313-74.448-74.448c0-41.11,33.313-74.448,74.448-74.448c41.109,0,74.448,33.338,74.448,74.448
				S437.109,297.198,396,297.198z M569.25,569.25C569.25,473.566,491.684,396,396,396s-173.25,77.566-173.25,173.25
				S300.316,742.5,396,742.5S569.25,664.934,569.25,569.25z M396,693c-68.335,0-123.75-55.415-123.75-123.75
				S327.665,445.5,396,445.5s123.75,55.415,123.75,123.75C519.75,637.609,464.335,693,396,693z"/>
		</g>
	</g>
</g>
<g>
</g>
<g>
</g>
<g>
</g>
<g>
</g>
<g>
</g>
<g>
</g>
<g>
</g>
<g>
</g>
<g>
</g>
<g>
</g>
<g>
</g>
<g>
</g>
<g>
</g>
<g>
</g>
<g>
</g>
</svg>
