<?xml version="1.0" encoding="iso-8859-1"?>
<!-- Generator: Adobe Illustrator 16.0.0, SVG Export Plug-In . SVG Version: 6.00 Build 0)  -->
<!DOCTYPE svg PUBLIC "-//W3C//DTD SVG 1.1//EN" "http://www.w3.org/Graphics/SVG/1.1/DTD/svg11.dtd">
<svg version="1.1" id="Capa_1" xmlns="http://www.w3.org/2000/svg" xmlns:xlink="http://www.w3.org/1999/xlink" x="0px" y="0px"
	 width="792px" height="792px" viewBox="0 0 792 792" style="enable-background:new 0 0 792 792;" xml:space="preserve">
<g>
	<g id="_x32__23_">
		<g>
			<path d="M594,0L297,198h-99c-36.465,0-66,29.535-66,66v264c0,36.465,29.535,66,66,66h99l297,198c36.465,0,66-29.568,66-66V66
				C660,29.568,630.465,0,594,0z M297,495c0,18.216-14.784,33-33,33h-33c-18.216,0-33-14.784-33-33V297c0-18.216,14.784-33,33-33h33
				c18.216,0,33,14.784,33,33V495z M594,726L363,581.625v-371.25L594,66V726z"/>
		</g>
	</g>
</g>
<g>
</g>
<g>
</g>
<g>
</g>
<g>
</g>
<g>
</g>
<g>
</g>
<g>
</g>
<g>
</g>
<g>
</g>
<g>
</g>
<g>
</g>
<g>
</g>
<g>
</g>
<g>
</g>
<g>
</g>
</svg>
