<?xml version="1.0" encoding="iso-8859-1"?>
<!-- Generator: Adobe Illustrator 16.0.0, SVG Export Plug-In . SVG Version: 6.00 Build 0)  -->
<!DOCTYPE svg PUBLIC "-//W3C//DTD SVG 1.1//EN" "http://www.w3.org/Graphics/SVG/1.1/DTD/svg11.dtd">
<svg version="1.1" id="Capa_1" xmlns="http://www.w3.org/2000/svg" xmlns:xlink="http://www.w3.org/1999/xlink" x="0px" y="0px"
	 width="612px" height="612px" viewBox="0 0 612 612" style="enable-background:new 0 0 612 612;" xml:space="preserve">
<g>
	<g id="_x33__16_">
		<g>
			<path d="M420.75,114.75h-229.5C85.623,114.75,0,200.373,0,306c0,105.627,85.623,191.25,191.25,191.25h229.5
				C526.377,497.25,612,411.627,612,306C612,200.373,526.377,114.75,420.75,114.75z M420.75,459h-229.5
				c-84.494,0-153-68.506-153-153s68.506-153,153-153h229.5c84.494,0,153,68.506,153,153S505.244,459,420.75,459z M191.25,191.25
				C127.87,191.25,76.5,242.62,76.5,306c0,63.38,51.37,114.75,114.75,114.75S306,369.38,306,306
				C306,242.62,254.63,191.25,191.25,191.25z M191.25,382.5c-42.247,0-76.5-34.253-76.5-76.5s34.253-76.5,76.5-76.5
				s76.5,34.253,76.5,76.5S233.497,382.5,191.25,382.5z"/>
		</g>
	</g>
</g>
<g>
</g>
<g>
</g>
<g>
</g>
<g>
</g>
<g>
</g>
<g>
</g>
<g>
</g>
<g>
</g>
<g>
</g>
<g>
</g>
<g>
</g>
<g>
</g>
<g>
</g>
<g>
</g>
<g>
</g>
</svg>
