<?xml version="1.0" encoding="iso-8859-1"?>
<!-- Generator: Adobe Illustrator 16.0.0, SVG Export Plug-In . SVG Version: 6.00 Build 0)  -->
<!DOCTYPE svg PUBLIC "-//W3C//DTD SVG 1.1//EN" "http://www.w3.org/Graphics/SVG/1.1/DTD/svg11.dtd">
<svg version="1.1" id="Capa_1" xmlns="http://www.w3.org/2000/svg" xmlns:xlink="http://www.w3.org/1999/xlink" x="0px" y="0px"
	 width="792.006px" height="792.006px" viewBox="0 0 792.006 792.006" style="enable-background:new 0 0 792.006 792.006;"
	 xml:space="preserve">
<g>
	<g id="_x35__18_">
		<g>
			<path d="M651.758,245.335L426.84,13.713c-17.738-18.284-46.512-18.284-64.25,0L137.671,245.335
				c-12.742,13.112-12.395,22.39-12.024,39.981h-0.347v405.352c0,55.963,44.063,101.338,98.394,101.338h344.415
				c54.355,0,98.395-45.375,98.395-101.338V310.651C666.529,281.284,669.498,263.594,651.758,245.335z M620.115,693.043
				c0,27.981-22.316,49.481-49.48,49.481H224.264c-27.165,0-49.753-23.875-49.753-51.856l0.272-393.477
				c0-16.255,2.227-26.176,11.084-35.305l192.78-198.544c8.882-9.129,23.256-9.129,32.137,0l192.781,198.52
				c8.881,9.154,16.551,17.467,16.551,35.33V693.043z M395.915,209.313c-54.355,0-98.394,45.375-98.394,101.338
				s44.063,101.338,98.394,101.338c54.354,0,98.394-45.375,98.394-101.338C494.309,254.663,450.27,209.313,395.915,209.313z
				 M395.915,361.32c-27.166,0-49.209-22.687-49.209-50.669s22.019-50.669,49.209-50.669c27.165,0,49.21,22.687,49.21,50.669
				S423.08,361.32,395.915,361.32z"/>
		</g>
	</g>
</g>
<g>
</g>
<g>
</g>
<g>
</g>
<g>
</g>
<g>
</g>
<g>
</g>
<g>
</g>
<g>
</g>
<g>
</g>
<g>
</g>
<g>
</g>
<g>
</g>
<g>
</g>
<g>
</g>
<g>
</g>
</svg>
