<?xml version="1.0" encoding="iso-8859-1"?>
<!-- Generator: Adobe Illustrator 16.0.0, SVG Export Plug-In . SVG Version: 6.00 Build 0)  -->
<!DOCTYPE svg PUBLIC "-//W3C//DTD SVG 1.1//EN" "http://www.w3.org/Graphics/SVG/1.1/DTD/svg11.dtd">
<svg version="1.1" id="Capa_1" xmlns="http://www.w3.org/2000/svg" xmlns:xlink="http://www.w3.org/1999/xlink" x="0px" y="0px"
	 width="638.922px" height="638.922px" viewBox="0 0 638.922 638.922" style="enable-background:new 0 0 638.922 638.922;"
	 xml:space="preserve">
<g>
	<g id="_x34__6_">
		<g>
			<path d="M75.829,319.46L349.65,45.719c10.46-10.46,10.46-27.414,0-37.874c-10.459-10.46-27.44-10.46-37.9,0L21.001,298.487
				c-5.749,5.749-8.038,13.441-7.452,20.973c-0.586,7.533,1.703,15.198,7.452,20.973l290.723,290.644
				c10.46,10.46,27.44,10.46,37.9,0s10.46-27.414,0-37.901L75.829,319.46z M397.399,319.46L617.617,99.323
				c10.46-10.46,10.46-27.415,0-37.901c-10.46-10.46-27.44-10.46-37.9,0L342.571,298.487c-5.749,5.749-8.038,13.441-7.452,20.973
				c-0.586,7.533,1.703,15.198,7.452,20.973L579.717,577.5c10.46,10.459,27.44,10.459,37.9,0c10.46-10.46,10.46-27.415,0-37.875
				L397.399,319.46z"/>
		</g>
	</g>
</g>
<g>
</g>
<g>
</g>
<g>
</g>
<g>
</g>
<g>
</g>
<g>
</g>
<g>
</g>
<g>
</g>
<g>
</g>
<g>
</g>
<g>
</g>
<g>
</g>
<g>
</g>
<g>
</g>
<g>
</g>
</svg>
