<?xml version="1.0" encoding="iso-8859-1"?>
<!-- Generator: Adobe Illustrator 16.0.0, SVG Export Plug-In . SVG Version: 6.00 Build 0)  -->
<!DOCTYPE svg PUBLIC "-//W3C//DTD SVG 1.1//EN" "http://www.w3.org/Graphics/SVG/1.1/DTD/svg11.dtd">
<svg version="1.1" id="Capa_1" xmlns="http://www.w3.org/2000/svg" xmlns:xlink="http://www.w3.org/1999/xlink" x="0px" y="0px"
	 width="612px" height="612px" viewBox="0 0 612 612" style="enable-background:new 0 0 612 612;" xml:space="preserve">
<g>
	<g id="_x33__34_">
		<g>
			<path d="M320.841,159.005c-3.997-4.016-9.313-5.718-14.534-5.451c-5.241-0.268-10.539,1.435-14.536,5.451l-94.516,114.387
				c-7.497,7.516-7.497,19.718,0,27.234c7.497,7.516,19.66,7.516,27.157,0l62.462-75.62v291.369
				c0,10.557,8.568,19.125,19.125,19.125c10.557,0,19.125-8.568,19.125-19.125V224.279l63.094,76.347
				c7.497,7.516,19.66,7.516,27.157,0c7.497-7.516,7.497-19.718,0-27.234L320.841,159.005z M478.125,76.5h-344.25
				c-10.557,0-19.125,8.568-19.125,19.125s8.568,19.125,19.125,19.125h344.25c10.557,0,19.125-8.568,19.125-19.125
				S488.682,76.5,478.125,76.5z M535.5,0h-459C34.253,0,0,34.253,0,76.5v459C0,577.747,34.253,612,76.5,612h459
				c42.247,0,76.5-34.253,76.5-76.5v-459C612,34.253,577.747,0,535.5,0z M573.75,535.5c0,21.114-17.117,38.25-38.25,38.25h-459
				c-21.133,0-38.25-17.117-38.25-38.25v-459c0-21.114,17.136-38.25,38.25-38.25h459c21.133,0,38.25,17.136,38.25,38.25V535.5z"/>
		</g>
	</g>
</g>
<g>
</g>
<g>
</g>
<g>
</g>
<g>
</g>
<g>
</g>
<g>
</g>
<g>
</g>
<g>
</g>
<g>
</g>
<g>
</g>
<g>
</g>
<g>
</g>
<g>
</g>
<g>
</g>
<g>
</g>
</svg>
