<?xml version="1.0" encoding="iso-8859-1"?>
<!-- Generator: Adobe Illustrator 16.0.0, SVG Export Plug-In . SVG Version: 6.00 Build 0)  -->
<!DOCTYPE svg PUBLIC "-//W3C//DTD SVG 1.1//EN" "http://www.w3.org/Graphics/SVG/1.1/DTD/svg11.dtd">
<svg version="1.1" id="Capa_1" xmlns="http://www.w3.org/2000/svg" xmlns:xlink="http://www.w3.org/1999/xlink" x="0px" y="0px"
	 width="612px" height="612px" viewBox="0 0 612 612" style="enable-background:new 0 0 612 612;" xml:space="preserve">
<g>
	<g id="_x35__35_">
		<g>
			<path d="M568.286,524.571c0,23.759-19.978,43.715-43.715,43.715l-438.585,0.721c-23.759,0-42.993-19.256-42.993-42.993
				l0.721-438.585c0-23.759,19.978-43.714,43.714-43.714h240.429V0H87.429C39.933,0,0,48.545,0,96.019v429.974
				C0,573.51,38.49,612,85.986,612H515.96c47.495,0,96.04-39.933,96.04-87.429V284.143h-43.714V524.571z M589.662,0h-152.52
				c-12.393,0.022-21.835,10.032-21.856,21.857c-0.022,11.825,9.464,21.879,21.856,21.857l96.041-0.7L203.424,357.539
				c-8.721,8.328-8.721,21.813,0,30.119c8.721,8.328,22.863,8.328,31.583,0L567.63,70.424l0.656,104.434
				c-0.022,11.824,9.464,21.879,21.856,21.857c12.394-0.022,21.836-10.033,21.857-21.857V21.311
				C612.021,9.486,602.055-0.022,589.662,0z"/>
		</g>
	</g>
</g>
<g>
</g>
<g>
</g>
<g>
</g>
<g>
</g>
<g>
</g>
<g>
</g>
<g>
</g>
<g>
</g>
<g>
</g>
<g>
</g>
<g>
</g>
<g>
</g>
<g>
</g>
<g>
</g>
<g>
</g>
</svg>
