<?xml version="1.0" encoding="iso-8859-1"?>
<!-- Generator: Adobe Illustrator 16.0.0, SVG Export Plug-In . SVG Version: 6.00 Build 0)  -->
<!DOCTYPE svg PUBLIC "-//W3C//DTD SVG 1.1//EN" "http://www.w3.org/Graphics/SVG/1.1/DTD/svg11.dtd">
<svg version="1.1" id="Capa_1" xmlns="http://www.w3.org/2000/svg" xmlns:xlink="http://www.w3.org/1999/xlink" x="0px" y="0px"
	 width="612px" height="612px" viewBox="0 0 612 612" style="enable-background:new 0 0 612 612;" xml:space="preserve">
<g>
	<g id="_x37__17_">
		<g>
			<path d="M343.312,312.732c24.48-33.029,39.188-75.353,39.188-121.482C382.5,85.623,305.445,0,210.375,0
				S38.25,85.623,38.25,191.25c0,46.129,14.707,88.453,39.187,121.482C32.493,328.28,0,370.509,0,420.75v76.5
				C0,560.63,51.37,612,114.75,612H306c63.38,0,114.75-51.37,114.75-114.75v-76.5C420.75,370.509,388.257,328.28,343.312,312.732z
				 M76.5,191.25c0-84.494,59.938-153,133.875-153s133.875,68.506,133.875,153s-59.938,153-133.875,153S76.5,275.744,76.5,191.25z
				 M382.5,487.688c0,47.525-42.037,86.062-93.885,86.062h-156.48c-51.848,0-93.885-38.537-93.885-86.062v-57.375
				c0-40.66,30.849-74.53,72.216-83.538c28.19,22.415,62.615,35.726,99.909,35.726s71.719-13.311,99.909-35.726
				c41.367,9.008,72.216,42.878,72.216,83.538V487.688z M439.875,153h153c10.557,0,19.125-8.568,19.125-19.125
				s-8.568-19.125-19.125-19.125h-153c-10.557,0-19.125,8.568-19.125,19.125S429.318,153,439.875,153z M592.875,229.5h-153
				c-10.557,0-19.125,8.568-19.125,19.125s8.568,19.125,19.125,19.125h153c10.557,0,19.125-8.568,19.125-19.125
				S603.432,229.5,592.875,229.5z M592.875,344.25h-114.75c-10.557,0-19.125,8.568-19.125,19.125s8.568,19.125,19.125,19.125h114.75
				c10.557,0,19.125-8.568,19.125-19.125S603.432,344.25,592.875,344.25z M592.875,459h-114.75C467.568,459,459,467.568,459,478.125
				s8.568,19.125,19.125,19.125h114.75c10.557,0,19.125-8.568,19.125-19.125S603.432,459,592.875,459z"/>
		</g>
	</g>
</g>
<g>
</g>
<g>
</g>
<g>
</g>
<g>
</g>
<g>
</g>
<g>
</g>
<g>
</g>
<g>
</g>
<g>
</g>
<g>
</g>
<g>
</g>
<g>
</g>
<g>
</g>
<g>
</g>
<g>
</g>
</svg>
