<?xml version="1.0" encoding="iso-8859-1"?>
<!-- Generator: Adobe Illustrator 16.0.0, SVG Export Plug-In . SVG Version: 6.00 Build 0)  -->
<!DOCTYPE svg PUBLIC "-//W3C//DTD SVG 1.1//EN" "http://www.w3.org/Graphics/SVG/1.1/DTD/svg11.dtd">
<svg version="1.1" id="Capa_1" xmlns="http://www.w3.org/2000/svg" xmlns:xlink="http://www.w3.org/1999/xlink" x="0px" y="0px"
	 width="655.736px" height="655.736px" viewBox="0 0 655.736 655.736" style="enable-background:new 0 0 655.736 655.736;"
	 xml:space="preserve">
<g>
	<g id="_x34__35_">
		<g>
			<path d="M593.068,166.135v-142.8c0-11.261-4.814-17.544-15.3-21.665c-8.079-3.183-15.933-1.286-25.5,1.265l-530.4,163.2v448.8
				c0,22.521,18.258,40.801,40.8,40.801h530.4c22.542,0,40.8-18.279,40.8-40.801v-408
				C633.868,184.414,615.61,166.135,593.068,166.135z M552.269,43.735v122.4h-397.8L552.269,43.735z M593.068,431.336
				c0,11.26,0,6.365,0,20.4h-81.601c0-13.199,0-9.141,0-20.4v-20.4h81.601C593.068,426.236,593.068,420.074,593.068,431.336z
				 M593.068,370.135h-102c-11.261,0-20.4,9.141-20.4,20.4v81.6c0,11.262,9.14,20.4,20.4,20.4h102v102c0,11.262-9.14,20.4-20.4,20.4
				h-489.6c-11.261,0-20.4-9.139-20.4-20.4c0,0,0-373.564,0-387.6h510c11.261,0,20.4,9.119,20.4,20.4V370.135z"/>
		</g>
	</g>
</g>
<g>
</g>
<g>
</g>
<g>
</g>
<g>
</g>
<g>
</g>
<g>
</g>
<g>
</g>
<g>
</g>
<g>
</g>
<g>
</g>
<g>
</g>
<g>
</g>
<g>
</g>
<g>
</g>
<g>
</g>
</svg>
