<?xml version="1.0" encoding="iso-8859-1"?>
<!-- Generator: Adobe Illustrator 16.0.0, SVG Export Plug-In . SVG Version: 6.00 Build 0)  -->
<!DOCTYPE svg PUBLIC "-//W3C//DTD SVG 1.1//EN" "http://www.w3.org/Graphics/SVG/1.1/DTD/svg11.dtd">
<svg version="1.1" id="Capa_1" xmlns="http://www.w3.org/2000/svg" xmlns:xlink="http://www.w3.org/1999/xlink" x="0px" y="0px"
	 width="612px" height="612px" viewBox="0 0 612 612" style="enable-background:new 0 0 612 612;" xml:space="preserve">
<g>
	<g id="_x34__10_">
		<g>
			<path d="M95.625,76.5C85.068,76.5,76.5,85.068,76.5,95.625s8.568,19.125,19.125,19.125s19.125-8.568,19.125-19.125
				S106.182,76.5,95.625,76.5z M248.625,76.5c-10.557,0-19.125,8.568-19.125,19.125s8.568,19.125,19.125,19.125
				s19.125-8.568,19.125-19.125S259.182,76.5,248.625,76.5z M172.125,76.5C161.568,76.5,153,85.068,153,95.625
				s8.568,19.125,19.125,19.125s19.125-8.568,19.125-19.125S182.682,76.5,172.125,76.5z M535.5,0h-459C34.253,0,0,34.253,0,76.5v459
				C0,577.747,34.253,612,76.5,612h459c42.247,0,76.5-34.253,76.5-76.5v-459C612,34.253,577.747,0,535.5,0z M573.75,535.5
				c0,21.114-17.117,38.25-38.25,38.25h-459c-21.133,0-38.25-17.117-38.25-38.25V191.25h535.5V535.5z M573.75,153H38.25V76.5
				c0-21.133,17.117-38.25,38.25-38.25h459c21.133,0,38.25,17.117,38.25,38.25V153z"/>
		</g>
	</g>
</g>
<g>
</g>
<g>
</g>
<g>
</g>
<g>
</g>
<g>
</g>
<g>
</g>
<g>
</g>
<g>
</g>
<g>
</g>
<g>
</g>
<g>
</g>
<g>
</g>
<g>
</g>
<g>
</g>
<g>
</g>
</svg>
