<?xml version="1.0" encoding="iso-8859-1"?>
<!-- Generator: Adobe Illustrator 16.0.0, SVG Export Plug-In . SVG Version: 6.00 Build 0)  -->
<!DOCTYPE svg PUBLIC "-//W3C//DTD SVG 1.1//EN" "http://www.w3.org/Graphics/SVG/1.1/DTD/svg11.dtd">
<svg version="1.1" id="Capa_1" xmlns="http://www.w3.org/2000/svg" xmlns:xlink="http://www.w3.org/1999/xlink" x="0px" y="0px"
	 width="612px" height="612px" viewBox="0 0 612 612" style="enable-background:new 0 0 612 612;" xml:space="preserve">
<g>
	<g id="_x38__13_">
		<g>
			<path d="M20.4,0C9.139,0,0,9.139,0,20.4v571.2C0,602.86,9.139,612,20.4,612s20.4-9.14,20.4-20.4V20.4C40.8,9.139,31.661,0,20.4,0
				z M571.2,40.8L122.4,0C99.858,0,81.6,18.278,81.6,40.8v224.4c0,22.521,18.258,40.8,40.8,40.8l448.8-40.8
				c22.542,0,40.8-18.258,40.8-40.8V81.6C612,59.058,593.742,40.8,571.2,40.8z M285.6,250.92L142.8,265.2
				c-19.074,0-20.4-3.876-20.4-20.4V61.2c0-16.524,1.326-20.4,20.4-20.4l142.8,14.28V250.92z M448.8,234.6L326.4,246.84V59.16
				L448.8,71.4V234.6z M571.2,205.367c0,16.524-1.326,19.033-20.4,19.033l-61.2,6.12V75.48l61.2,6.12
				c19.074,0,20.4,2.509,20.4,19.033V205.367z"/>
		</g>
	</g>
</g>
<g>
</g>
<g>
</g>
<g>
</g>
<g>
</g>
<g>
</g>
<g>
</g>
<g>
</g>
<g>
</g>
<g>
</g>
<g>
</g>
<g>
</g>
<g>
</g>
<g>
</g>
<g>
</g>
<g>
</g>
</svg>
